<?xml version="1.0"?>
<svg xmlns="http://www.w3.org/2000/svg" xmlns:xlink="http://www.w3.org/1999/xlink" xmlns:svgjs="http://svgjs.com/svgjs" version="1.1" width="512" height="512" x="0" y="0" viewBox="0 0 64 64" style="enable-background:new 0 0 512 512" xml:space="preserve" class=""><g><g id="two_separate_beds" data-name="two separate beds"><path d="M20,41h1a1,1,0,0,0,0-2H20a1,1,0,0,0,0,2Z" fill="#a3159d" data-original="#000000"/><path d="M30,26.78V17a5,5,0,0,0-5-5H8a5,5,0,0,0-5,5v9.18A3,3,0,0,0,1,29V49a3,3,0,0,0,3,3H6a3,3,0,0,0,3-3V46H23v3a3,3,0,0,0,3,3h2a3,3,0,0,0,3-3V29A3,3,0,0,0,30,26.78ZM5,17a3,3,0,0,1,3-3H25a3,3,0,0,1,3,3v9H24V22a3,3,0,0,0-3-3H12a3,3,0,0,0-3,3v4H5Zm17,9H11V22a1,1,0,0,1,1-1h9a1,1,0,0,1,1,1ZM3,29a1,1,0,0,1,1-1H28a1,1,0,0,1,1,1V39H25a1,1,0,0,0,0,2h4v3H3V41H16a1,1,0,0,0,0-2H3ZM7,49a1,1,0,0,1-1,1H4a1,1,0,0,1-1-1V46H7Zm22,0a1,1,0,0,1-1,1H26a1,1,0,0,1-1-1V46h4Z" fill="#a3159d" data-original="#000000"/><path d="M33,29V49a3,3,0,0,0,3,3h2a3,3,0,0,0,3-3V46H55v3a3,3,0,0,0,3,3h2a3,3,0,0,0,3-3V29a3,3,0,0,0-2-2.82V17a5,5,0,0,0-5-5H39a5,5,0,0,0-5,5v9.78A3,3,0,0,0,33,29Zm7,15H35V41H61v3H40ZM59,26H55V22a3,3,0,0,0-3-3H43a3,3,0,0,0-3,3v4H36V17a3,3,0,0,1,3-3H56a3,3,0,0,1,3,3ZM42,22a1,1,0,0,1,1-1h9a1,1,0,0,1,1,1v4H42ZM61,39H35V29a1,1,0,0,1,1-1H60a1,1,0,0,1,1,1Zm-4,7h4v3a1,1,0,0,1-1,1H58a1,1,0,0,1-1-1ZM35,46h4v3a1,1,0,0,1-1,1H36a1,1,0,0,1-1-1Z" fill="#a3159d" data-original="#000000"/></g></g></svg>
