<svg xmlns="http://www.w3.org/2000/svg" xmlns:xlink="http://www.w3.org/1999/xlink" width="342" height="342" viewBox="0 0 342 342">
  <defs>
    <filter id="Rectangle_1" x="0" y="0" width="342" height="342" filterUnits="userSpaceOnUse">
      <feOffset dy="3" input="SourceAlpha"/>
      <feGaussianBlur stdDeviation="3" result="blur"/>
      <feFlood flood-opacity="0.161"/>
      <feComposite operator="in" in2="blur"/>
      <feComposite in="SourceGraphic"/>
    </filter>
    <linearGradient id="linear-gradient" x1="0.5" y1="0.563" x2="0.5" y2="2.818" gradientUnits="objectBoundingBox">
      <stop offset="0" stop-color="#fbbf11"/>
      <stop offset="1" stop-color="#a3159d"/>
    </linearGradient>
    <linearGradient id="linear-gradient-2" x1="0.5" y1="0.972" x2="0.5" y2="2.547" xlink:href="#linear-gradient"/>
    <linearGradient id="linear-gradient-3" x1="0.5" y1="0.273" x2="0.5" y2="1.041" xlink:href="#linear-gradient"/>
    <linearGradient id="linear-gradient-4" x1="0.5" y1="0.099" x2="0.5" y2="0.855" xlink:href="#linear-gradient"/>
    <linearGradient id="linear-gradient-5" x1="0.5" y1="-6.375" x2="0.5" y2="-1.362" xlink:href="#linear-gradient"/>
    <linearGradient id="linear-gradient-6" x1="0.5" y1="-0.688" x2="0.5" y2="2.113" xlink:href="#linear-gradient"/>
    <linearGradient id="linear-gradient-7" x1="0.5" y1="-8.82" x2="0.5" y2="-2.638" xlink:href="#linear-gradient"/>
    <linearGradient id="linear-gradient-8" x1="0.5" y1="-4.088" x2="0.5" y2="-0.147" xlink:href="#linear-gradient"/>
    <linearGradient id="linear-gradient-9" x1="0.5" y1="-21.842" x2="0.5" y2="4.557" xlink:href="#linear-gradient"/>
  </defs>
  <g id="Group_462" data-name="Group 462" transform="translate(-545 -351)">
    <g id="Group_458" data-name="Group 458">
      <g id="Group_454" data-name="Group 454">
        <g id="Group_452" data-name="Group 452">
          <g transform="matrix(1, 0, 0, 1, 545, 351)" filter="url(#Rectangle_1)">
            <g id="Rectangle_1-2" data-name="Rectangle 1" transform="translate(9 6)" fill="#fff" stroke="#a3159d" stroke-width="2">
              <rect width="324" height="324" rx="8" stroke="none"/>
              <rect x="1" y="1" width="322" height="322" rx="7" fill="none"/>
            </g>
          </g>
          <g id="Group_451" data-name="Group 451" transform="translate(610.416 418.373)" opacity="0.07">
            <path id="Path_442" data-name="Path 442" d="M53.46,35.743l-9.417,15.28,15.672-8.1L68.608,52.99l-.24-14.269S79.911,32.2,80.255,32.214,68.244,29.18,68.244,29.18l-.5-13.693L59.659,27.194,44.527,24.008Z" transform="translate(115.023 23.264)" fill="url(#linear-gradient)"/>
            <path id="Path_443" data-name="Path 443" d="M40.853,61.4l18.974-15.75L73.68,55.4l-4.227-18L83.819,25.082l-16.163-.107L64.076,7.724,54.907,26.154,32.52,26.8,49.888,39.654Z" transform="translate(80.49 0)" fill="url(#linear-gradient-2)"/>
            <path id="Path_444" data-name="Path 444" d="M89.772,29.206q6.523.324,18.162,1.231,5.174.384,7.566-1.555t2.394-6.207a6.117,6.117,0,0,0-2.006-4.524,11.665,11.665,0,0,0-6.011-2.714,125.977,125.977,0,0,0-14.8-1.683q-8.471-.516-22.69-.516-23.022,0-37.69,3.1T12.836,26.1q-7.17,6.661-7.174,17.646A23.991,23.991,0,0,0,7.345,53a16.068,16.068,0,0,0,4.265,6.275,5.184,5.184,0,0,0,3.621,1.291,10.046,10.046,0,0,0,6.011-2.134q2.914-2.134,2.91-4.588a3.861,3.861,0,0,0-.516-1.942,15.234,15.234,0,0,1-2.586-8.4,10.584,10.584,0,0,1,3.038-7.822q3.04-3.04,10.28-4.72a106.961,106.961,0,0,1,19.912-2.07c-.432,2.07-.823,3.945-1.163,5.628s-.651,3.166-.907,4.46Q50.4,47.634,48.588,57.328T45.359,76.853q-.779,5.815-2.2,13.705-1.295,7.89-2.266,15.064a88.364,88.364,0,0,0-.967,10.276,6.915,6.915,0,0,0,2.326,5.432,9.6,9.6,0,0,0,6.595,2.07,11.568,11.568,0,0,0,6.851-2.006,7.264,7.264,0,0,0,3.106-5.751q.516-7.11,2.066-18.685t2.974-20.364q4.011-24.047,8.8-47.838Q83.235,28.887,89.772,29.206Z" transform="translate(0 16.527)" fill="url(#linear-gradient-3)"/>
            <path id="Path_445" data-name="Path 445" d="M114.151,103.069Q121.909,88.525,121.909,69q0-15-6.207-25.6A39.923,39.923,0,0,0,97.987,27.3Q86.476,21.809,70.7,21.8a90.832,90.832,0,0,0-23.142,3.17,67.374,67.374,0,0,0-20.948,9.245A10.334,10.334,0,0,0,23.126,37.9a11.064,11.064,0,0,0-1.035,5.1A7.872,7.872,0,0,0,23.386,47.6a4.019,4.019,0,0,0,3.489,1.875A6.253,6.253,0,0,0,30.5,48.312,75.107,75.107,0,0,1,48.79,39.779a67.188,67.188,0,0,1,20.492-3.233q16.031,0,24.829,8.405T102.9,68.74q0,22.884-11.183,36.591T57.9,119.037q-4.91,0-8.789-.388A331.876,331.876,0,0,1,53.9,85.483a242.265,242.265,0,0,1,6.723-27.734,13.3,13.3,0,0,0,.775-4.137q0-4.395-7.886-4.4A16.6,16.6,0,0,0,46.4,50.51a6.722,6.722,0,0,0-3.621,4.524Q37.995,72.493,34.633,91.3a309.11,309.11,0,0,0-4.269,31.615q-.258,4.652,1.683,6.723t7.11,2.714A125.872,125.872,0,0,0,56.1,133.649q20.558,0,35.428-8.018A54.162,54.162,0,0,0,114.151,103.069Z" transform="translate(49.235 42.198)" fill="url(#linear-gradient-4)"/>
            <circle id="Ellipse_78" data-name="Ellipse 78" cx="8.434" cy="8.434" r="8.434" transform="translate(144.849 167.411)" fill="url(#linear-gradient-5)"/>
            <circle id="Ellipse_79" data-name="Ellipse 79" cx="15.093" cy="15.093" r="15.093" transform="translate(175.32 80.647)" fill="url(#linear-gradient-6)"/>
            <circle id="Ellipse_80" data-name="Ellipse 80" cx="6.838" cy="6.838" r="6.838" transform="translate(114.397 180.504)" fill="url(#linear-gradient-7)"/>
            <path id="Path_446" data-name="Path 446" d="M55.779,42.717A10.726,10.726,0,1,0,66.5,53.441,10.722,10.722,0,0,0,55.779,42.717Z" transform="translate(118.055 104.868)" fill="url(#linear-gradient-8)"/>
            <circle id="Ellipse_81" data-name="Ellipse 81" cx="12.549" cy="12.549" r="12.549" transform="translate(176.598 116.668)" fill="url(#linear-gradient-9)"/>
          </g>
        </g>
      </g>
    </g>
    <g id="Group_449" data-name="Group 449" transform="translate(613 480)">
      <path id="Path_438" data-name="Path 438" d="M200.015,193.129c-11.57-8.116-27.929-9.819-39.616-9.819h-2.561L117.111,164.3a38.812,38.812,0,0,0-16.312-3.619H64.848a25.524,25.524,0,0,0-10.1,2.073l-37.323,16a16.261,16.261,0,0,1-6.448,1.325H8.49A9.5,9.5,0,0,0-1,189.566v20.528a9.5,9.5,0,0,0,7.677,9.313l11.967,2.328a19.175,19.175,0,0,0,35.6,6.407H156.664a19.166,19.166,0,0,0,33.327,0h5.962a9.5,9.5,0,0,0,9.488-9.488v-15.1A12.753,12.753,0,0,0,200.015,193.129Zm-85.461-23.343,28.983,13.524H100.38l-14.21-16.577H100.8A32.731,32.731,0,0,1,114.554,169.786Zm-36.348-3.053,14.21,16.577H87.289a6.663,6.663,0,0,1-5.067-2.331L70.011,166.733ZM56.449,222.095a19.146,19.146,0,0,0-.069-7.274,3.024,3.024,0,1,0-5.927,1.2,13.138,13.138,0,1,1-12.874-10.507,13.039,13.039,0,0,1,5.27,1.1,3.024,3.024,0,0,0,2.429-5.539,19.191,19.191,0,0,0-26.632,14.5l-10.812-2.1a3.447,3.447,0,0,1-2.785-3.377V199.054H8.49a3.024,3.024,0,1,0,0-6.048H5.05v-3.44a3.443,3.443,0,0,1,3.44-3.44h2.484a22.318,22.318,0,0,0,8.831-1.812l37.321-16a19.521,19.521,0,0,1,5.076-1.4l15.429,18a12.7,12.7,0,0,0,9.658,4.443H160.4c8.081,0,22.5.947,33.184,6.88h-.861a3.024,3.024,0,1,0,0,6.048h6.547a6.7,6.7,0,0,1,.124,1.273v5.609h-9.4a19.167,19.167,0,0,0-33.327,0H150.7a3.024,3.024,0,0,0,0,6.048h3.753a18.955,18.955,0,0,0,0,6.88Zm116.879,9.7a13.136,13.136,0,1,1,13.137-13.136A13.151,13.151,0,0,1,173.328,231.79Zm22.625-9.7H192.2a18.932,18.932,0,0,0,0-6.88h7.195v3.44A3.444,3.444,0,0,1,195.953,222.095Z" transform="translate(0.998 -160.685)" fill="#a3159d"/>
      <path id="Path_439" data-name="Path 439" d="M237.911,261.618H197.405l-6.849-9.134a9.537,9.537,0,0,0-7.591-3.8H170.037a3.025,3.025,0,0,0-2.42,4.839l7.757,10.343a9.532,9.532,0,0,0,7.59,3.8h54.947a3.024,3.024,0,0,0,0-6.048Zm-54.947,0a3.456,3.456,0,0,1-2.752-1.376l-4.128-5.5h6.88a3.461,3.461,0,0,1,2.753,1.376l4.128,5.5Z" transform="translate(-99.138 -213.136)" fill="#a3159d"/>
      <path id="Path_440" data-name="Path 440" d="M85.262,288.693a6.256,6.256,0,1,0,6.256,6.256A6.263,6.263,0,0,0,85.262,288.693Z" transform="translate(-46.685 -236.979)" fill="#a3159d"/>
      <path id="Path_441" data-name="Path 441" d="M421.284,288.693a6.256,6.256,0,1,0,6.256,6.256A6.263,6.263,0,0,0,421.284,288.693Z" transform="translate(-246.958 -236.979)" fill="#a3159d"/>
    </g>
  </g>
</svg>
