<svg xmlns="http://www.w3.org/2000/svg" xmlns:xlink="http://www.w3.org/1999/xlink" width="342" height="342" viewBox="0 0 342 342">
  <defs>
    <filter id="Rectangle_1" x="0" y="0" width="342" height="342" filterUnits="userSpaceOnUse">
      <feOffset dy="3" input="SourceAlpha"/>
      <feGaussianBlur stdDeviation="3" result="blur"/>
      <feFlood flood-opacity="0.161"/>
      <feComposite operator="in" in2="blur"/>
      <feComposite in="SourceGraphic"/>
    </filter>
    <linearGradient id="linear-gradient" x1="0.5" y1="0.563" x2="0.5" y2="2.818" gradientUnits="objectBoundingBox">
      <stop offset="0" stop-color="#fbbf11"/>
      <stop offset="1" stop-color="#a3159d"/>
    </linearGradient>
    <linearGradient id="linear-gradient-2" y1="0.972" y2="2.547" xlink:href="#linear-gradient"/>
    <linearGradient id="linear-gradient-3" y1="0.273" y2="1.041" xlink:href="#linear-gradient"/>
    <linearGradient id="linear-gradient-4" y1="0.099" y2="0.855" xlink:href="#linear-gradient"/>
    <linearGradient id="linear-gradient-5" y1="-6.375" y2="-1.362" xlink:href="#linear-gradient"/>
    <linearGradient id="linear-gradient-6" y1="-0.688" y2="2.113" xlink:href="#linear-gradient"/>
    <linearGradient id="linear-gradient-7" y1="-8.82" y2="-2.638" xlink:href="#linear-gradient"/>
    <linearGradient id="linear-gradient-8" y1="-4.088" y2="-0.147" xlink:href="#linear-gradient"/>
    <linearGradient id="linear-gradient-9" y1="-21.842" y2="4.557" xlink:href="#linear-gradient"/>
  </defs>
  <g id="Group_465" data-name="Group 465" transform="translate(-545 -351)">
    <g id="Group_462" data-name="Group 462">
      <g id="Group_458" data-name="Group 458">
        <g id="Group_454" data-name="Group 454">
          <g id="Group_452" data-name="Group 452">
            <g transform="matrix(1, 0, 0, 1, 545, 351)" filter="url(#Rectangle_1)">
              <g id="Rectangle_1-2" data-name="Rectangle 1" transform="translate(9 6)" fill="#fff" stroke="#a3159d" stroke-width="2">
                <rect width="324" height="324" rx="8" stroke="none"/>
                <rect x="1" y="1" width="322" height="322" rx="7" fill="none"/>
              </g>
            </g>
            <g id="Group_451" data-name="Group 451" transform="translate(610.416 418.373)" opacity="0.07">
              <path id="Path_442" data-name="Path 442" d="M53.46,35.743l-9.417,15.28,15.672-8.1L68.608,52.99l-.24-14.269S79.911,32.2,80.255,32.214,68.244,29.18,68.244,29.18l-.5-13.693L59.659,27.194,44.527,24.008Z" transform="translate(115.023 23.264)" fill="url(#linear-gradient)"/>
              <path id="Path_443" data-name="Path 443" d="M40.853,61.4,59.827,45.65,73.68,55.4l-4.227-18L83.819,25.082l-16.163-.107L64.076,7.724l-9.169,18.43L32.52,26.8,49.888,39.654Z" transform="translate(80.49)" fill="url(#linear-gradient-2)"/>
              <path id="Path_444" data-name="Path 444" d="M89.772,29.206q6.523.324,18.162,1.231,5.174.384,7.566-1.555t2.394-6.207a6.117,6.117,0,0,0-2.006-4.524,11.665,11.665,0,0,0-6.011-2.714,125.972,125.972,0,0,0-14.8-1.683q-8.471-.516-22.69-.516-23.022,0-37.69,3.1T12.836,26.1q-7.17,6.661-7.174,17.646A23.991,23.991,0,0,0,7.345,53a16.068,16.068,0,0,0,4.265,6.275,5.184,5.184,0,0,0,3.621,1.291,10.046,10.046,0,0,0,6.011-2.134q2.914-2.134,2.91-4.588a3.861,3.861,0,0,0-.516-1.942,15.234,15.234,0,0,1-2.586-8.4,10.584,10.584,0,0,1,3.038-7.822q3.04-3.04,10.28-4.72A106.961,106.961,0,0,1,54.28,28.89q-.648,3.1-1.163,5.628c-.34,1.683-.651,3.166-.907,4.46q-1.81,8.656-3.622,18.35T45.359,76.853q-.779,5.815-2.2,13.705-1.295,7.89-2.266,15.064a88.366,88.366,0,0,0-.967,10.276,6.915,6.915,0,0,0,2.326,5.432,9.6,9.6,0,0,0,6.6,2.07,11.568,11.568,0,0,0,6.851-2.006,7.264,7.264,0,0,0,3.106-5.751q.516-7.11,2.066-18.685t2.974-20.364q4.011-24.047,8.8-47.838Q83.235,28.887,89.772,29.206Z" transform="translate(0 16.527)" fill="url(#linear-gradient-3)"/>
              <path id="Path_445" data-name="Path 445" d="M114.151,103.069Q121.909,88.525,121.909,69q0-15-6.207-25.6A39.923,39.923,0,0,0,97.987,27.3Q86.476,21.809,70.7,21.8a90.832,90.832,0,0,0-23.142,3.17A67.374,67.374,0,0,0,26.61,34.215,10.334,10.334,0,0,0,23.126,37.9,11.064,11.064,0,0,0,22.091,43a7.872,7.872,0,0,0,1.295,4.6,4.019,4.019,0,0,0,3.489,1.875A6.253,6.253,0,0,0,30.5,48.312a75.107,75.107,0,0,1,18.29-8.533,67.188,67.188,0,0,1,20.492-3.233q16.031,0,24.829,8.4T102.9,68.74q0,22.884-11.183,36.591T57.9,119.037q-4.91,0-8.789-.388A331.875,331.875,0,0,1,53.9,85.483a242.26,242.26,0,0,1,6.723-27.734,13.3,13.3,0,0,0,.775-4.137q0-4.395-7.886-4.4a16.6,16.6,0,0,0-7.112,1.3,6.722,6.722,0,0,0-3.621,4.524Q38,72.493,34.633,91.3a309.112,309.112,0,0,0-4.269,31.615q-.258,4.652,1.683,6.723t7.11,2.714a125.871,125.871,0,0,0,16.943,1.3q20.558,0,35.428-8.018A54.162,54.162,0,0,0,114.151,103.069Z" transform="translate(49.235 42.198)" fill="url(#linear-gradient-4)"/>
              <circle id="Ellipse_78" data-name="Ellipse 78" cx="8.434" cy="8.434" r="8.434" transform="translate(144.849 167.411)" fill="url(#linear-gradient-5)"/>
              <circle id="Ellipse_79" data-name="Ellipse 79" cx="15.093" cy="15.093" r="15.093" transform="translate(175.32 80.647)" fill="url(#linear-gradient-6)"/>
              <circle id="Ellipse_80" data-name="Ellipse 80" cx="6.838" cy="6.838" r="6.838" transform="translate(114.397 180.504)" fill="url(#linear-gradient-7)"/>
              <path id="Path_446" data-name="Path 446" d="M55.779,42.717A10.726,10.726,0,1,0,66.5,53.441,10.726,10.726,0,0,0,55.779,42.717Z" transform="translate(118.055 104.868)" fill="url(#linear-gradient-8)"/>
              <circle id="Ellipse_81" data-name="Ellipse 81" cx="12.549" cy="12.549" r="12.549" transform="translate(176.598 116.668)" fill="url(#linear-gradient-9)"/>
            </g>
          </g>
        </g>
      </g>
    </g>
    <g id="restaurant" transform="translate(620 376.264)">
      <g id="Group_1" data-name="Group 1" transform="translate(0 74.736)">
        <path id="Path_1" data-name="Path 1" d="M214.462,136.26a7.157,7.157,0,0,0,.773-6.63,16.991,16.991,0,0,0-15.751-10.8h-9.778v-8.754a8.47,8.47,0,0,0,5.646-7.975V97.968a4.328,4.328,0,0,0-4.323-4.323h-8.268a4.328,4.328,0,0,0-4.323,4.323V102.1a8.47,8.47,0,0,0,5.646,7.975v8.754H166.3V98.594c.34-3.951-3.342-7.939-6.207-10.565V77.547a2.811,2.811,0,1,0-5.622,0V88.029c-2.859,2.743-6.31,6.014-6.207,10.565V118.83H130.477v-8.754a8.47,8.47,0,0,0,5.646-7.975V97.968a4.328,4.328,0,0,0-4.323-4.323h-8.268a4.328,4.328,0,0,0-4.323,4.323V102.1a8.47,8.47,0,0,0,5.646,7.975v8.754h-9.625a16.991,16.991,0,0,0-15.751,10.8,7.282,7.282,0,0,0,6.679,9.74h36.012v6.441a8.275,8.275,0,0,0,8.266,8.266h4.111v37.659l-13.182,10.609c-2.986,2-1.738,7.568,2.467,7.595l27.057-.015a4.241,4.241,0,0,0,2.457-7.6l-13.177-10.554V154.078h4.111a8.275,8.275,0,0,0,8.266-8.266V136.56a2.811,2.811,0,0,0-2.811-2.811H106.157c-.688-.153-1.63-.233-1.434-2.092a11.334,11.334,0,0,1,10.507-7.2h84.254a11.334,11.334,0,0,1,10.507,7.2c.1.7.371,1.6-1.434,2.092H183.143a2.811,2.811,0,0,0,0,5.622h25.413a7.157,7.157,0,0,0,5.905-3.11Zm-30.4-36.994h5.671V102.1a2.835,2.835,0,0,1-5.67,0V99.266Zm-59.23,0H130.5V102.1a2.835,2.835,0,0,1-5.671,0Zm23.052,105.05,9.454-7.608,9.486,7.6Zm19.04-64.945v6.441a2.646,2.646,0,0,1-2.643,2.643H150.435a2.647,2.647,0,0,1-2.643-2.643v-6.441Zm-13.037-20.54V98.594c2.142-8.016,5.795-4.953,6.791,0V118.83Z" transform="translate(-61.895 -74.736)" fill="#a3159d"/>
        <path id="Path_2" data-name="Path 2" d="M45.405,213.444a9.952,9.952,0,0,0-.433-.981c5.51.739,10.821-2.887,10.875-8.642a8.652,8.652,0,0,0-8.642-8.643H17.284V165.41a2.811,2.811,0,1,0-5.622,0v30.15a5.246,5.246,0,0,0,5.24,5.24h30.3a3.02,3.02,0,0,1,0,6.041H16.9a11.292,11.292,0,0,1-11.28-11.28V146.4a3.02,3.02,0,1,1,6.04,0v5.774a2.811,2.811,0,1,0,5.622,0V146.4A8.642,8.642,0,1,0,0,146.4v49.161A16.923,16.923,0,0,0,15.444,212.4a10.16,10.16,0,0,0-.579,1.386L4.321,245.646a2.811,2.811,0,1,0,5.337,1.766L20.2,215.548a4.491,4.491,0,0,1,4.271-3.085H35.915a4.517,4.517,0,0,1,4.218,2.935l11.9,32.108c.641,1.008,1.573,2.293,3.613,1.659a2.811,2.811,0,0,0,1.659-3.613Z" transform="translate(0 -114.137)" fill="#a3159d"/>
        <path id="Path_3" data-name="Path 3" d="M414.315,195.561V146.4a8.642,8.642,0,1,0-17.285,0v48.779H367.109a8.652,8.652,0,0,0-8.642,8.643c-.065,5.7,5.43,9.362,10.875,8.642a9.952,9.952,0,0,0-.433.981l-11.9,32.108a2.811,2.811,0,0,0,1.659,3.613,2.942,2.942,0,0,0,3.613-1.659l11.9-32.108a4.518,4.518,0,0,1,4.219-2.935h11.442a4.492,4.492,0,0,1,4.271,3.086l10.544,31.864a2.811,2.811,0,0,0,5.338-1.766L399.45,213.783a10.149,10.149,0,0,0-.579-1.386c8.168-.52,15.622-8.16,15.443-16.837Zm-5.622,0a11.456,11.456,0,0,1-11.28,11.28h-30.3a3.022,3.022,0,0,1,0-6.04h30.3a5.245,5.245,0,0,0,5.24-5.24V146.4a3.02,3.02,0,1,1,6.041,0Z" transform="translate(-223.09 -114.137)" fill="#a3159d"/>
      </g>
    </g>
  </g>
</svg>
