<svg xmlns="http://www.w3.org/2000/svg" xmlns:xlink="http://www.w3.org/1999/xlink" width="342" height="342" viewBox="0 0 342 342">
  <defs>
    <filter id="Rectangle_1" x="0" y="0" width="342" height="342" filterUnits="userSpaceOnUse">
      <feOffset dy="3" input="SourceAlpha"/>
      <feGaussianBlur stdDeviation="3" result="blur"/>
      <feFlood flood-opacity="0.161"/>
      <feComposite operator="in" in2="blur"/>
      <feComposite in="SourceGraphic"/>
    </filter>
    <linearGradient id="linear-gradient" x1="0.5" y1="0.563" x2="0.5" y2="2.818" gradientUnits="objectBoundingBox">
      <stop offset="0" stop-color="#fbbf11"/>
      <stop offset="1" stop-color="#a3159d"/>
    </linearGradient>
    <linearGradient id="linear-gradient-2" y1="0.972" y2="2.547" xlink:href="#linear-gradient"/>
    <linearGradient id="linear-gradient-3" y1="0.273" y2="1.041" xlink:href="#linear-gradient"/>
    <linearGradient id="linear-gradient-4" y1="0.099" y2="0.855" xlink:href="#linear-gradient"/>
    <linearGradient id="linear-gradient-5" y1="-6.375" y2="-1.362" xlink:href="#linear-gradient"/>
    <linearGradient id="linear-gradient-6" y1="-0.688" y2="2.113" xlink:href="#linear-gradient"/>
    <linearGradient id="linear-gradient-7" y1="-8.82" y2="-2.638" xlink:href="#linear-gradient"/>
    <linearGradient id="linear-gradient-8" y1="-4.088" y2="-0.147" xlink:href="#linear-gradient"/>
    <linearGradient id="linear-gradient-9" y1="-21.842" y2="4.557" xlink:href="#linear-gradient"/>
  </defs>
  <g id="Group_465" data-name="Group 465" transform="translate(-545 -351)">
    <g id="Group_462" data-name="Group 462">
      <g id="Group_458" data-name="Group 458">
        <g id="Group_454" data-name="Group 454">
          <g id="Group_452" data-name="Group 452">
            <g transform="matrix(1, 0, 0, 1, 545, 351)" filter="url(#Rectangle_1)">
              <g id="Rectangle_1-2" data-name="Rectangle 1" transform="translate(9 6)" fill="#fff" stroke="#a3159d" stroke-width="2">
                <rect width="324" height="324" rx="8" stroke="none"/>
                <rect x="1" y="1" width="322" height="322" rx="7" fill="none"/>
              </g>
            </g>
            <g id="Group_451" data-name="Group 451" transform="translate(610.416 418.373)" opacity="0.07">
              <path id="Path_442" data-name="Path 442" d="M53.46,35.743l-9.417,15.28,15.672-8.1L68.608,52.99l-.24-14.269S79.911,32.2,80.255,32.214,68.244,29.18,68.244,29.18l-.5-13.693L59.659,27.194,44.527,24.008Z" transform="translate(115.023 23.264)" fill="url(#linear-gradient)"/>
              <path id="Path_443" data-name="Path 443" d="M40.853,61.4,59.827,45.65,73.68,55.4l-4.227-18L83.819,25.082l-16.163-.107L64.076,7.724l-9.169,18.43L32.52,26.8,49.888,39.654Z" transform="translate(80.49)" fill="url(#linear-gradient-2)"/>
              <path id="Path_444" data-name="Path 444" d="M89.772,29.206q6.523.324,18.162,1.231,5.174.384,7.566-1.555t2.394-6.207a6.117,6.117,0,0,0-2.006-4.524,11.665,11.665,0,0,0-6.011-2.714,125.972,125.972,0,0,0-14.8-1.683q-8.471-.516-22.69-.516-23.022,0-37.69,3.1T12.836,26.1q-7.17,6.661-7.174,17.646A23.991,23.991,0,0,0,7.345,53a16.068,16.068,0,0,0,4.265,6.275,5.184,5.184,0,0,0,3.621,1.291,10.046,10.046,0,0,0,6.011-2.134q2.914-2.134,2.91-4.588a3.861,3.861,0,0,0-.516-1.942,15.234,15.234,0,0,1-2.586-8.4,10.584,10.584,0,0,1,3.038-7.822q3.04-3.04,10.28-4.72A106.961,106.961,0,0,1,54.28,28.89q-.648,3.1-1.163,5.628c-.34,1.683-.651,3.166-.907,4.46q-1.81,8.656-3.622,18.35T45.359,76.853q-.779,5.815-2.2,13.705-1.295,7.89-2.266,15.064a88.366,88.366,0,0,0-.967,10.276,6.915,6.915,0,0,0,2.326,5.432,9.6,9.6,0,0,0,6.6,2.07,11.568,11.568,0,0,0,6.851-2.006,7.264,7.264,0,0,0,3.106-5.751q.516-7.11,2.066-18.685t2.974-20.364q4.011-24.047,8.8-47.838Q83.235,28.887,89.772,29.206Z" transform="translate(0 16.527)" fill="url(#linear-gradient-3)"/>
              <path id="Path_445" data-name="Path 445" d="M114.151,103.069Q121.909,88.525,121.909,69q0-15-6.207-25.6A39.923,39.923,0,0,0,97.987,27.3Q86.476,21.809,70.7,21.8a90.832,90.832,0,0,0-23.142,3.17A67.374,67.374,0,0,0,26.61,34.215,10.334,10.334,0,0,0,23.126,37.9,11.064,11.064,0,0,0,22.091,43a7.872,7.872,0,0,0,1.295,4.6,4.019,4.019,0,0,0,3.489,1.875A6.253,6.253,0,0,0,30.5,48.312a75.107,75.107,0,0,1,18.29-8.533,67.188,67.188,0,0,1,20.492-3.233q16.031,0,24.829,8.4T102.9,68.74q0,22.884-11.183,36.591T57.9,119.037q-4.91,0-8.789-.388A331.875,331.875,0,0,1,53.9,85.483a242.26,242.26,0,0,1,6.723-27.734,13.3,13.3,0,0,0,.775-4.137q0-4.395-7.886-4.4a16.6,16.6,0,0,0-7.112,1.3,6.722,6.722,0,0,0-3.621,4.524Q38,72.493,34.633,91.3a309.112,309.112,0,0,0-4.269,31.615q-.258,4.652,1.683,6.723t7.11,2.714a125.871,125.871,0,0,0,16.943,1.3q20.558,0,35.428-8.018A54.162,54.162,0,0,0,114.151,103.069Z" transform="translate(49.235 42.198)" fill="url(#linear-gradient-4)"/>
              <circle id="Ellipse_78" data-name="Ellipse 78" cx="8.434" cy="8.434" r="8.434" transform="translate(144.849 167.411)" fill="url(#linear-gradient-5)"/>
              <circle id="Ellipse_79" data-name="Ellipse 79" cx="15.093" cy="15.093" r="15.093" transform="translate(175.32 80.647)" fill="url(#linear-gradient-6)"/>
              <circle id="Ellipse_80" data-name="Ellipse 80" cx="6.838" cy="6.838" r="6.838" transform="translate(114.397 180.504)" fill="url(#linear-gradient-7)"/>
              <path id="Path_446" data-name="Path 446" d="M55.779,42.717A10.726,10.726,0,1,0,66.5,53.441,10.726,10.726,0,0,0,55.779,42.717Z" transform="translate(118.055 104.868)" fill="url(#linear-gradient-8)"/>
              <circle id="Ellipse_81" data-name="Ellipse 81" cx="12.549" cy="12.549" r="12.549" transform="translate(176.598 116.668)" fill="url(#linear-gradient-9)"/>
            </g>
          </g>
        </g>
      </g>
    </g>
    <g id="mask" transform="translate(627.998 439.789)">
      <path id="Path_4" data-name="Path 4" d="M78.241,124.845a41.47,41.47,0,0,1-40.905-34.3L33.364,68.1a2.456,2.456,0,1,1,4.837-.857l3.972,22.458a36.616,36.616,0,0,0,72.117,0l9-50.716a7.408,7.408,0,0,0-2.53-7,7.524,7.524,0,0,0-7.448-1.351A102.706,102.706,0,0,1,47.677,31.8a2.467,2.467,0,0,1,1.434-4.721,97.852,97.852,0,0,0,62.565-1.1,12.436,12.436,0,0,1,16.457,13.834l-9,50.723a41.482,41.482,0,0,1-40.888,34.3Z" transform="translate(45.617 24.823)" fill="#a3159d"/>
      <path id="Path_5" data-name="Path 5" d="M69.07,43.264a2.456,2.456,0,0,1-1.228-.334,7.342,7.342,0,0,0-8.059,0,2.457,2.457,0,0,1-2.476-4.245,12.282,12.282,0,0,1,13.018,0,2.456,2.456,0,0,1-1.24,4.579Z" transform="translate(78.766 41.662)" fill="#a3159d"/>
      <path id="Path_6" data-name="Path 6" d="M53.829,43.264A2.456,2.456,0,0,1,52.6,42.93a7.337,7.337,0,0,0-8.057,0,2.457,2.457,0,1,1-2.476-4.245,12.282,12.282,0,0,1,13.018,0,2.456,2.456,0,0,1-1.228,4.579Z" transform="translate(56.573 41.662)" fill="#a3159d"/>
      <path id="Path_7" data-name="Path 7" d="M63.169,63.173c-9.2,0-16.978-4.176-19.351-10.4a2.456,2.456,0,0,1,4.591-1.749c1.6,4.2,7.809,7.239,14.76,7.239s13.158-3.043,14.76-7.241a2.457,2.457,0,0,1,4.591,1.754c-2.338,6.124-10.294,10.4-19.351,10.4Z" transform="translate(60.662 60.04)" fill="#a3159d"/>
      <path id="Path_8" data-name="Path 8" d="M52.133,108.134a41.48,41.48,0,0,1-40.9-34.3L2.194,22.787A12.4,12.4,0,0,1,18.494,8.9a98.543,98.543,0,0,0,67.084.386,12.419,12.419,0,0,1,16.435,13.834l-8.98,50.716a41.485,41.485,0,0,1-40.9,34.3ZM14.377,13.111A7.514,7.514,0,0,0,7.03,21.939l9.039,51.055a36.626,36.626,0,0,0,72.127,0l8.98-50.716a7.4,7.4,0,0,0-2.523-7.005,7.5,7.5,0,0,0-7.433-1.344,103.318,103.318,0,0,1-70.354-.391,7.565,7.565,0,0,0-2.491-.427Z" transform="translate(0)" fill="#a3159d"/>
      <path id="Path_9" data-name="Path 9" d="M39.872,26.354a2.456,2.456,0,0,1-1.228-.334,7.349,7.349,0,0,0-8.059,0,2.457,2.457,0,0,1-2.476-4.245,12.3,12.3,0,0,1,13.018,0,2.456,2.456,0,0,1-1.24,4.579Z" transform="translate(36.244 17.041)" fill="#a3159d"/>
      <path id="Path_10" data-name="Path 10" d="M24.633,26.355a2.456,2.456,0,0,1-1.228-.334,7.354,7.354,0,0,0-8.062,0,2.456,2.456,0,1,1-2.474-4.245,12.3,12.3,0,0,1,13.018,0,2.456,2.456,0,0,1-1.228,4.579Z" transform="translate(14.05 17.041)" fill="#a3159d"/>
      <path id="Path_11" data-name="Path 11" d="M33.971,46.268c-9.2,0-16.976-4.176-19.353-10.4a2.458,2.458,0,1,1,4.593-1.754c1.6,4.2,7.809,7.244,14.76,7.244s13.161-3.046,14.76-7.241a2.457,2.457,0,1,1,4.591,1.751c-2.331,6.124-10.287,10.4-19.351,10.4Z" transform="translate(18.135 35.416)" fill="#a3159d"/>
    </g>
  </g>
</svg>
