<svg xmlns="http://www.w3.org/2000/svg" xmlns:xlink="http://www.w3.org/1999/xlink" width="342" height="342" viewBox="0 0 342 342">
  <defs>
    <filter id="Rectangle_1" x="0" y="0" width="342" height="342" filterUnits="userSpaceOnUse">
      <feOffset dy="3" input="SourceAlpha"/>
      <feGaussianBlur stdDeviation="3" result="blur"/>
      <feFlood flood-opacity="0.161"/>
      <feComposite operator="in" in2="blur"/>
      <feComposite in="SourceGraphic"/>
    </filter>
    <linearGradient id="linear-gradient" x1="0.5" y1="0.563" x2="0.5" y2="2.818" gradientUnits="objectBoundingBox">
      <stop offset="0" stop-color="#fbbf11"/>
      <stop offset="1" stop-color="#a3159d"/>
    </linearGradient>
    <linearGradient id="linear-gradient-2" x1="0.5" y1="0.972" x2="0.5" y2="2.547" xlink:href="#linear-gradient"/>
    <linearGradient id="linear-gradient-3" x1="0.5" y1="0.273" x2="0.5" y2="1.041" xlink:href="#linear-gradient"/>
    <linearGradient id="linear-gradient-4" x1="0.5" y1="0.099" x2="0.5" y2="0.855" xlink:href="#linear-gradient"/>
    <linearGradient id="linear-gradient-5" x1="0.5" y1="-6.375" x2="0.5" y2="-1.362" xlink:href="#linear-gradient"/>
    <linearGradient id="linear-gradient-6" x1="0.5" y1="-0.688" x2="0.5" y2="2.113" xlink:href="#linear-gradient"/>
    <linearGradient id="linear-gradient-7" x1="0.5" y1="-8.82" x2="0.5" y2="-2.638" xlink:href="#linear-gradient"/>
    <linearGradient id="linear-gradient-8" x1="0.5" y1="-4.088" x2="0.5" y2="-0.147" xlink:href="#linear-gradient"/>
    <linearGradient id="linear-gradient-9" x1="0.5" y1="-21.842" x2="0.5" y2="4.557" xlink:href="#linear-gradient"/>
  </defs>
  <g id="Group_467" data-name="Group 467" transform="translate(-151 613)">
    <g id="Group_453" data-name="Group 453" transform="translate(-394 -964)">
      <g transform="matrix(1, 0, 0, 1, 545, 351)" filter="url(#Rectangle_1)">
        <g id="Rectangle_1-2" data-name="Rectangle 1" transform="translate(9 6)" fill="#a3159d" stroke="#a3159d" stroke-width="2">
          <rect width="324" height="324" rx="8" stroke="none"/>
          <rect x="1" y="1" width="322" height="322" rx="7" fill="none"/>
        </g>
      </g>
      <g id="Group_414" data-name="Group 414" transform="translate(510.829 313.829)">
        <g id="Group_413" data-name="Group 413" transform="translate(112.235 112.235)">
          <path id="Path_411" data-name="Path 411" d="M334.916,167.919,310.044,88.453a8.909,8.909,0,0,0-.709-15.971l7.519-30.077a26.72,26.72,0,0,0,.8-6.489V33.388a15.456,15.456,0,0,0-11.948-15.017V.009h-5.974V18.136a15.362,15.362,0,0,0-11.883,9.513l-.066.168-.066-.168a15.364,15.364,0,0,0-11.883-9.513V.009h-5.974V18.368a15.458,15.458,0,0,0-11.949,15.017,47.293,47.293,0,0,0,1.413,11.47l6.9,27.628a8.91,8.91,0,0,0-.707,15.971L240.65,167.919a14.474,14.474,0,0,0,3.887,14.846.983.983,0,0,0,.086.077,8.915,8.915,0,0,0,12.148-.071l1.187-1.135a2.925,2.925,0,0,1,3.963,0l1.186,1.138a8.928,8.928,0,0,0,12.233,0l1.183-1.135a2.927,2.927,0,0,1,3.964,0l1.186,1.138a8.923,8.923,0,0,0,12.228,0l1.186-1.138a2.929,2.929,0,0,1,3.962,0l1.186,1.138a8.917,8.917,0,0,0,12.228,0l1.186-1.135a2.926,2.926,0,0,1,3.964,0l1.186,1.138a8.926,8.926,0,0,0,12.145.077l.091-.083A14.47,14.47,0,0,0,334.916,167.919ZM269.861,83.647a2.987,2.987,0,1,1,0-5.974h35.845a2.987,2.987,0,1,1,0,5.974Zm-5.974-50.259a9.481,9.481,0,0,1,18.284-3.523l2.84,7.1a2.984,2.984,0,0,0,5.544,0l2.842-7.1a9.481,9.481,0,0,1,18.284,3.523v2.529a20.816,20.816,0,0,1-.621,5.042L303.373,71.7H272.193l-7.072-28.29A41.332,41.332,0,0,1,263.887,33.388ZM253.823,177.319l-1.189,1.139a2.923,2.923,0,0,1-3.959,0c-.02-.022-.043-.042-.065-.063a8.536,8.536,0,0,1-2.261-8.693l25.065-80.081h3.763l-17.1,85.485A8.727,8.727,0,0,0,253.823,177.319Zm18.561,0-1.183,1.139a2.93,2.93,0,0,1-3.96,0l-1.188-1.142a8.54,8.54,0,0,0-2.041-1.4l17.259-86.292H284.8v87.871l-.182-.174A8.928,8.928,0,0,0,272.384,177.319Zm35.941,1.139a2.922,2.922,0,0,1-3.958,0l-1.189-1.142a8.928,8.928,0,0,0-12.226,0l-.182.174V89.621h3.524l17.26,86.295a8.43,8.43,0,0,0-2.04,1.407Zm18.633-.063-.069.063a2.933,2.933,0,0,1-3.957,0l-1.189-1.142a8.689,8.689,0,0,0-4.257-2.21l-17.1-85.485h3.764l25.065,80.084A8.543,8.543,0,0,1,326.959,178.4Z" transform="translate(-150.378 -0.009)" fill="#fff"/>
          <path id="Path_412" data-name="Path 412" d="M100.928,73.537a2.981,2.981,0,0,0,.543-2.56L89.522,23.184A2.982,2.982,0,0,0,87.8,21.161L68.7,12.977V3A2.987,2.987,0,0,0,65.716.009H35.845A2.986,2.986,0,0,0,32.858,3v9.981l-19.1,8.184a2.987,2.987,0,0,0-1.721,2.023L.089,70.977a2.988,2.988,0,0,0,2.9,3.709H17.923a2.991,2.991,0,0,0,2.862-2.129L25,58.5l1.89,28.332a2.984,2.984,0,0,0,2.978,2.79H71.69a2.988,2.988,0,0,0,2.981-2.79L76.562,58.5,80.78,72.557a2.985,2.985,0,0,0,2.859,2.129H98.574A2.984,2.984,0,0,0,100.928,73.537ZM50.781,47.881l-10.7-29.949H61.478ZM38.832,5.983h23.9v5.974h-23.9ZM15.7,68.712H6.813L17.475,26.068l1.6-.684,4.694,16.426ZM29.865,41.631a2.924,2.924,0,0,0-.108-.621l-5.144-18L34.1,18.941,47.793,57.282V83.647H32.667ZM68.894,83.647H53.768V57.282L67.46,18.941l9.486,4.066-5.143,18,.041.012a2.779,2.779,0,0,0-.149.609ZM85.862,68.712l-8.072-26.9,4.692-16.426,1.6.687,10.66,42.643Z" transform="translate(0 -0.009)" fill="#fff"/>
          <path id="Path_413" data-name="Path 413" d="M116.805,256H74.986A2.986,2.986,0,0,0,72,258.991V342.63a2.986,2.986,0,0,0,2.987,2.987H86.934a2.988,2.988,0,0,0,2.951-2.521l6.01-38.068L101.9,343.1a2.989,2.989,0,0,0,2.952,2.521h11.948a2.987,2.987,0,0,0,2.987-2.987V258.991A2.987,2.987,0,0,0,116.805,256Zm-2.987,83.639h-6.41L98.843,285.41a2.986,2.986,0,0,0-5.9,0l-8.56,54.233h-6.41V261.978h35.845Z" transform="translate(-45.115 -160.417)" fill="#fff"/>
        </g>
      </g>
      <g id="Group_451" data-name="Group 451" transform="translate(610.381 418.34)" opacity="0.07">
        <path id="Path_442" data-name="Path 442" d="M53.463,35.75l-9.42,15.285,15.677-8.1L68.616,53l-.24-14.274S79.924,32.2,80.267,32.22s-12.015-3.035-12.015-3.035l-.5-13.7L59.664,27.2,44.527,24.011Z" transform="translate(115.077 23.275)" fill="url(#linear-gradient)"/>
        <path id="Path_443" data-name="Path 443" d="M40.856,61.424l18.98-15.756,13.859,9.754L69.466,37.415,83.838,25.088l-16.169-.107L64.087,7.724,54.915,26.16,32.52,26.8,49.894,39.665Z" transform="translate(80.529 0)" fill="url(#linear-gradient-2)"/>
        <path id="Path_444" data-name="Path 444" d="M89.8,29.212q6.525.324,18.168,1.231,5.176.384,7.569-1.555t2.395-6.209a6.12,6.12,0,0,0-2.007-4.526,11.669,11.669,0,0,0-6.013-2.715A126.022,126.022,0,0,0,95.1,13.755q-8.474-.516-22.7-.516-23.03,0-37.7,3.1T12.839,26.109Q5.666,32.773,5.662,43.762A24,24,0,0,0,7.345,53.01a16.074,16.074,0,0,0,4.266,6.277,5.186,5.186,0,0,0,3.622,1.291,10.05,10.05,0,0,0,6.013-2.135q2.915-2.135,2.911-4.59a3.863,3.863,0,0,0-.516-1.943,15.239,15.239,0,0,1-2.587-8.4,10.588,10.588,0,0,1,3.039-7.825q3.041-3.041,10.284-4.722A107,107,0,0,1,54.3,28.888c-.432,2.071-.824,3.946-1.164,5.63s-.652,3.167-.908,4.462Q50.415,47.646,48.6,57.344T45.373,76.876q-.78,5.818-2.2,13.71-1.3,7.893-2.267,15.07a88.4,88.4,0,0,0-.968,10.28,6.917,6.917,0,0,0,2.327,5.434,9.6,9.6,0,0,0,6.6,2.071,11.572,11.572,0,0,0,6.853-2.007,7.266,7.266,0,0,0,3.107-5.754q.516-7.113,2.067-18.692t2.975-20.371q4.012-24.056,8.8-47.855Q83.263,28.892,89.8,29.212Z" transform="translate(0 16.535)" fill="url(#linear-gradient-3)"/>
        <path id="Path_445" data-name="Path 445" d="M114.184,103.1q7.761-14.55,7.761-34.081,0-15.006-6.209-25.609A39.937,39.937,0,0,0,98.014,27.3Q86.5,21.809,70.722,21.8a90.864,90.864,0,0,0-23.15,3.171,67.4,67.4,0,0,0-20.955,9.248,10.338,10.338,0,0,0-3.491,3.686,11.068,11.068,0,0,0-1.036,5.106,7.875,7.875,0,0,0,1.3,4.594,4.02,4.02,0,0,0,3.49,1.875A6.256,6.256,0,0,0,30.5,48.322a75.133,75.133,0,0,1,18.3-8.536,67.212,67.212,0,0,1,20.5-3.235q16.037,0,24.837,8.408t8.792,23.8q0,22.892-11.187,36.6t-33.826,13.71q-4.912,0-8.792-.388a331.993,331.993,0,0,1,4.786-33.178,242.352,242.352,0,0,1,6.725-27.744,13.3,13.3,0,0,0,.776-4.138q0-4.4-7.889-4.4a16.606,16.606,0,0,0-7.113,1.3,6.724,6.724,0,0,0-3.622,4.526Q38,72.511,34.638,91.327a309.22,309.22,0,0,0-4.27,31.626q-.258,4.654,1.683,6.725t7.113,2.715a125.915,125.915,0,0,0,16.945,1.3q20.565,0,35.441-8.021A54.181,54.181,0,0,0,114.184,103.1Z" transform="translate(49.259 42.218)" fill="url(#linear-gradient-4)"/>
        <circle id="Ellipse_78" data-name="Ellipse 78" cx="8.437" cy="8.437" r="8.437" transform="translate(144.899 167.468)" fill="url(#linear-gradient-5)"/>
        <circle id="Ellipse_79" data-name="Ellipse 79" cx="15.098" cy="15.098" r="15.098" transform="translate(175.381 80.673)" fill="url(#linear-gradient-6)"/>
        <circle id="Ellipse_80" data-name="Ellipse 80" cx="6.84" cy="6.84" r="6.84" transform="translate(114.436 180.565)" fill="url(#linear-gradient-7)"/>
        <path id="Path_446" data-name="Path 446" d="M55.782,42.717A10.729,10.729,0,1,0,66.51,53.444,10.726,10.726,0,0,0,55.782,42.717Z" transform="translate(118.112 104.918)" fill="url(#linear-gradient-8)"/>
        <circle id="Ellipse_81" data-name="Ellipse 81" cx="12.553" cy="12.553" r="12.553" transform="translate(176.659 116.707)" fill="url(#linear-gradient-9)"/>
      </g>
    </g>
  </g>
</svg>
