<svg xmlns="http://www.w3.org/2000/svg" xmlns:xlink="http://www.w3.org/1999/xlink" width="342" height="342" viewBox="0 0 342 342">
  <defs>
    <filter id="Rectangle_1" x="0" y="0" width="342" height="342" filterUnits="userSpaceOnUse">
      <feOffset dy="3" input="SourceAlpha"/>
      <feGaussianBlur stdDeviation="3" result="blur"/>
      <feFlood flood-opacity="0.161"/>
      <feComposite operator="in" in2="blur"/>
      <feComposite in="SourceGraphic"/>
    </filter>
    <linearGradient id="linear-gradient" x1="0.5" y1="0.563" x2="0.5" y2="2.818" gradientUnits="objectBoundingBox">
      <stop offset="0" stop-color="#fbbf11"/>
      <stop offset="1" stop-color="#a3159d"/>
    </linearGradient>
    <linearGradient id="linear-gradient-2" x1="0.5" y1="0.972" x2="0.5" y2="2.547" xlink:href="#linear-gradient"/>
    <linearGradient id="linear-gradient-3" x1="0.5" y1="0.273" x2="0.5" y2="1.041" xlink:href="#linear-gradient"/>
    <linearGradient id="linear-gradient-4" x1="0.5" y1="0.099" x2="0.5" y2="0.855" xlink:href="#linear-gradient"/>
    <linearGradient id="linear-gradient-5" x1="0.5" y1="-6.375" x2="0.5" y2="-1.362" xlink:href="#linear-gradient"/>
    <linearGradient id="linear-gradient-6" x1="0.5" y1="-0.688" x2="0.5" y2="2.113" xlink:href="#linear-gradient"/>
    <linearGradient id="linear-gradient-7" x1="0.5" y1="-8.82" x2="0.5" y2="-2.638" xlink:href="#linear-gradient"/>
    <linearGradient id="linear-gradient-8" x1="0.5" y1="-4.088" x2="0.5" y2="-0.147" xlink:href="#linear-gradient"/>
    <linearGradient id="linear-gradient-9" x1="0.5" y1="-21.842" x2="0.5" y2="4.557" xlink:href="#linear-gradient"/>
  </defs>
  <g id="Group_472" data-name="Group 472" transform="translate(-545 -351)">
    <g id="Group_462" data-name="Group 462">
      <g id="Group_458" data-name="Group 458">
        <g id="Group_454" data-name="Group 454">
          <g id="Group_452" data-name="Group 452">
            <g transform="matrix(1, 0, 0, 1, 545, 351)" filter="url(#Rectangle_1)">
              <g id="Rectangle_1-2" data-name="Rectangle 1" transform="translate(9 6)" fill="#a3159d" stroke="#a3159d" stroke-width="2">
                <rect width="324" height="324" rx="8" stroke="none"/>
                <rect x="1" y="1" width="322" height="322" rx="7" fill="none"/>
              </g>
            </g>
            <g id="Group_451" data-name="Group 451" transform="translate(610.416 418.373)" opacity="0.07">
              <path id="Path_442" data-name="Path 442" d="M53.46,35.743l-9.417,15.28,15.672-8.1L68.608,52.99l-.24-14.269S79.911,32.2,80.255,32.214,68.244,29.18,68.244,29.18l-.5-13.693L59.659,27.194,44.527,24.008Z" transform="translate(115.023 23.264)" fill="url(#linear-gradient)"/>
              <path id="Path_443" data-name="Path 443" d="M40.853,61.4l18.974-15.75L73.68,55.4l-4.227-18L83.819,25.082l-16.163-.107L64.076,7.724,54.907,26.154,32.52,26.8,49.888,39.654Z" transform="translate(80.49 0)" fill="url(#linear-gradient-2)"/>
              <path id="Path_444" data-name="Path 444" d="M89.772,29.206q6.523.324,18.162,1.231,5.174.384,7.566-1.555t2.394-6.207a6.117,6.117,0,0,0-2.006-4.524,11.665,11.665,0,0,0-6.011-2.714,125.977,125.977,0,0,0-14.8-1.683q-8.471-.516-22.69-.516-23.022,0-37.69,3.1T12.836,26.1q-7.17,6.661-7.174,17.646A23.991,23.991,0,0,0,7.345,53a16.068,16.068,0,0,0,4.265,6.275,5.184,5.184,0,0,0,3.621,1.291,10.046,10.046,0,0,0,6.011-2.134q2.914-2.134,2.91-4.588a3.861,3.861,0,0,0-.516-1.942,15.234,15.234,0,0,1-2.586-8.4,10.584,10.584,0,0,1,3.038-7.822q3.04-3.04,10.28-4.72a106.961,106.961,0,0,1,19.912-2.07c-.432,2.07-.823,3.945-1.163,5.628s-.651,3.166-.907,4.46Q50.4,47.634,48.588,57.328T45.359,76.853q-.779,5.815-2.2,13.705-1.295,7.89-2.266,15.064a88.364,88.364,0,0,0-.967,10.276,6.915,6.915,0,0,0,2.326,5.432,9.6,9.6,0,0,0,6.595,2.07,11.568,11.568,0,0,0,6.851-2.006,7.264,7.264,0,0,0,3.106-5.751q.516-7.11,2.066-18.685t2.974-20.364q4.011-24.047,8.8-47.838Q83.235,28.887,89.772,29.206Z" transform="translate(0 16.527)" fill="url(#linear-gradient-3)"/>
              <path id="Path_445" data-name="Path 445" d="M114.151,103.069Q121.909,88.525,121.909,69q0-15-6.207-25.6A39.923,39.923,0,0,0,97.987,27.3Q86.476,21.809,70.7,21.8a90.832,90.832,0,0,0-23.142,3.17,67.374,67.374,0,0,0-20.948,9.245A10.334,10.334,0,0,0,23.126,37.9a11.064,11.064,0,0,0-1.035,5.1A7.872,7.872,0,0,0,23.386,47.6a4.019,4.019,0,0,0,3.489,1.875A6.253,6.253,0,0,0,30.5,48.312,75.107,75.107,0,0,1,48.79,39.779a67.188,67.188,0,0,1,20.492-3.233q16.031,0,24.829,8.405T102.9,68.74q0,22.884-11.183,36.591T57.9,119.037q-4.91,0-8.789-.388A331.876,331.876,0,0,1,53.9,85.483a242.265,242.265,0,0,1,6.723-27.734,13.3,13.3,0,0,0,.775-4.137q0-4.395-7.886-4.4A16.6,16.6,0,0,0,46.4,50.51a6.722,6.722,0,0,0-3.621,4.524Q37.995,72.493,34.633,91.3a309.11,309.11,0,0,0-4.269,31.615q-.258,4.652,1.683,6.723t7.11,2.714A125.872,125.872,0,0,0,56.1,133.649q20.558,0,35.428-8.018A54.162,54.162,0,0,0,114.151,103.069Z" transform="translate(49.235 42.198)" fill="url(#linear-gradient-4)"/>
              <circle id="Ellipse_78" data-name="Ellipse 78" cx="8.434" cy="8.434" r="8.434" transform="translate(144.849 167.411)" fill="url(#linear-gradient-5)"/>
              <circle id="Ellipse_79" data-name="Ellipse 79" cx="15.093" cy="15.093" r="15.093" transform="translate(175.32 80.647)" fill="url(#linear-gradient-6)"/>
              <circle id="Ellipse_80" data-name="Ellipse 80" cx="6.838" cy="6.838" r="6.838" transform="translate(114.397 180.504)" fill="url(#linear-gradient-7)"/>
              <path id="Path_446" data-name="Path 446" d="M55.779,42.717A10.726,10.726,0,1,0,66.5,53.441,10.722,10.722,0,0,0,55.779,42.717Z" transform="translate(118.055 104.868)" fill="url(#linear-gradient-8)"/>
              <circle id="Ellipse_81" data-name="Ellipse 81" cx="12.549" cy="12.549" r="12.549" transform="translate(176.598 116.668)" fill="url(#linear-gradient-9)"/>
            </g>
          </g>
        </g>
      </g>
    </g>
    <g id="fast-food" transform="translate(634 436.97)">
      <g id="Group_464" data-name="Group 464" transform="translate(0 0.03)">
        <path id="Path_448" data-name="Path 448" d="M458.206,303.746a2.433,2.433,0,1,0,.018.019Z" transform="translate(-308.933 -206.167)" fill="#fff"/>
        <path id="Path_449" data-name="Path 449" d="M411.038,303.738a2.4,2.4,0,1,0,.019.019Z" transform="translate(-276.85 -206.166)" fill="#fff"/>
        <path id="Path_450" data-name="Path 450" d="M363.883,303.746a2.431,2.431,0,1,0,.018.019Z" transform="translate(-244.767 -206.167)" fill="#fff"/>
        <path id="Path_451" data-name="Path 451" d="M316.722,303.746a2.436,2.436,0,1,0,.018.019Z" transform="translate(-212.684 -206.167)" fill="#fff"/>
        <path id="Path_452" data-name="Path 452" d="M269.561,303.746a2.433,2.433,0,1,0,.018.019Z" transform="translate(-180.601 -206.167)" fill="#fff"/>
        <path id="Path_453" data-name="Path 453" d="M222.4,303.746a2.433,2.433,0,1,0,.018.019Z" transform="translate(-148.518 -206.167)" fill="#fff"/>
        <path id="Path_454" data-name="Path 454" d="M434.908,268.228a2.4,2.4,0,1,0-3.987,2.665l.019.028a2.4,2.4,0,1,0,3.987-2.665Z" transform="translate(-292.871 -181.755)" fill="#fff"/>
        <path id="Path_455" data-name="Path 455" d="M387.421,267.866a2.4,2.4,0,1,0-3.391,3.391l.028.028a2.4,2.4,0,1,0,3.391-3.391Z" transform="translate(-260.769 -181.756)" fill="#fff"/>
        <path id="Path_456" data-name="Path 456" d="M340.231,267.818a2.436,2.436,0,1,0,.018.019Z" transform="translate(-228.677 -181.726)" fill="#fff"/>
        <path id="Path_457" data-name="Path 457" d="M293.069,267.818a2.433,2.433,0,1,0,.018.019Z" transform="translate(-196.593 -181.726)" fill="#fff"/>
        <path id="Path_458" data-name="Path 458" d="M246.124,268.091a2.4,2.4,0,1,0-4,2.65l.019.028a2.4,2.4,0,1,0,4-2.65Z" transform="translate(-164.442 -181.656)" fill="#fff"/>
        <path id="Path_459" data-name="Path 459" d="M360.757,235.733a2.4,2.4,0,0,0,3.33-.643l.019-.027a2.4,2.4,0,1,0-3.973-2.686l-.019.027A2.4,2.4,0,0,0,360.757,235.733Z" transform="translate(-244.698 -157.372)" fill="#fff"/>
        <path id="Path_460" data-name="Path 460" d="M313.6,235.739a2.4,2.4,0,0,0,3.327-.656l.019-.027a2.4,2.4,0,1,0-3.983-2.671l-.019.027A2.4,2.4,0,0,0,313.6,235.739Z" transform="translate(-212.615 -157.373)" fill="#fff"/>
        <path id="Path_461" data-name="Path 461" d="M157.56,113.689a6.144,6.144,0,0,0,6.137-6.138v-3.278c0-12.849-5.922-23.622-17.125-31.154-9.715-6.533-22.742-10.13-36.681-10.13q-.65,0-1.3.011l1.348-9.9a6.315,6.315,0,0,0,6.036-6.3V41.307a6.325,6.325,0,0,0-6.313-6.322H67.585V20.279l19.069-4.963A7.771,7.771,0,0,0,82.726.278L57.858,6.761a7.68,7.68,0,0,0-5.808,7.519V34.985H6.313A6.325,6.325,0,0,0,0,41.307V46.8a6.315,6.315,0,0,0,6.037,6.3L20.059,156.019c.615,4.527,3.9,7.689,7.99,7.689H153.534A10.175,10.175,0,0,0,163.7,153.545v-6.067a4.106,4.106,0,0,0-4.106-4.1h-4.527v-6.548a9.678,9.678,0,0,0,.086-18.622,17.2,17.2,0,0,0,1.121-4.522h1.289ZM56.846,14.279A2.905,2.905,0,0,1,59.07,11.4L83.93,4.92a2.975,2.975,0,0,1,1.511,5.755L64.582,16.1a2.4,2.4,0,0,0-1.794,2.321V34.984H56.846V14.279ZM10.879,53.114h43.5a2.4,2.4,0,0,0,0-4.8H6.313A1.537,1.537,0,0,1,4.8,46.8V41.307A1.542,1.542,0,0,1,6.313,39.78H109.665a1.542,1.542,0,0,1,1.517,1.526V46.8a1.537,1.537,0,0,1-1.517,1.517H65.778a2.4,2.4,0,0,0,0,4.8H105.1l-1.377,10.114c-11.583.9-22.247,4.332-30.512,9.89a39.676,39.676,0,0,0-12.1,12.438L17.3,100.247Zm6.857,50.327a.42.42,0,0,1,.019.137Zm.224,1.643,40.285-13.51a37.082,37.082,0,0,0-2.159,12.7v3.278a6.145,6.145,0,0,0,6.138,6.138h1.289a17.2,17.2,0,0,0,1.121,4.522,9.672,9.672,0,0,0-6.7,11.664L22.986,141.982Zm39.664,53.828H28.049c-1.9,0-3-1.778-3.238-3.54l-1.164-8.544,36.631-12.691a9.682,9.682,0,0,0,4.441,2.7v6.548H60.191a4.106,4.106,0,0,0-4.106,4.1v6.067A10.1,10.1,0,0,0,57.624,158.913ZM158.9,148.177v5.368a5.374,5.374,0,0,1-5.367,5.368H66.249a5.374,5.374,0,0,1-5.368-5.368v-5.368h46.873a2.4,2.4,0,1,0,0-4.8H69.514v-6.192h80.754v6.192H119.037a2.4,2.4,0,1,0,0,4.8Zm-1.551-20.672a4.888,4.888,0,0,1-4.878,4.888H67.31a4.883,4.883,0,0,1,0-9.766h.2a12.175,12.175,0,0,0,3.681,2.541,13.739,13.739,0,0,0,13.681-1.61,12.266,12.266,0,0,0,16.7.049,12.273,12.273,0,0,0,16.633,0,12.278,12.278,0,0,0,16.709-.051,13.73,13.73,0,0,0,13.674,1.611,12.187,12.187,0,0,0,3.685-2.543h.2a4.883,4.883,0,0,1,4.878,4.878Zm-89-13.817h83.089c-.512,3.446-2.171,5.928-4.8,7.1a8.982,8.982,0,0,1-9.4-1.529c-2.14-1.887-3.848-.971-4.911.137a7.616,7.616,0,0,1-11.585,0c-.041-.043-.083-.084-.127-.124-2.144-1.944-3.866-1.008-4.927.114a7.944,7.944,0,0,1-5.8,2.671,8.034,8.034,0,0,1-5.783-2.666c-1.061-1.122-2.777-2.055-4.929-.13-.048.043-.094.087-.138.134a7.607,7.607,0,0,1-11.583-.008c-1.063-1.108-2.779-2.028-4.919-.116a8.983,8.983,0,0,1-9.39,1.514c-2.628-1.173-4.285-3.655-4.8-7.1Zm-6.124-4.8a1.343,1.343,0,0,1-1.342-1.342v-3.278c0-14.121,8.16-22.572,15.005-27.175,8.932-6.006,21.009-9.313,34-9.313S134.964,71.092,143.9,77.1c6.846,4.6,15.006,13.053,15.006,27.174v3.278a1.343,1.343,0,0,1-1.342,1.342H62.223Z" transform="translate(0 -0.03)" fill="#fff"/>
      </g>
    </g>
  </g>
</svg>
