<svg xmlns="http://www.w3.org/2000/svg" xmlns:xlink="http://www.w3.org/1999/xlink" width="240" height="240" viewBox="0 0 240 240">
  <defs>
    <filter id="Rectangle_1" x="0" y="0" width="240" height="240" filterUnits="userSpaceOnUse">
      <feOffset dy="3" input="SourceAlpha"/>
      <feGaussianBlur stdDeviation="3" result="blur"/>
      <feFlood flood-opacity="0.161"/>
      <feComposite operator="in" in2="blur"/>
      <feComposite in="SourceGraphic"/>
    </filter>
    <linearGradient id="linear-gradient" x1="0.5" y1="0.563" x2="0.5" y2="2.818" gradientUnits="objectBoundingBox">
      <stop offset="0" stop-color="#fbbf11"/>
      <stop offset="1" stop-color="#a3159d"/>
    </linearGradient>
    <linearGradient id="linear-gradient-2" x1="0.5" y1="0.972" x2="0.5" y2="2.547" xlink:href="#linear-gradient"/>
    <linearGradient id="linear-gradient-3" x1="0.5" y1="0.273" x2="0.5" y2="1.041" xlink:href="#linear-gradient"/>
    <linearGradient id="linear-gradient-4" x1="0.5" y1="0.099" x2="0.5" y2="0.855" xlink:href="#linear-gradient"/>
    <linearGradient id="linear-gradient-5" x1="0.5" y1="-6.375" x2="0.5" y2="-1.362" xlink:href="#linear-gradient"/>
    <linearGradient id="linear-gradient-6" x1="0.5" y1="-0.688" x2="0.5" y2="2.113" xlink:href="#linear-gradient"/>
    <linearGradient id="linear-gradient-7" x1="0.5" y1="-8.82" x2="0.5" y2="-2.638" xlink:href="#linear-gradient"/>
    <linearGradient id="linear-gradient-8" x1="0.5" y1="-4.088" x2="0.5" y2="-0.147" xlink:href="#linear-gradient"/>
    <linearGradient id="linear-gradient-9" x1="0.5" y1="-21.842" x2="0.5" y2="4.557" xlink:href="#linear-gradient"/>
  </defs>
  <g id="Group_1841" data-name="Group 1841" transform="translate(-1340 -10265)">
    <g id="Group_462" data-name="Group 462" transform="translate(1348.623 10271.165)">
      <g id="Group_458" data-name="Group 458">
        <g id="Group_454" data-name="Group 454">
          <g id="Group_452" data-name="Group 452">
            <g transform="matrix(1, 0, 0, 1, -8.62, -6.17)" filter="url(#Rectangle_1)">
              <g id="Rectangle_1-2" data-name="Rectangle 1" transform="translate(9 6)" fill="#a3159d" stroke="#a3159d" stroke-width="2">
                <rect width="222" height="222" rx="8" stroke="none"/>
                <rect x="1" y="1" width="220" height="220" rx="7" fill="none"/>
              </g>
            </g>
            <g id="Group_451" data-name="Group 451" transform="translate(42.527 47.336)" opacity="0.07">
              <path id="Path_442" data-name="Path 442" d="M50.494,29.364,44.043,39.831l10.736-5.547,6.092,6.894L60.707,31.4s7.908-4.469,8.143-4.458-8.228-2.078-8.228-2.078l-.342-9.381-5.539,8.02L44.374,21.325Z" transform="translate(61.047 5.768)" fill="url(#linear-gradient)"/>
              <path id="Path_443" data-name="Path 443" d="M38.228,44.5l13-10.79,9.491,6.68-2.9-12.331,9.842-8.441-11.072-.073L54.138,7.724,47.857,20.349l-15.336.44,11.9,8.808Z" transform="translate(41.02 -7.724)" fill="url(#linear-gradient-2)"/>
              <path id="Path_444" data-name="Path 444" d="M63.282,24.178q4.469.222,12.442.843,3.544.263,5.183-1.065a5.156,5.156,0,0,0,1.64-4.252,4.191,4.191,0,0,0-1.375-3.1,7.991,7.991,0,0,0-4.118-1.859,86.3,86.3,0,0,0-10.142-1.153q-5.8-.353-15.544-.353-15.771,0-25.82,2.125T10.577,22.053Q5.665,26.616,5.662,34.141a16.435,16.435,0,0,0,1.153,6.333,11.008,11.008,0,0,0,2.922,4.3,3.552,3.552,0,0,0,2.481.884A6.882,6.882,0,0,0,16.335,44.2a4.017,4.017,0,0,0,1.993-3.143,2.645,2.645,0,0,0-.353-1.331A10.436,10.436,0,0,1,16.2,33.966a7.251,7.251,0,0,1,2.081-5.358q2.082-2.082,7.042-3.234a73.275,73.275,0,0,1,13.641-1.418c-.3,1.418-.564,2.7-.8,3.855s-.446,2.169-.622,3.056q-1.24,5.935-2.481,12.576T32.857,56.818q-.534,3.984-1.506,9.389-.887,5.4-1.552,10.32a60.535,60.535,0,0,0-.663,7.04,4.737,4.737,0,0,0,1.594,3.721,6.576,6.576,0,0,0,4.518,1.418,7.924,7.924,0,0,0,4.693-1.375,4.976,4.976,0,0,0,2.127-3.94q.353-4.871,1.416-12.8T45.52,56.64q2.748-16.474,6.027-32.772Q58.8,23.959,63.282,24.178Z" transform="translate(-5.662 1.861)" fill="url(#linear-gradient-3)"/>
              <path id="Path_445" data-name="Path 445" d="M85.157,77.476q5.315-9.964,5.315-23.339,0-10.276-4.252-17.537A27.349,27.349,0,0,0,74.084,25.57,43.022,43.022,0,0,0,55.394,21.8a62.225,62.225,0,0,0-15.853,2.171,46.155,46.155,0,0,0-14.35,6.333,7.08,7.08,0,0,0-2.39,2.525,7.58,7.58,0,0,0-.709,3.5,5.393,5.393,0,0,0,.887,3.146,2.753,2.753,0,0,0,2.39,1.284,4.284,4.284,0,0,0,2.481-.8,51.452,51.452,0,0,1,12.532-5.846A46.028,46.028,0,0,1,54.419,31.9q10.982,0,17.009,5.758t6.021,16.3q0,15.677-7.661,25.067T46.624,88.414q-3.364,0-6.021-.266a227.353,227.353,0,0,1,3.277-22.721,165.965,165.965,0,0,1,4.605-19,9.111,9.111,0,0,0,.531-2.834q0-3.011-5.4-3.012a11.372,11.372,0,0,0-4.871.887,4.6,4.6,0,0,0-2.481,3.1q-3.277,11.96-5.58,24.845a211.758,211.758,0,0,0-2.924,21.658q-.177,3.187,1.153,4.605t4.871,1.859a86.229,86.229,0,0,0,11.6.887q14.083,0,24.27-5.493A37.1,37.1,0,0,0,85.157,77.476Z" transform="translate(22.893 16.749)" fill="url(#linear-gradient-4)"/>
              <circle id="Ellipse_78" data-name="Ellipse 78" cx="5.778" cy="5.778" r="5.778" transform="translate(95.351 109.395)" fill="url(#linear-gradient-5)"/>
              <circle id="Ellipse_79" data-name="Ellipse 79" cx="10.339" cy="10.339" r="10.339" transform="translate(116.226 49.956)" fill="url(#linear-gradient-6)"/>
              <circle id="Ellipse_80" data-name="Ellipse 80" cx="4.684" cy="4.684" r="4.684" transform="translate(74.49 118.364)" fill="url(#linear-gradient-7)"/>
              <path id="Path_446" data-name="Path 446" d="M52.4,42.717a7.348,7.348,0,1,0,7.346,7.346A7.345,7.345,0,0,0,52.4,42.717Z" transform="translate(62.806 53.096)" fill="url(#linear-gradient-8)"/>
              <circle id="Ellipse_81" data-name="Ellipse 81" cx="8.597" cy="8.597" r="8.597" transform="translate(117.101 74.633)" fill="url(#linear-gradient-9)"/>
            </g>
          </g>
        </g>
      </g>
    </g>
    <g id="healthcare" transform="translate(1395.665 10323.225)">
      <path id="Path_1836" data-name="Path 1836" d="M39,52H55.235v4.059H39Z" transform="translate(39.116 49.41)" fill="#fff"/>
      <path id="Path_1837" data-name="Path 1837" d="M120.733,64.881h-6.088V28.353a8.126,8.126,0,0,0-8.118-8.118H65.94c-.087,0-.168.022-.256.026a19.232,19.232,0,0,0-32.214-11A19.249,19.249,0,0,0,1,23.249,35.014,35.014,0,0,0,16.082,52.033l8.836,6.119a15.027,15.027,0,0,0,17.1,0l8.836-6.119a35.071,35.071,0,0,0,6.965-6.447v15.6a14.318,14.318,0,0,0-3.141-.363,14.593,14.593,0,0,0-6.49,1.532L35.313,68.794l-22.136-6.64v39.954l22.2-6.66,2.338,1a61.056,61.056,0,0,0,20.107,4.812v4.207a8.126,8.126,0,0,0,8.118,8.118h40.588a8.126,8.126,0,0,0,8.118-8.118v-4.432a6.032,6.032,0,0,0,2.476-9.773,6,6,0,0,0,0-8.118,5.9,5.9,0,0,0,1.21-6.088h2.4a6.088,6.088,0,1,0,0-12.176ZM78.116,24.294H90.293v4.059H78.116Zm-4.059,0v4.059a4.063,4.063,0,0,0,4.059,4.059H90.293a4.063,4.063,0,0,0,4.059-4.059V24.294h12.176a4.063,4.063,0,0,1,4.059,4.059V36.47H61.881V28.353a4.063,4.063,0,0,1,4.059-4.059ZM48.548,48.7l-8.836,6.119a11.134,11.134,0,0,1-12.481,0L18.392,48.7A30.953,30.953,0,0,1,5.059,23.249,15.191,15.191,0,0,1,30.99,12.507l2.48,2.48,2.48-2.48a15.183,15.183,0,0,1,25.812,8.921,8.1,8.1,0,0,0-3.939,6.924v4.059H47.178L41.872,13.842,31.465,40.9l-3.718-9.916a4.08,4.08,0,0,0-3.8-2.632H20.92a6.088,6.088,0,1,0,0,4.059h3.026l7.472,19.92,9.885-25.7,1.971,6.9a4.073,4.073,0,0,0,3.9,2.947H57.823v2.007A31.028,31.028,0,0,1,48.548,48.7ZM17.235,30.382a2.029,2.029,0,1,1-2.029-2.029A2.031,2.031,0,0,1,17.235,30.382ZM61.881,40.529h48.705V73h-2.029a6.062,6.062,0,0,0-4.505,10.147,6,6,0,0,0,0,8.118,6.032,6.032,0,0,0-1.21,2.029H61.881v-9.5a7.74,7.74,0,0,0,10.478-11.18,4,4,0,0,0,1.7.386h4.059v4.059a4.063,4.063,0,0,0,4.059,4.059h8.118a4.063,4.063,0,0,0,4.059-4.059V73H98.41a4.063,4.063,0,0,0,4.059-4.059V60.823a4.063,4.063,0,0,0-4.059-4.059H94.351V52.705a4.063,4.063,0,0,0-4.059-4.059H82.175a4.063,4.063,0,0,0-4.059,4.059v4.059H74.058A4.063,4.063,0,0,0,70,60.823V68.94a4.024,4.024,0,0,0,.288,1.477l-5.343-5.343a14.458,14.458,0,0,0-3.062-2.316ZM114.645,87.2a2.03,2.03,0,0,1-2.029,2.029h-4.059a2.029,2.029,0,0,1,0-4.059h4.059A2.03,2.03,0,0,1,114.645,87.2ZM98.41,60.823V68.94H90.293v8.118H82.175V68.94H74.058V60.823h8.118V52.705h8.118v8.118ZM17.235,67.609,33.47,72.479v19.3L17.235,96.653ZM39.313,92.72l-1.784-.765V72.224l12.477-6.238a10.713,10.713,0,0,1,12.067,1.958l6.839,6.839a3.71,3.71,0,0,1-5.246,5.248l-5.248-5.248A6.052,6.052,0,0,0,54.113,73H49.705v4.059h4.408a2.036,2.036,0,0,1,1.435.595l2.275,2.275V97.2a57.1,57.1,0,0,1-18.51-4.479Zm67.215,16.807H65.94a4.063,4.063,0,0,1-4.059-4.059V97.351h40.961a6.08,6.08,0,0,0,5.715,4.059h2.029v4.059A4.063,4.063,0,0,1,106.528,109.528Zm6.088-12.176h-4.059a2.029,2.029,0,0,1,0-4.059h4.059a2.029,2.029,0,1,1,0,4.059Zm2.029-18.264a2.03,2.03,0,0,1-2.029,2.029h-4.059a2.029,2.029,0,0,1,0-4.059h4.059A2.03,2.03,0,0,1,114.645,79.087ZM120.733,73h-6.088V68.94h6.088a2.029,2.029,0,1,1,0,4.059Z" transform="translate(0 0)" fill="#fff"/>
    </g>
  </g>
</svg>
