<svg xmlns="http://www.w3.org/2000/svg" xmlns:xlink="http://www.w3.org/1999/xlink" width="342" height="342" viewBox="0 0 342 342">
  <defs>
    <filter id="Rectangle_1" x="0" y="0" width="342" height="342" filterUnits="userSpaceOnUse">
      <feOffset dy="3" input="SourceAlpha"/>
      <feGaussianBlur stdDeviation="3" result="blur"/>
      <feFlood flood-opacity="0.161"/>
      <feComposite operator="in" in2="blur"/>
      <feComposite in="SourceGraphic"/>
    </filter>
    <linearGradient id="linear-gradient" x1="0.5" y1="0.563" x2="0.5" y2="2.818" gradientUnits="objectBoundingBox">
      <stop offset="0" stop-color="#fbbf11"/>
      <stop offset="1" stop-color="#a3159d"/>
    </linearGradient>
    <linearGradient id="linear-gradient-2" x1="0.5" y1="0.972" x2="0.5" y2="2.547" xlink:href="#linear-gradient"/>
    <linearGradient id="linear-gradient-3" x1="0.5" y1="0.273" x2="0.5" y2="1.041" xlink:href="#linear-gradient"/>
    <linearGradient id="linear-gradient-4" x1="0.5" y1="0.099" x2="0.5" y2="0.855" xlink:href="#linear-gradient"/>
    <linearGradient id="linear-gradient-5" x1="0.5" y1="-6.375" x2="0.5" y2="-1.362" xlink:href="#linear-gradient"/>
    <linearGradient id="linear-gradient-6" x1="0.5" y1="-0.688" x2="0.5" y2="2.113" xlink:href="#linear-gradient"/>
    <linearGradient id="linear-gradient-7" x1="0.5" y1="-8.82" x2="0.5" y2="-2.638" xlink:href="#linear-gradient"/>
    <linearGradient id="linear-gradient-8" x1="0.5" y1="-4.088" x2="0.5" y2="-0.147" xlink:href="#linear-gradient"/>
    <linearGradient id="linear-gradient-9" x1="0.5" y1="-21.842" x2="0.5" y2="4.557" xlink:href="#linear-gradient"/>
  </defs>
  <g id="Group_469" data-name="Group 469" transform="translate(-545 -351)">
    <g id="Group_454" data-name="Group 454">
      <g id="Group_452" data-name="Group 452">
        <g transform="matrix(1, 0, 0, 1, 545, 351)" filter="url(#Rectangle_1)">
          <g id="Rectangle_1-2" data-name="Rectangle 1" transform="translate(9 6)" fill="#a3159d" stroke="#a3159d" stroke-width="2">
            <rect width="324" height="324" rx="8" stroke="none"/>
            <rect x="1" y="1" width="322" height="322" rx="7" fill="none"/>
          </g>
        </g>
        <g id="Group_451" data-name="Group 451" transform="translate(610.416 418.373)" opacity="0.07">
          <path id="Path_442" data-name="Path 442" d="M53.46,35.743l-9.417,15.28,15.672-8.1L68.608,52.99l-.24-14.269S79.911,32.2,80.255,32.214,68.244,29.18,68.244,29.18l-.5-13.693L59.659,27.194,44.527,24.008Z" transform="translate(115.023 23.264)" fill="url(#linear-gradient)"/>
          <path id="Path_443" data-name="Path 443" d="M40.853,61.4l18.974-15.75L73.68,55.4l-4.227-18L83.819,25.082l-16.163-.107L64.076,7.724,54.907,26.154,32.52,26.8,49.888,39.654Z" transform="translate(80.49 0)" fill="url(#linear-gradient-2)"/>
          <path id="Path_444" data-name="Path 444" d="M89.772,29.206q6.523.324,18.162,1.231,5.174.384,7.566-1.555t2.394-6.207a6.117,6.117,0,0,0-2.006-4.524,11.665,11.665,0,0,0-6.011-2.714,125.977,125.977,0,0,0-14.8-1.683q-8.471-.516-22.69-.516-23.022,0-37.69,3.1T12.836,26.1q-7.17,6.661-7.174,17.646A23.991,23.991,0,0,0,7.345,53a16.068,16.068,0,0,0,4.265,6.275,5.184,5.184,0,0,0,3.621,1.291,10.046,10.046,0,0,0,6.011-2.134q2.914-2.134,2.91-4.588a3.861,3.861,0,0,0-.516-1.942,15.234,15.234,0,0,1-2.586-8.4,10.584,10.584,0,0,1,3.038-7.822q3.04-3.04,10.28-4.72a106.961,106.961,0,0,1,19.912-2.07c-.432,2.07-.823,3.945-1.163,5.628s-.651,3.166-.907,4.46Q50.4,47.634,48.588,57.328T45.359,76.853q-.779,5.815-2.2,13.705-1.295,7.89-2.266,15.064a88.364,88.364,0,0,0-.967,10.276,6.915,6.915,0,0,0,2.326,5.432,9.6,9.6,0,0,0,6.595,2.07,11.568,11.568,0,0,0,6.851-2.006,7.264,7.264,0,0,0,3.106-5.751q.516-7.11,2.066-18.685t2.974-20.364q4.011-24.047,8.8-47.838Q83.235,28.887,89.772,29.206Z" transform="translate(0 16.527)" fill="url(#linear-gradient-3)"/>
          <path id="Path_445" data-name="Path 445" d="M114.151,103.069Q121.909,88.525,121.909,69q0-15-6.207-25.6A39.923,39.923,0,0,0,97.987,27.3Q86.476,21.809,70.7,21.8a90.832,90.832,0,0,0-23.142,3.17,67.374,67.374,0,0,0-20.948,9.245A10.334,10.334,0,0,0,23.126,37.9a11.064,11.064,0,0,0-1.035,5.1A7.872,7.872,0,0,0,23.386,47.6a4.019,4.019,0,0,0,3.489,1.875A6.253,6.253,0,0,0,30.5,48.312,75.107,75.107,0,0,1,48.79,39.779a67.188,67.188,0,0,1,20.492-3.233q16.031,0,24.829,8.405T102.9,68.74q0,22.884-11.183,36.591T57.9,119.037q-4.91,0-8.789-.388A331.876,331.876,0,0,1,53.9,85.483a242.265,242.265,0,0,1,6.723-27.734,13.3,13.3,0,0,0,.775-4.137q0-4.395-7.886-4.4A16.6,16.6,0,0,0,46.4,50.51a6.722,6.722,0,0,0-3.621,4.524Q37.995,72.493,34.633,91.3a309.11,309.11,0,0,0-4.269,31.615q-.258,4.652,1.683,6.723t7.11,2.714A125.872,125.872,0,0,0,56.1,133.649q20.558,0,35.428-8.018A54.162,54.162,0,0,0,114.151,103.069Z" transform="translate(49.235 42.198)" fill="url(#linear-gradient-4)"/>
          <circle id="Ellipse_78" data-name="Ellipse 78" cx="8.434" cy="8.434" r="8.434" transform="translate(144.849 167.411)" fill="url(#linear-gradient-5)"/>
          <circle id="Ellipse_79" data-name="Ellipse 79" cx="15.093" cy="15.093" r="15.093" transform="translate(175.32 80.647)" fill="url(#linear-gradient-6)"/>
          <circle id="Ellipse_80" data-name="Ellipse 80" cx="6.838" cy="6.838" r="6.838" transform="translate(114.397 180.504)" fill="url(#linear-gradient-7)"/>
          <path id="Path_446" data-name="Path 446" d="M55.779,42.717A10.726,10.726,0,1,0,66.5,53.441,10.722,10.722,0,0,0,55.779,42.717Z" transform="translate(118.055 104.868)" fill="url(#linear-gradient-8)"/>
          <circle id="Ellipse_81" data-name="Ellipse 81" cx="12.549" cy="12.549" r="12.549" transform="translate(176.598 116.668)" fill="url(#linear-gradient-9)"/>
        </g>
      </g>
    </g>
    <g id="Group_457" data-name="Group 457" transform="translate(636.761 439.761)">
      <path id="Path_418" data-name="Path 418" d="M272.89,102.43a2.89,2.89,0,0,0,2.89-2.89V73.89a2.89,2.89,0,0,0-5.78,0V99.54A2.89,2.89,0,0,0,272.89,102.43Z" transform="translate(-177.171 -50.061)" fill="#fff"/>
      <path id="Path_419" data-name="Path 419" d="M38.39,217.78H57.537a2.89,2.89,0,1,0,0-5.78H38.39a2.89,2.89,0,1,0,0,5.78Z" transform="translate(-27.387 -140.123)" fill="#fff"/>
      <path id="Path_420" data-name="Path 420" d="M212.39,217.78h9.393a2.89,2.89,0,1,0,0-5.78H212.39a2.89,2.89,0,0,0,0,5.78Z" transform="translate(-138.527 -140.123)" fill="#fff"/>
      <path id="Path_421" data-name="Path 421" d="M158.39,217.78h9.393a2.89,2.89,0,1,0,0-5.78H158.39a2.89,2.89,0,1,0,0,5.78Z" transform="translate(-104.036 -140.123)" fill="#fff"/>
      <path id="Path_422" data-name="Path 422" d="M109.846,354.408a2.89,2.89,0,1,0,4.087,4.087l11.56-11.561a2.89,2.89,0,0,0-4.087-4.087Z" transform="translate(-74.334 -223.159)" fill="#fff"/>
      <path id="Path_423" data-name="Path 423" d="M260.651,325.347a2.891,2.891,0,0,0-4.087,0l-22.217,22.217a2.89,2.89,0,0,0,4.087,4.087l22.218-22.217A2.891,2.891,0,0,0,260.651,325.347Z" transform="translate(-153.857 -211.981)" fill="#fff"/>
      <path id="Path_424" data-name="Path 424" d="M301.407,347.347l-11.56,11.56a2.89,2.89,0,1,0,4.087,4.087l11.56-11.56a2.89,2.89,0,0,0-4.087-4.087Z" transform="translate(-189.307 -226.034)" fill="#fff"/>
      <path id="Path_425" data-name="Path 425" d="M152.819,1H79.1a7.506,7.506,0,0,0-7.5,7.5V55.355H8.5a7.506,7.506,0,0,0-7.5,7.5v89.967a7.506,7.506,0,0,0,7.5,7.5H152.819a7.506,7.506,0,0,0,7.5-7.5V8.5A7.506,7.506,0,0,0,152.819,1ZM76.6,8.5A2.5,2.5,0,0,1,79.1,6h73.723a2.5,2.5,0,0,1,2.5,2.5V60.353H89.6a7.509,7.509,0,0,0-7.067-5H76.6Zm22.57,146.821H86.2v-6.092H99.167Zm2.5-11.09H57.854a1.251,1.251,0,0,1-1.25-1.25v-3.9h72.161v3.9a1.251,1.251,0,0,1-1.25,1.25ZM45.515,142.2a23.9,23.9,0,1,1,6.556-46.871,6.213,6.213,0,0,0-.465,2.356V99.1a20.149,20.149,0,1,0,0,38.4v3.9A23.738,23.738,0,0,1,45.515,142.2Zm6.092-27.206a2.483,2.483,0,0,0-.986.6l-3.9,3.9a2.5,2.5,0,0,0,3.534,3.534l1.357-1.357v10.49a15.151,15.151,0,1,1,0-27.737Zm77.159,19.084H56.6V97.683a1.251,1.251,0,0,1,1.25-1.25h69.662a1.251,1.251,0,0,1,1.25,1.25ZM8.5,60.353H82.533a2.5,2.5,0,0,1,2.5,2.5v14.37H6V62.852A2.5,2.5,0,0,1,8.5,60.353ZM6,152.819V82.22H85.032v9.215H57.854a6.227,6.227,0,0,0-1.337.148,28.9,28.9,0,1,0-3.936,54.733,6.244,6.244,0,0,0,5.273,2.91H81.2v6.092H8.5A2.5,2.5,0,0,1,6,152.819Zm146.821,2.5H104.165v-6.092h23.351a6.255,6.255,0,0,0,6.248-6.248v-45.3a6.255,6.255,0,0,0-6.248-6.248H90.03V65.351h65.289v87.468A2.5,2.5,0,0,1,152.819,155.318Z" transform="translate(-1 -1)" fill="#fff"/>
    </g>
  </g>
</svg>
