<?xml version="1.0"?>
<svg xmlns="http://www.w3.org/2000/svg" xmlns:xlink="http://www.w3.org/1999/xlink" xmlns:svgjs="http://svgjs.com/svgjs" version="1.1" width="512" height="512" x="0" y="0" viewBox="0 0 64 64" style="enable-background:new 0 0 512 512" xml:space="preserve" class=""><g><clipPath xmlns="http://www.w3.org/2000/svg" id="clip0"><path d="m0 0h64v64h-64z" fill="#a3159d" data-original="#000000" class=""/></clipPath><g xmlns="http://www.w3.org/2000/svg" clip-path="url(#clip0)"><path clip-rule="evenodd" d="m14.7144 7h34.5712c2.1676-.00002 3.9159-.00003 5.3316.11564 1.4577.1191 2.7381.37072 3.9227.9743 1.8816.95873 3.4114 2.48856 4.3702 4.37016.6035 1.1846.8552 2.465.9743 3.9227.1156 1.4157.1156 3.164.1156 5.3316v20.5712.0001c0 2.1675 0 3.9158-.1156 5.3316-.1191 1.4577-.3708 2.738-.9743 3.9226-.9588 1.8816-2.4886 3.4114-4.3702 4.3702-1.1846.6035-2.465.8552-3.9227.9743-1.4156.1156-3.1638.1156-5.3311.1156h-.0004-34.5714-.0004c-2.1673 0-3.9155 0-5.33115-.1156-1.4577-.1191-2.73807-.3708-3.92266-.9743-1.88161-.9588-3.41142-2.4886-4.37016-4.3702-.603572-1.1846-.855197-2.4649-.974296-3.9226-.11567263-1.4158-.11565737-3.1641-.11563449-5.3316v-20.5714c-.00002288-2.1675-.00003814-3.9158.11563449-5.3315.119099-1.4577.370724-2.7381.974296-3.9227.95874-1.8816 2.48855-3.41143 4.37016-4.37016 1.18459-.60358 2.46496-.8552 3.92266-.9743 1.41575-.11567 3.16405-.11566 5.33165-.11564zm14.1231 16.6275c-.8988-.642-1.107-1.8911-.465-2.79.642-.8988 1.8911-1.107 2.79-.465l14 10c.5256.3755.8375.9816.8375 1.6275s-.3119 1.252-.8375 1.6275l-14 10c-.8988.642-2.1479.4338-2.79-.465-.642-.8988-.4338-2.1479.465-2.79l8.9216-6.3725h-17.7591c-1.1046 0-2-.8954-2-2s.8954-2 2-2h17.7591z" fill="#a3159d" fill-rule="evenodd" data-original="#000000" class=""/></g></g></svg>
