<?xml version="1.0"?>
<svg xmlns="http://www.w3.org/2000/svg" xmlns:xlink="http://www.w3.org/1999/xlink" xmlns:svgjs="http://svgjs.com/svgjs" version="1.1" width="512" height="512" x="0" y="0" viewBox="0 0 512 512" style="enable-background:new 0 0 512 512" xml:space="preserve"><g><g xmlns="http://www.w3.org/2000/svg" fill="rgb(0,0,0)"><path d="m287.999 197.332h-245.333c-8.7467 0-16-7.253-16-16 0-8.746 7.2533-16 16-16h245.333c8.747 0 16 7.254 16 16 0 8.747-7.253 16-16 16z" fill="#ffffff" data-original="#000000"/><path d="m170.667 368h-42.667c-8.747 0-16-7.253-16-16s7.253-16 16-16h42.667c8.746 0 16 7.253 16 16s-7.254 16-16 16z" fill="#ffffff" data-original="#000000"/><path d="m309.333 368h-85.333c-8.747 0-16-7.253-16-16s7.253-16 16-16h85.333c8.747 0 16 7.253 16 16s-7.253 16-16 16z" fill="#ffffff" data-original="#000000"/><path d="m374.613 453.334h-237.227c-84.9067 0-110.72-25.6-110.72-109.653v-175.36c0-84.053 25.8133-109.653 110.72-109.653h150.613c8.747 0 16 7.2534 16 16 0 8.7467-7.253 16-16 16h-150.613c-66.9867 0-78.72 11.52-78.72 77.653v175.147c0 66.133 11.7333 77.653 78.72 77.653h237.013c66.987 0 78.72-11.52 78.72-77.653v-87.04c0-8.747 7.254-16 16-16 8.747 0 16 7.253 16 16v87.04c.214 84.266-25.6 109.866-110.506 109.866z" fill="#ffffff" data-original="#000000"/><path d="m469.333 149.332h-117.333c-8.747 0-16-7.253-16-16 0-8.746 7.253-16 16-16h117.333c8.747 0 16 7.254 16 16 0 8.747-7.253 16-16 16z" fill="#ffffff" data-original="#000000"/><path d="m410.666 208.001c-8.747 0-16-7.253-16-16v-117.333c0-8.7466 7.253-16 16-16s16 7.2534 16 16v117.333c0 8.747-7.253 16-16 16z" fill="#ffffff" data-original="#000000"/></g></g></svg>
