<?xml version="1.0"?>
<svg xmlns="http://www.w3.org/2000/svg" xmlns:xlink="http://www.w3.org/1999/xlink" xmlns:svgjs="http://svgjs.com/svgjs" version="1.1" width="512" height="512" x="0" y="0" viewBox="0 0 32 32" style="enable-background:new 0 0 512 512" xml:space="preserve"><g><g id="Layer_11"><path d="m8.293 24.707c.1875.1875.4419.293.707.293h8c.2651 0 .5195-.1055.707-.293l9.5859-9.5859c.5664-.5664.8784-1.3198.8784-2.1211s-.312-1.5547-.8784-2.1211l-6.1718-6.1719c-1.1699-1.1699-3.0723-1.1699-4.2422 0l-12.1719 12.1719c-1.1699 1.1694-1.1699 3.0728 0 4.2422zm11.707-5.1211-7.5859-7.5859 2.5859-2.5859 7.5859 7.5859zm-1.707-13.4648c.3779-.377 1.0361-.377 1.4141 0l6.1719 6.1719c.3896.3896.3896 1.0239 0 1.4141l-1.879 1.8788-7.5859-7.5859zm-12.1719 12.1719 4.8789-4.8789 7.5859 7.5859-2 2h-7.1718l-3.293-3.293c-.3897-.3901-.3897-1.0244 0-1.414z" fill="#ffffff" data-original="#000000"/><path d="m27.5 27h-23c-.2761 0-.5.2239-.5.5v1c0 .2761.2239.5.5.5h23c.2761 0 .5-.2239.5-.5v-1c0-.2761-.2239-.5-.5-.5z" fill="#ffffff" data-original="#000000"/></g></g></svg>
