<?xml version="1.0" encoding="utf-8"?>
<!-- Generator: Adobe Illustrator 24.3.0, SVG Export Plug-In . SVG Version: 6.00 Build 0)  -->
<svg version="1.1" id="Layer_1" xmlns="http://www.w3.org/2000/svg" xmlns:xlink="http://www.w3.org/1999/xlink" x="0px" y="0px"
	 viewBox="0 0 512 512" style="enable-background:new 0 0 512 512;" xml:space="preserve">
<style type="text/css">
	.st0{fill:#FFCB5C;}
	.st1{fill:#FFE3A8;}
	.st2{fill:#FFB30F;}
	.st3{fill:#A3159D;}
</style>
<g id="XMLID_1_">
	<g id="XMLID_3793_">
		<g id="XMLID_1667_">
			<path id="XMLID_1676_" class="st0" d="M256,5c-71.8,0-130,20.1-130,45v197c0,24.9,58.2,45,130,45s130-20.1,130-45V50
				C386,25.1,327.8,5,256,5z"/>
			<ellipse id="XMLID_1675_" class="st1" cx="256" cy="50" rx="130" ry="45"/>
			<ellipse id="XMLID_1674_" class="st0" cx="256" cy="50" rx="104" ry="30"/>
			<g>
				<path id="XMLID_1679_" class="st2" d="M256,35c48.5,0,89.2,9.6,100.7,22.5c2.1-2.4,3.3-4.9,3.3-7.5c0-16.6-46.6-30-104-30
					S152,33.4,152,50c0,2.6,1.1,5.1,3.3,7.5C166.8,44.6,207.5,35,256,35z"/>
				<path id="XMLID_1672_" class="st2" d="M386,99.3c0,24.9-58.2,45-130,45s-130-20.1-130-45v49.3c0,24.9,58.2,45,130,45
					s130-20.1,130-45V99.3z"/>
				<path id="XMLID_1670_" class="st2" d="M386,197.8c0,24.9-58.2,45-130,45s-130-20.1-130-45V247c0,24.9,58.2,45,130,45
					s130-20.1,130-45V197.8z"/>
			</g>
		</g>
		<g id="XMLID_1677_">
			<path id="XMLID_1684_" class="st0" d="M377,220c-71.8,0-130,20.1-130,45v197c0,24.9,58.2,45,130,45s130-20.1,130-45V265
				C507,240.1,448.8,220,377,220z"/>
			<ellipse id="XMLID_1683_" class="st1" cx="377" cy="265" rx="130" ry="45"/>
			<ellipse id="XMLID_1682_" class="st0" cx="377" cy="265" rx="104" ry="30"/>
			<g>
				<path id="XMLID_1681_" class="st2" d="M377,250c48.5,0,89.2,9.6,100.7,22.5c2.1-2.4,3.3-4.9,3.3-7.5c0-16.6-46.6-30-104-30
					s-104,13.4-104,30c0,2.6,1.1,5.1,3.3,7.5C287.8,259.6,328.5,250,377,250z"/>
				<path id="XMLID_1680_" class="st2" d="M507,314.3c0,24.9-58.2,45-130,45s-130-20.1-130-45v49.3c0,24.9,58.2,45,130,45
					s130-20.1,130-45V314.3z"/>
				<path id="XMLID_1678_" class="st2" d="M507,412.8c0,24.9-58.2,45-130,45s-130-20.1-130-45V462c0,24.9,58.2,45,130,45
					s130-20.1,130-45V412.8z"/>
			</g>
		</g>
		<path id="XMLID_1658_" class="st2" d="M135,246h36c71.8,0,130,58.2,130,130s-58.2,130-130,130h-36C63.2,506,5,447.8,5,376
			S63.2,246,135,246z"/>
		<circle id="XMLID_1666_" class="st0" cx="135" cy="376" r="130"/>
		<path id="XMLID_1663_" class="st1" d="M5,376c0,21.3,5.1,41.5,14.2,59.2c5.2,0.5,10.4,0.8,15.8,0.8c88.4,0,160-71.6,160-160
			c0-5.3-0.3-10.6-0.8-15.8c-17.8-9.1-37.9-14.2-59.2-14.2C63.2,246,5,304.2,5,376z"/>
		<circle id="XMLID_1665_" class="st0" cx="135" cy="376" r="104"/>
		<path id="XMLID_1662_" class="st2" d="M49,376c0-54.4,41.8-99,95-103.6c-3-0.3-6-0.4-9-0.4c-57.4,0-104,46.6-104,104
			s46.6,104,104,104c3,0,6-0.1,9-0.4C90.8,475,49,430.4,49,376z"/>
		<path id="XMLID_1657_" class="st0" d="M65,187c0,11-9,20-20,20c11,0,20,9,20,20c0-11,9-20,20-20C74,207,65,198,65,187z"/>
		<path id="XMLID_1656_" class="st0" d="M447,69c0,11-9,20-20,20c11,0,20,9,20,20c0-11,9-20,20-20C456,89,447,80,447,69z"/>
		<g>
			<path class="st3" d="M175.3,349.1l-6,9.8l10-5.2l5.7,6.4l-0.2-9.1c0,0,7.4-4.2,7.6-4.2s-7.7-1.9-7.7-1.9l-0.3-8.8l-5.2,7.5
				l-9.7-2L175.3,349.1z"/>
			<polygon class="st3" points="145.1,350.7 157.2,340.6 166.1,346.8 163.4,335.3 172.6,327.4 162.3,327.3 160,316.3 154.1,328.1 
				139.8,328.5 150.9,336.7 			"/>
			<path class="st3" d="M124.9,340.6c2.8,0.1,6.7,0.4,11.6,0.8c2.2,0.2,3.8-0.2,4.8-1c1-0.8,1.5-2.2,1.5-4c0-1.1-0.4-2.1-1.3-2.9
				c-0.9-0.8-2.1-1.4-3.9-1.7c-2.7-0.5-5.9-0.9-9.5-1.1c-3.6-0.2-8.5-0.3-14.5-0.3c-9.8,0-17.9,0.7-24.1,2c-6.3,1.3-10.9,3.4-14,6.3
				c-3.1,2.8-4.6,6.6-4.6,11.3c0,2.2,0.4,4.2,1.1,5.9c0.7,1.7,1.6,3.1,2.7,4c0.6,0.6,1.4,0.8,2.3,0.8c1.3,0,2.6-0.5,3.9-1.4
				c1.2-0.9,1.9-1.9,1.9-2.9c0-0.4-0.1-0.9-0.3-1.2c-1.1-1.7-1.7-3.5-1.7-5.4c0-2,0.6-3.7,1.9-5c1.3-1.3,3.5-2.3,6.6-3
				c3.1-0.7,7.3-1.2,12.8-1.3c-0.3,1.3-0.5,2.5-0.7,3.6c-0.2,1.1-0.4,2-0.6,2.9c-0.8,3.7-1.5,7.6-2.3,11.8
				c-0.8,4.1-1.5,8.3-2.1,12.5c-0.3,2.5-0.8,5.4-1.4,8.8c-0.6,3.4-1,6.6-1.4,9.6c-0.4,3.1-0.6,5.3-0.6,6.6c0,1.4,0.5,2.6,1.5,3.5
				c1,0.9,2.4,1.3,4.2,1.3c1.7,0,3.2-0.4,4.4-1.3c1.2-0.9,1.9-2.1,2-3.7c0.2-3,0.7-7,1.3-12c0.7-4.9,1.3-9.3,1.9-13
				c1.7-10.3,3.6-20.5,5.6-30.6C118.4,340.4,122.1,340.5,124.9,340.6z"/>
			<path class="st3" d="M172,404.4c3.3-6.2,5-13.5,5-21.8c0-6.4-1.3-11.9-4-16.4c-2.6-4.5-6.4-8-11.3-10.3
				c-4.9-2.3-10.7-3.5-17.5-3.5c-4.7,0-9.7,0.7-14.8,2c-5.1,1.4-9.6,3.3-13.4,5.9c-1,0.7-1.8,1.5-2.2,2.4c-0.4,0.9-0.7,1.9-0.7,3.3
				c0,1.2,0.3,2.1,0.8,2.9c0.5,0.8,1.3,1.2,2.2,1.2c0.8,0,1.6-0.2,2.3-0.7c3.5-2.3,7.4-4.1,11.7-5.5c4.3-1.4,8.7-2.1,13.1-2.1
				c6.8,0,12.1,1.8,15.9,5.4c3.8,3.6,5.6,8.7,5.6,15.2c0,9.8-2.4,17.6-7.2,23.4c-4.8,5.9-12,8.8-21.7,8.8c-2.1,0-4-0.1-5.6-0.2
				c0.6-6.7,1.6-13.8,3.1-21.2c1.4-7.4,2.9-13.3,4.3-17.8c0.3-1,0.5-1.9,0.5-2.7c0-1.9-1.7-2.8-5.1-2.8c-1.9,0-3.4,0.3-4.6,0.8
				c-1.2,0.6-1.9,1.5-2.3,2.9c-2,7.5-3.8,15.2-5.2,23.2c-1.4,8-2.3,14.8-2.7,20.2c-0.1,2,0.2,3.4,1.1,4.3c0.8,0.9,2.3,1.5,4.6,1.7
				c4,0.6,7.6,0.8,10.8,0.8c8.8,0,16.3-1.7,22.7-5.1C163.9,415.4,168.7,410.6,172,404.4z"/>
			<circle class="st3" cx="165.6" cy="424" r="5.4"/>
			
				<ellipse transform="matrix(0.3827 -0.9239 0.9239 0.3827 -227.4161 404.9709)" class="st3" cx="189.3" cy="372.7" rx="9.7" ry="9.7"/>
			<circle class="st3" cx="145" cy="431.3" r="4.4"/>
			<path class="st3" d="M178.7,405.9c-3.8,0-6.9,3.1-6.9,6.9c0,3.8,3.1,6.9,6.9,6.9c3.8,0,6.9-3.1,6.9-6.9
				C185.6,408.9,182.5,405.9,178.7,405.9z"/>
			
				<ellipse transform="matrix(0.3827 -0.9239 0.9239 0.3827 -247.7271 417.4587)" class="st3" cx="188.5" cy="394.1" rx="8" ry="8"/>
		</g>
	</g>
	<g id="XMLID_2118_">
		<g id="XMLID_2352_">
			<path id="XMLID_3235_" class="st3" d="M377,511.9c-57.2,0-108.2-13-126.9-32.3l7.2-7c16.7,17.3,65.9,29.3,119.7,29.3
				c73.7,0,125-21,125-39.9V265c0-15.2-33.8-34-96.4-38.9l0.8-10C459,220.3,512,237,512,265v197c0,14.3-14.7,27.3-41.4,36.5
				C445.5,507.1,412.3,511.9,377,511.9z"/>
		</g>
		<g id="XMLID_674_">
			<path id="XMLID_3232_" class="st3" d="M377,300c-54.2,0-109-12-109-35s54.8-35,109-35s109,12,109,35S431.2,300,377,300z M377,240
				c-60.4,0-99,14.8-99,25c0,10.2,38.6,25,99,25s99-14.8,99-25S437.4,240,377,240z"/>
		</g>
		<g id="XMLID_454_">
			<path id="XMLID_3231_" class="st3" d="M377,315c-44.8,0-86.4-7.8-111.2-21l4.7-8.8C293.9,297.6,333.7,305,377,305
				c73.7,0,125-21.1,125-40h10c0,14.3-14.7,27.3-41.4,36.5C445.5,310.2,412.3,315,377,315z"/>
		</g>
		<g id="XMLID_627_">
			<path id="XMLID_3230_" class="st3" d="M377,364.3c-29.1,0-56.7-3.2-79.9-9.3l2.5-9.7c22.3,5.9,49.1,8.9,77.3,8.9
				c73.7,0,125-21.1,125-40.1h10c0,15-14.7,27.4-41.4,36.7C445.5,359.3,412.3,364.3,377,364.3L377,364.3z"/>
		</g>
		<g id="XMLID_676_">
			<path id="XMLID_3229_" class="st3" d="M377,413.5c-29.1,0-56.7-3.2-79.9-9.3l2.5-9.7c22.3,5.9,49.1,9.2,77.3,9.2
				c73.7,0,125-21.8,125-39.8h10c0,14-14.7,27-41.4,36.3C445.5,409,412.3,413.5,377,413.5L377,413.5z"/>
		</g>
		<g id="XMLID_707_">
			<path id="XMLID_3228_" class="st3" d="M377,462.8c-36.9,0-71.2-5.2-96.6-14.5l3.5-9.4c24,8.9,57.9,14.1,93.2,14.1
				c73.7,0,125-20.9,125-39.9h10c0,14-14.7,27.2-41.4,36.4C445.5,458.1,412.3,462.8,377,462.8z"/>
		</g>
		<g id="XMLID_453_">
			<path id="XMLID_3227_" class="st3" d="M252,269h-10v-4c0-14.3,14.7-27.3,41.4-36.5c25.1-8.7,58.3-13.5,93.6-13.5h4V50
				c0-18.9-51.3-40-125-40S131,31.1,131,50v175h-10V50c0-14.3,14.7-27.3,41.4-36.5C187.5,4.8,220.7,0,256,0s68.5,4.8,93.6,13.5
				C376.3,22.7,391,35.7,391,50v170.1c0,1.3-0.5,2.6-1.5,3.6c-1,0.9-2.3,1.4-3.6,1.4C383,225,380,225,377,225
				c-73.7,0-125,21.1-125,40V269z"/>
		</g>
		<g id="XMLID_671_">
			<path id="XMLID_3224_" class="st3" d="M256,85c-54.2,0-109-12-109-35s54.8-35,109-35s109,12,109,35S310.2,85,256,85z M256,25
				c-60.4,0-99,14.8-99,25s38.6,25,99,25s99-14.8,99-25S316.4,25,256,25z"/>
		</g>
		<g id="XMLID_670_">
			<path id="XMLID_3223_" class="st3" d="M256,100c-35.3,0-68.5-4.8-93.6-13.5C135.7,77.3,121,64.3,121,50h10c0,18.9,51.3,40,125,40
				s125-21.1,125-40h10c0,14.3-14.7,27.3-41.4,36.5C324.5,95.2,291.3,100,256,100z"/>
		</g>
		<g id="XMLID_669_">
			<path id="XMLID_3222_" class="st3" d="M256,149.3c-35.3,0-68.5-4.9-93.6-13.6C135.7,126.4,121,114,121,99h10c0,19,51.3,40,125,40
				s125-21,125-40h10c0,15-14.7,27.4-41.4,36.7C324.5,144.3,291.3,149.3,256,149.3z"/>
		</g>
		<g id="XMLID_668_">
			<path id="XMLID_3221_" class="st3" d="M256,198.5c-35.3,0-68.5-4.5-93.6-13.2C135.7,176,121,163,121,149h10c0,18,51.3,40,125,40
				s125-22,125-40h10c0,14-14.7,27-41.4,36.3C324.5,194,291.3,198.5,256,198.5z"/>
		</g>
		<g id="XMLID_672_">
			<path id="XMLID_3220_" class="st3" d="M256,247.8c-35.3,0-68.5-4.7-93.6-13.3C135.7,225.2,121,212,121,198h10
				c0,19,51.3,39.9,125,39.9c2.6,0,5.3-0.1,7.9-0.1l0.2,10C261.4,247.8,258.7,247.8,256,247.8L256,247.8z"/>
		</g>
		<g id="XMLID_666_">
			<path id="XMLID_3219_" class="st3" d="M371.2,224.7l-5.1-8.5c6.8-4.1,15-11.1,15-18.1h10C391,205,387.6,214.9,371.2,224.7z"/>
		</g>
		<g id="XMLID_790_">
			<path id="XMLID_3216_" class="st3" d="M135,511C60.6,511,0,450.4,0,376s60.6-135,135-135s135,60.6,135,135S209.4,511,135,511z
				 M135,251c-68.9,0-125,56.1-125,125s56.1,125,125,125s125-56.1,125-125S203.9,251,135,251z"/>
		</g>
		<g id="XMLID_789_">
			<path id="XMLID_3213_" class="st3" d="M135,485c-60.1,0-109-48.9-109-109s48.9-109,109-109s109,48.9,109,109S195.1,485,135,485z
				 M135,277c-54.6,0-99,44.4-99,99s44.4,99,99,99s99-44.4,99-99S189.6,277,135,277z"/>
		</g>
		<g id="XMLID_665_">
			<path id="XMLID_3198_" class="st3" d="M171,511h-36C60.6,511,0,450.4,0,376s60.6-135,135-135h36c74.4,0,135,60.6,135,135
				S245.4,511,171,511z M135,251c-68.9,0-125,56.1-125,125s56.1,125,125,125h36c68.9,0,125-56.1,125-125s-56.1-125-125-125H135z"/>
		</g>
		<g id="XMLID_836_">
			<path id="XMLID_3195_" class="st3" d="M65,232c-2.8,0-5-2.2-5-5c0-8.3-6.7-15-15-15c-2.8,0-5-2.2-5-5s2.2-5,5-5
				c8.3,0,15-6.7,15-15c0-2.8,2.2-5,5-5c2.8,0,5,2.2,5,5c0,8.3,6.7,15,15,15c2.8,0,5,2.2,5,5s-2.2,5-5,5c-8.3,0-15,6.7-15,15
				C70,229.8,67.8,232,65,232z M60,207c1.9,1.4,3.6,3.1,5,5c1.4-1.9,3.1-3.6,5-5c-1.9-1.4-3.6-3.1-5-5C63.6,203.9,61.9,205.6,60,207
				z"/>
		</g>
		<g id="XMLID_835_">
			<path id="XMLID_3192_" class="st3" d="M447,114c-2.8,0-5-2.2-5-5c0-8.3-6.7-15-15-15c-2.8,0-5-2.2-5-5s2.2-5,5-5
				c8.3,0,15-6.7,15-15c0-2.8,2.2-5,5-5s5,2.2,5,5c0,8.3,6.7,15,15,15c2.8,0,5,2.2,5,5s-2.2,5-5,5c-8.3,0-15,6.7-15,15
				C452,111.8,449.8,114,447,114z M442,89c1.9,1.4,3.6,3.1,5,5c1.4-1.9,3.1-3.6,5-5c-1.9-1.4-3.6-3.1-5-5
				C445.6,85.9,443.9,87.6,442,89z"/>
		</g>
	</g>
</g>
</svg>
