<svg xmlns="http://www.w3.org/2000/svg" width="54" height="42" viewBox="0 0 54 42">
  <g id="credit-card" transform="translate(-5 -12)">
    <path id="Path_1" data-name="Path 1" d="M54,37H6a1,1,0,0,1-1-1V30a1,1,0,0,1,1-1H54a1,1,0,0,1,1,1v6A1,1,0,0,1,54,37ZM7,35H53V31H7Z" fill="#a3159d"/>
    <g id="Group_1" data-name="Group 1">
      <path id="Path_2" data-name="Path 2" d="M16,43H12a1,1,0,0,1,0-2h4a1,1,0,0,1,0,2Z" fill="#fbbf11"/>
      <path id="Path_3" data-name="Path 3" d="M24,43H20a1,1,0,0,1,0-2h4a1,1,0,0,1,0,2Z" fill="#fbbf11"/>
      <path id="Path_4" data-name="Path 4" d="M48,49H36a1,1,0,0,1-1-1V42a1,1,0,0,1,1-1H48a1,1,0,0,1,1,1v6A1,1,0,0,1,48,49ZM37,47H47V43H37Z" fill="#fbbf11"/>
    </g>
    <path id="Path_5" data-name="Path 5" d="M50,54H10a5.006,5.006,0,0,1-5-5V25a5.006,5.006,0,0,1,5-5H44.08a1,1,0,0,1,0,2H10a3,3,0,0,0-3,3V49a3,3,0,0,0,3,3H50a3,3,0,0,0,3-3V26.32a1,1,0,0,1,2,0V49a5.006,5.006,0,0,1-5,5Z" fill="#a3159d"/>
    <path id="Path_6" data-name="Path 6" d="M51,28a8,8,0,1,1,8-8,8,8,0,0,1-8,8Zm0-14a6,6,0,1,0,6,6,6,6,0,0,0-6-6Z" fill="#a3159d"/>
    <path id="Path_7" data-name="Path 7" d="M51,24a1,1,0,0,1-1-1V17a1,1,0,0,1,2,0v6A1,1,0,0,1,51,24Z" fill="#fbbf11"/>
    <path id="Path_8" data-name="Path 8" d="M54,21H48a1,1,0,0,1,0-2h6a1,1,0,0,1,0,2Z" fill="#fbbf11"/>
  </g>
</svg>
