<svg id="facebook" xmlns="http://www.w3.org/2000/svg" width="44.508" height="44.508" viewBox="0 0 44.508 44.508">
  <g id="Group_109" data-name="Group 109" transform="translate(0 0)">
    <path id="Path_120" data-name="Path 120" d="M33.346,0H11.127A11.179,11.179,0,0,0,0,11.162V33.381A11.171,11.171,0,0,0,11.127,44.508H33.346A11.186,11.186,0,0,0,44.508,33.346V11.162A11.186,11.186,0,0,0,33.346,0ZM28.224,22.254h-4.2V36.03h-5.3V22.254H15.9V16.6h2.473V14.2c0-2.261,1.13-5.828,5.9-5.828h4.345v4.7H25.539c-.495,0-1.166.318-1.166,1.413V16.6h4.345Z"/>
  </g>
</svg>
