<svg id="instagram" xmlns="http://www.w3.org/2000/svg" width="45.078" height="45.078" viewBox="0 0 45.078 45.078">
  <path id="Path_117" data-name="Path 117" d="M218.924,214.962A3.962,3.962,0,1,1,214.962,211,3.962,3.962,0,0,1,218.924,214.962Zm0,0" transform="translate(-192.423 -192.423)"/>
  <path id="Path_118" data-name="Path 118" d="M138.665,120H125.283A5.288,5.288,0,0,0,120,125.283v13.382a5.288,5.288,0,0,0,5.283,5.283h13.382a5.288,5.288,0,0,0,5.283-5.283V125.283A5.288,5.288,0,0,0,138.665,120Zm-6.691,18.577a6.6,6.6,0,1,1,6.6-6.6A6.611,6.611,0,0,1,131.974,138.577Zm7.572-12.854a1.321,1.321,0,1,1,1.321-1.321A1.321,1.321,0,0,1,139.545,125.723Zm0,0" transform="translate(-109.435 -109.435)"/>
  <path id="Path_119" data-name="Path 119" d="M33.192,0H11.886A11.9,11.9,0,0,0,0,11.886V33.192A11.9,11.9,0,0,0,11.886,45.078H33.192A11.9,11.9,0,0,0,45.078,33.192V11.886A11.9,11.9,0,0,0,33.192,0Zm3.962,29.23a7.933,7.933,0,0,1-7.924,7.924H15.848A7.933,7.933,0,0,1,7.924,29.23V15.848a7.933,7.933,0,0,1,7.924-7.924H29.23a7.933,7.933,0,0,1,7.924,7.924Zm0,0"/>
</svg>
