<svg xmlns="http://www.w3.org/2000/svg" width="468.562" height="236.273" viewBox="0 0 468.562 236.273">
  <g id="Layer_2" data-name="Layer 2" transform="translate(-742.685 -804.125)">
    <g id="圖層_1" data-name="圖層 1">
      <path id="Path_356" data-name="Path 356" d="M919.333,946.138a8.647,8.647,0,0,0-1.982-1.24c-.741-.249-1.732-.742-2.474-.991a12.3,12.3,0,0,0-2.966-.243,15.406,15.406,0,0,0-4.705.742,9.743,9.743,0,0,0-3.707,2.474,13.146,13.146,0,0,0-2.474,3.957,14.518,14.518,0,0,0-.991,5.689,20.713,20.713,0,0,0,.741,5.447,10.746,10.746,0,0,0,2.474,3.957,12.226,12.226,0,0,0,3.714,2.474,16.076,16.076,0,0,0,4.948.991h1.733l1.726-.25a6.228,6.228,0,0,0,1.732-.5c.5-.243.991-.243,1.24-.493V957.766a5.51,5.51,0,0,0,1.976.243h.99a.913.913,0,0,0,.742-.243,17.15,17.15,0,0,1-.243,2.967,35.78,35.78,0,0,0,0,5.2V969.4a15.952,15.952,0,0,0-1.982.741,10.684,10.684,0,0,1-2.723.492l-2.966.493c-.742,0-1.733.249-2.474.249a20.848,20.848,0,0,1-6.68-.991,13.911,13.911,0,0,1-4.948-2.717,11.5,11.5,0,0,1-3.2-4.475,13.562,13.562,0,0,1-.991-6.181,13.85,13.85,0,0,1,1.222-6.169,11.408,11.408,0,0,1,3.2-4.475,13.934,13.934,0,0,1,4.948-2.717,23.274,23.274,0,0,1,10.138-.741c.991.242,1.982.242,2.724.492l2.224.741c.5.25,1.241.493,1.733.742a3.587,3.587,0,0,0-.492,1.483,3.65,3.65,0,0,0-.25,1.732H920.8A6.864,6.864,0,0,0,919.333,946.138Z" fill="#241a16"/>
      <path id="Path_357" data-name="Path 357" d="M934.177,953.311v-5.2l-.249-5.191h8.9a14.279,14.279,0,0,1,3.2.243,8.949,8.949,0,0,1,2.723.99,4.41,4.41,0,0,1,1.732,1.982,6.608,6.608,0,0,1-.249,6.431,4.816,4.816,0,0,1-2.224,2.225,25.606,25.606,0,0,1-2.724,1.483c-.741.249-1.732.5-2.717.748l1.234,1.726,1.982,2.474a27.017,27.017,0,0,1,2.225,2.723,25.919,25.919,0,0,0,2.224,2.723,17.654,17.654,0,0,1,1.982,2.474,11,11,0,0,0,1.483,1.733h-4.948L947.02,968.4a35.225,35.225,0,0,0-2.724-3.714c-.984-1.234-1.975-2.474-2.966-3.957a19.371,19.371,0,0,0-2.966-3.2h-1.47v7.914c0,1.733.249,3.465.249,4.948h-3.957c0-1.732.249-3.458.249-4.948v-5.19Zm3.2,2.224c.492,0,.742.25,1.234.25H940.1a8.375,8.375,0,0,0,2.474-.25,7.454,7.454,0,0,0,2.474-.984,7.571,7.571,0,0,0,1.976-1.982,6.56,6.56,0,0,0,.741-2.972,8.78,8.78,0,0,0-.492-2.474c-.249-.742-.991-1.234-1.483-1.726a3.278,3.278,0,0,0-1.982-.748,6.929,6.929,0,0,0-2.224-.243h-2.232l-1.483.243.25,4.475V953.6Z" fill="#241a16"/>
      <path id="Path_358" data-name="Path 358" d="M985.881,970.379h-4.207c-.243-.492-.492-1.483-.741-2.225s-.742-1.732-.991-2.723l-1.234-2.966-1.24-2.723H967.08c-.742,1.981-1.733,4.206-2.225,5.939s-1.24,3.464-1.489,4.7H960.4c2.225-4.7,4.207-9.4,6.432-14.1,1.981-4.7,4.206-9.4,6.188-14.1h.76a30.254,30.254,0,0,1,1.982,4.948c.742,1.732,1.483,3.714,2.225,5.446s1.483,3.708,2.224,5.44l2.225,5.2,1.982,4.206Zm-17.81-12.37h8.905L972.5,947.871Z" fill="#241a16"/>
      <path id="Path_359" data-name="Path 359" d="M1008.4,959.978q-5.211-5.561-10.389-11.123v21.773h-2.972a4.307,4.307,0,0,1,.249-1.483c.25-.741,0-1.483.25-2.474s0-1.981.242-3.2l.25-3.465V942.673h.767l5.446,5.69,5.441,5.939,5.2,5.689c1.732,1.732,2.966,3.2,4.475,4.475V950.837a70.986,70.986,0,0,0-.243-7.422c.492,0,.984.249,1.483.249a1.825,1.825,0,0,0,1.234-.249,13.663,13.663,0,0,1-.243,2.723c-.25,1.234,0,2.474-.25,3.708s0,2.723-.249,3.957a11.646,11.646,0,0,0,0,2.973V971.37h-.556C1015.076,967.413,1011.86,963.7,1008.4,959.978Z" fill="#241a16"/>
      <path id="Path_360" data-name="Path 360" d="M1031.9,953.311v-5.2a36.018,36.018,0,0,0-.249-5.191h11.878a15.75,15.75,0,0,1,5.932.984,11.21,11.21,0,0,1,4.206,2.723,10.472,10.472,0,0,1,2.474,4.207,20.938,20.938,0,0,1,.742,5.689,15.51,15.51,0,0,1-1.483,6.681,12.065,12.065,0,0,1-3.465,4.474,12.378,12.378,0,0,1-4.7,2.474,17.243,17.243,0,0,1-4.948.742h-10.867c0-1.732.249-3.465.249-4.948v-5.2Zm3.2,6.929c0,2.967,0,5.69.243,8.656a6.829,6.829,0,0,0,2.231.249h2.966a27.025,27.025,0,0,0,4.475-.5,8.5,8.5,0,0,0,3.957-1.976,11.874,11.874,0,0,0,2.966-3.957,14.013,14.013,0,0,0,.991-6.437,14.44,14.44,0,0,0-.991-5.689,7.387,7.387,0,0,0-2.474-3.465,6.471,6.471,0,0,0-3.708-1.726,27.066,27.066,0,0,0-4.7-.5h-3.465c-1.24,0-1.982.249-2.723.249,0,1.234-.25,2.724-.25,3.957v4.207Z" fill="#241a16"/>
      <path id="Path_361" data-name="Path 361" d="M756.787,1014.418c2.723,5.2,5.69,10.637,8.662,16.327l1.726-3.2c.748-1.483,1.49-2.967,2.474-4.7.748-1.732,1.982-3.708,3.2-5.939l3.484-6.431,3.465-6.431a64.18,64.18,0,0,0,3.2-5.939h.741c.5,3.708.742,7.422,1.24,10.868.25,3.465.742,6.923,1.234,10.388.249,3.465.748,6.68,1.24,10.145s.742,6.681,1.234,9.9h-5.4c-.492-5.2-.741-10.145-1.24-15.093s-1-9.9-1.5-15.112h0c-2.717,4.948-5.44,9.9-7.914,14.85s-5.2,9.9-7.422,15.342h-.5l-7.422-14.85c-2.474-4.948-5.19-10.145-7.671-15.342h0c-.249,2.474-.5,4.948-.991,7.92s-.741,5.69-.991,8.413-.492,5.44-.741,7.914a55.809,55.809,0,0,0-.249,5.939h-3.951c.492-3.2.991-6.431,1.483-10.145s.991-7.173,1.483-10.638.991-7.172,1.49-10.637.741-6.68,1.233-9.9h.5C751.59,1004.03,754.313,1009.2,756.787,1014.418Z" fill="#241a16"/>
      <path id="Path_362" data-name="Path 362" d="M809.488,1006.747c0-2.474-.243-4.948-.243-7.671l1.483.243h2.724l1.483-.243c0,2.474-.25,5.191-.25,7.671v25.468c0,2.474.25,4.948.25,7.422H809c0-2.474.249-4.948.249-7.422s.243-4.948.243-7.671v-10.126A61.157,61.157,0,0,0,809.488,1006.747Z" fill="#241a16"/>
      <path id="Path_363" data-name="Path 363" d="M838.428,1006.747c0-2.474-.243-4.948-.243-7.671l1.483.243h2.723l1.483-.243c0,2.474-.249,5.191-.249,7.671s-.249,4.948-.249,7.671v22.515h7.92a45.9,45.9,0,0,0,8.164-.741,4.167,4.167,0,0,0-.25,1.732,3.107,3.107,0,0,0,.25,1.483H837.935c0-2.474.25-4.948.25-7.422s.243-5.2.243-7.914v-17.324Z" fill="#241a16"/>
      <path id="Path_364" data-name="Path 364" d="M880.242,1006.747c0-2.474-.249-4.948-.249-7.671l1.483.243H884.2l1.483-.243c0,2.474-.243,5.191-.243,7.671s-.249,4.948-.249,7.671v22.515H893.1a45.7,45.7,0,0,0,8.163-.741,4.267,4.267,0,0,0-.242,1.732,3.191,3.191,0,0,0,.242,1.483H879.532c0-2.474.243-4.948.243-7.422s.25-4.948.25-7.671v-10.145A73.835,73.835,0,0,0,880.242,1006.747Z" fill="#241a16"/>
      <path id="Path_365" data-name="Path 365" d="M922.05,1006.5c0-2.474-.243-4.948-.243-7.422l5.191.243h10.394l5.2-.243c0,.492-.25,1.234-.25,1.733a4.206,4.206,0,0,0,.25,1.732l-3.465-.249-3.2-.5-3.7-.268h-4.948a18.558,18.558,0,0,1-.249,3.707,21.475,21.475,0,0,0,0,3.957v7.672h4.7l3.708-.25,3.2-.243c.991,0,1.982-.249,2.723-.249,0,.492-.249,1.24-.249,1.732a4.192,4.192,0,0,0,.249,1.733,15.128,15.128,0,0,0-3.465-.25c-1.483,0-2.717-.242-3.957-.242H927v17.068h8.662c1.483,0,2.966-.249,4.206-.249a12.822,12.822,0,0,0,3.2-.493c0,.243-.25.493-.25.991v.985a3.144,3.144,0,0,0,.25,1.489H921.558c0-2.474.249-4.948.249-7.422s.243-4.948.243-7.671V1006.5Z" fill="#241a16"/>
      <path id="Path_366" data-name="Path 366" d="M982.665,1024.314c-5.2-5.44-10.145-10.868-15.342-16.327v31.42h-4.207a19.317,19.317,0,0,0,.243-2.225c0-1.24.25-2.231.25-3.714s.249-2.966.249-4.7.249-3.465.249-5.2a32.2,32.2,0,0,1,.243-4.947,26.716,26.716,0,0,0,0-4.475v-9.628c0-2.723.5-4.7.5-6.181h.984l7.671,8.406q4.086,4.474,8.164,8.911l7.671,8.164c2.474,2.474,4.475,4.7,6.431,6.68V1010.48c0-3.957-.243-7.671-.243-11.136a5.417,5.417,0,0,0,3.957,0c0,.748-.249,2.231-.249,3.964s-.249,3.458-.249,5.44-.243,3.957-.243,5.689V1040.4h-.736Z" fill="#241a16"/>
      <path id="Path_367" data-name="Path 367" d="M1041.056,1024.314l-15.343-16.327a33.3,33.3,0,0,1-.249,4.475c-.243,1.975,0,4.475,0,7.422v17.81c0,.741,0,1.483.249,1.732h-4.206a6.762,6.762,0,0,0,.249-2.224c0-.991.25-2.231.25-3.715s.242-2.966.242-4.7.25-3.465.25-5.2.249-3.465.249-4.948v-14.122a41.7,41.7,0,0,0-.249-6.181h.991l8.163,8.406,8.163,8.911,7.672,8.164c2.474,2.474,4.474,4.7,6.431,6.68V1010.48c0-3.957-.25-7.671-.493-11.136a5.4,5.4,0,0,0,1.976.25c.741,0,1.24-.25,1.981-.25,0,.748-.249,2.231-.249,3.964s-.249,3.458-.249,5.44-.243,3.957-.243,5.689V1040.4h-.742C1050.951,1034.951,1046.016,1029.76,1041.056,1024.314Z" fill="#241a16"/>
      <path id="Path_368" data-name="Path 368" d="M1080.14,1006.747c0-2.474-.243-4.948-.243-7.671l1.483.243h2.724l1.483-.243c0,2.474-.249,5.191-.249,7.671s-.25,4.948-.25,7.671v10.126c0,2.474,0,5.2.25,7.671a74.118,74.118,0,0,1,.249,7.422h-5.939a73.53,73.53,0,0,0,.249-7.422c0-2.474.243-4.948.243-7.671v-10.126A39.323,39.323,0,0,0,1080.14,1006.747Z" fill="#241a16"/>
      <path id="Path_369" data-name="Path 369" d="M1139.765,1018.151v-12.887c0-2.966-.243-5.191-.243-6.182l1.233.243H1142a4.288,4.288,0,0,0,1.732-.243,29.65,29.65,0,0,0-.249,4.948c0,1.975-.25,3.957-.25,6.182s-.249,4.475-.249,6.68a61.306,61.306,0,0,1-.243,6.68,21.511,21.511,0,0,1-1.24,6.93,17.605,17.605,0,0,1-3.2,5.44,11.515,11.515,0,0,1-5.2,3.2,17.4,17.4,0,0,1-7.179,1.01c-5.938,0-10.145-1.234-12.862-3.958s-3.963-6.929-3.963-12.619a31.365,31.365,0,0,1,.249-4.948c0-1.483.25-2.966.25-4.474,0-3.2,0-6.182-.25-8.905s-.249-4.7-.249-6.431c.5,0,.991.249,1.489.249h2.717l1.241-.249c0,.741-.25,1.981-.25,3.464s-.249,2.967-.249,4.7-.243,3.714-.243,5.69V1023.3a24.087,24.087,0,0,0,.492,4.206,12.339,12.339,0,0,0,1.24,3.964,9.76,9.76,0,0,0,5.933,5.44,13.83,13.83,0,0,0,5.446.741,13.316,13.316,0,0,0,5.4-.965,12.084,12.084,0,0,0,3.714-2.474,10.3,10.3,0,0,0,2.225-3.465,20.687,20.687,0,0,0,1.24-4.2,27.8,27.8,0,0,0,.492-4.474A21.135,21.135,0,0,1,1139.765,1018.151Z" fill="#241a16"/>
      <path id="Path_370" data-name="Path 370" d="M1179.354,1014.418c2.717,5.2,5.69,10.637,8.656,16.327l1.732-3.2c.742-1.483,1.483-2.967,2.474-4.7s1.982-3.708,3.2-5.939l3.484-6.431c1.233-2.224,2.224-4.206,3.464-6.431s2.225-3.957,3.2-5.939h.741c.493,3.708.742,7.422,1.234,10.868s.748,6.923,1.24,10.388.742,6.68,1.234,10.145.748,6.681,1.24,9.9h-5.689c-.25-5.2-.742-10.145-1.24-15.093s-.985-9.9-1.484-15.093h0c-2.723,4.948-5.44,9.9-7.914,14.85s-5.2,9.9-7.422,15.342h-.741q-3.3-7.428-7.4-14.869c-2.474-4.948-5.2-10.145-7.671-15.342h-.249c-.25,2.474-.492,4.948-.991,7.92s-.742,5.69-.985,8.413-.5,5.44-.747,7.914a57.139,57.139,0,0,0-.243,5.939,11.945,11.945,0,0,0-4.207,0c.492-3.2.991-6.431,1.483-10.145s.991-7.173,1.483-10.638.991-7.172,1.484-10.637.747-6.68.99-9.9h.972C1173.908,1004.03,1176.631,1009.2,1179.354,1014.418Z" fill="#241a16"/>
      <rect id="Rectangle_247" data-name="Rectangle 247" width="8.905" height="87.087" transform="translate(955.452 825.157)" fill="#ae283f"/>
      <rect id="Rectangle_248" data-name="Rectangle 248" width="8.905" height="87.087" transform="translate(988.853 825.157)" fill="#ae283f"/>
      <rect id="Rectangle_249" data-name="Rectangle 249" width="8.905" height="108.362" transform="translate(1005.429 804.125)" fill="#ae283f"/>
      <rect id="Rectangle_250" data-name="Rectangle 250" width="8.905" height="108.362" transform="translate(938.875 804.125)" fill="#ae283f"/>
      <rect id="Rectangle_251" data-name="Rectangle 251" width="8.905" height="68.779" transform="translate(972.277 843.709)" fill="#ae283f"/>
    </g>
  </g>
</svg>
