<?xml version="1.0"?>
<svg xmlns="http://www.w3.org/2000/svg" xmlns:xlink="http://www.w3.org/1999/xlink" xmlns:svgjs="http://svgjs.com/svgjs" version="1.1" width="512" height="512" x="0" y="0" viewBox="0 0 64 64" style="enable-background:new 0 0 512 512" xml:space="preserve" class=""><g><path xmlns="http://www.w3.org/2000/svg" d="M12,63H53a3,3,0,0,0,3-3V50.816A3,3,0,0,0,58,48V40a3,3,0,0,0-2-2.816V19a3,3,0,0,0-3-3H47.949a15.979,15.979,0,0,0-31.9,0H12a6.006,6.006,0,0,0-6,6V57A6.006,6.006,0,0,0,12,63Zm6.79-37H12a4,4,0,0,1-3.858-3h9.036A15.977,15.977,0,0,0,18.79,26ZM12,28H54v4H8V26.46A5.969,5.969,0,0,0,12,28Zm16.581-8.814L24.12,16H29a1,1,0,0,0,.937-.649L32,9.848l2.063,5.5A1,1,0,0,0,35,16h4.88l-4.461,3.186a1,1,0,0,0-.338,1.208l1.592,3.715-4.092-2.923a1,1,0,0,0-1.162,0l-4.092,2.923,1.592-3.715A1,1,0,0,0,28.581,19.186ZM32,23.229,35.879,26H28.121ZM46.822,23H54v3H45.21A15.977,15.977,0,0,0,46.822,23ZM8,34H54v3H47a5.006,5.006,0,0,0-5,5v4a5.006,5.006,0,0,0,5,5h7v4H8ZM53,61H12a4,4,0,0,1-4-4H54v3A1,1,0,0,1,53,61Zm3-13a1,1,0,0,1-1,1H47a3,3,0,0,1-3-3V42a3,3,0,0,1,3-3h8a1,1,0,0,1,1,1ZM54,19v2H47.481a15.96,15.96,0,0,0,.473-3H53A1,1,0,0,1,54,19ZM32,3A13.985,13.985,0,0,1,42.707,26H39.659l-2.423-5.654,6.345-4.532A1,1,0,0,0,43,14H35.693L32.937,6.649a1,1,0,0,0-1.874,0L28.307,14H21a1,1,0,0,0-.581,1.814l6.345,4.532L24.341,26H21.293A13.985,13.985,0,0,1,32,3ZM12,18h4.046a15.96,15.96,0,0,0,.473,3H8.142A4,4,0,0,1,12,18Z" fill="#ffffff" data-original="#000000"/><circle xmlns="http://www.w3.org/2000/svg" cx="48" cy="44" r="2" fill="#ffffff" data-original="#000000"/></g></svg>
