<?xml version="1.0" encoding="utf-8"?>
<!-- Generator: Adobe Illustrator 24.3.0, SVG Export Plug-In . SVG Version: 6.00 Build 0)  -->
<svg version="1.1" id="Layer_1" xmlns="http://www.w3.org/2000/svg" xmlns:xlink="http://www.w3.org/1999/xlink" x="0px" y="0px"
	 viewBox="0 0 512 512" style="enable-background:new 0 0 512 512;" xml:space="preserve">
<style type="text/css">
	.st0{fill:#6562F1;}
	.st1{fill:#E2AC40;}
	.st2{fill:#F2C34E;}
	.st3{fill:#8380F3;}
	.st4{fill:#BEBEBE;}
	.st5{fill:#DFDFDF;}
	.st6{fill:#EDEDED;}
	.st7{fill:#5350EF;}
	.st8{fill:#292956;}
	.st9{fill:url(#SVGID_1_);}
	.st10{fill:url(#SVGID_2_);}
	.st11{fill:url(#SVGID_3_);}
	.st12{fill:url(#SVGID_4_);}
	.st13{fill:url(#SVGID_5_);}
	.st14{fill:url(#SVGID_6_);}
	.st15{fill:url(#SVGID_7_);}
	.st16{fill:url(#SVGID_8_);}
	.st17{fill:url(#SVGID_9_);}
	.st18{fill:#A3159D;}
	.st19{fill:#FBBF11;}
</style>
<g id="FILLED_OUTLINE">
	<path class="st0" d="M409.2,214l-12.4,21.5c-6,10.5,6.1,28.8,27,40.9c21,12.1,42.9,13.4,48.9,2.9l12.4-21.5L409.2,214z"/>
	<path class="st1" d="M326.8,36.9l-20,34.7c-11,19.1,11.1,52.5,49.4,74.6c38.3,22.1,78.3,24.4,89.3,5.3l20-34.7L326.8,36.9z"/>
	<path class="st2" d="M321.4,118.5c1.8,2,3.7,4,5.8,6l24.4-42.3l-6.9-4L321.4,118.5z"/>
	<path class="st2" d="M352.8,144.2c1.1,0.7,2.3,1.4,3.4,2c1.2,0.7,2.3,1.3,3.5,2l23.4-40.6l-6.9-4L352.8,144.2z"/>
	<path class="st2" d="M397.6,162.4l23-40l-6.9-4l-24.2,42C392.3,161.2,395,161.9,397.6,162.4z"/>
	<path class="st0" d="M242.7,73.7l-18.5-35.5l-141.9,74l18.5,35.5c10.2,19.6,50.3,18.9,89.4-1.5S253,93.3,242.7,73.7z"/>
	<path class="st3" d="M203.8,76.8l-7.1,3.7l23.6,45.2c2.1-1.9,4.1-3.8,6-5.8L203.8,76.8z"/>
	<path class="st3" d="M171.5,101.5l-7.1,3.7l22.3,42.8c1.2-0.6,2.4-1.2,3.6-1.8c1.2-0.6,2.4-1.3,3.5-1.9L171.5,101.5z"/>
	<path class="st3" d="M156.4,159l-24.8-47.6l-7.1,3.7l23.8,45.6C150.9,160.2,153.7,159.7,156.4,159z"/>
	<path class="st2" d="M416.1,42.2c-38.3-22.1-78.3-24.4-89.3-5.3c-11,19.1,11.1,52.5,49.4,74.6s78.3,24.4,89.3,5.3
		S454.4,64.3,416.1,42.2z"/>
	<ellipse transform="matrix(0.8866 -0.4626 0.4626 0.8866 -17.4219 79.4568)" class="st3" cx="153.3" cy="75.3" rx="80" ry="40"/>
	<path class="st4" d="M99.3,35.2l-4.7-6.5c4.9-3.5,10-7,15.3-10.2l4.1,6.8C109,28.5,104,31.8,99.3,35.2z"/>
	<path class="st4" d="M45.8,113.3C38.7,92,53.4,62.8,84.2,36.9l5.1,6.1c-27.8,23.3-41.9,49.9-36,67.7L45.8,113.3z"/>
	<path class="st4" d="M358.7,182.2c-9.9-3.3-19.5-7.7-28.5-12.9c-15-8.6-28.1-19.2-37.7-30.7l6.1-5.2c9.1,10.7,21.4,20.7,35.6,28.9
		c8.6,5,17.7,9.1,27.1,12.2L358.7,182.2z"/>
	<path class="st4" d="M284.6,127.9c-3-4.6-5.3-9.6-6.9-14.8l7.7-2.3c1.4,4.5,3.5,8.8,6,12.8L284.6,127.9z"/>
	<path class="st4" d="M277.7,185.4c-19.2-13.7-43.9-17.2-66.2-9.3l-2.6-7.6c24.7-8.7,52.1-4.8,73.4,10.3L277.7,185.4z"/>
	<path class="st5" d="M295.9,273.1c-3-44.1-34-77.9-69.2-75.5l-39.9,2.7l10.7,159.6l39.9-2.7C272.6,354.8,298.8,317.2,295.9,273.1z"
		/>
	<path class="st6" d="M295.9,273.1c-0.1-1.3-0.2-2.7-0.3-4l-45.1,3l0.5,8l45.1-3C296,275.7,295.9,274.4,295.9,273.1z"/>
	<path class="st6" d="M282.4,229.9l-45.7,3.1l0.5,8l49.4-3.3C285.3,235,283.9,232.4,282.4,229.9z"/>
	<path class="st6" d="M291.4,309.5l-50.3,3.4l0.5,8l46.6-3.1C289.5,315,290.5,312.3,291.4,309.5z"/>
	
		<ellipse transform="matrix(0.9977 -6.715772e-02 6.715772e-02 0.9977 -18.3747 13.5323)" class="st6" cx="192.1" cy="280.1" rx="64" ry="80"/>
	<path class="st1" d="M335.8,200.8l-39.8-4.3L279,355.6l39.8,4.3c22,2.4,43.6-31.3,48.3-75.3S357.8,203.2,335.8,200.8z"/>
	<path class="st2" d="M365.2,240.2l-46.2-5l-0.9,8l48.5,5.2C366.3,245.5,365.8,242.8,365.2,240.2z"/>
	<path class="st2" d="M324.1,276l-0.9,8l43.4,4.7c0.2-1.3,0.3-2.6,0.5-4c0.1-1.3,0.3-2.7,0.4-4L324.1,276z"/>
	<path class="st2" d="M359,319.9l-43.5-4.7l-0.9,8l41.2,4.4C356.9,325.2,358,322.6,359,319.9z"/>
	<ellipse transform="matrix(0.1067 -0.9943 0.9943 0.1067 -17.6313 532.5209)" class="st2" cx="287.5" cy="276.1" rx="80" ry="40"/>
	<path class="st3" d="M418.7,463.1L408,456l-16-40l-8-88H112v40l-16,56v32l-6.7,6.7c-5.1,5.1-5.1,13.4,0,18.5c0,0,0,0,0,0l2,2
		c3,3,7.1,4.7,11.3,4.7h306.7c4.2,0,8.3-1.7,11.3-4.7l0,0c5.1-5.1,5.1-13.4,0-18.6C420.1,464.2,419.4,463.6,418.7,463.1z"/>
	<path class="st7" d="M116.2,277.1l63.6-9.1c18.7-2.7,37.7-2.1,56.2,1.6l29.6,5.9c14.9,3,30.2,3.9,45.4,2.7l61.2-4.7
		c8.8-0.7,16.5,5.9,17.2,14.7c0.1,1.2,0.1,2.3-0.1,3.5L384,328l-59.7,14.9c-23.9,6-48.8,6.6-73,1.7h0c-28.4-5.7-57.8-3.8-85.2,5.3
		L112,368v-48l-8.4-21.1c-3.3-8.2,0.7-17.5,8.9-20.8C113.7,277.6,114.9,277.3,116.2,277.1z"/>
	<path class="st0" d="M300.9,315.9c-19.2,2.7-38.6,2.4-57.7-1.1l-4.7-0.8c-35.6-6.5-72.3-2.1-105.3,12.6l-2.2,1l-19.1,8.9V368
		l54.1-18c27.5-9.2,56.8-11,85.2-5.3h0c24.2,4.8,49.1,4.2,73-1.7L384,328l3.5-24.4L300.9,315.9z"/>
	<path class="st5" d="M160.4,341.5l-36.1-17.2L55.5,468.7L91.6,486c19.9,9.5,51.5-15.1,70.5-55C181.1,391.1,180.4,351,160.4,341.5z"
		/>
	<path class="st0" d="M197.8,448.7l-7.2-3.4c13.8-29,17.4-59.3,8.8-75.4l7.1-3.8C216.3,384.6,212.9,417,197.8,448.7z"/>
	<path class="st6" d="M142.7,461.6L99,440.8l-3.4,7.2l41.6,19.9C139.1,465.9,140.9,463.8,142.7,461.6z"/>
	<path class="st6" d="M175.1,388.4l-42.2-20.1l-3.4,7.2l44.3,21.1C174.3,393.8,174.7,391.1,175.1,388.4z"/>
	<path class="st6" d="M120.3,406.6l-3.4,7.2l43.5,20.7c0.6-1.2,1.2-2.4,1.8-3.6c0.6-1.2,1.1-2.4,1.7-3.6L120.3,406.6z"/>
	<ellipse transform="matrix(0.4304 -0.9026 0.9026 0.4304 -306.7211 306.9994)" class="st6" cx="89.9" cy="396.5" rx="80" ry="40"/>
	<path class="st3" d="M441.6,284l18.3-31.9l-6.9-4l-19.1,33.1C436.4,282.3,439,283.2,441.6,284z"/>
	<path class="st3" d="M411.9,268l17.8-30.8l-6.9-4l-16.8,29.2C407.8,264.4,409.8,266.3,411.9,268z"/>
	<path class="st4" d="M82.9,282.7l-8-0.7c1-10.4,3.1-20.7,6.1-30.7c5-16.6,12.4-31.7,21.4-43.7l6.4,4.8
		c-8.4,11.3-15.3,25.5-20.1,41.2C85.8,263,83.9,272.8,82.9,282.7z"/>
	<path class="st4" d="M116.7,203.1l-5.7-5.6c3.8-3.9,8.1-7.3,12.8-10.1l4,6.9C123.8,196.8,120,199.7,116.7,203.1z"/>
	<path class="st3" d="M456.7,219.3c-21-12.1-42.2-14.5-47.5-5.4c-5.3,9.1,7.5,26.3,28.5,38.4c21,12.1,42.2,14.5,47.5,5.4
		C490.4,248.6,477.7,231.4,456.7,219.3z"/>
	<path class="st8" d="M420.9,459.8l-9.7-6.4l-15.3-38.3l-7.9-87l5.1-35.8c1.6-10.9-6-21.1-17-22.6c-1.4-0.2-2.8-0.3-4.2-0.2
		c0.5-40.1-14.2-70.4-35.7-72.7l-39.8-4.3c-10-1.1-20.1,4.1-28.9,14.6c-12.3-9.7-26.8-14.5-41.3-13.5l-39.9,2.7
		c-33.9,2.3-60.1,34.5-62.3,75.7l-8.6,1.2c-10.9,1.6-18.5,11.7-17,22.6c0.2,1.6,0.6,3.1,1.2,4.6l7.5,18.8
		c-6.7,1.6-13.9,5.3-21.1,10.9c-13.8,10.8-26.6,27.6-36.1,47.5C40.7,397.4,35.7,418,36,435.5c0.3,18.5,6.6,31.6,17.7,36.9l36.1,17.2
		c3.5,1.6,7.3,2.5,11.1,2.4c0.6,0,1.7,0,1.7,0h306.7c5.3,0,10.4-2.1,14.1-5.9c6.7-6.7,6.7-17.5,0-24.2
		C422.7,461.1,421.8,460.4,420.9,459.8z M364,270.1l-32,2.5c0.6-9.4,0.2-18.8-1-28.1l31.5,3.4C363.6,255.3,364.1,262.7,364,270.1z
		 M335.4,204.8c11.5,1.2,20.9,15,25.5,34.9l-31.3-3.4c-1.1-5.5-2.7-10.9-4.7-16.2c-2.4-6.4-5.9-12.4-10.4-17.6L335.4,204.8z
		 M268.8,219c8.3-12.9,17.8-19.4,26.8-18.5c18.3,2,30.7,34.3,28.3,72.7l-13.3,1c-14.8,1.1-29.7,0.2-44.3-2.7l-14.1-2.8
		C254.7,249.5,260.5,231.9,268.8,219z M226.9,201.5c12.5-0.9,25.2,3.4,35.9,12c-0.2,0.4-0.5,0.7-0.7,1.1c-4.8,7.7-8.7,16-11.4,24.6
		c-8-17-20.2-29.9-34.6-37L226.9,201.5z M148.3,226.3c10.2-13.2,23.9-21.1,38.6-22.1c25.8-1.7,49.8,17.3,60.1,47.6
		c-1.2,5-2.1,10.1-2.8,15.4l-7.6-1.5c-18.9-3.8-38.4-4.3-57.5-1.6l-47,6.7C133.5,254,139.1,238.4,148.3,226.3z M107.3,297.4
		c-2.5-6.2,0.5-13.1,6.7-15.6c0.9-0.4,1.8-0.6,2.8-0.7l63.6-9.1c18.2-2.6,36.8-2.1,54.8,1.5l29.6,5.9c15.3,3.1,30.9,4,46.5,2.8
		l61.2-4.7c6.6-0.5,12.4,4.4,12.9,11c0.1,0.9,0,1.8-0.1,2.6l-1.3,8.8l-83.6,12c-18.7,2.7-37.8,2.3-56.4-1.1l-4.7-0.8
		c-36.4-6.7-73.9-2.2-107.6,12.9l-0.6,0.2l-5.1-2.4c-3.3-1.5-6.8-2.4-10.4-2.4L107.3,297.4z M131.3,411.8
		c4.5-9.8,7.8-20.1,10.1-30.6l28.6,13.7c-2.1,10.6-5.4,20.9-9.9,30.8L131.3,411.8z M156.7,432.8c-4.8,9.7-10.8,18.7-17.7,27
		l-28.7-13.7c6.8-8.4,12.6-17.5,17.5-27.1L156.7,432.8z M142.8,373c2-14.4,1-27.3-3-36.9l18.9,9c8.2,3.9,12.9,14.5,13.2,29.8
		c0.1,3.9-0.1,7.8-0.6,11.7L142.8,373z M170.5,344.4c-2.3-2.7-5.2-4.9-8.4-6.5l-21.4-10.2c30.8-12.4,64.5-15.8,97.1-9.9l4.7,0.8
		c19.5,3.5,39.4,3.9,58.9,1.1l81.3-11.6l-2.4,16.6L323.3,339c-23.3,5.8-47.6,6.4-71.2,1.7C225,335.3,197,336.6,170.5,344.4
		L170.5,344.4z M57.2,465.1c-8.2-3.9-12.9-14.5-13.2-29.8c-0.3-16.3,4.4-35.6,13.4-54.3c8.9-18.7,20.9-34.6,33.8-44.6
		c8.6-6.7,16.8-10.2,23.7-10.2c2.7,0,5.3,0.5,7.7,1.7c17.6,8.4,17.5,46.9-0.2,84.1c-8.9,18.7-20.9,34.6-33.8,44.6
		C76.5,466,65.4,469,57.2,465.1z M93.3,482.3l-18.9-9c7-2.2,13.5-5.8,19.2-10.4c4.1-3.2,7.9-6.7,11.4-10.5l28.5,13.6
		c-2.7,2.8-5.6,5.4-8.7,7.8C112.7,483.2,101.5,486.3,93.3,482.3z M417.9,480.5c-2.2,2.3-5.3,3.5-8.5,3.5H124.2
		c1.8-1.2,3.6-2.5,5.4-3.9c13.8-10.8,26.6-27.6,36.1-47.5s14.5-40.4,14.2-57.9c-0.2-9.2-1.8-17.1-4.8-23.4
		c24.6-6.9,50.4-7.8,75.5-2.8c24.7,4.9,50.3,4.3,74.7-1.8l55.2-13.8l7.6,83.3c0,0.4,0.1,0.8,0.3,1.1l16,40c0.3,0.8,0.8,1.4,1.5,1.8
		l10.7,7.1c4.2,2.8,5.3,8.5,2.5,12.6C418.7,479.6,418.3,480.1,417.9,480.5L417.9,480.5z"/>
	<path class="st8" d="M354.2,149.7c21.7,12.5,43.5,18.8,61.1,18.8c15.6,0,27.8-5,33.6-15l20-34.7c12.3-21.4-10-56.5-50.8-80.1
		c-19-11-39.2-17.6-56.6-18.6c-18.5-1.1-32,4.2-38.1,14.8l-20,34.7C291.1,91,313.4,126.2,354.2,149.7z M329.2,120.9L345,93.4
		c7.8,7.4,16.4,14,25.7,19.5l-16,27.7C345.5,135.1,336.9,128.5,329.2,120.9z M361.7,144.7l16-27.7c9.5,5.2,19.4,9.4,29.8,12.4
		l-15.8,27.5C381.2,153.9,371.2,149.9,361.7,144.7L361.7,144.7z M442,149.5c-5.9,10.2-22.3,13.1-42.3,9.3l15.7-27.3
		c5,1.1,10.2,1.9,15.3,2.2c1.6,0.1,3.2,0.1,4.7,0.1c5.8,0.1,11.5-0.7,17-2.5L442,149.5z M330.3,38.9c4.1-7.1,13.4-10.9,26.5-10.9
		c1.4,0,2.8,0,4.3,0.1c16.3,1,35.1,7.2,53.1,17.6c18,10.4,32.8,23.5,41.8,37.1c8.4,12.8,10.6,24.1,6.1,32
		c-4.5,7.9-15.4,11.7-30.7,10.8c-16.3-1-35.1-7.2-53.1-17.6c-18-10.4-32.8-23.5-41.8-37.1C327.9,58.2,325.7,46.8,330.3,38.9z
		 M310.3,73.6l10.5-18.2c1.7,7.1,4.7,13.9,8.9,19.9c2.9,4.3,6.1,8.4,9.6,12.1l-15.7,27.3C310.1,99.5,304.4,83.8,310.3,73.6z"/>
	<path class="st8" d="M78.8,114.1l18.5,35.5c5.5,10.6,18.3,16.4,36,16.4c0.5,0,1,0,1.4,0c17.5-0.3,37.9-6.1,57.4-16.2
		c41.8-21.8,65.5-56,54.1-77.9l-18.5-35.5c-5.7-10.9-19-16.7-37.5-16.4c-17.5,0.3-37.9,6.1-57.4,16.2C91.2,58,67.4,92.2,78.8,114.1z
		 M134.7,158c-15.3,0.2-26-4-30.2-12.1l-9.7-18.6c6.5,2.3,13.4,3.4,20.3,3.3c5.6,0,11.2-0.6,16.7-1.6l14.6,27.9
		C142.5,157.5,138.6,157.9,134.7,158z M154.5,155.4l-14.7-28.1c10.5-2.6,20.6-6.4,30.2-11.2l14.8,28.4
		C175.2,149.2,165,152.9,154.5,155.4z M192,140.7l-14.8-28.4c9.5-5.2,18.3-11.3,26.5-18.4l14.6,28.1
		C210.3,129.3,201.5,135.5,192,140.7z M229.5,57l9.7,18.6c5.5,10.5-0.9,25.9-14.9,40.6l-14.5-27.9C220,78,226.9,67.1,229.5,57z
		 M136.7,43.3c18.4-9.6,37.5-15,53.8-15.3c0.4,0,0.9,0,1.3,0c14.6,0,24.8,4.3,28.9,12.1c9,17.3-14.2,48-50.7,67.1
		c-36.5,19.1-75,20.5-84,3.2C76.9,93.1,100.1,62.4,136.7,43.3z"/>
	<path class="st8" d="M114.1,25.4l-4.1-6.8c-5.3,3.2-10.4,6.6-15.3,10.2l4.7,6.5C104,31.8,109,28.5,114.1,25.4z"/>
	<path class="st8" d="M53.4,110.7c-6-17.8,8.1-44.3,36-67.7l-5.1-6.1C53.4,62.8,38.7,92,45.8,113.3L53.4,110.7z"/>
	<path class="st8" d="M330.2,169.2c9.1,5.3,18.6,9.6,28.5,12.9l2.5-7.6c-9.4-3.2-18.5-7.3-27.1-12.2c-14.2-8.2-26.5-18.2-35.6-28.9
		l-6.1,5.2C302.1,150,315.2,160.6,330.2,169.2z"/>
	<path class="st8" d="M291.4,123.7c-2.6-4-4.6-8.3-6-12.8l-7.7,2.3c1.6,5.2,4,10.2,6.9,14.8L291.4,123.7z"/>
	<path class="st8" d="M199.4,369.9c8.5,16.1,5,46.4-8.8,75.4l7.2,3.4c15.1-31.6,18.5-64,8.7-82.6L199.4,369.9z"/>
	<path class="st8" d="M208.9,168.6l2.6,7.6c22.3-7.9,46.9-4.4,66.2,9.3l4.6-6.5C261,163.7,233.6,159.9,208.9,168.6z"/>
	<path class="st8" d="M484,237.3c-5.7-7.7-14.7-15.3-25.3-21.4c-10.6-6.1-21.7-10.1-31.2-11.1c-10.7-1.2-18.4,1.4-21.8,7.2
		l-12.4,21.5c-7.3,12.6,5.3,32.9,28.5,46.3c12.1,7,24.3,10.5,34.3,10.5c9.2,0,16.6-3,20.1-9l12.4-21.5
		C492,253.8,490.3,245.9,484,237.3z M403.5,253.1c-4.2-6.3-5.4-12-3.3-15.6l5.8-10.1c2.2,4.9,6.1,10.1,11.4,15.1l-9.4,16.4
		C406.4,257,404.9,255.1,403.5,253.1z M425.8,272.8c-4.2-2.4-8.2-5.2-11.9-8.3l9.7-16.8c3.8,3,7.8,5.7,12,8.1
		c3.2,1.9,6.6,3.6,10,5.1l-9.7,16.9C432.5,276.4,429.1,274.7,425.8,272.8z M469.3,277.2c-2.1,3.6-7.6,5.5-15.2,5
		c-3.6-0.2-7.1-0.8-10.5-1.8l9.5-16.6c5.9,2.1,12.1,3.3,18.4,3.4c1.2,0,2.4-0.1,3.5-0.2L469.3,277.2z M481.7,255.7
		c-3.5,6.2-22.3,4.5-42-6.8c-19.8-11.4-30.6-26.8-27-32.9c1.3-2.3,4.9-3.5,9.9-3.5c1.3,0,2.7,0.1,4,0.2c8.4,1,18.4,4.5,28.1,10.1
		s17.8,12.4,22.9,19.2C481.8,247.7,483.3,252.9,481.7,255.7z"/>
	<path class="st8" d="M75,282l8,0.7c1-9.9,2.9-19.6,5.8-29.1c4.8-15.7,11.7-30,20.1-41.2l-6.4-4.8c-8.9,12-16.3,27.1-21.4,43.7
		C78,261.2,76,271.5,75,282z"/>
	<path class="st8" d="M116.7,203.1c3.3-3.4,7.1-6.4,11.1-8.8l-4-6.9c-4.7,2.8-9,6.2-12.8,10.1L116.7,203.1z"/>
</g>
<g>
	
		<linearGradient id="SVGID_1_" gradientUnits="userSpaceOnUse" x1="107.7865" y1="386.256" x2="107.7865" y2="407.4098" gradientTransform="matrix(0.8696 0.2402 -0.2335 1.0855 104.2983 -55.4755)">
		<stop  offset="0" style="stop-color:#FBBF11"/>
		<stop  offset="1" style="stop-color:#A3159D"/>
	</linearGradient>
	<path class="st9" d="M106,388.9l-2.9,3.6l3.9-1.3l1.3,3.3l0.8-3.9c0,0,2.9-1.1,3-1.1c0.1,0-2.4-1.5-2.4-1.5l0.7-3.7l-2.4,2.7
		l-3.1-1.8L106,388.9z"/>
	
		<linearGradient id="SVGID_2_" gradientUnits="userSpaceOnUse" x1="98.1501" y1="386.256" x2="98.1501" y2="407.4098" gradientTransform="matrix(0.8696 0.2402 -0.2335 1.0855 104.2983 -55.4755)">
		<stop  offset="0" style="stop-color:#FBBF11"/>
		<stop  offset="1" style="stop-color:#A3159D"/>
	</linearGradient>
	<polygon class="st10" points="95.6,386.7 100.7,383.6 103.1,387.1 103.2,381.9 107.1,379.5 103.6,378.5 103.8,373.6 100.7,378 
		95.8,376.8 98.8,381.4 	"/>
	
		<linearGradient id="SVGID_3_" gradientUnits="userSpaceOnUse" x1="78.9143" y1="386.256" x2="78.9143" y2="407.4098" gradientTransform="matrix(0.8696 0.2402 -0.2335 1.0855 104.2983 -55.4755)">
		<stop  offset="0" style="stop-color:#FBBF11"/>
		<stop  offset="1" style="stop-color:#A3159D"/>
	</linearGradient>
	<path class="st11" d="M89.7,380.6c0.9,0.3,2.2,0.8,3.9,1.4c0.7,0.3,1.3,0.3,1.7,0c0.4-0.3,0.7-0.8,0.9-1.5c0.1-0.5,0-0.9-0.2-1.3
		c-0.2-0.4-0.6-0.8-1.1-1.1c-0.9-0.5-1.9-0.9-3.1-1.3c-1.2-0.4-2.8-0.9-4.9-1.5c-3.3-0.9-6.1-1.4-8.4-1.4c-2.2,0-4,0.4-5.3,1.3
		c-1.3,0.9-2.2,2.4-2.6,4.4c-0.2,0.9-0.3,1.8-0.2,2.6c0.1,0.8,0.3,1.5,0.6,2c0.2,0.3,0.4,0.5,0.7,0.6c0.4,0.1,0.9,0.1,1.4-0.2
		c0.5-0.3,0.8-0.6,0.9-1.1c0-0.2,0-0.4,0-0.6c-0.2-0.8-0.2-1.6-0.1-2.4c0.2-0.9,0.6-1.5,1.1-1.9c0.6-0.4,1.4-0.6,2.5-0.7
		c1.1,0,2.6,0.2,4.5,0.6c-0.2,0.5-0.4,1-0.6,1.5c-0.2,0.4-0.3,0.8-0.5,1.2c-0.6,1.5-1.2,3.1-1.9,4.8c-0.6,1.7-1.3,3.4-1.8,5.1
		c-0.3,1-0.8,2.2-1.3,3.6c-0.5,1.4-1,2.7-1.4,4s-0.7,2.2-0.8,2.7c-0.1,0.6-0.1,1.1,0.2,1.6c0.3,0.5,0.7,0.8,1.3,1
		c0.6,0.2,1.1,0.1,1.6-0.1c0.5-0.2,0.8-0.7,1-1.4c0.4-1.3,0.9-2.9,1.5-4.9c0.7-2,1.3-3.8,1.8-5.4c1.5-4.2,3.1-8.3,4.7-12.5
		C87.5,379.9,88.7,380.3,89.7,380.6z"/>
	
		<linearGradient id="SVGID_4_" gradientUnits="userSpaceOnUse" x1="93.7903" y1="390.0527" x2="93.7903" y2="411.2064" gradientTransform="matrix(0.8696 0.2402 -0.2335 1.0855 104.2983 -55.4755)">
		<stop  offset="0" style="stop-color:#FBBF11"/>
		<stop  offset="1" style="stop-color:#A3159D"/>
	</linearGradient>
	<path class="st12" d="M99.9,412c1.7-2.3,2.9-5.3,3.7-8.8c0.6-2.7,0.6-5.2,0.1-7.3c-0.5-2.2-1.5-4-2.9-5.4c-1.5-1.5-3.3-2.5-5.6-3.1
		c-1.6-0.4-3.4-0.6-5.2-0.5c-1.9,0.1-3.6,0.5-5.1,1.3c-0.4,0.2-0.7,0.5-1,0.8c-0.2,0.3-0.4,0.8-0.5,1.3c-0.1,0.5-0.1,0.9,0,1.3
		c0.1,0.4,0.3,0.6,0.6,0.7c0.3,0.1,0.6,0,0.9-0.1c1.4-0.6,2.9-1,4.5-1.2c1.6-0.2,3.1-0.1,4.6,0.4c2.3,0.6,4,1.9,4.9,3.8
		c0.9,1.9,1.1,4.2,0.5,7c-0.9,4.1-2.4,7.2-4.6,9.3c-2.2,2-4.9,2.6-8.2,1.7c-0.7-0.2-1.3-0.4-1.9-0.6c0.8-2.8,1.8-5.7,3-8.7
		c1.2-3,2.2-5.4,3.1-7.1c0.2-0.4,0.3-0.7,0.4-1.1c0.2-0.8-0.3-1.4-1.5-1.7c-0.6-0.2-1.2-0.2-1.6-0.1c-0.4,0.1-0.8,0.5-1.1,1
		c-1.4,3-2.7,6.1-3.9,9.4c-1.2,3.3-2.1,6-2.8,8.3c-0.2,0.8-0.2,1.5,0,1.9c0.2,0.5,0.7,0.8,1.4,1.2c1.3,0.6,2.5,1.1,3.6,1.4
		c3,0.8,5.7,0.8,8.2,0C96.1,416,98.2,414.4,99.9,412z"/>
	
		<linearGradient id="SVGID_5_" gradientUnits="userSpaceOnUse" x1="101.8086" y1="386.256" x2="101.8086" y2="407.4097" gradientTransform="matrix(0.8696 0.2402 -0.2335 1.0855 104.2983 -55.4755)">
		<stop  offset="0" style="stop-color:#FBBF11"/>
		<stop  offset="1" style="stop-color:#A3159D"/>
	</linearGradient>
	<path class="st13" d="M96.4,417.4c-1-0.3-2.1,0.5-2.3,1.8c-0.3,1.3,0.3,2.5,1.3,2.8c1,0.3,2.1-0.5,2.3-1.8S97.4,417.7,96.4,417.4z"
		/>
	
		<linearGradient id="SVGID_6_" gradientUnits="userSpaceOnUse" x1="111.0985" y1="386.256" x2="111.0985" y2="407.4098" gradientTransform="matrix(0.8696 0.2402 -0.2335 1.0855 104.2983 -55.4755)">
		<stop  offset="0" style="stop-color:#FBBF11"/>
		<stop  offset="1" style="stop-color:#A3159D"/>
	</linearGradient>
	<path class="st14" d="M109.5,396.1c-1.8-0.5-3.7,0.9-4.2,3.2c-0.5,2.3,0.6,4.5,2.4,5c1.8,0.5,3.7-0.9,4.2-3.2
		C112.4,398.9,111.3,396.6,109.5,396.1z"/>
	
		<linearGradient id="SVGID_7_" gradientUnits="userSpaceOnUse" x1="93.7903" y1="386.256" x2="93.7903" y2="407.4097" gradientTransform="matrix(0.8696 0.2402 -0.2335 1.0855 104.2983 -55.4755)">
		<stop  offset="0" style="stop-color:#FBBF11"/>
		<stop  offset="1" style="stop-color:#A3159D"/>
	</linearGradient>
	<path class="st15" d="M88.6,419.1c-0.8-0.2-1.7,0.4-1.9,1.4c-0.2,1,0.3,2,1.1,2.3s1.7-0.4,1.9-1.4
		C89.9,420.3,89.5,419.3,88.6,419.1z"/>
	
		<linearGradient id="SVGID_8_" gradientUnits="userSpaceOnUse" x1="106.9503" y1="386.2561" x2="106.9503" y2="407.4098" gradientTransform="matrix(0.8696 0.2402 -0.2335 1.0855 104.2983 -55.4755)">
		<stop  offset="0" style="stop-color:#FBBF11"/>
		<stop  offset="1" style="stop-color:#A3159D"/>
	</linearGradient>
	<path class="st16" d="M102,413.3c-1.3-0.4-2.6,0.7-3,2.3c-0.3,1.6,0.4,3.2,1.7,3.6c1.3,0.4,2.6-0.7,3-2.3
		C104.1,415.2,103.3,413.7,102,413.3z"/>
	
		<linearGradient id="SVGID_9_" gradientUnits="userSpaceOnUse" x1="110.7816" y1="263.3145" x2="110.7816" y2="429.0804" gradientTransform="matrix(0.8696 0.2402 -0.2335 1.0855 104.2983 -55.4755)">
		<stop  offset="0" style="stop-color:#FBBF11"/>
		<stop  offset="1" style="stop-color:#A3159D"/>
	</linearGradient>
	<path class="st17" d="M107.1,405.8c-1.5-0.4-3.1,0.8-3.5,2.7c-0.4,1.9,0.5,3.7,2,4.2c1.5,0.4,3.1-0.8,3.5-2.7
		C109.5,408.1,108.6,406.2,107.1,405.8z"/>
</g>
<g>
	<g>
		<path class="st18" d="M413.6,65.8l-1.9,3.4l4-1.8l3,2.2l-0.7-3.2c0,0,2.9-1.5,3-1.5c0.1,0-3.5-0.7-3.5-0.7l-0.8-3.1l-1.7,2.6
			l-4.4-0.7L413.6,65.8z"/>
		<polygon class="st18" points="400.5,66.4 405,62.8 409.4,65 407.4,61 410.8,58.2 406.3,58.2 404.5,54.4 402.8,58.5 396.5,58.7 
			402,61.5 		"/>
		<path class="st18" d="M390.9,62.9c1.2,0,2.9,0.1,5.1,0.3c1,0.1,1.7-0.1,2-0.4c0.4-0.3,0.5-0.8,0.4-1.4c-0.1-0.4-0.3-0.7-0.8-1
			c-0.4-0.3-1-0.5-1.8-0.6c-1.2-0.2-2.6-0.3-4.2-0.4c-1.6-0.1-3.7-0.1-6.4-0.1c-4.3,0-7.8,0.3-10.4,0.7c-2.6,0.5-4.5,1.2-5.7,2.2
			c-1.1,1-1.5,2.3-1.2,4c0.2,0.8,0.5,1.5,0.9,2.1c0.4,0.6,0.9,1.1,1.5,1.4c0.3,0.2,0.7,0.3,1.1,0.3c0.6,0,1.1-0.2,1.6-0.5
			c0.5-0.3,0.7-0.7,0.6-1c0-0.2-0.1-0.3-0.2-0.4c-0.6-0.6-1-1.2-1.1-1.9c-0.1-0.7,0-1.3,0.5-1.8c0.5-0.5,1.4-0.8,2.7-1.1
			c1.3-0.3,3.1-0.4,5.5-0.5c0,0.5,0,0.9-0.1,1.3c0,0.4,0,0.7,0,1c-0.1,1.3-0.1,2.7-0.1,4.1c0,1.4,0,2.9,0,4.4c0,0.9,0,1.9,0,3.1
			c0,1.2,0,2.3,0.1,3.4s0.1,1.8,0.2,2.3c0.1,0.5,0.4,0.9,0.9,1.2c0.5,0.3,1.1,0.5,1.9,0.5c0.7,0,1.4-0.2,1.8-0.5
			c0.5-0.3,0.7-0.7,0.6-1.3c-0.1-1.1-0.2-2.5-0.3-4.2c-0.1-1.7-0.1-3.2-0.1-4.6c0-3.6,0.1-7.2,0.2-10.7
			C388.1,62.9,389.7,62.9,390.9,62.9z"/>
		<path class="st18" d="M416.2,85.1c1-2.2,1.2-4.7,0.6-7.6c-0.5-2.2-1.4-4.1-2.9-5.7c-1.5-1.6-3.4-2.8-5.7-3.6
			c-2.3-0.8-4.9-1.2-7.9-1.2c-2.1,0-4.2,0.3-6.3,0.7c-2.1,0.5-4,1.2-5.4,2.1c-0.4,0.3-0.7,0.5-0.8,0.8c-0.1,0.3-0.1,0.7,0,1.1
			c0.1,0.4,0.3,0.7,0.6,1c0.3,0.3,0.7,0.4,1.1,0.4c0.4,0,0.7-0.1,1-0.3c1.4-0.8,2.9-1.4,4.7-1.9c1.8-0.5,3.7-0.7,5.6-0.7
			c3,0,5.4,0.6,7.3,1.8c1.9,1.2,3.1,3,3.6,5.3c0.7,3.4,0.2,6.1-1.4,8.2c-1.7,2.1-4.6,3.1-8.8,3.1c-0.9,0-1.7,0-2.5-0.1
			c-0.2-2.4-0.3-4.8-0.2-7.4c0.1-2.6,0.3-4.7,0.6-6.2c0.1-0.3,0.1-0.7,0-0.9c-0.1-0.7-0.9-1-2.4-1c-0.8,0-1.5,0.1-1.9,0.3
			c-0.5,0.2-0.7,0.5-0.8,1c-0.3,2.6-0.5,5.3-0.6,8.1c0,2.8,0.1,5.2,0.3,7.1c0.1,0.7,0.4,1.2,0.8,1.5c0.4,0.3,1.1,0.5,2.1,0.6
			c1.8,0.2,3.4,0.3,4.8,0.3c3.8,0,7-0.6,9.5-1.8C413.4,89,415.2,87.3,416.2,85.1z"/>
		
			<ellipse transform="matrix(0.2898 -0.9571 0.9571 0.2898 206.5832 462.2847)" class="st18" cx="414.8" cy="91.9" rx="1.8" ry="2.4"/>
		
			<ellipse transform="matrix(0.2898 -0.9571 0.9571 0.2898 228.4735 455.8634)" class="st18" cx="421.4" cy="74" rx="3.3" ry="4.4"/>
		
			<ellipse transform="matrix(0.2898 -0.9571 0.9571 0.2898 198.1033 456.0806)" class="st18" cx="406.4" cy="94.6" rx="1.5" ry="2"/>
		<path class="st18" d="M419.2,85.6c-1.7,0-2.8,1.1-2.5,2.4c0.3,1.3,1.8,2.4,3.5,2.4s2.8-1.1,2.5-2.4
			C422.4,86.7,420.9,85.6,419.2,85.6z"/>
		
			<ellipse transform="matrix(0.2898 -0.9571 0.9571 0.2898 222.1741 462.3485)" class="st18" cx="422.6" cy="81.5" rx="2.7" ry="3.6"/>
	</g>
</g>
<g>
	<path class="st19" d="M173.2,70.3l-4.7,3.1l5.3-1.3l0.8,2.5l2.1-3.2c0,0,4-1.1,4-1.1s-2.6-1.1-2.6-1.1l1.9-3.1l-3.8,2.4l-3.4-1.2
		L173.2,70.3z"/>
	<polygon class="st19" points="160.7,69.3 167.9,66.4 170,69.1 171.6,64.9 177.2,62.6 173,62.1 174.7,58.1 169.6,61.9 163.7,61.3 
		166.2,64.8 	"/>
	<path class="st19" d="M154.8,64.8c1.1,0.2,2.6,0.5,4.5,0.9c0.9,0.2,1.6,0.1,2.2-0.1c0.6-0.2,1.1-0.7,1.5-1.3
		c0.3-0.4,0.3-0.7,0.2-1.1c-0.2-0.3-0.5-0.6-1.1-0.8c-1-0.3-2.2-0.6-3.6-0.9c-1.4-0.3-3.3-0.5-5.8-0.9c-4-0.5-7.4-0.7-10.2-0.5
		c-2.8,0.1-5.2,0.6-7.1,1.5c-1.9,0.8-3.4,2.1-4.5,3.7c-0.5,0.8-0.8,1.5-1,2.1c-0.1,0.6-0.1,1.2,0.2,1.5c0.1,0.2,0.4,0.4,0.7,0.4
		c0.5,0.1,1.2,0,1.9-0.3c0.7-0.3,1.2-0.6,1.4-0.9c0.1-0.2,0.2-0.3,0.2-0.5c0-0.7,0.2-1.3,0.6-2c0.5-0.7,1.1-1.3,2-1.7
		c0.8-0.4,1.9-0.6,3.4-0.7c1.4-0.1,3.2,0,5.5,0.2c-0.4,0.4-0.8,0.9-1.1,1.2c-0.3,0.4-0.6,0.7-0.9,1c-1.2,1.3-2.4,2.6-3.7,4
		c-1.3,1.4-2.5,2.8-3.8,4.3c-0.7,0.9-1.6,1.8-2.6,3c-1,1.1-2,2.2-2.8,3.3c-0.9,1-1.5,1.8-1.8,2.3c-0.3,0.5-0.4,0.9-0.2,1.3
		c0.2,0.4,0.7,0.6,1.4,0.7c0.7,0.1,1.4,0,2.1-0.2c0.7-0.2,1.2-0.6,1.7-1.2c0.8-1,1.9-2.4,3.3-4.1c1.4-1.7,2.7-3.2,3.8-4.5
		c3.1-3.5,6.2-7,9.4-10.4C152.3,64.4,153.8,64.6,154.8,64.8z"/>
	<path class="st19" d="M158.9,89.5c2.8-2,5.2-4.5,7.1-7.4c1.5-2.2,2.2-4.2,2.2-5.9c0-1.7-0.7-3.1-2.2-4.2c-1.4-1.1-3.5-1.8-6.2-2.1
		c-1.9-0.2-4.1-0.3-6.5,0c-2.4,0.2-4.7,0.7-6.8,1.4c-0.6,0.2-1.1,0.4-1.5,0.7c-0.4,0.3-0.7,0.6-1,1.1c-0.3,0.4-0.4,0.8-0.4,1.1
		c0,0.3,0.2,0.5,0.6,0.5c0.3,0,0.7,0,1.1-0.1c1.9-0.6,3.9-1.1,6-1.3c2.1-0.3,4-0.3,5.8-0.1c2.8,0.3,4.5,1.2,5.2,2.7
		c0.7,1.4,0.2,3.3-1.3,5.6c-2.3,3.4-5.1,6-8.4,7.8c-3.3,1.8-6.9,2.5-10.8,2c-0.8-0.1-1.6-0.2-2.2-0.4c1.8-2.3,3.9-4.7,6.2-7.3
		c2.3-2.5,4.3-4.5,5.9-6c0.4-0.3,0.6-0.6,0.8-0.9c0.4-0.7,0-1.1-1.4-1.2c-0.8-0.1-1.4-0.1-2,0.1c-0.6,0.1-1.1,0.4-1.6,0.9
		c-2.6,2.5-5.1,5.1-7.5,7.8c-2.5,2.7-4.4,5-5.8,6.9c-0.5,0.7-0.7,1.2-0.6,1.6c0.1,0.4,0.6,0.6,1.4,0.8c1.5,0.4,2.9,0.7,4.2,0.8
		c3.5,0.4,7,0.2,10.3-0.6C153.1,92.9,156.1,91.5,158.9,89.5z"/>
	<ellipse transform="matrix(0.8955 -0.4451 0.4451 0.8955 -26.8546 77.5649)" class="st19" cx="151.7" cy="96" rx="2.7" ry="1.7"/>
	<ellipse transform="matrix(0.8955 -0.4451 0.4451 0.8955 -17.1624 85.4287)" class="st19" cx="173.3" cy="79.3" rx="4.8" ry="3"/>
	
		<ellipse transform="matrix(0.8955 -0.4451 0.4451 0.8955 -28.5805 73.2743)" class="st19" cx="141.7" cy="97.5" rx="2.2" ry="1.3"/>
	<path class="st19" d="M161.3,90.3c-1.5-0.2-3.5,0.7-4.4,2.1c-0.9,1.3-0.4,2.6,1.2,2.7c1.5,0.2,3.5-0.7,4.4-2.1
		C163.3,91.7,162.8,90.5,161.3,90.3z"/>
	<ellipse transform="matrix(0.8955 -0.4451 0.4451 0.8955 -21.0342 83.8285)" class="st19" cx="168" cy="86.7" rx="4" ry="2.5"/>
</g>
</svg>
