<?xml version="1.0" encoding="UTF-8"?>
<svg xmlns="http://www.w3.org/2000/svg" viewBox="0 0 512 512" width="512" height="512"><g id="FILLED_OUTLINE"><path d="M409.17346,213.96484l-12.368,21.47168c-6.04224,10.48951,6.06665,28.78955,27.0459,40.87378,20.97912,12.08448,42.88428,13.3772,48.92651,2.8877L485.146,257.72632Z" style="fill:#6562f1"/><path d="M326.80188,36.9458,306.83643,71.60693c-11.02649,19.14258,11.07116,52.53858,49.35669,74.59156,38.2854,22.05322,78.26074,24.41259,89.28735,5.26977l19.96533-34.66089Z" style="fill:#e2ac40"/><path d="M321.35913,118.51953q2.7019,3.02233,5.77612,6l24.3794-42.32422L344.582,78.20312Z" style="fill:#f2c34e"/><path d="M352.7522,144.1582q1.6983,1.03455,3.44092,2.04029,1.74352,1.0045,3.49121,1.95263l23.40991-40.64135-6.93262-3.99219Z" style="fill:#f2c34e"/><path d="M397.61316,162.44336,420.627,122.49023l-6.93261-3.99218L389.5249,160.45728Q393.63654,161.61854,397.61316,162.44336Z" style="fill:#f2c34e"/><path d="M242.74738,73.71216,224.24426,38.249,82.39166,112.26147l18.50312,35.46314c10.219,19.58569,50.25793,18.895,89.42944-1.543S252.96637,93.29785,242.74738,73.71216Z" style="fill:#6562f1"/><path d="M203.76172,76.81641,196.669,80.51758l23.5913,45.21533q3.18906-2.84363,6.02155-5.75439Z" style="fill:#8380f3"/><path d="M171.50146,101.458l-7.09277,3.70117,22.34577,42.82788q1.78518-.87635,3.56976-1.80542,1.78417-.9309,3.52319-1.89526Z" style="fill:#8380f3"/><path d="M156.427,159.03833l-24.843-47.6145-7.09277,3.70117,23.77136,45.56055Q152.26343,160.03113,156.427,159.03833Z" style="fill:#8380f3"/><path d="M416.08923,42.21558c-38.28552-22.053-78.26086-24.41236-89.28735-5.26978-11.02661,19.14282,11.07117,52.53858,49.35657,74.5918s78.26074,24.4126,89.28735,5.26977S454.37476,64.2688,416.08923,42.21558Z" style="fill:#f2c34e"/><ellipse cx="153.31798" cy="75.25519" rx="80.00005" ry="40.00004" transform="translate(-17.42186 79.45681) rotate(-27.5535)" style="fill:#8380f3"/><path d="M99.34619,35.23145l-4.71582-6.4629c4.86035-3.54687,10.00684-6.9707,15.29639-10.17675l4.14648,6.84179C108.978,28.52148,104.023,31.81738,99.34619,35.23145Z" style="fill:#bebebe"/><path d="M45.79541,113.27441C38.66016,92.042,53.37158,62.791,84.18848,36.93555l5.1416,6.1289C61.519,66.39844,47.40723,92.957,53.37842,110.72559Z" style="fill:#bebebe"/><path d="M358.7417,182.15527A155.33346,155.33346,0,0,1,330.19629,169.25c-15.01123-8.64648-28.05957-19.25-37.73389-30.66406l6.10254-5.17188c9.085,10.71778,21.40332,20.71289,35.62451,28.9043a147.44745,147.44745,0,0,0,27.06885,12.24316Z" style="fill:#bebebe"/><path d="M284.61084,127.93457a61.27869,61.27869,0,0,1-6.91943-14.78613l7.66308-2.29688a53.34623,53.34623,0,0,0,6.03369,12.833Z" style="fill:#bebebe"/><path d="M277.69727,185.43652A72.50441,72.50441,0,0,0,211.52,176.12988l-2.624-7.55664a80.50328,80.50328,0,0,1,73.40673,10.32227Z" style="fill:#bebebe"/><path d="M295.85,273.07861c-2.96717-44.083-33.96155-77.895-69.228-75.52148l-39.90973,2.68628,10.74493,159.63891,39.90967-2.68628C272.6333,354.82227,298.81714,317.16162,295.85,273.07861Z" style="fill:#dfdfdf"/><path d="M295.85,273.07861q-.13514-2.00757-.34937-3.98559L250.376,272.12988l.53711,7.98242,45.12475-3.03686Q295.98255,275.08655,295.85,273.07861Z" style="fill:#ededed"/><path d="M282.36218,229.88623,236.686,232.96094l.5371,7.98242,49.374-3.32349A86.64536,86.64536,0,0,0,282.36218,229.88623Z" style="fill:#ededed"/><path d="M291.43262,309.45679l-50.30567,3.386.53711,7.98243,46.60816-3.13721A86.61445,86.61445,0,0,0,291.43262,309.45679Z" style="fill:#ededed"/><ellipse cx="192.08475" cy="280.06287" rx="63.99998" ry="80.00006" transform="translate(-18.37477 13.53229) rotate(-3.85076)" style="fill:#ededed"/><path d="M335.84937,200.79663l-39.77173-4.26733L279.00757,355.616l39.77173,4.26757c21.96533,2.35694,43.593-31.34521,48.30676-75.27587S357.8147,203.15356,335.84937,200.79663Z" style="fill:#e2ac40"/><path d="M365.22021,240.155l-46.22216-4.95972-.85352,7.95508,48.52527,5.20679Q366.07178,244.12634,365.22021,240.155Z" style="fill:#f2c34e"/><path d="M324.0542,275.9668l-.85352,7.95508,43.40833,4.65771q.26092-1.97168.477-3.97192.21479-2.001.37659-3.98316Z" style="fill:#f2c34e"/><path d="M358.9884,319.94482,315.519,315.28125l-.85351,7.95508,41.16614,4.4165Q357.50579,323.96,358.9884,319.94482Z" style="fill:#f2c34e"/><ellipse cx="287.54265" cy="276.07263" rx="79.99994" ry="40" transform="translate(-17.6313 532.52093) rotate(-83.87565)" style="fill:#f2c34e"/><path d="M418.68726,463.12476,408,456l-16-40-8-88H112v40L96,424v32l-6.725,6.7251a13.11661,13.11661,0,0,0,0,18.5498l2.0387,2.03882A16.00034,16.00034,0,0,0,102.62744,488H409.37256a16.00034,16.00034,0,0,0,11.31372-4.68628h0A13.11685,13.11685,0,0,0,418.68726,463.12476Z" style="fill:#8380f3"/><path d="M116.15382,277.12088l63.63764-9.09109a166.35256,166.35256,0,0,1,56.15011,1.55852l29.556,5.9112a166.35223,166.35223,0,0,0,45.383,2.74045l61.23237-4.71018a16,16,0,0,1,17.06634,18.21561L384,328l-59.70988,14.92747a166.35214,166.35214,0,0,1-72.9707,1.73641l-.00008,0a166.35217,166.35217,0,0,0-85.22954,5.3062L112,368V320l-8.43907-21.09767A16,16,0,0,1,116.15382,277.12088Z" style="fill:#5350ef"/><path d="M300.91638,315.86914a180.00357,180.00357,0,0,1-57.65521-1.09448l-4.66522-.84815a179.99917,179.99917,0,0,0-105.30432,12.6106l-2.201,1.01025L112,336.42065V368l54.08978-18.03a166.35451,166.35451,0,0,1,85.22956-5.30615h.00006A166.34834,166.34834,0,0,0,324.29,342.92749L384,328l3.4906-24.43408Z" style="fill:#6562f1"/><path d="M160.43054,341.53784l-36.10528-17.21655L55.45917,468.74268,91.56445,485.959c19.94043,9.50855,51.52149-15.11328,70.53833-54.99389C181.11963,391.08423,180.371,351.04639,160.43054,341.53784Z" style="fill:#dfdfdf"/><path d="M197.82324,448.68652l-7.2207-3.44336c13.81885-28.98046,17.36182-59.26855,8.81592-75.36816l7.0664-3.75C216.31152,384.6377,212.91162,417.04492,197.82324,448.68652Z" style="fill:#6562f1"/><path d="M142.74316,461.61694,99.02,440.76758l-3.44336,7.2207,41.63281,19.85254Q140.013,464.9126,142.74316,461.61694Z" style="fill:#ededed"/><path d="M175.08557,388.40991l-42.2384-20.14136-3.44336,7.22071,44.3291,21.13818Q174.57182,392.43836,175.08557,388.40991Z" style="fill:#ededed"/><path d="M120.31494,406.60742l-3.44336,7.2207,43.46411,20.72535q.89979-1.7732,1.76709-3.58838.86619-1.81641,1.67609-3.63257Z" style="fill:#ededed"/><ellipse cx="89.89221" cy="396.53198" rx="80.00012" ry="40.00002" transform="translate(-306.72112 306.9994) rotate(-64.50628)" style="fill:#ededed"/><path d="M441.604,283.981,459.95361,252.124l-6.93261-3.99218L433.92932,281.2771A75.24988,75.24988,0,0,0,441.604,283.981Z" style="fill:#8380f3"/><path d="M411.94434,268.03906l17.769-30.84765-6.93262-3.99219-16.83655,29.229A70.09716,70.09716,0,0,0,411.94434,268.03906Z" style="fill:#8380f3"/><path d="M82.91992,282.68945l-7.96582-.73828a155.36317,155.36317,0,0,1,6.13135-30.7207c5.03711-16.57813,12.42285-31.68262,21.3584-43.68067l6.416,4.7793c-8.39062,11.26563-15.34814,25.52246-20.12011,41.22754A147.36886,147.36886,0,0,0,82.91992,282.68945Z" style="fill:#bebebe"/><path d="M116.71875,203.14062l-5.66992-5.64257a61.24826,61.24826,0,0,1,12.84326-10.07813l3.9668,6.94727A53.349,53.349,0,0,0,116.71875,203.14062Z" style="fill:#bebebe"/><path d="M456.67236,219.33105c-20.97924-12.08447-42.24511-14.48706-47.4989-5.36621-5.25378,9.12061,7.49426,26.311,28.47351,38.39551,20.97925,12.08423,42.24524,14.48682,47.499,5.366C490.39966,248.60571,477.65161,231.41553,456.67236,219.33105Z" style="fill:#8380f3"/><path d="M420.90576,459.79688l-9.65332-6.43555-15.32178-38.30469-7.90478-86.95215,5.11328-35.79394A19.99519,19.99519,0,0,0,371.99023,269.532c.48121-40.09936-14.24218-70.40771-35.71386-72.71264l-39.772-4.26758c-10.0404-1.06909-20.08874,4.05566-28.89648,14.561-12.29126-9.72143-26.77576-14.51977-41.25439-13.54638L186.44385,196.252c-33.85651,2.27881-60.07727,34.49292-62.28955,75.68555l-8.56592,1.22363A19.99925,19.99925,0,0,0,99.84717,300.3877l7.52691,18.81762c-6.71655,1.6084-13.86456,5.27759-21.12359,10.93726-13.80322,10.76172-26.61475,27.61328-36.07373,47.45117-9.46,19.83789-14.48926,40.40039-14.16211,57.89941.3457,18.48438,6.63965,31.5752,17.72265,36.85938l36.10547,17.2168a25.4998,25.4998,0,0,0,11.08838,2.44433c.561,0,1.69629-.01367,1.69629-.01367H409.37256a19.86765,19.86765,0,0,0,14.14258-5.8584,17.11619,17.11619,0,0,0-2.60938-26.34472ZM363.97607,270.14355l-32.01794,2.46314a149.01229,149.01229,0,0,0-.95886-28.07739l31.52441,3.38257A134.16539,134.16539,0,0,1,363.97607,270.14355Zm-28.55322-65.36914c11.54273,1.23829,20.944,15.03663,25.5332,34.92237l-31.31835-3.36035a97.76945,97.76945,0,0,0-4.67725-16.16651,57.75672,57.75672,0,0,0-10.38233-17.63232Zm-66.60156,14.19532c8.26367-12.877,17.79492-19.44434,26.82959-18.46289,18.33447,1.96655,30.7229,34.26806,28.25561,72.71923L310.57373,274.252a162.33375,162.33375,0,0,1-44.2915-2.6748l-14.11847-2.82373C254.66034,249.47217,260.523,231.90088,268.82129,218.96973Zm-41.93067-17.4209c12.54938-.85352,25.17511,3.3999,35.94544,11.98608-.24854.37378-.50183.73047-.74768,1.11353A109.73847,109.73847,0,0,0,250.647,239.24365c-7.98742-16.96679-20.24145-29.87207-34.58331-36.96631Zm-78.54443,24.75488c10.15967-13.23828,23.88037-21.07617,38.63477-22.06933,25.79724-1.7334,49.77386,17.32153,60.12445,47.56958-1.16443,4.97534-2.10675,10.11767-2.806,15.3767l-7.57379-1.51464a169.88,169.88,0,0,0-57.49952-1.59571l-46.9685,6.70948C133.45728,254.01807,139.07159,238.38965,148.34619,226.30371ZM107.2749,297.417a11.99969,11.99969,0,0,1,9.44483-16.33594l63.63769-9.09082a161.94244,161.94244,0,0,1,54.79932,1.51954l29.55615,5.91113a170.21177,170.21177,0,0,0,46.47412,2.80762l61.23242-4.71094a11.99984,11.99984,0,0,1,12.79981,13.66211l-1.2511,8.75757-83.61755,11.97192a175.68347,175.68347,0,0,1-56.374-1.07031l-4.665-.84766A183.28609,183.28609,0,0,0,131.667,322.88184l-.5675.23852-5.05261-2.40942a25.375,25.375,0,0,0-10.42035-2.41455Zm24.00843,114.42017A151.37379,151.37379,0,0,0,141.397,381.20825l28.62836,13.65064a141.28683,141.28683,0,0,1-9.85742,30.752Zm25.44134,20.99438a141.28815,141.28815,0,0,1-17.68927,27.01734L110.3689,446.1792a150.96456,150.96456,0,0,0,17.4732-27.12012ZM142.83643,373.032c2.014-14.44165.97827-27.27661-3.04029-36.9021l18.91284,9.01856c8.20508,3.91211,12.88135,14.49121,13.16748,29.78808a89.38987,89.38987,0,0,1-.593,11.65967Zm27.6856-28.60229a25.36075,25.36075,0,0,0-8.36969-6.502l-21.399-10.2041a175.22078,175.22078,0,0,1,97.1275-9.86133l4.665.84766a183.70908,183.70908,0,0,0,58.936,1.11914l81.30371-11.61474-2.36523,16.55712-57.10059,14.2754a163.40605,163.40605,0,0,1-71.21582,1.69531A170.59718,170.59718,0,0,0,170.522,344.42969ZM57.18066,465.13184c-8.20507-3.91211-12.88134-14.49122-13.16748-29.78809-.3042-16.28125,4.44922-35.56836,13.38428-54.30664,8.93555-18.73828,20.9292-34.57227,33.77149-44.585,8.62451-6.72461,16.78808-10.1875,23.73925-10.1875a17.6895,17.6895,0,0,1,7.69532,1.667c17.61377,8.39941,17.51464,46.91016-.21631,84.09473-8.93555,18.73828-20.9292,34.57226-33.772,44.585C76.54883,466.01855,65.38574,469.04492,57.18066,465.13184Zm36.10547,17.21679-18.9198-9.022A58.93921,58.93921,0,0,0,93.53418,462.9209a99.59477,99.59477,0,0,0,11.36713-10.48609l28.50586,13.593a89.38393,89.38393,0,0,1-8.68647,7.80029C112.65479,483.23535,101.49072,486.26074,93.28613,482.34863Zm324.57178-1.86328A11.92088,11.92088,0,0,1,409.37256,484H124.22687q2.69129-1.74647,5.41278-3.8623c13.80273-10.76172,26.61426-27.61329,36.07373-47.45118s14.48877-40.40039,14.16162-57.89941c-.17261-9.23047-1.82916-17.11523-4.824-23.35523a162.63765,162.63765,0,0,1,75.4842-2.84594,171.45181,171.45181,0,0,0,74.72509-1.77735l55.1792-13.79492,7.57715,83.34863a3.97313,3.97313,0,0,0,.26953,1.123l16,40a3.99715,3.99715,0,0,0,1.49512,1.84277l10.687,7.125a9.11724,9.11724,0,0,1,1.38965,14.03223Z" style="fill:#292956"/><path d="M354.19629,149.66406c21.65088,12.47168,43.52637,18.79785,61.13574,18.79688,15.58692,0,27.832-4.957,33.61475-14.9961l19.96533-34.66113C481.22705,97.42383,458.90137,62.25977,418.08594,38.75c-19.04444-10.9707-39.15479-17.58008-56.627-18.61133-18.45263-1.08887-31.99511,4.1709-38.12353,14.81153L303.37012,69.61035C291.05566,90.99023,313.38135,126.1543,354.19629,149.66406ZM329.217,120.906l15.82044-27.46582a150.97648,150.97648,0,0,0,25.68322,19.52368l-15.97058,27.72534A141.68029,141.68029,0,0,1,329.217,120.906Zm32.46509,23.77636L377.65271,116.957A150.96026,150.96026,0,0,0,407.427,129.37842l-15.82055,27.46533A141.67862,141.67862,0,0,1,361.68213,144.68237Zm80.332,4.79029c-5.89868,10.24047-22.31287,13.134-42.26685,9.26562l15.73121-27.31055a99.59268,99.59268,0,0,0,15.31,2.18653q2.39063.14063,4.66993.14062a54.77819,54.77819,0,0,0,17.02295-2.4541ZM330.26807,38.94238c4.103-7.123,13.416-10.94629,26.45654-10.94629,1.37891,0,2.80273.043,4.26318.12891,16.25635.96,35.11573,7.19434,53.105,17.55664C432.08154,56.044,446.9375,69.22949,455.92334,82.81055c8.44287,12.75879,10.59375,24.124,6.05615,32.001-4.53662,7.877-15.43945,11.71582-30.71972,10.81641-16.25635-.96-35.11573-7.19434-53.1045-17.55664C360.166,97.709,345.31055,84.52344,336.32422,70.94336,327.88135,58.18457,325.73047,46.81934,330.26807,38.94238ZM310.30273,73.60254,320.76721,55.436a58.89673,58.89673,0,0,0,8.88513,19.92138,99.55756,99.55756,0,0,0,9.57251,12.14624l-15.73132,27.31079C310.13574,99.49487,304.40356,83.84424,310.30273,73.60254Z" style="fill:#292956"/><path d="M78.84521,114.1123l18.50342,35.4629c5.53223,10.60253,18.29883,16.39843,36.03907,16.39843.47363,0,.95312-.0039,1.43359-.01269,17.5-.30176,37.86816-6.06641,57.35351-16.2334,41.75977-21.78906,65.53174-55.99121,54.11915-77.86621L227.79053,36.39844c-5.68067-10.88477-18.99317-16.71094-37.47266-16.38574-17.5.30175-37.86816,6.0664-57.35351,16.23339C91.20459,58.03516,67.43262,92.2373,78.84521,114.1123Zm55.83838,43.85059c-15.30664.24707-26.03759-4.0293-30.24218-12.08887l-9.693-18.57714a57.86761,57.86761,0,0,0,20.25891,3.26464,96.82524,96.82524,0,0,0,16.72718-1.55346L146.314,156.95117A89.38672,89.38672,0,0,1,134.68359,157.96289Zm19.8432-2.56616-14.6712-28.1189a151.40721,151.40721,0,0,0,30.24573-11.208l14.80255,28.37061A141.30125,141.30125,0,0,1,154.52679,155.39673Zm37.46888-14.65918L177.19421,112.3689a151.38244,151.38244,0,0,0,26.49439-18.397l14.64258,28.06324A141.67388,141.67388,0,0,1,191.99567,140.73755Zm37.513-83.75122,9.6925,18.57617c5.46686,10.47754-.91284,25.87524-14.8974,40.62476L209.75458,88.30273C220.04541,77.9729,226.93335,67.09375,229.50867,56.98633ZM136.665,43.33789c18.40527-9.60254,37.50879-15.0459,53.79053-15.32715q.66723-.01024,1.32129-.01074c14.59375,0,24.83837,4.27441,28.92089,12.09961,9.02686,17.2998-14.20312,48.01562-50.72656,67.07324-36.52441,19.05567-75.00683,20.53906-84.0332,3.23828C76.91162,93.11133,100.14209,62.39551,136.665,43.33789Z" style="fill:#292956"/><path d="M114.07324,25.43359l-4.14648-6.84179c-5.28955,3.20605-10.436,6.62988-15.29639,10.17675l4.71582,6.4629C104.023,31.81738,108.978,28.52148,114.07324,25.43359Z" style="fill:#292956"/><path d="M53.37842,110.72559C47.40723,92.957,61.519,66.39844,89.33008,43.06445l-5.1416-6.1289C53.37158,62.791,38.66016,92.042,45.79541,113.27441Z" style="fill:#292956"/><path d="M330.19629,169.25a155.33346,155.33346,0,0,0,28.54541,12.90527l2.5166-7.59375a147.44745,147.44745,0,0,1-27.06885-12.24316c-14.22119-8.19141-26.53955-18.18652-35.62451-28.9043l-6.10254,5.17188C302.13672,150,315.18506,160.60352,330.19629,169.25Z" style="fill:#292956"/><path d="M291.38818,123.68457a53.34623,53.34623,0,0,1-6.03369-12.833l-7.66308,2.29688a61.27869,61.27869,0,0,0,6.91943,14.78613Z" style="fill:#292956"/><path d="M199.41846,369.875c8.5459,16.09961,5.00293,46.3877-8.81592,75.36816l7.2207,3.44336c15.08838-31.6416,18.48828-64.04882,8.66162-82.56152Z" style="fill:#292956"/><path d="M208.896,168.57324l2.624,7.55664a72.50441,72.50441,0,0,1,66.17725,9.30664l4.60546-6.541A80.50328,80.50328,0,0,0,208.896,168.57324Z" style="fill:#292956"/><path d="M483.95947,237.25684c-5.69726-7.68262-14.6792-15.28028-25.29052-21.39161-10.61133-6.11328-21.68946-10.07031-31.19385-11.14453-10.65186-1.20117-18.38281,1.37012-21.76807,7.24805l-12.36816,21.47168c-7.25391,12.59277,5.27148,32.94629,28.51562,46.33594,12.0791,6.958,24.33155,10.46777,34.33447,10.46777,9.2461,0,16.57032-3,20.05518-9.0498l12.36816-21.47168C491.99707,253.84668,490.34521,245.86816,483.95947,237.25684Zm-80.42822,15.81054c-4.16748-6.29785-5.35547-11.99609-3.25977-15.63476l5.82435-10.11133c2.20324,4.90161,6.093,10.08057,11.36474,15.114l-9.42932,16.36988A48.29035,48.29035,0,0,1,403.53125,253.06738Zm22.31641,19.77735a80.26136,80.26136,0,0,1-11.88037-8.31739l9.65917-16.76855a102.7704,102.7704,0,0,0,12.02393,8.06738,105.19019,105.19019,0,0,0,10.00879,5.08667l-9.717,16.86987A82.189,82.189,0,0,1,425.84766,272.84473Zm43.46386,4.35742c-2.09521,3.63769-7.62548,5.47265-15.15966,5.02441A51.47371,51.47371,0,0,1,443.6582,280.415l9.542-16.56616a58.868,58.868,0,0,0,18.40722,3.41772,34.1211,34.1211,0,0,0,3.533-.18359Zm12.36817-21.47168c-3.54834,6.1582-22.27979,4.54394-42.03614-6.83594-19.75683-11.38086-30.55175-26.77441-27.0039-32.93359,1.3164-2.28516,4.90723-3.53028,9.90918-3.53028a36.15826,36.15826,0,0,1,4.02832.23926c8.438.9541,18.417,4.54981,28.09863,10.127s17.79981,12.40429,22.85791,19.22558C481.77783,247.74512,483.32764,252.86914,481.67969,255.73047Z" style="fill:#292956"/><path d="M74.9541,281.95117l7.96582.73828a147.36886,147.36886,0,0,1,5.81983-29.13281c4.772-15.70508,11.72949-29.96191,20.12011-41.22754l-6.416-4.7793c-8.93555,11.99805-16.32129,27.10254-21.3584,43.68067A155.36317,155.36317,0,0,0,74.9541,281.95117Z" style="fill:#292956"/><path d="M116.71875,203.14062a53.349,53.349,0,0,1,11.14014-8.77343l-3.9668-6.94727a61.24826,61.24826,0,0,0-12.84326,10.07813Z" style="fill:#292956"/></g></svg>
