<svg xmlns="http://www.w3.org/2000/svg" width="21.819" height="24" viewBox="0 0 21.819 24">
  <g id="Notification" transform="translate(-4 -2)">
    <path id="Path_25" data-name="Path 25" d="M23.818,24.545H6a2,2,0,0,1-1.2-3.6l.9-.674a1.629,1.629,0,0,0,.633-1.043l1.127-6.842a7.539,7.539,0,0,1,14.9.006l1.126,6.836a1.629,1.629,0,0,0,.633,1.043l.9.674a2,2,0,0,1-1.2,3.6ZM14.91,7.091a6.413,6.413,0,0,0-6.374,5.467L7.408,19.405a2.716,2.716,0,0,1-1.055,1.738l-.9.674A.909.909,0,0,0,6,23.454H23.818a.909.909,0,0,0,.545-1.636l-.9-.674a2.716,2.716,0,0,1-1.055-1.738l-1.127-6.842A6.414,6.414,0,0,0,14.91,7.091Z" transform="translate(0 -1.818)"/>
    <path id="Path_26" data-name="Path 26" d="M23.818,5.469a.545.545,0,0,1-.545-.545V4.182a1.091,1.091,0,0,0-2.182,0v.742a.545.545,0,1,1-1.091,0V4.182a2.182,2.182,0,1,1,4.364,0v.742A.545.545,0,0,1,23.818,5.469Z" transform="translate(-7.273)"/>
    <path id="Path_27" data-name="Path 27" d="M20.818,42.364A3.822,3.822,0,0,1,17,38.545a.545.545,0,1,1,1.091,0,2.727,2.727,0,0,0,5.455,0,.545.545,0,0,1,1.091,0,3.822,3.822,0,0,1-3.818,3.818Z" transform="translate(-5.909 -16.364)"/>
  </g>
</svg>
