<svg id="Capa_1" enable-background="new 0 0 512.013 512.013" height="512" viewBox="0 0 512.013 512.013" width="512" xmlns="http://www.w3.org/2000/svg"><g><path d="m286.12.006h-30.12l-7.5 71 7.5 79.5c8.28 0 15-6.72 15-15v-45.25h15.12c24.89 0 45.13-20.24 45.13-45.13 0-24.88-20.24-45.12-45.13-45.12zm0 60.25h-15.12v-30.25h15.12c8.34 0 15.13 6.79 15.13 15.12 0 8.34-6.79 15.13-15.13 15.13z" fill="#23272b"/><path d="m421.62 346.386c0 91.32-74.29 165.62-165.62 165.62l-24.333-167.66 24.333-163.59c91.33 0 165.62 74.3 165.62 165.63z" fill="#fcc100"/><g><g fill="#23272b"><path d="m406.625 30.006h30.125c8.284 0 15-6.716 15-15s-6.716-15-15-15h-30.125c-24.882 0-45.125 20.243-45.125 45.125s20.243 45.125 45.125 45.125c8.34 0 15.125 6.785 15.125 15.125s-6.785 15.125-15.125 15.125h-30.125c-8.284 0-15 6.716-15 15s6.716 15 15 15h30.125c24.882 0 45.125-20.243 45.125-45.125s-20.243-45.125-45.125-45.125c-8.34 0-15.125-6.785-15.125-15.125s6.785-15.125 15.125-15.125z"/><path d="m497 .006c-8.284 0-15 6.716-15 15v60.25c0 8.284 6.716 15 15 15s15-6.716 15-15v-60.25c0-8.284-6.716-15-15-15z"/><path d="m497 120.506c-7.846 0-15.363 6.899-15 15 .364 8.127 6.591 15 15 15 7.846 0 15.363-6.899 15-15-.364-8.127-6.591-15-15-15z"/></g><path d="m45.125.006c-24.882 0-45.125 20.243-45.125 45.125v60.25c0 24.882 20.243 45.125 45.125 45.125s45.125-20.243 45.125-45.125v-60.25c0-24.882-20.243-45.125-45.125-45.125zm15.125 105.375c0 8.34-6.785 15.125-15.125 15.125s-15.125-6.785-15.125-15.125v-60.25c0-8.34 6.785-15.125 15.125-15.125s15.125 6.785 15.125 15.125z" fill="#333940"/><path d="m165.625.006c-24.882 0-45.125 20.243-45.125 45.125v60.25c0 24.882 20.243 45.125 45.125 45.125s45.125-20.243 45.125-45.125v-60.25c0-24.882-20.243-45.125-45.125-45.125zm15.125 105.375c0 8.34-6.785 15.125-15.125 15.125s-15.125-6.785-15.125-15.125v-60.25c0-8.34 6.785-15.125 15.125-15.125s15.125 6.785 15.125 15.125z" fill="#333940"/><path d="m241 15.006v120.5c0 8.28 6.72 15 15 15v-150.5c-8.28 0-15 6.72-15 15z" fill="#333940"/></g><g><path d="m90.38 346.386c0 91.32 74.29 165.62 165.62 165.62v-331.25c-91.33 0-165.62 74.3-165.62 165.63z" fill="#ffdb6c"/></g><g><path d="m210.812 339.165c-11.219 0-21.766-4.369-29.698-12.302-5.858-5.858-5.858-15.355 0-21.213 5.857-5.858 15.355-5.858 21.213 0 2.267 2.266 5.28 3.515 8.485 3.515 3.206 0 6.219-1.249 8.485-3.515 5.857-5.858 15.355-5.858 21.213 0s5.858 15.355 0 21.213c-7.932 7.932-18.479 12.302-29.698 12.302z" fill="#333940"/></g><g><path d="m301.188 339.165c-11.219 0-21.766-4.369-29.698-12.302-5.858-5.858-5.858-15.355 0-21.213 5.857-5.858 15.355-5.858 21.213 0 2.267 2.266 5.28 3.515 8.485 3.515s6.219-1.249 8.485-3.515c5.857-5.858 15.355-5.858 21.213 0s5.858 15.355 0 21.213c-7.933 7.932-18.48 12.302-29.698 12.302z" fill="#23272b"/></g><path d="m327.56 417.236c-2.92 2.93-6.76 4.39-10.6 4.39s-7.68-1.46-10.61-4.39c-13.88-13.88-32.11-20.82-50.35-20.82l-7.5-15.41 7.5-14.58c25.92 0 51.83 9.87 71.56 29.6 5.86 5.86 5.86 15.35 0 21.21z" fill="#23272b"/><g><path d="m256 366.426v29.99c-18.24 0-36.47 6.94-50.35 20.82-5.86 5.86-15.36 5.86-21.21 0-5.86-5.86-5.86-15.35 0-21.21 19.73-19.73 45.64-29.6 71.56-29.6z" fill="#333940"/></g><path d="m421.62 256.006c0 24.88-20.24 45.12-45.12 45.12l-10.833-52.12 10.833-68.25c4.93 0 9.54 2.42 12.34 6.48.32.46 7.96 11.54 15.7 24.88 15.31 26.4 17.08 37.69 17.08 43.89z" fill="#2c80fd"/><path d="m376.5 180.756v120.37c-24.88 0-45.12-20.24-45.12-45.12 0-6.2 1.77-17.49 17.08-43.89 7.74-13.34 15.38-24.42 15.7-24.88 2.8-4.06 7.41-6.48 12.34-6.48z" fill="#22b2fd"/></g></svg>