<?xml version="1.0" encoding="utf-8"?>
<!-- Generator: Adobe Illustrator 24.3.0, SVG Export Plug-In . SVG Version: 6.00 Build 0)  -->
<svg version="1.1" id="Layer_1" xmlns="http://www.w3.org/2000/svg" xmlns:xlink="http://www.w3.org/1999/xlink" x="0px" y="0px"
	 viewBox="0 0 459 136" style="enable-background:new 0 0 459 136;" xml:space="preserve">
<style type="text/css">
	.st0{clip-path:url(#XMLID_11_);}
	.st1{clip-path:url(#XMLID_17_);}
	.st2{clip-path:url(#XMLID_18_);}
	.st3{fill:#253B80;}
	.st4{fill:#179BD7;}
	.st5{fill:#222D65;}
	.st6{clip-path:url(#XMLID_22_);}
	.st7{clip-path:url(#XMLID_23_);}
</style>
<g id="XMLID_4_">
	<g id="XMLID_87_">
		<g id="XMLID_88_">
			<defs>
				<rect id="XMLID_52_" x="7.63" y="9.14" width="442.69" height="117.81"/>
			</defs>
			<clipPath id="XMLID_9_">
				<use xlink:href="#XMLID_52_"  style="overflow:visible;"/>
			</clipPath>
		</g>
	</g>
	<g id="XMLID_82_">
		<g id="XMLID_83_">
			<defs>
				<rect id="XMLID_50_" x="7.63" y="9.14" width="442.69" height="117.81"/>
			</defs>
			<clipPath id="XMLID_11_">
				<use xlink:href="#XMLID_50_"  style="overflow:visible;"/>
			</clipPath>
			<g id="XMLID_85_" class="st0">
				<defs>
					<rect id="XMLID_51_" x="7.63" y="9.14" width="442.69" height="117.81"/>
				</defs>
				<clipPath id="XMLID_16_">
					<use xlink:href="#XMLID_51_"  style="overflow:visible;"/>
				</clipPath>
			</g>
		</g>
	</g>
	<g id="XMLID_75_">
		<g id="XMLID_76_">
			<defs>
				<rect id="XMLID_47_" x="7.63" y="9.14" width="442.69" height="117.81"/>
			</defs>
			<clipPath id="XMLID_17_">
				<use xlink:href="#XMLID_47_"  style="overflow:visible;"/>
			</clipPath>
			<g id="XMLID_78_" class="st1">
				<defs>
					<rect id="XMLID_48_" x="7.63" y="9.14" width="442.69" height="117.81"/>
				</defs>
				<clipPath id="XMLID_18_">
					<use xlink:href="#XMLID_48_"  style="overflow:visible;"/>
				</clipPath>
				<g id="XMLID_80_" class="st2">
					<defs>
						<rect id="XMLID_49_" x="7.63" y="9.14" width="442.69" height="117.81"/>
					</defs>
					<clipPath id="XMLID_19_">
						<use xlink:href="#XMLID_49_"  style="overflow:visible;"/>
					</clipPath>
				</g>
			</g>
		</g>
	</g>
	<g id="XMLID_72_">
		<g id="XMLID_73_">
			<defs>
				<rect id="XMLID_46_" x="7.63" y="9.14" width="442.69" height="117.81"/>
			</defs>
			<clipPath id="XMLID_20_">
				<use xlink:href="#XMLID_46_"  style="overflow:visible;"/>
			</clipPath>
		</g>
	</g>
	<g id="XMLID_12_">
		<g id="XMLID_13_">
			<g id="XMLID_14_">
				<g id="XMLID_15_">
					<path id="XMLID_57_" class="st3" d="M175.43,56.1c-1.34,8.76-8.03,8.76-14.5,8.76h-3.68l2.58-16.36
						c0.15-0.99,1.01-1.72,2.01-1.72h1.69c4.41,0,8.57,0,10.72,2.51C175.52,50.79,175.92,53.02,175.43,56.1z M172.61,33.23H148.2
						c-1.67,0-3.09,1.21-3.35,2.86l-9.87,62.61c-0.2,1.23,0.76,2.35,2.01,2.35h11.66c1.67,0,3.09-1.21,3.35-2.87l2.66-16.89
						c0.26-1.65,1.68-2.87,3.35-2.87h7.73c16.08,0,25.37-7.78,27.79-23.21c1.09-6.75,0.05-12.05-3.11-15.76
						C186.94,35.39,180.78,33.23,172.61,33.23z"/>
					<path id="XMLID_54_" class="st3" d="M229.3,78.57c-1.13,6.68-6.43,11.16-13.19,11.16c-3.4,0-6.11-1.09-7.85-3.15
						c-1.73-2.05-2.38-4.97-1.84-8.21c1.05-6.62,6.44-11.25,13.1-11.25c3.32,0,6.02,1.1,7.8,3.18
						C229.1,72.4,229.81,75.34,229.3,78.57z M245.59,55.82H233.9c-1,0-1.86,0.73-2.01,1.72l-0.52,3.27l-0.82-1.19
						c-2.53-3.67-8.18-4.9-13.81-4.9c-12.92,0-23.96,9.79-26.1,23.51c-1.12,6.85,0.47,13.39,4.36,17.96
						c3.56,4.2,8.66,5.95,14.73,5.95c10.41,0,16.18-6.69,16.18-6.69l-0.52,3.25c-0.2,1.24,0.76,2.36,2.01,2.36h10.53
						c1.67,0,3.09-1.21,3.35-2.87l6.32-40.02C247.8,56.93,246.84,55.82,245.59,55.82z"/>
					<path id="XMLID_33_" class="st3" d="M307.86,55.82h-11.75c-1.12,0-2.17,0.56-2.81,1.49l-16.2,23.87l-6.87-22.94
						c-0.43-1.44-1.76-2.42-3.26-2.42h-11.55c-1.4,0-2.38,1.37-1.93,2.69l12.94,37.98l-12.17,17.18c-0.96,1.35,0.01,3.21,1.66,3.21
						h11.73c1.11,0,2.16-0.54,2.79-1.46l39.08-56.41C310.47,57.66,309.51,55.82,307.86,55.82z"/>
					<path id="XMLID_38_" class="st4" d="M349.58,56.1c-1.33,8.76-8.03,8.76-14.5,8.76h-3.68l2.59-16.36c0.15-0.99,1-1.72,2.01-1.72
						h1.69c4.41,0,8.57,0,10.72,2.51C349.68,50.79,350.07,53.02,349.58,56.1z M346.76,33.23h-24.42c-1.67,0-3.09,1.21-3.35,2.86
						l-9.87,62.61c-0.2,1.23,0.76,2.35,2.01,2.35h12.53c1.16,0,2.16-0.85,2.34-2.01l2.8-17.75c0.26-1.65,1.68-2.87,3.35-2.87h7.73
						c16.09,0,25.37-7.78,27.79-23.21c1.1-6.75,0.04-12.05-3.12-15.76C361.09,35.39,354.94,33.23,346.76,33.23z"/>
					<path id="XMLID_21_" class="st4" d="M403.45,78.57c-1.12,6.68-6.43,11.16-13.19,11.16c-3.39,0-6.11-1.09-7.85-3.15
						c-1.73-2.05-2.38-4.97-1.83-8.21c1.06-6.62,6.44-11.25,13.1-11.25c3.32,0,6.02,1.1,7.8,3.18
						C403.26,72.4,403.96,75.34,403.45,78.57z M419.74,55.82h-11.68c-1,0-1.86,0.73-2.01,1.72l-0.52,3.27l-0.82-1.19
						c-2.53-3.67-8.17-4.9-13.81-4.9c-12.92,0-23.95,9.79-26.1,23.51c-1.11,6.85,0.47,13.39,4.35,17.96
						c3.57,4.2,8.66,5.95,14.73,5.95c10.41,0,16.18-6.69,16.18-6.69l-0.52,3.25c-0.2,1.24,0.76,2.36,2.01,2.36h10.53
						c1.67,0,3.09-1.21,3.35-2.87l6.32-40.02C421.95,56.93,421,55.82,419.74,55.82z"/>
					<path id="XMLID_28_" class="st4" d="M433.53,34.95L423.51,98.7c-0.2,1.23,0.76,2.35,2.01,2.35h10.07c1.67,0,3.1-1.21,3.35-2.87
						l9.88-62.61c0.2-1.24-0.76-2.35-2.01-2.35h-11.28C434.54,33.23,433.68,33.96,433.53,34.95z"/>
					<path id="XMLID_27_" class="st3" d="M33.57,113.22l1.87-11.86l-4.16-0.1H11.42l13.8-87.51c0.04-0.26,0.18-0.51,0.39-0.69
						c0.2-0.18,0.46-0.27,0.74-0.27h33.49c11.12,0,18.79,2.31,22.8,6.88c1.88,2.14,3.07,4.38,3.65,6.84
						c0.61,2.59,0.62,5.67,0.03,9.44l-0.04,0.27v2.41l1.88,1.06c1.58,0.84,2.84,1.8,3.8,2.9c1.61,1.83,2.65,4.16,3.08,6.92
						c0.45,2.84,0.3,6.22-0.44,10.04c-0.86,4.4-2.24,8.23-4.11,11.36c-1.72,2.89-3.91,5.28-6.52,7.14c-2.48,1.76-5.44,3.1-8.78,3.96
						c-3.23,0.84-6.92,1.27-10.97,1.27h-2.61c-1.86,0-3.67,0.67-5.09,1.87c-1.42,1.23-2.37,2.91-2.66,4.74l-0.2,1.07l-3.3,20.9
						l-0.15,0.77c-0.04,0.24-0.11,0.36-0.21,0.45c-0.09,0.08-0.22,0.12-0.34,0.12H33.57z"/>
					<path id="XMLID_26_" class="st4" d="M89.92,36.51c-0.1,0.64-0.21,1.29-0.34,1.96c-4.42,22.67-19.52,30.51-38.82,30.51h-9.82
						c-2.36,0-4.35,1.71-4.72,4.04l-5.03,31.9l-1.42,9.04c-0.24,1.53,0.94,2.91,2.48,2.91h17.43c2.06,0,3.82-1.5,4.14-3.53
						l0.17-0.89l3.28-20.82l0.21-1.14c0.32-2.04,2.08-3.54,4.14-3.54h2.61c16.88,0,30.1-6.85,33.96-26.69
						c1.61-8.29,0.78-15.21-3.49-20.07C93.39,38.72,91.79,37.5,89.92,36.51z"/>
					<path id="XMLID_25_" class="st5" d="M85.3,34.67c-0.67-0.2-1.37-0.37-2.08-0.54c-0.72-0.16-1.45-0.3-2.21-0.42
						c-2.65-0.43-5.55-0.63-8.66-0.63H46.09c-0.65,0-1.26,0.15-1.81,0.41c-1.21,0.58-2.11,1.73-2.33,3.13l-5.58,35.37l-0.16,1.03
						c0.37-2.33,2.36-4.04,4.72-4.04h9.82c19.3,0,34.4-7.84,38.82-30.51c0.13-0.67,0.24-1.32,0.34-1.96
						c-1.12-0.59-2.33-1.1-3.63-1.53C85.97,34.87,85.63,34.77,85.3,34.67z"/>
					<path id="XMLID_24_" class="st3" d="M41.96,36.62c0.22-1.4,1.12-2.55,2.33-3.13c0.55-0.26,1.16-0.41,1.81-0.41h26.25
						c3.11,0,6.01,0.2,8.66,0.63c0.76,0.12,1.49,0.26,2.21,0.42c0.71,0.16,1.41,0.34,2.08,0.54c0.34,0.1,0.67,0.2,0.99,0.31
						c1.3,0.43,2.51,0.94,3.63,1.53c1.31-8.38-0.01-14.08-4.54-19.25c-4.99-5.69-14.01-8.12-25.54-8.12H26.35
						c-2.36,0-4.37,1.71-4.73,4.04L7.67,101.6c-0.27,1.75,1.07,3.33,2.84,3.33h20.67l5.19-32.93L41.96,36.62z"/>
				</g>
			</g>
		</g>
	</g>
	<g id="XMLID_5_">
		<g id="XMLID_6_">
			<defs>
				<polyline id="XMLID_1_" points="450.33,9.14 450.33,126.95 7.63,126.95 7.63,9.14 				"/>
			</defs>
			<clipPath id="XMLID_22_">
				<use xlink:href="#XMLID_1_"  style="overflow:visible;"/>
			</clipPath>
			<g id="XMLID_8_" class="st6">
				<defs>
					<polyline id="XMLID_2_" points="450.33,9.14 450.33,126.95 7.63,126.95 7.63,9.14 					"/>
				</defs>
				<clipPath id="XMLID_23_">
					<use xlink:href="#XMLID_2_"  style="overflow:visible;"/>
				</clipPath>
				<g id="XMLID_10_" class="st7">
					<defs>
						<polyline id="XMLID_3_" points="450.33,9.14 450.33,126.95 7.63,126.95 7.63,9.14 						"/>
					</defs>
					<clipPath id="XMLID_39_">
						<use xlink:href="#XMLID_3_"  style="overflow:visible;"/>
					</clipPath>
				</g>
			</g>
		</g>
	</g>
</g>
</svg>
