<?xml version="1.0"?>
<svg xmlns="http://www.w3.org/2000/svg" xmlns:xlink="http://www.w3.org/1999/xlink" xmlns:svgjs="http://svgjs.com/svgjs" version="1.1" width="512" height="512" x="0" y="0" viewBox="0 0 512 512" style="enable-background:new 0 0 512 512" xml:space="preserve" class=""><g>
<path xmlns="http://www.w3.org/2000/svg" style="" d="M419.284,0h-30.905v512h30.905C470.278,512,512,470.278,512,419.284V92.716  C512,41.722,470.278,0,419.284,0z" fill="#8b1286" data-original="#0968a7" class=""/>
<path xmlns="http://www.w3.org/2000/svg" style="" d="M481.095,92.716v326.567c0,50.994-41.722,92.716-92.716,92.716H92.716  C41.722,512,0,470.278,0,419.284V92.716C0,41.722,41.722,0,92.716,0h295.662C439.372,0,481.095,41.722,481.095,92.716z" fill="#a3159d" data-original="#0789de" class=""/>
<path xmlns="http://www.w3.org/2000/svg" style="" d="M384.057,154.801l-15.411,15.401l-110.672-77.47C309.018,93.33,354.501,117.488,384.057,154.801z" fill="#c6e8ff" data-original="#c6e8ff" class=""/>
<path xmlns="http://www.w3.org/2000/svg" style="" d="M255.995,92.712c0.659,0,1.319,0.01,1.978,0.021c46.77,0.845,87.668,31.606,110.672,77.47  l-28.763,28.763c-18.275-26.805-49.068-44.442-83.888-44.442c-55.949,0-101.473,45.524-101.473,101.473h30.905l-61.811,61.811  l-61.811-61.811h30.905C92.711,165.958,165.957,92.712,255.995,92.712z" fill="#ffffff" data-original="#ffffff"/>
<path xmlns="http://www.w3.org/2000/svg" style="" d="M450.189,256h-30.905c0,89.471-72.319,162.357-161.574,163.273l110.065-132.368l20.604-92.716  L450.189,256z" fill="#def1ff" data-original="#def1ff" class=""/>
<path xmlns="http://www.w3.org/2000/svg" style="" d="M388.378,194.189V256c0,89.337-58.452,162.14-130.668,163.273c-0.567,0.01-1.143,0.01-1.71,0.01  c-51.849,0-98.125-24.292-128.062-62.089l44.133-44.215c18.286,26.836,49.078,44.494,83.929,44.494  c55.949,0,101.473-45.524,101.473-101.473h-30.905L388.378,194.189z" fill="#ffffff" data-original="#ffffff"/>
<g xmlns="http://www.w3.org/2000/svg">
</g>
<g xmlns="http://www.w3.org/2000/svg">
</g>
<g xmlns="http://www.w3.org/2000/svg">
</g>
<g xmlns="http://www.w3.org/2000/svg">
</g>
<g xmlns="http://www.w3.org/2000/svg">
</g>
<g xmlns="http://www.w3.org/2000/svg">
</g>
<g xmlns="http://www.w3.org/2000/svg">
</g>
<g xmlns="http://www.w3.org/2000/svg">
</g>
<g xmlns="http://www.w3.org/2000/svg">
</g>
<g xmlns="http://www.w3.org/2000/svg">
</g>
<g xmlns="http://www.w3.org/2000/svg">
</g>
<g xmlns="http://www.w3.org/2000/svg">
</g>
<g xmlns="http://www.w3.org/2000/svg">
</g>
<g xmlns="http://www.w3.org/2000/svg">
</g>
<g xmlns="http://www.w3.org/2000/svg">
</g>
</g></svg>
