<svg xmlns="http://www.w3.org/2000/svg" width="43" height="43" viewBox="0 0 43 43">
  <g id="refresh" transform="translate(-6 -5.696)">
    <rect id="Rectangle_160" data-name="Rectangle 160" width="43" height="43" rx="4" transform="translate(6 5.696)" fill="#a3159d"/>
    <path id="Path_151" data-name="Path 151" d="M37.175,20a1.232,1.232,0,0,0-1.512,1.944,10.43,10.43,0,0,1,4.044,8.288,10.547,10.547,0,1,1-16.414-8.762,7.346,7.346,0,0,1,.858-.526,10.209,10.209,0,0,1,2.345-.9L25.444,21.5a1.232,1.232,0,1,0,2,1.442l2.718-3.766a1.232,1.232,0,0,0-.278-1.72l-3.766-2.719a1.232,1.232,0,0,0-1.442,2l1.26.909a12.831,12.831,0,0,0-2.946,1.129,9.559,9.559,0,0,0-1.1.678A13.02,13.02,0,1,0,37.175,20Z" transform="translate(-1.813 -1.521)" fill="#eceef0"/>
  </g>
</svg>
