<svg xmlns="http://www.w3.org/2000/svg" width="617.753" height="401" viewBox="0 0 617.753 401">
  <g id="Group_2" data-name="Group 2" transform="translate(-4338.247 -1198)">
    <g id="save-instagram" transform="translate(4253.974 1271.345)">
      <g id="Group_1" data-name="Group 1" transform="translate(84.273 0)">
        <path id="Path_1" data-name="Path 1" d="M264.577,306.516a10.7,10.7,0,0,1-5.892-1.782l-78.579-51.722a.085.085,0,0,0-.095,0l-78.579,51.722a10.618,10.618,0,0,1-11.4.243,12.28,12.28,0,0,1-5.764-10.553V12.095C84.273,5.426,89.328,0,95.541,0H264.577c6.213,0,11.268,5.426,11.268,12.095v104.4a5.6,5.6,0,1,1-11.178,0V12.095a.094.094,0,0,0-.09-.1H95.541a.094.094,0,0,0-.09.1V294.423a.135.135,0,0,0,.1.107l78.614-51.746a10.572,10.572,0,0,1,11.781,0l78.579,51.722a.121.121,0,0,0,.139-.038V170.328a5.6,5.6,0,1,1,11.178,0v124.1a12.28,12.28,0,0,1-5.764,10.553A10.67,10.67,0,0,1,264.577,306.516Z" transform="translate(-84.273 0)" fill="#fff"/>
        <circle id="Ellipse_1" data-name="Ellipse 1" cx="7.654" cy="7.654" r="7.654" transform="translate(176.263 135.84)" fill="#fff"/>
      </g>
    </g>
    <text id="S" transform="translate(4351 1499)" fill="#fff" font-size="287" font-family="Poppins-Regular, Poppins"><tspan x="0" y="0">S</tspan></text>
    <text id="ave" transform="translate(4530 1498)" fill="#fff" font-size="229" font-family="Poppins-Regular, Poppins"><tspan x="0" y="0">ave</tspan></text>
  </g>
</svg>
