<svg xmlns="http://www.w3.org/2000/svg" width="25.062" height="21.135" viewBox="0 0 25.062 21.135">
  <g id="shopping-cart" transform="translate(-15.83 -22.3)">
    <path id="Path_21" data-name="Path 21" d="M36.089,37.845H24.368a.526.526,0,0,1-.514-.417L20.877,23.351H15.83V22.3H21.3a.526.526,0,0,1,.514.417l2.977,14.077h11.3A1.755,1.755,0,0,0,37.8,35.458l2.028-8.207a.49.49,0,0,0-.475-.607H26.29V25.592H39.349a1.541,1.541,0,0,1,1.5,1.911L38.819,35.71A2.8,2.8,0,0,1,36.089,37.845Z"/>
    <path id="Path_22" data-name="Path 22" d="M53.624,90.415a2.19,2.19,0,1,1,2.19-2.19A2.19,2.19,0,0,1,53.624,90.415Zm0-3.329a1.139,1.139,0,1,0,1.139,1.139,1.139,1.139,0,0,0-1.139-1.139Z" transform="translate(-26.245 -46.98)"/>
    <path id="Path_23" data-name="Path 23" d="M82.226,90.415a2.19,2.19,0,1,1,2.189-2.19A2.19,2.19,0,0,1,82.226,90.415Zm0-3.329a1.139,1.139,0,1,0,1.138,1.139,1.139,1.139,0,0,0-1.138-1.139Z" transform="translate(-47.327 -46.98)"/>
  </g>
</svg>
