<svg xmlns="http://www.w3.org/2000/svg" xmlns:xlink="http://www.w3.org/1999/xlink" width="526.485" height="1331.438" viewBox="0 0 526.485 1331.438">
  <defs>
    <radialGradient id="radial-gradient" cx="-0.12" cy="0.947" r="0.663" gradientTransform="translate(0.183 0.006) scale(2.529 0.994)" gradientUnits="objectBoundingBox">
      <stop offset="0" stop-color="#fbbf11"/>
      <stop offset="0.977" stop-color="#a3159d"/>
      <stop offset="1" stop-color="#a3159d"/>
    </radialGradient>
  </defs>
  <g id="Group_530" data-name="Group 530" transform="translate(11391.734 19033.797)">
    <path id="Path_371" data-name="Path 371" d="M3719.54,1564.522H3193.055V1611.4a42.194,42.194,0,1,1,0,84.387v44.8a42.194,42.194,0,1,1,0,84.387v44.8a42.2,42.2,0,1,1,0,84.389v44.8a42.194,42.194,0,1,1,0,84.387v44.8a42.194,42.194,0,1,1,0,84.387v44.8a42.194,42.194,0,1,1,0,84.387v44.8a42.195,42.195,0,1,1,0,84.388v44.8a42.194,42.194,0,1,1,0,84.386v44.8a42.194,42.194,0,1,1,0,84.387v44.8a42.194,42.194,0,1,1,0,84.386v37.505H3719.54Z" transform="translate(-14584.789 -20598.318)" fill="url(#radial-gradient)"/>
    <g id="Group_529" data-name="Group 529" transform="translate(-11217.157 -18864.557)">
      <path id="Path_307" data-name="Path 307" d="M3391.979,2075.8l-19.7-12.141,10.443,20.208-12.978,11.469,18.4-.311s8.416,14.886,8.393,15.333,3.914-15.49,3.914-15.49l17.655-.645-15.1-10.43,4.105-19.51Z" transform="translate(-3177.802 -1197.492)" fill="#fff"/>
      <path id="Path_308" data-name="Path 308" d="M3369.491,2043.469l20.312,24.468-12.574,17.866,23.213-5.452,15.89,18.527.138-20.843,22.247-4.618-23.766-11.824-.829-28.87-16.581,22.4Z" transform="translate(-3178.07 -1230.727)" fill="#fff"/>
      <path id="Path_309" data-name="Path 309" d="M3433.28,1778q-.5,6.671,2,9.756t8,3.084a7.891,7.891,0,0,0,5.835-2.583q2.5-2.589,3.5-7.754a161.356,161.356,0,0,0,2.17-19.091q.663-10.925.666-29.263,0-29.685-4-48.605t-12.589-28.181q-8.588-9.251-22.761-9.252a30.933,30.933,0,0,0-11.919,2.168,20.7,20.7,0,0,0-8.088,5.5,6.676,6.676,0,0,0-1.667,4.67,12.96,12.96,0,0,0,2.75,7.752q2.751,3.755,5.92,3.752a4.975,4.975,0,0,0,2.5-.666,19.647,19.647,0,0,1,10.837-3.338,13.658,13.658,0,0,1,10.088,3.918q3.914,3.92,6.086,13.26t2.668,25.675q-4-.834-7.254-1.5t-5.752-1.168q-11.171-2.336-23.677-4.669t-25.177-4.169q-7.5-1-17.674-2.833-10.172-1.671-19.424-2.919a113.718,113.718,0,0,0-13.255-1.251,8.914,8.914,0,0,0-7,3q-2.67,3-2.667,8.5a14.939,14.939,0,0,0,2.583,8.837,9.384,9.384,0,0,0,7.42,4q9.17.667,24.094,2.666t26.262,3.836q31.014,5.168,61.695,11.341-.171,13.666-.585,22.092T3433.28,1778Z" transform="translate(-3238.338 -1646.107)" fill="#fff"/>
      <path id="Path_310" data-name="Path 310" d="M3357.444,1768.066a8.984,8.984,0,0,1-1.028-3.871q0-4.169,5.835-4.169a61.16,61.16,0,0,1,8.337,1.336,83.8,83.8,0,0,0,10.5,1.5q10.838,0,10.836-10.837,0-5.507-3.833-12.09t-12.838-13.423q-9-6.836-23.345-12.336a118.622,118.622,0,0,1,12.338,1.666q5,1,11.673,2.668,9.335,2.5,12,2.5a3.452,3.452,0,0,0,3.17-1.334,9.426,9.426,0,0,0,.832-4.669q0-6.17-2.25-9.586a12.533,12.533,0,0,0-7.086-4.92,135.772,135.772,0,0,0-41.183-6.169q-14.676,0-21.343,2.585t-6.669,8.92q0,5.168,2.75,7.588t10.587,4.25a119.928,119.928,0,0,1,19.342,6.5,78.661,78.661,0,0,1,14.755,8.088q5.585,4.083,5.586,6.586,0,1.833-2.668,1.834-1.167,0-4.5-.332a25.405,25.405,0,0,0-5-.5q-7.673,0-12.173,4.584t-4.5,13.426a27.039,27.039,0,0,0,2.076,10.411,46.521,46.521,0,0,1,9.26-.911A51.021,51.021,0,0,1,3357.444,1768.066Z" transform="translate(-3238.338 -1594.295)" fill="#fff"/>
      <path id="Path_311" data-name="Path 311" d="M3341.7,1794.234a56.532,56.532,0,0,1-6.383-9.287q-5.249-9.593-5.252-17.093,0-11.672,7.671-15.838,4.835,19.672,13.089,27.93a26.96,26.96,0,0,0,19.759,8.252q9.836,0,15.589-5.837t5.752-15.506a33.765,33.765,0,0,0-5.835-19.425,39.6,39.6,0,0,0-15.757-13.424,47.2,47.2,0,0,0-12.893-4.13,32.225,32.225,0,0,0,6.306,8.136,6.378,6.378,0,0,1,2.168,4.5,3.885,3.885,0,0,1-1.917,3.417,9.18,9.18,0,0,1-5.086,1.251q-6.171,0-9.671-3.334a45.036,45.036,0,0,1-8.252-10.922,28.375,28.375,0,0,1-1.342-2.844,31.61,31.61,0,0,0-16.75,8.76q-9.5,9.671-9.5,27.179a48.325,48.325,0,0,0,6.335,24.094,80.255,80.255,0,0,0,4.92,7.731,32.509,32.509,0,0,1,15.921-3.645C3340.952,1794.2,3341.326,1794.226,3341.7,1794.234Zm9.376-44.888q10.165,0,17.339,4.253t7.169,10.422a6.115,6.115,0,0,1-1.917,4.75,7.255,7.255,0,0,1-5.086,1.751q-6.17,0-10.836-5.669t-7.005-15.506Z" transform="translate(-3238.338 -1556.106)" fill="#fff"/>
      <path id="Path_312" data-name="Path 312" d="M3335.646,1744.212q3.5,3.333,9.671,3.334a9.18,9.18,0,0,0,5.086-1.251,3.885,3.885,0,0,0,1.917-3.417,6.378,6.378,0,0,0-2.168-4.5,32.225,32.225,0,0,1-6.306-8.136,51.021,51.021,0,0,0-8.534-.705,46.521,46.521,0,0,0-9.26.911,28.375,28.375,0,0,0,1.342,2.844A45.036,45.036,0,0,0,3335.646,1744.212Z" transform="translate(-3224.74 -1556.471)" fill="#fff"/>
      <path id="Path_313" data-name="Path 313" d="M3322.567,1837.567a5.477,5.477,0,0,1,1.917-4.338,6.986,6.986,0,0,1,4.752-1.666,9.524,9.524,0,0,1,6.169,2.332l2.667,2.168c.315.255.612.491.923.74-1.228-1.184-2.3-2.271-3.176-3.236q-4.085-4.5-4.083-7.671a4.037,4.037,0,0,1,1.5-3.253,6.059,6.059,0,0,1,4-1.251q7.5,0,26.679,3.835,13.167,2.5,16.674,2.5,5.834,0,5.835-8.171a39.336,39.336,0,0,0-.666-7.335,12.058,12.058,0,0,0,5.084-2.085q1.416-1.251,1.417-4.918a37.027,37.027,0,0,0-7.254-21.758,52.62,52.62,0,0,0-19.174-16.425,54.15,54.15,0,0,0-24.131-6.136,57.218,57.218,0,0,0,7.375,7.3,5.855,5.855,0,0,1,2.333,4.5,3.855,3.855,0,0,1-2,3.417,10.34,10.34,0,0,1-5.5,1.253q-6.672,0-10.336-3.17a51.8,51.8,0,0,1-8.92-9.694,24.45,24.45,0,0,0-3.752,2.525q-7.5,6.164-7.5,16.506,0,13.175,14.006,21.843a22.828,22.828,0,0,0-10.255,6.92,15.564,15.564,0,0,0-3.75,10.086q0,7.169,5.835,14.842a84.085,84.085,0,0,0,14.341,14.506,11.221,11.221,0,0,0,2.2,1.46,122.427,122.427,0,0,1-10.206-9.3A8.923,8.923,0,0,1,3322.567,1837.567Zm23.509-36.182a28.078,28.078,0,0,1-11.5-4.835q-4.337-3.339-4.335-7a7.083,7.083,0,0,1,2.5-5.752q2.5-2.085,7.669-2.085a45.156,45.156,0,0,1,17.674,3.5,35.355,35.355,0,0,1,13.423,9.42,20.2,20.2,0,0,1,5.252,12.923Z" transform="translate(-3238.338 -1522.773)" fill="#fff"/>
      <path id="Path_314" data-name="Path 314" d="M3327.742,1774.223q3.662,3.165,10.336,3.17a10.34,10.34,0,0,0,5.5-1.253,3.855,3.855,0,0,0,2-3.417,5.855,5.855,0,0,0-2.333-4.5,57.218,57.218,0,0,1-7.375-7.3c-.377-.008-.751-.033-1.13-.033a32.509,32.509,0,0,0-15.921,3.645A51.8,51.8,0,0,0,3327.742,1774.223Z" transform="translate(-3232.508 -1522.79)" fill="#fff"/>
      <path id="Path_315" data-name="Path 315" d="M3346.05,1873.414c-6.219-5.6-10.217-10.594-11.911-14.969a45.159,45.159,0,0,0,4.667.334,21.675,21.675,0,0,0,10.756-2.751,106.293,106.293,0,0,0,11.921-8.088,62.557,62.557,0,0,1,7.5-5.418,11.089,11.089,0,0,1,5.5-1.751q4.167,0,10.171,3a24.323,24.323,0,0,0,4.336,1.834,12.392,12.392,0,0,0,3.169.668,2.783,2.783,0,0,0,2.668-1.836q.83-1.836.832-6.5,0-10.01-7.335-13.175-8.673-3.668-16.757-7.5t-12.923-6.669a209.592,209.592,0,0,1-17.75-13.1c2.586,2.5,5.935,5.464,10.082,8.934a5.852,5.852,0,0,1,2.333,4.5,3.857,3.857,0,0,1-2,3.419,10.343,10.343,0,0,1-5.5,1.253,17.548,17.548,0,0,1-8.134-1.709c.718.589,1.4,1.218,2.13,1.788a109.046,109.046,0,0,0,16.342,10.254q-2.67,2.33-6.254,5a41.126,41.126,0,0,1-7.42,4.416,21.467,21.467,0,0,1-8.169,1.917q.162-1.5.583-4.417a37,37,0,0,0,.417-5.086q0-6.174-3.167-9.337a10.251,10.251,0,0,0-7.5-3.167q-5,0-9,4.584t-4,13.258a23.67,23.67,0,0,0,5.672,15.838q.33,11.174,4.083,18.761a36.171,36.171,0,0,0,5.478,7.858,33,33,0,0,1,12.615-2.273C3341.718,1873.286,3343.9,1873.333,3346.05,1873.414Z" transform="translate(-3240.239 -1483.46)" fill="#fff"/>
      <path id="Path_316" data-name="Path 316" d="M3344.662,1817.06a3.857,3.857,0,0,0,2-3.419,5.852,5.852,0,0,0-2.333-4.5c-4.147-3.47-7.5-6.439-10.082-8.934-.312-.249-.608-.486-.923-.74l-2.667-2.168a9.524,9.524,0,0,0-6.169-2.332,6.986,6.986,0,0,0-4.752,1.666,5.477,5.477,0,0,0-1.917,4.338,8.923,8.923,0,0,0,3,6.333,122.427,122.427,0,0,0,10.206,9.3,17.548,17.548,0,0,0,8.134,1.709A10.343,10.343,0,0,0,3344.662,1817.06Z" transform="translate(-3233.588 -1486.174)" fill="#fff"/>
      <path id="Path_317" data-name="Path 317" d="M3344.465,1911.381a103.159,103.159,0,0,1-8.644-8.306q-4.085-4.59-4.083-7.922a4.193,4.193,0,0,1,1.749-3.5,7.952,7.952,0,0,1,4.92-1.336q5,0,26.343,4.671,18.675,4.166,22.843,4.167,2.5,0,3.418-1.5t.917-5.337q0-5.5-2.166-8.252t-7.171-4.087a202.4,202.4,0,0,1-25.011-8.252q-10.172-4.25-15.172-8.005t-5-6.254a2.859,2.859,0,0,1,1.417-2.665,10.375,10.375,0,0,1,4.92-.834q5.834,0,23.343,3.336,5,1,11.171,2.668a69.2,69.2,0,0,0,9,1.834,4.279,4.279,0,0,0,3.5-1.419q1.164-1.419,1.166-5.082,0-6.506-2.166-9.507t-7.171-4.669a143.593,143.593,0,0,0-22.092-5.5,135.768,135.768,0,0,0-16.351-1.537c1.521,1.369,3.136,2.763,4.929,4.205a5.861,5.861,0,0,1,2.333,4.5,3.855,3.855,0,0,1-2,3.417,10.34,10.34,0,0,1-5.5,1.253,16.157,16.157,0,0,1-10.336-3.17,71.823,71.823,0,0,1-8.613-8.063,24.887,24.887,0,0,0-4.645,2.479q-6.92,4.752-6.918,12.254,0,6.506,6.084,12.17t17.424,8.507q-11.171,0-17.339,3.751t-6.169,11.756a32.325,32.325,0,0,0,5.669,18.757,66.029,66.029,0,0,0,5.394,6.765,85.8,85.8,0,0,1,16.95-1.346C3342.434,1911.327,3343.446,1911.36,3344.465,1911.381Z" transform="translate(-3238.338 -1444.138)" fill="#fff"/>
      <path id="Path_318" data-name="Path 318" d="M3327.583,1844.366a16.157,16.157,0,0,0,10.336,3.17,10.34,10.34,0,0,0,5.5-1.253,3.855,3.855,0,0,0,2-3.417,5.861,5.861,0,0,0-2.333-4.5c-1.792-1.442-3.408-2.836-4.929-4.205-2.145-.081-4.332-.128-6.576-.128a33,33,0,0,0-12.615,2.273A71.823,71.823,0,0,0,3327.583,1844.366Z" transform="translate(-3232.349 -1444.204)" fill="#fff"/>
      <path id="Path_319" data-name="Path 319" d="M3357.442,1945.029a9,9,0,0,1-1.026-3.869q0-4.17,5.835-4.169a61.184,61.184,0,0,1,8.337,1.336,83.786,83.786,0,0,0,10.5,1.5q10.838,0,10.836-10.837,0-5.5-3.833-12.09t-12.838-13.421q-9-6.839-23.345-12.339a118.556,118.556,0,0,1,12.338,1.666q5,1,11.673,2.668,9.335,2.5,12,2.5a3.453,3.453,0,0,0,3.17-1.334,9.427,9.427,0,0,0,.832-4.669q0-6.171-2.25-9.586a12.533,12.533,0,0,0-7.086-4.92,134.94,134.94,0,0,0-38.127-6.115c1.415,1.243,2.945,2.554,4.613,3.948a5.861,5.861,0,0,1,2.333,4.5,3.856,3.856,0,0,1-2,3.417,10.343,10.343,0,0,1-5.5,1.253q-6.672,0-10.336-3.17a79.676,79.676,0,0,1-9.113-8.658,28.142,28.142,0,0,0-4.393,1.24q-6.672,2.58-6.669,8.918,0,5.168,2.75,7.588t10.587,4.25a119.909,119.909,0,0,1,19.342,6.5,78.425,78.425,0,0,1,14.755,8.088q5.585,4.083,5.586,6.584,0,1.836-2.668,1.834-1.167,0-4.5-.33a25.259,25.259,0,0,0-5-.5q-7.673,0-12.173,4.585t-4.5,13.425a27,27,0,0,0,2.047,10.347,50.155,50.155,0,0,1,9.289-.851A50.972,50.972,0,0,1,3357.442,1945.029Z" transform="translate(-3238.338 -1404.106)" fill="#fff"/>
      <path id="Path_320" data-name="Path 320" d="M3327.842,1881.329q3.662,3.164,10.336,3.17a10.343,10.343,0,0,0,5.5-1.253,3.856,3.856,0,0,0,2-3.417,5.861,5.861,0,0,0-2.333-4.5c-1.668-1.394-3.2-2.705-4.613-3.948-1.019-.021-2.031-.054-3.056-.054a85.8,85.8,0,0,0-16.95,1.346A79.676,79.676,0,0,0,3327.842,1881.329Z" transform="translate(-3232.608 -1404.134)" fill="#fff"/>
      <path id="Path_321" data-name="Path 321" d="M3328.568,1970.191a18.463,18.463,0,0,0,10.339,2.833,10.339,10.339,0,0,0,5.5-1.251,3.853,3.853,0,0,0,2-3.417,5.734,5.734,0,0,0-2.5-4.5q-7.5-5.837-10.671-10.256a18.838,18.838,0,0,1-3.169-11.254q0-9.506,7.671-13.506,4.835,19.84,13.089,28.1a26.961,26.961,0,0,0,19.759,8.252q9.836,0,15.589-5.835t5.752-15.506a33.77,33.77,0,0,0-5.835-19.427A39.607,39.607,0,0,0,3370.336,1911a47.176,47.176,0,0,0-12.895-4.13,32.23,32.23,0,0,0,6.308,8.138,6.377,6.377,0,0,1,2.168,4.5,3.884,3.884,0,0,1-1.917,3.416,9.18,9.18,0,0,1-5.086,1.251q-6.171,0-9.671-3.332a45.086,45.086,0,0,1-8.252-10.924,28.449,28.449,0,0,1-1.371-2.906,32.9,32.9,0,0,0-16.637,7.986q-9.593,8.837-9.588,24.843,0,10.508,4,18.095A32.483,32.483,0,0,0,3328.568,1970.191Zm22.512-43.853q10.165,0,17.339,4.252t7.169,10.42a6.118,6.118,0,0,1-1.917,4.753,7.255,7.255,0,0,1-5.086,1.751q-6.17,0-10.836-5.669t-7.005-15.506Z" transform="translate(-3238.338 -1365.946)" fill="#fff"/>
      <path id="Path_322" data-name="Path 322" d="M3335.661,1921.209q3.5,3.33,9.671,3.332a9.18,9.18,0,0,0,5.086-1.251,3.884,3.884,0,0,0,1.917-3.416,6.377,6.377,0,0,0-2.168-4.5,32.23,32.23,0,0,1-6.308-8.138,50.972,50.972,0,0,0-8.532-.706,50.155,50.155,0,0,0-9.289.851,28.449,28.449,0,0,0,1.371,2.906A45.086,45.086,0,0,0,3335.661,1921.209Z" transform="translate(-3224.755 -1366.311)" fill="#fff"/>
      <path id="Path_323" data-name="Path 323" d="M3323.733,2032.923a69.83,69.83,0,0,0,29.1,29.176q18.76,10,43.936,10,19.342,0,33.016-8a51.492,51.492,0,0,0,20.759-22.843q7.085-14.843,7.086-35.184a117.045,117.045,0,0,0-4.087-29.844,86.934,86.934,0,0,0-11.921-27.013,13.354,13.354,0,0,0-4.75-4.5,14.312,14.312,0,0,0-6.586-1.334,10.159,10.159,0,0,0-5.92,1.67,5.188,5.188,0,0,0-2.417,4.5,8.05,8.05,0,0,0,1.5,4.669,96.947,96.947,0,0,1,11,23.594,86.646,86.646,0,0,1,4.167,26.426q0,20.677-10.837,32.016t-30.68,11.336q-29.514,0-47.187-14.423t-17.674-43.6q0-6.338.5-11.339a428.569,428.569,0,0,1,42.768,6.171q22.422,4.334,35.765,8.671a17.154,17.154,0,0,0,5.337,1q5.663,0,5.667-10.173a21.485,21.485,0,0,0-1.666-9.169,8.66,8.66,0,0,0-5.835-4.667q-22.512-6.173-46.771-10.509a399.519,399.519,0,0,0-40.769-5.5q-6-.333-8.671,2.168t-3.5,9.171a162.918,162.918,0,0,0-1.666,21.844Q3313.4,2013.748,3323.733,2032.923Z" transform="translate(-3238.338 -1326.716)" fill="#fff"/>
      <path id="Path_324" data-name="Path 324" d="M3341.7,2070.28a56.439,56.439,0,0,1-6.383-9.285q-5.249-9.6-5.252-17.093,0-11.675,7.671-15.838,4.835,19.668,13.089,27.927a26.961,26.961,0,0,0,19.759,8.252q9.836,0,15.589-5.835t5.752-15.508a33.766,33.766,0,0,0-5.835-19.424,39.589,39.589,0,0,0-15.757-13.421,48.237,48.237,0,0,0-21.426-4.835q-16.507,0-26.011,9.67t-9.5,27.179a48.317,48.317,0,0,0,6.335,24.092,80.019,80.019,0,0,0,4.92,7.731,32.509,32.509,0,0,1,15.921-3.645C3340.952,2070.247,3341.326,2070.272,3341.7,2070.28Zm9.376-44.888q10.165,0,17.339,4.254t7.169,10.42a6.12,6.12,0,0,1-1.917,4.752,7.253,7.253,0,0,1-5.086,1.749q-6.17,0-10.836-5.667t-7.005-15.508Z" transform="translate(-3238.338 -1260.278)" fill="#fff"/>
      <path id="Path_325" data-name="Path 325" d="M3335.821,2109.25q-4.085-4.5-4.083-7.669a4.032,4.032,0,0,1,1.5-3.253,6.048,6.048,0,0,1,4-1.253q7.5,0,26.679,3.835,13.167,2.5,16.674,2.5,5.834,0,5.835-8.173a39.356,39.356,0,0,0-.666-7.335,12.037,12.037,0,0,0,5.084-2.084q1.416-1.248,1.417-4.918a37.03,37.03,0,0,0-7.254-21.758,52.619,52.619,0,0,0-19.174-16.423,54.149,54.149,0,0,0-24.131-6.138,57.22,57.22,0,0,0,7.375,7.3,5.858,5.858,0,0,1,2.333,4.5,3.861,3.861,0,0,1-2,3.418,10.359,10.359,0,0,1-5.5,1.251q-6.672,0-10.336-3.17a51.778,51.778,0,0,1-8.92-9.693,24.32,24.32,0,0,0-3.752,2.526q-7.5,6.161-7.5,16.5,0,13.174,14.006,21.845a22.828,22.828,0,0,0-10.255,6.92,15.561,15.561,0,0,0-3.75,10.086q0,7.166,5.835,14.84a80.441,80.441,0,0,0,10.416,11.173,61.455,61.455,0,0,1,16.883-4.825A124.767,124.767,0,0,1,3335.821,2109.25Zm10.255-32.182a28.085,28.085,0,0,1-11.5-4.835q-4.337-3.339-4.335-7a7.083,7.083,0,0,1,2.5-5.752q2.5-2.084,7.669-2.084a45.16,45.16,0,0,1,17.674,3.5,35.352,35.352,0,0,1,13.423,9.42,20.2,20.2,0,0,1,5.252,12.923Z" transform="translate(-3238.338 -1226.58)" fill="#fff"/>
      <path id="Path_326" data-name="Path 326" d="M3327.742,2049.905q3.662,3.168,10.336,3.17a10.359,10.359,0,0,0,5.5-1.251,3.861,3.861,0,0,0,2-3.418,5.858,5.858,0,0,0-2.333-4.5,57.22,57.22,0,0,1-7.375-7.3c-.377-.008-.751-.033-1.13-.033a32.509,32.509,0,0,0-15.921,3.645A51.778,51.778,0,0,0,3327.742,2049.905Z" transform="translate(-3232.508 -1226.597)" fill="#fff"/>
      <path id="Path_327" data-name="Path 327" d="M3340.725,2111.383a8.819,8.819,0,1,0-8.818,8.816A8.818,8.818,0,0,0,3340.725,2111.383ZM3325.9,2112.9v-3.356h9.094l-.5-2.695,2.089-.707.994,4.441v2.317Z" transform="translate(-3227.925 -1155.691)" fill="#fff"/>
      <path id="Path_328" data-name="Path 328" d="M3369.691,2126.135a13.831,13.831,0,1,0-13.83,13.83A13.831,13.831,0,0,0,3369.691,2126.135Zm-20.765-.048v-3.057h11.04l-.6-2.455,2.533-.643,1.208,4.043v2.112Zm0,7.48v-3.058h11.04l-.6-2.452,2.533-.645,1.208,4.043v2.112Z" transform="translate(-3207.574 -1145.227)" fill="#fff"/>
      <path id="Path_329" data-name="Path 329" d="M3370.617,2099.1a3.682,3.682,0,0,0-1.22,1.1,2.586,2.586,0,0,0-.012,2.867,3.627,3.627,0,0,0,1.2,1.089,6.382,6.382,0,0,0,1.83.69,10.277,10.277,0,0,0,2.294.239,9.969,9.969,0,0,0,2.307-.251,6.585,6.585,0,0,0,1.84-.7,3.682,3.682,0,0,0,1.22-1.1,2.585,2.585,0,0,0,.012-2.867,3.645,3.645,0,0,0-1.192-1.089,6.2,6.2,0,0,0-1.828-.69,10.484,10.484,0,0,0-2.306-.239,10.127,10.127,0,0,0-2.309.249A6.73,6.73,0,0,0,3370.617,2099.1Z" transform="translate(-3178.643 -1160.434)" fill="#fff"/>
      <path id="Path_330" data-name="Path 330" d="M3363.257,2099.035a18,18,0,0,1,2.506-9.17c2.008.45,4.06.944,6.349,1.527a7.819,7.819,0,0,0-.56.933,8.145,8.145,0,0,0-.8,3.682,7.554,7.554,0,0,0,.489,2.75,6.054,6.054,0,0,0,1.43,2.17,6.439,6.439,0,0,0,2.232,1.378,8.218,8.218,0,0,0,2.871.477,8,8,0,0,0,2.92-.482,5.35,5.35,0,0,0,3.259-3.4,7.64,7.64,0,0,0,.375-2.419,7.032,7.032,0,0,0-.1-1.267l-.008-.042,1.187.068.3.125v6.708h4.946v-4.881c8.272,3.363,8.37,5.249,8.37,5.33l-.064.193-.23,1.18-.123.406c-.04.137-.214.617-.216.619-.139.4-.234.678-.346.948-.068.17-.147.34-.224.51-.2.436-.33.713-.473.987l-.321.581c-.191.33-.347.591-.513.846-.133.208-.263.407-.4.6-.185.266-.374.513-.564.757s-.317.409-.437.552c-.212.247-.441.492-.672.737l-.446.47c-.305.3-.641.6-.981.893l-.232.207c-.392.322-.824.643-1.268.944l-.475.3c-.311.2-.62.392-.936.57,0,0-.946.484-1.159.585a7.293,7.293,0,0,0,1.222-1.632,6.9,6.9,0,0,0-.015-6.48,7.638,7.638,0,0,0-2.2-2.462,10.355,10.355,0,0,0-3.215-1.552,14.515,14.515,0,0,0-7.8-.013,10.519,10.519,0,0,0-3.188,1.523,7.449,7.449,0,0,0-2.194,2.464,6.661,6.661,0,0,0-.8,3.238,6.561,6.561,0,0,0,.817,3.243,7.445,7.445,0,0,0,.519.8,18.05,18.05,0,0,1-8.835-15.511Z" transform="translate(-3184.767 -1169.335)" fill="#fff"/>
      <path id="Path_331" data-name="Path 331" d="M3315.964,1705.808l-38.544-15.284v4.844a2,2,0,0,0,.454,1.34,2.565,2.565,0,0,0,.99.749l8.513,3.213v16.6l-8.513,3.213a2.665,2.665,0,0,0-1.028.776,2.042,2.042,0,0,0-.416,1.338v4.846l38.544-15.286Zm-24.09-3.425,14.054,5.3c.533.195,1.155.411,1.861.641s1.475.448,2.313.643a38.576,38.576,0,0,0-4.147,1.313l-14.081,5.3Z" transform="translate(-3276.99 -1598.386)" fill="#fff"/>
      <path id="Path_332" data-name="Path 332" d="M3315.966,1716.75v-6.264H3277.42v22.272h5.247V1716.75Z" transform="translate(-3276.991 -1576.938)" fill="#fff"/>
      <path id="Path_333" data-name="Path 333" d="M3315.964,1769.953a2.2,2.2,0,0,0-.425-1.353,1.9,1.9,0,0,0-1.019-.736l-24.708-7.2q-.775-.215-1.672-.388t-1.887-.361q.99-.187,1.887-.415t1.672-.5l24.708-8.244a2.7,2.7,0,0,0,1.029-.776,2.05,2.05,0,0,0,.415-1.34v-1.821a2.076,2.076,0,0,0-.452-1.338,2.289,2.289,0,0,0-.992-.749l-24.708-8.271c-.517-.178-1.093-.344-1.726-.5s-1.291-.29-1.969-.415q1.017-.187,1.954-.375c.625-.125,1.206-.259,1.741-.4l24.708-7.227a1.867,1.867,0,0,0,1.056-.737,2.283,2.283,0,0,0,.388-1.353v-5.246l-38.544,11.992v5.648l27.677,9.127q.457.161.992.307t1.151.282q-.616.134-1.151.28c-.356.1-.687.2-.992.309l-27.677,9.049v5.646l38.544,11.994Z" transform="translate(-3276.99 -1566.483)" fill="#fff"/>
      <path id="Path_334" data-name="Path 334" d="M3315.964,1760.924l-38.544-15.286v4.846a2,2,0,0,0,.454,1.338,2.593,2.593,0,0,0,.99.751l8.513,3.211v16.6l-8.513,3.211a2.687,2.687,0,0,0-1.028.776,2.048,2.048,0,0,0-.416,1.34v4.844l38.544-15.284Zm-24.09-3.427,14.054,5.3c.533.2,1.155.411,1.861.643s1.475.446,2.313.641a38.576,38.576,0,0,0-4.147,1.313l-14.081,5.3Z" transform="translate(-3276.99 -1539.171)" fill="#fff"/>
      <path id="Path_335" data-name="Path 335" d="M3315.525,1789.017a3.2,3.2,0,0,0-.977-.776l-13.813-7.844q-1.043-.535-1.969-.962a14.923,14.923,0,0,0-1.859-.724q.909-.349,1.849-.791c.622-.292,1.284-.618,1.979-.977l13.813-7.9a3.271,3.271,0,0,0,1.017-.8,1.983,1.983,0,0,0,.4-1.311v-5.487l-23.449,14.079h-15.1v6.238h15.1l23.449,14.081v-5.514A1.929,1.929,0,0,0,3315.525,1789.017Z" transform="translate(-3276.99 -1522.187)" fill="#fff"/>
      <path id="Path_336" data-name="Path 336" d="M3296.406,1800.781a11.326,11.326,0,0,0,1.9-2.9q.747-1.634,1.338-3.333t1.112-3.332a16.157,16.157,0,0,1,1.217-2.9,6.639,6.639,0,0,1,1.672-2.05,3.82,3.82,0,0,1,2.45-.775,5.41,5.41,0,0,1,2.128.415,4.658,4.658,0,0,1,1.7,1.245,5.879,5.879,0,0,1,1.125,2.05,10.25,10.25,0,0,1-.04,5.821,13.773,13.773,0,0,1-.964,2.182q-.519.924-.95,1.552a2.076,2.076,0,0,0-.427,1.139,1.355,1.355,0,0,0,.227.8,2.4,2.4,0,0,0,.709.616l3,1.525a13.875,13.875,0,0,0,2.973-4.777,17.184,17.184,0,0,0,1.043-6.091,14.193,14.193,0,0,0-.909-5.246,11.73,11.73,0,0,0-2.423-3.869,10.42,10.42,0,0,0-7.51-3.2,10.84,10.84,0,0,0-4.376.776,8.945,8.945,0,0,0-2.944,2.05,10.527,10.527,0,0,0-1.927,2.9,32.343,32.343,0,0,0-1.286,3.321q-.548,1.683-1.031,3.319a14.7,14.7,0,0,1-1.176,2.9,6.335,6.335,0,0,1-1.728,2.047,4.3,4.3,0,0,1-2.664.776,5.818,5.818,0,0,1-4.578-1.859,7.647,7.647,0,0,1-1.66-5.26,10.043,10.043,0,0,1,.576-3.589,14.026,14.026,0,0,1,1.258-2.555q.684-1.058,1.259-1.807a2.316,2.316,0,0,0,.574-1.365,1.649,1.649,0,0,0-.213-.83,1.778,1.778,0,0,0-.59-.616l-3-1.819a14.956,14.956,0,0,0-2.089,2.489,16.743,16.743,0,0,0-1.593,2.985,18.754,18.754,0,0,0-1.017,3.346,17.8,17.8,0,0,0-.361,3.6,15.181,15.181,0,0,0,.962,5.582,11.913,11.913,0,0,0,2.639,4.122,11.322,11.322,0,0,0,3.921,2.558,13.05,13.05,0,0,0,4.819.882,9.477,9.477,0,0,0,4.041-.776A8.721,8.721,0,0,0,3296.406,1800.781Z" transform="translate(-3277.213 -1504.357)" fill="#fff"/>
      <path id="Path_337" data-name="Path 337" d="M3315.964,1812.218l-38.544-15.286v4.846a2,2,0,0,0,.454,1.338,2.57,2.57,0,0,0,.99.749l8.513,3.213v16.6l-8.513,3.211a2.687,2.687,0,0,0-1.028.776,2.047,2.047,0,0,0-.416,1.34v4.844l38.544-15.284Zm-24.09-3.427,14.054,5.3c.533.2,1.155.411,1.861.641s1.475.448,2.313.643a38.46,38.46,0,0,0-4.147,1.313l-14.081,5.3Z" transform="translate(-3276.99 -1484.061)" fill="#fff"/>
      <path id="Path_338" data-name="Path 338" d="M3293.062,1842.883a1.148,1.148,0,0,0-.871.348,1.333,1.333,0,0,0-.334.965v5.379H3284.2a19.351,19.351,0,0,1-1.419-3.653,17.585,17.585,0,0,1,.481-10.011,11.959,11.959,0,0,1,2.879-4.4,12.87,12.87,0,0,1,4.6-2.811,17.951,17.951,0,0,1,6.171-.992,17.649,17.649,0,0,1,5.914.938,12.691,12.691,0,0,1,4.512,2.678,11.8,11.8,0,0,1,2.864,4.188,14.409,14.409,0,0,1,1,5.5,18.678,18.678,0,0,1-.282,3.479,14.183,14.183,0,0,1-1.672,4.593l-.964,1.645a1.884,1.884,0,0,0-.321,1.446,1.784,1.784,0,0,0,.83,1.1l2.865,1.794a17.972,17.972,0,0,0,2.035-2.651,17.434,17.434,0,0,0,1.552-3.159,21.241,21.241,0,0,0,1-3.707,24.28,24.28,0,0,0,.361-4.323,22.533,22.533,0,0,0-1.431-8.246,17.914,17.914,0,0,0-4.043-6.263,17.716,17.716,0,0,0-6.238-3.989,22.131,22.131,0,0,0-7.988-1.392,21.24,21.24,0,0,0-7.951,1.446,17.832,17.832,0,0,0-6.223,4.122,18.816,18.816,0,0,0-4.07,6.464,23.409,23.409,0,0,0-1.458,8.474,22.293,22.293,0,0,0,4.148,13.384h15.26v-12.341Z" transform="translate(-3277.213 -1457.844)" fill="#fff"/>
      <path id="Path_339" data-name="Path 339" d="M3294.069,1858.191a14.22,14.22,0,0,0,1.632,3.774,11.235,11.235,0,0,0,2.462,2.8,10.52,10.52,0,0,0,3.16,1.74,12.144,12.144,0,0,0,8.219-.241,8.756,8.756,0,0,0,3.439-2.612,12.457,12.457,0,0,0,2.207-4.51,24.206,24.206,0,0,0,.776-6.544v-11.351H3277.42v6.265h15.525v3.479a3.439,3.439,0,0,1-.294,1.608,2.959,2.959,0,0,1-.964.989l-12.982,8.995a2.578,2.578,0,0,0-1.284,2.408v5.594l14.695-10.411A6.3,6.3,0,0,0,3294.069,1858.191Zm3.427-5.756v-4.925h13.57v5.087q0,4.229-1.659,6.316a5.789,5.789,0,0,1-4.817,2.089,7.451,7.451,0,0,1-2.88-.537,5.928,5.928,0,0,1-2.234-1.605,7.53,7.53,0,0,1-1.46-2.676A12.178,12.178,0,0,1,3297.5,1852.435Z" transform="translate(-3276.99 -1436.451)" fill="#fff"/>
      <path id="Path_340" data-name="Path 340" d="M3294.391,1863.924v14.188h4.9v-14.188h11.617v17.749h5.059v-24.039H3277.42v24.039l5.06.025v-17.774Z" transform="translate(-3276.991 -1418.843)" fill="#fff"/>
      <path id="Path_341" data-name="Path 341" d="M3315.964,1885.538l-38.544-15.284v4.844a2,2,0,0,0,.454,1.34,2.567,2.567,0,0,0,.99.749l8.513,3.211V1897l-8.513,3.213a2.687,2.687,0,0,0-1.028.776,2.045,2.045,0,0,0-.416,1.338v4.846l38.544-15.286Zm-24.09-3.425,14.054,5.3c.533.2,1.155.409,1.861.641s1.475.446,2.313.643a39.077,39.077,0,0,0-4.147,1.311l-14.081,5.3Z" transform="translate(-3276.99 -1405.284)" fill="#fff"/>
      <path id="Path_342" data-name="Path 342" d="M3310.746,1886.577v12.045H3277.42v6.238h33.327v12.019h5.22v-30.3Z" transform="translate(-3276.991 -1387.746)" fill="#fff"/>
      <path id="Path_343" data-name="Path 343" d="M3310.746,1906.824v12.045H3277.42v6.238h33.327v12.019h5.22v-30.3Z" transform="translate(-3276.991 -1365.993)" fill="#fff"/>
      <rect id="Rectangle_245" data-name="Rectangle 245" width="38.546" height="6.29" transform="translate(0.428 576.487)" fill="#fff"/>
      <path id="Path_344" data-name="Path 344" d="M3315.819,1966.5a1.619,1.619,0,0,0-.9-.83l-22.354-12.181c-.516-.268-1.058-.521-1.618-.761s-1.129-.471-1.7-.683c.57-.2,1.126-.417,1.672-.656s1.075-.5,1.591-.765l22.408-12.366a1.624,1.624,0,0,0,.9-.83,4.4,4.4,0,0,0,.145-1.286v-4.682H3277.42v5.511h26.42q.669,0,1.446-.039t1.554-.123l-22.943,12.583a2.319,2.319,0,0,0-1.419,2.222v.884a2.355,2.355,0,0,0,1.419,2.222l22.889,12.394c-.519-.054-1.031-.1-1.541-.122s-.977-.039-1.4-.039h-26.42v5.514h38.544v-4.684A4.395,4.395,0,0,0,3315.819,1966.5Z" transform="translate(-3276.99 -1339.526)" fill="#fff"/>
      <path id="Path_345" data-name="Path 345" d="M3294.391,1961.931v14.188h4.9v-14.187h11.617v17.747h5.059v-24.037H3277.42v24.037l5.06.027v-17.774Z" transform="translate(-3276.991 -1313.544)" fill="#fff"/>
      <path id="Path_346" data-name="Path 346" d="M3310.746,1974.338v12.045H3277.42v6.238h33.327v12.018h5.22v-30.3Z" transform="translate(-3276.991 -1293.456)" fill="#fff"/>
      <path id="Path_347" data-name="Path 347" d="M3311.034,2022.915a17.849,17.849,0,0,0,4.1-6.076,21.793,21.793,0,0,0,0-15.74,18.006,18.006,0,0,0-4.1-6.091,18.291,18.291,0,0,0-6.235-3.933,23.073,23.073,0,0,0-15.794,0A17.761,17.761,0,0,0,3278.7,2001.1a21.766,21.766,0,0,0,0,15.74,17.891,17.891,0,0,0,4.083,6.076,18.19,18.19,0,0,0,6.223,3.922,23.1,23.1,0,0,0,15.794,0A18.355,18.355,0,0,0,3311.034,2022.915Zm-20.13-1.979a12.506,12.506,0,0,1-4.483-2.572,11.126,11.126,0,0,1-2.813-4.054,15.118,15.118,0,0,1,0-10.681,11.238,11.238,0,0,1,2.813-4.07,12.55,12.55,0,0,1,4.483-2.6,20.157,20.157,0,0,1,11.965,0,12.684,12.684,0,0,1,4.5,2.6,11.323,11.323,0,0,1,2.838,4.07,14.875,14.875,0,0,1,0,10.681,11.21,11.21,0,0,1-2.838,4.054,12.639,12.639,0,0,1-4.5,2.572,20.42,20.42,0,0,1-11.965,0Z" transform="translate(-3277.199 -1276.972)" fill="#fff"/>
      <path id="Path_348" data-name="Path 348" d="M3315.539,2064.222a1.876,1.876,0,0,0-1.019-.734l-24.708-7.2c-.517-.141-1.075-.271-1.672-.386s-1.228-.238-1.887-.363q.99-.187,1.887-.413c.6-.151,1.156-.319,1.672-.5l24.708-8.246a2.7,2.7,0,0,0,1.029-.776,2.048,2.048,0,0,0,.415-1.338v-1.819a2.076,2.076,0,0,0-.452-1.34,2.27,2.27,0,0,0-.992-.749l-24.708-8.273c-.517-.178-1.093-.342-1.726-.494s-1.291-.292-1.969-.415c.678-.127,1.33-.251,1.954-.378s1.206-.257,1.741-.4l24.708-7.228a1.863,1.863,0,0,0,1.056-.734,2.283,2.283,0,0,0,.388-1.353v-5.248l-38.544,11.994v5.648l27.677,9.125c.3.107.635.211.992.309s.74.191,1.151.282c-.411.087-.794.183-1.151.282s-.687.2-.992.305l-27.677,9.048v5.649l38.544,11.992v-4.9A2.205,2.205,0,0,0,3315.539,2064.222Z" transform="translate(-3276.99 -1248.87)" fill="#fff"/>
      <rect id="Rectangle_246" data-name="Rectangle 246" width="38.546" height="6.289" transform="translate(0.428 826.797)" fill="#fff"/>
      <path id="Path_349" data-name="Path 349" d="M3290.831,2078.545q-.7,0-1.5.042c-.535.027-1.081.066-1.633.12l27.225-21.2a5.161,5.161,0,0,0,.535-.453,1.585,1.585,0,0,0,.319-.456,2,2,0,0,0,.149-.523,5.192,5.192,0,0,0,.038-.683v-3.265H3277.42v5.514h25.349c.43,0,.9-.012,1.407-.04s1.021-.068,1.537-.122l-27.2,21.175a2.859,2.859,0,0,0-.844.964,2.713,2.713,0,0,0-.253,1.23v3.187h38.544v-5.489Z" transform="translate(-3276.99 -1209.882)" fill="#fff"/>
      <path id="Path_350" data-name="Path 350" d="M3352.114,2119.541a10.876,10.876,0,1,0-10.875,10.876A10.875,10.875,0,0,0,3352.114,2119.541Zm-7.579,6.207-9.855-5.941v-3.292l9.569,5.922v-6.225h2.242v9.536Z" transform="translate(-3220.11 -1149.135)" fill="#fff"/>
      <path id="Path_351" data-name="Path 351" d="M3361.568,2117.144a2.518,2.518,0,0,0,.578,1.773,1.935,1.935,0,0,0,1.5.633,1.894,1.894,0,0,0,1.477-.649,2.61,2.61,0,0,0,.579-1.8,2.564,2.564,0,0,0-.569-1.774,1.888,1.888,0,0,0-1.467-.628,1.932,1.932,0,0,0-1.505.652A2.563,2.563,0,0,0,3361.568,2117.144Z" transform="translate(-3186.582 -1142.649)" fill="#fff"/>
      <path id="Path_352" data-name="Path 352" d="M3356.142,2121.223a16.182,16.182,0,1,0,16.182-16.183A16.183,16.183,0,0,0,3356.142,2121.223Zm18.439,1.095a7.128,7.128,0,0,1,2.423,1.129,5.323,5.323,0,0,1,1.616,1.917,5.886,5.886,0,0,1,.589,2.713,8.088,8.088,0,0,1-.1,1.317,5.633,5.633,0,0,1-.3,1.116,6.052,6.052,0,0,1-.486,1,9.484,9.484,0,0,1-.643.938l-2.365-1.616c.172-.226.328-.445.469-.659a3.959,3.959,0,0,0,.349-.658,4.162,4.162,0,0,0,.22-.718,4.094,4.094,0,0,0,.079-.819,2.465,2.465,0,0,0-.251-1.145,2.6,2.6,0,0,0-.682-.84,3.275,3.275,0,0,0-1.033-.547,6.439,6.439,0,0,0-1.284-.28,7.672,7.672,0,0,1,.618,1.187,4.505,4.505,0,0,1,.278,1.708,6.279,6.279,0,0,1-.289,1.936,4.531,4.531,0,0,1-.848,1.556,3.928,3.928,0,0,1-1.4,1.037,5.017,5.017,0,0,1-3.9-.031,4.721,4.721,0,0,1-1.537-1.116,4.923,4.923,0,0,1-1-1.685,6.256,6.256,0,0,1-.349-2.115,6.336,6.336,0,0,1,.379-2.334,4.92,4.92,0,0,1,1.118-1.7,5.331,5.331,0,0,1,1.985-1.208,9.892,9.892,0,0,1,3.321-.45A11.741,11.741,0,0,1,3374.581,2122.317Zm-4-5.327a3.739,3.739,0,0,0,.456-2.027v-1.276l1.952-.479,3.344,3.332v-5.487h2.635v9.457h-2.315l-3.371-3.549a7.539,7.539,0,0,1-.38,1.4,3.9,3.9,0,0,1-.728,1.2,3.59,3.59,0,0,1-1.158.844,3.928,3.928,0,0,1-1.666.322,4.694,4.694,0,0,1-1.836-.353,4.242,4.242,0,0,1-1.458-1,4.48,4.48,0,0,1-.957-1.593,6.167,6.167,0,0,1-.34-2.1,7.036,7.036,0,0,1,.674-3.222,6.836,6.836,0,0,1,1.759-2.226l2.017,2.116a5.529,5.529,0,0,0-1.247,1.506,3.846,3.846,0,0,0-.429,1.865,2.157,2.157,0,0,0,.458,1.427,1.55,1.55,0,0,0,1.255.55A1.5,1.5,0,0,0,3370.584,2116.991Z" transform="translate(-3192.412 -1153.03)" fill="#fff"/>
      <path id="Path_353" data-name="Path 353" d="M3335.492,2087.77a10.364,10.364,0,0,0,5.5-1.251,3.863,3.863,0,0,0,2-3.421,5.857,5.857,0,0,0-2.333-4.5c-.888-.743-1.73-1.458-2.548-2.155a61.455,61.455,0,0,0-16.883,4.825c1.259,1.126,2.563,2.238,3.925,3.333Q3328.817,2087.768,3335.492,2087.77Z" transform="translate(-3229.921 -1183.757)" fill="#fff"/>
      <path id="Path_354" data-name="Path 354" d="M3339.407,2126.639a5.5,5.5,0,0,0-1.667-3.667,26.951,26.951,0,0,1-4.336-6.586,15.509,15.509,0,0,1-1.666-6.42,11.036,11.036,0,0,1,3-8.169q3-3,9.835-4.169a247.912,247.912,0,0,0,51.69,29.764q26.175,10.919,46.021,10.922,13.841,0,21.26-4.584t7.418-12.589q0-14.174-18.673-24.428T3407.6,2081.2q-26.01-5.252-46.352-5.25a100.294,100.294,0,0,0-14.721,1.013c.817.7,1.66,1.413,2.548,2.155a5.857,5.857,0,0,1,2.333,4.5,3.863,3.863,0,0,1-2,3.421,10.364,10.364,0,0,1-5.5,1.251q-6.672,0-10.336-3.17c-1.363-1.1-2.666-2.207-3.925-3.333-1.026.473-2.035.964-3,1.5q-13.255,7.334-13.255,23.175a30.037,30.037,0,0,0,7.169,19.678,13.794,13.794,0,0,0,11.173,5,11.006,11.006,0,0,0,5.418-1.249A3.7,3.7,0,0,0,3339.407,2126.639Zm66.862-26.345c4.039.722,7.843,1.485,11.493,2.275.23.05.477.1.705.147,5.69,1.247,10.874,2.583,15.616,4,2.276.676,4.483,1.367,6.535,2.085,1.029.359,1.977.711,2.892,1.063,7.283,2.8,10.949,5.335,10.949,7.611a2.873,2.873,0,0,1-.1.574h.054l0,.021c-.123.585-.272,1.16-.444,1.726-.072.234-.161.463-.242.695-.119.347-.239.7-.378,1.033-.1.249-.218.492-.33.736-.141.31-.284.614-.44.915-.1.185-.2.361-.3.542l.006,0c-.033.061-.07.116-.106.176-.166.291-.34.577-.521.857-.147.226-.294.45-.448.67-.2.282-.4.554-.616.824-.16.205-.318.409-.483.605-.238.28-.49.55-.743.817-.158.168-.311.342-.475.5-.353.349-.724.678-1.1,1-.079.066-.149.141-.23.206-.457.377-.934.732-1.425,1.066-.17.118-.35.22-.527.334-.334.211-.67.423-1.019.618-.207.116-.423.222-.637.33-.328.168-.66.333-1,.482-.23.1-.461.195-.7.288q-.51.2-1.035.38c-.239.079-.475.155-.716.226-.365.108-.734.2-1.107.284-.237.056-.469.114-.708.16-.413.079-.832.137-1.253.19-.205.025-.408.063-.618.083-.632.058-1.271.1-1.919.1a19.931,19.931,0,0,1-19.487-15.768q-4.6-1.3-9.393-3.008a214.73,214.73,0,0,1-39.1-18.842A248.315,248.315,0,0,1,3406.269,2100.294Z" transform="translate(-3238.338 -1184.281)" fill="#fff"/>
      <path id="Path_355" data-name="Path 355" d="M3373.361,2096.525a3.047,3.047,0,0,0,.651-2.054,5.1,5.1,0,0,0-.193-1.417,7.365,7.365,0,0,0-.481-1.236l-2.647-.716a8.11,8.11,0,0,0-1.215,1.556,3.9,3.9,0,0,0-.519,1.973,2.776,2.776,0,0,0,.651,1.939,2.45,2.45,0,0,0,1.9.713A2.3,2.3,0,0,0,3373.361,2096.525Z" transform="translate(-3178.643 -1168.005)" fill="#fff"/>
    </g>
  </g>
</svg>
