<svg xmlns="http://www.w3.org/2000/svg" width="43.105" height="43.07" viewBox="0 0 43.105 43.07">
  <g id="twitter" transform="translate(0)">
    <g id="Group_114" data-name="Group 114" transform="translate(0 0)">
      <path id="Path_125" data-name="Path 125" d="M32.269.2H10.8A10.825,10.825,0,0,0,0,11V32.5A10.818,10.818,0,0,0,10.8,43.271H32.3a10.825,10.825,0,0,0,10.8-10.8V11A10.876,10.876,0,0,0,32.269.2Zm-.034,16.134v.718A15.45,15.45,0,0,1,16.545,32.5,15.737,15.737,0,0,1,8.1,30.076c.444.034.855.068,1.3.068a11.011,11.011,0,0,0,6.837-2.324,5.508,5.508,0,0,1-5.162-3.76,5.217,5.217,0,0,0,1.025.1,5.092,5.092,0,0,0,1.47-.205,5.463,5.463,0,0,1-4.341-5.333v-.068a5.287,5.287,0,0,0,2.461.684,5.36,5.36,0,0,1-1.709-7.247A15.792,15.792,0,0,0,21.33,17.668a5.032,5.032,0,0,1-.137-1.231A5.464,5.464,0,0,1,26.7,11a5.6,5.6,0,0,1,4.034,1.709,10.262,10.262,0,0,0,3.487-1.333,5.565,5.565,0,0,1-2.427,3.008,10.921,10.921,0,0,0,3.179-.855A11.224,11.224,0,0,1,32.235,16.334Z" transform="translate(0 -0.2)"/>
    </g>
  </g>
</svg>
