<svg id="Capa_1" enable-background="new 0 0 512 512" height="512" viewBox="0 0 512 512" width="512" xmlns="http://www.w3.org/2000/svg"><g><g><path d="m504.351 144.678-33.212 187.067c-.922 5.194-5.88 8.657-11.075 7.735l-244.992-43.496c-4.311-.765-7.604-4.361-7.854-8.732-.806-14.11-11.19-26.342-25.713-28.92s-28.476 5.331-34.088 18.302c-1.739 4.019-6.069 6.261-10.38 5.496l-73.534-13.055c-5.194-.922-8.657-5.88-7.735-11.075l33.212-187.067c.922-5.194 5.88-8.657 11.075-7.735l73.535 13.055c4.311.765 7.604 4.361 7.854 8.733.806 14.105 11.182 26.34 25.704 28.918s28.483-5.336 34.097-18.302c1.74-4.018 6.069-6.26 10.379-5.494l244.992 43.496c5.194.922 8.657 5.88 7.735 11.074z" fill="#cbe5e7"/><path d="m504.349 144.679-33.212 187.064c-.922 5.191-5.874 8.659-11.075 7.735l-24.566-4.361c5.201.923 10.153-2.544 11.075-7.735l33.211-187.064c.922-5.191-2.534-10.151-7.735-11.075l24.566 4.361c5.202.924 8.658 5.884 7.736 11.075z" fill="#a9d3d8"/><path d="m137.353 69.82-37.298-6.622c-5.194-.922-10.153 2.541-11.075 7.735l-33.212 187.067c-.922 5.194 2.541 10.152 7.735 11.075l37.298 6.622z" fill="#fb3a82"/><g><g><path d="m206.296 144.07 8.163 17.482 17.166 8.808c2.963 1.521 3.521 5.521 1.086 7.793l-14.104 13.166-3.073 19.048c-.53 3.288-4.162 5.054-7.076 3.441l-16.88-9.345-19.065 2.964c-3.291.512-6.093-2.397-5.459-5.667l3.672-18.941-8.71-17.216c-1.504-2.972.397-6.536 3.702-6.943l19.149-2.361 13.682-13.604c2.361-2.349 6.338-1.643 7.747 1.375z" fill="#f8c52d"/></g><g><path d="m232.708 178.157-14.105 13.164-3.07 19.042c-.526 3.292-4.159 5.063-7.074 3.449l-16.879-9.351-19.066 2.969c-3.292.512-6.093-2.401-5.463-5.675l1.221-6.274c24.544-3.879 40.794-18.359 50.812-31.56l12.546 6.438c2.959 1.525 3.519 5.524 1.078 7.798z" fill="#e7b729"/></g></g><path d="m446.521 201.545-100.001-17.755c-2.597-.461-4.329-2.94-3.868-5.537l4.526-25.494c.461-2.597 2.94-4.329 5.537-3.868l100.001 17.754c2.597.461 4.329 2.94 3.868 5.537l-4.526 25.494c-.46 2.598-2.94 4.33-5.537 3.869z" fill="#1c96f9"/><path d="m456.586 172.182-4.527 25.497c-.461 2.596-2.942 4.328-5.537 3.868l-24.538-4.356c2.596.461 5.077-1.272 5.537-3.868l4.527-25.497c.461-2.596-1.272-5.076-3.868-5.537l24.538 4.356c2.596.461 4.329 2.941 3.868 5.537z" fill="#1785f8"/></g><g><path d="m429.367 249.409v189.993c0 5.275-4.277 9.552-9.552 9.552h-248.823c-4.378 0-8.249-2.964-9.259-7.225-3.26-13.752-15.623-23.98-30.373-23.98s-27.105 10.227-30.364 23.979c-1.01 4.261-4.881 7.226-9.26 7.226h-74.684c-5.275 0-9.552-4.277-9.552-9.552v-189.993c0-5.275 4.277-9.552 9.552-9.552h74.685c4.379 0 8.249 2.965 9.259 7.225 3.26 13.747 15.615 23.979 30.364 23.979 14.75 0 27.111-10.233 30.372-23.98 1.01-4.26 4.881-7.224 9.259-7.224h248.823c5.276 0 9.553 4.277 9.553 9.552z" fill="#deecf0"/><path d="m429.364 249.411v189.989c0 5.273-4.27 9.552-9.552 9.552h-24.95c5.282 0 9.552-4.279 9.552-9.552v-189.99c0-5.273-4.27-9.552-9.552-9.552h24.95c5.283.001 9.552 4.28 9.552 9.553z" fill="#cbe5e7"/><path d="m54.933 239.857h-37.881c-5.275 0-9.552 4.277-9.552 9.552v189.993c0 5.275 4.277 9.552 9.552 9.552h37.881z" fill="#fc5a95"/><g><g><path d="m137.423 306.377 11.093 15.786 18.441 5.672c3.184.979 4.432 4.82 2.432 7.483l-11.585 15.428.304 19.291c.053 3.33-3.215 5.704-6.366 4.625l-18.253-6.251-18.253 6.251c-3.151 1.079-6.418-1.295-6.366-4.625l.304-19.291-11.585-15.428c-2-2.663-.752-6.504 2.432-7.483l18.441-5.672 11.093-15.786c1.914-2.725 5.953-2.725 7.868 0z" fill="#fddd45"/></g><g><path d="m169.387 335.322-11.587 15.427.306 19.285c.057 3.334-3.21 5.712-6.362 4.633l-18.254-6.257-18.254 6.257c-3.152 1.079-6.419-1.299-6.371-4.633l.105-6.39c23.488-8.11 36.957-25.208 44.512-39.956l13.478 4.146c3.182.983 4.433 4.823 2.427 7.488z" fill="#f8c52d"/></g></g><path d="m382.368 315.509h-101.566c-2.638 0-4.776-2.138-4.776-4.776v-25.893c0-2.638 2.138-4.776 4.776-4.776h101.565c2.638 0 4.776 2.138 4.776 4.776v25.893c.001 2.638-2.138 4.776-4.775 4.776z" fill="#31a7fb"/><path d="m387.144 284.839v25.895c0 2.636-2.14 4.776-4.776 4.776h-24.921c2.636 0 4.776-2.14 4.776-4.776v-25.895c0-2.636-2.14-4.776-4.776-4.776h24.921c2.637 0 4.776 2.14 4.776 4.776z" fill="#1c96f9"/><g><path d="m497.927 126.219-244.992-43.496c-7.807-1.388-15.448 2.684-18.572 9.899-4.379 10.113-15.032 15.826-25.903 13.897-10.869-1.929-18.898-10.96-19.527-21.961-.449-7.851-6.219-14.302-14.031-15.688l-73.535-13.056c-4.484-.795-9.011.203-12.745 2.81-3.734 2.608-6.229 6.515-7.025 10.999l-17.243 97.117c-.724 4.078 1.995 7.972 6.073 8.695 4.071.724 7.972-1.995 8.695-6.073l17.243-97.119c.123-.691.527-1.101.845-1.323s.841-.463 1.534-.338l29.913 5.311-28.2 158.842c-2.565-1.514-5.549-2.379-8.72-2.379h-23.798l4.975-28.026c.724-4.079-1.996-7.972-6.074-8.696-4.082-.723-7.972 1.995-8.696 6.074l-5.441 30.648h-35.651c-9.403.001-17.052 7.65-17.052 17.053v189.993c0 9.402 7.649 17.052 17.052 17.052h74.685c7.935 0 14.744-5.344 16.557-12.996 2.541-10.721 12.026-18.208 23.066-18.208 11.044 0 20.533 7.488 23.075 18.21 1.814 7.651 8.623 12.994 16.557 12.994h248.823c9.403 0 17.052-7.649 17.052-17.052v-40.033c0-4.142-3.358-7.5-7.5-7.5s-7.5 3.358-7.5 7.5v40.033c0 1.131-.92 2.052-2.052 2.052h-248.823c-.937 0-1.762-.612-1.961-1.455-4.152-17.516-19.643-29.75-37.67-29.75-18.024 0-33.511 12.233-37.662 29.75-.2.843-1.025 1.455-1.961 1.455h-29.305v-194.097h29.304c.937 0 1.762.612 1.961 1.456 4.154 17.516 19.641 29.749 37.662 29.749 18.025 0 33.515-12.233 37.669-29.749.2-.843 1.025-1.456 1.962-1.456h78.444c4.142 0 7.5-3.358 7.5-7.5s-3.358-7.5-7.5-7.5h-78.444c-7.933 0-14.742 5.343-16.557 12.993-2.543 10.723-12.032 18.211-23.075 18.211-7.782 0-14.779-3.732-19.129-9.684.087-.287.164-.578.218-.881l30.977-174.481 28.853 5.123c.922.164 1.627.911 1.677 1.775 1.027 17.973 14.137 32.725 31.881 35.875 17.748 3.151 35.138-6.187 42.29-22.707.345-.795 1.264-1.251 2.186-1.09l244.992 43.496c1.114.198 1.86 1.266 1.663 2.379l-33.213 187.068c-.123.691-.527 1.101-.845 1.323s-.841.461-1.534.338l-24.509-4.351v-78.336c0-9.403-7.649-17.052-17.052-17.052h-134.983c-4.142 0-7.5 3.358-7.5 7.5s3.358 7.5 7.5 7.5h134.983c1.132 0 2.052.92 2.052 2.052v114.564c0 4.142 3.358 7.5 7.5 7.5s7.5-3.358 7.5-7.5v-20.994l21.887 3.886c1.007.179 2.015.267 3.016.267 3.46 0 6.833-1.054 9.729-3.077 3.734-2.608 6.229-6.515 7.025-10.999l33.213-187.068c1.643-9.255-4.551-18.124-13.809-19.768zm-450.494 315.235h-30.381c-1.131 0-2.052-.92-2.052-2.052v-189.993c0-1.132.92-2.052 2.052-2.052h30.381z"/><path d="m162.911 211.214c2.778 2.883 6.798 4.236 10.754 3.623l16.527-2.569 14.632 8.101c1.85 1.024 3.905 1.539 5.963 1.539 1.84 0 3.683-.412 5.382-1.238 3.601-1.751 6.131-5.156 6.768-9.109l2.664-16.512 12.226-11.412c2.927-2.732 4.345-6.73 3.792-10.696s-3.009-7.425-6.571-9.253l-14.881-7.636-7.076-15.155c-1.694-3.628-5.059-6.212-9.001-6.912-3.942-.697-7.991.568-10.831 3.391l-11.86 11.792-16.6 2.047c-3.974.49-7.471 2.892-9.354 6.425-1.884 3.533-1.929 7.775-.122 11.347l7.551 14.924-3.183 16.42c-.762 3.932.442 8 3.22 10.883zm22.874-47.472c1.652-.204 3.189-.952 4.37-2.125l10.966-10.903 6.542 14.012c.705 1.508 1.891 2.739 3.372 3.5l13.758 7.06-11.304 10.552c-1.217 1.136-2.021 2.645-2.287 4.288l-2.463 15.267-13.528-7.49c-1.118-.619-2.368-.938-3.633-.938-.384 0-.769.029-1.152.089l-15.281 2.375 2.943-15.181c.317-1.634.081-3.328-.67-4.813l-6.981-13.798z"/><path d="m282.782 128.858-.131-.023c-4.075-.726-7.975 1.983-8.705 6.06s1.983 7.975 6.06 8.705l.131.023c.447.08.892.119 1.331.119 3.563 0 6.724-2.549 7.374-6.179.73-4.077-1.983-7.975-6.06-8.705z"/><path d="m314.279 170.449c-4.079-.726-7.973 1.988-8.701 6.066s1.988 7.973 6.066 8.701l.131.023c.446.08.889.118 1.326.118 3.564 0 6.727-2.552 7.375-6.184.728-4.078-1.988-7.973-6.066-8.701z"/><path d="m307.696 140.565-29.559 20.646c-3.396 2.372-4.226 7.047-1.854 10.443 1.458 2.088 3.788 3.206 6.155 3.206 1.483 0 2.98-.438 4.288-1.352l29.559-20.646c3.396-2.372 4.226-7.047 1.854-10.443-2.373-3.397-7.049-4.226-10.443-1.854z"/><path d="m345.209 191.175 100.001 17.754c.725.128 1.451.192 2.171.192 2.491 0 4.919-.759 7.003-2.215 2.688-1.878 4.484-4.69 5.058-7.918l4.526-25.495c.573-3.229-.146-6.487-2.023-9.175-1.878-2.688-4.69-4.485-7.918-5.058l-100.002-17.755c-3.229-.573-6.487.146-9.175 2.023-2.688 1.878-4.484 4.69-5.058 7.918l-4.526 25.495c-1.181 6.666 3.278 13.05 9.943 14.234zm8.878-34.423 94.637 16.802-3.574 20.13-94.637-16.802z"/><path d="m263.195 201.986c-.724 4.078 1.995 7.972 6.073 8.696l66.554 11.816c.443.079.884.117 1.32.117 3.567 0 6.73-2.556 7.375-6.19.724-4.078-1.995-7.972-6.073-8.695l-66.554-11.816c-4.076-.727-7.971 1.993-8.695 6.072z"/><path d="m177.25 328.627c-1.237-3.808-4.26-6.784-8.087-7.961l-15.986-4.917-9.617-13.685c-2.302-3.276-6.067-5.232-10.07-5.232-4.004 0-7.769 1.956-10.071 5.232l-9.616 13.685-15.986 4.917c-3.827 1.177-6.851 4.153-8.088 7.961s-.541 7.993 1.863 11.194l10.043 13.375-.264 16.723c-.063 4.003 1.833 7.799 5.072 10.152 2.129 1.547 4.671 2.35 7.24 2.35 1.339 0 2.685-.218 3.983-.663l15.824-5.418 15.823 5.418c3.789 1.297 7.984.666 11.222-1.687 3.239-2.353 5.136-6.148 5.073-10.152l-.264-16.723 10.043-13.374c2.403-3.202 3.1-7.386 1.863-11.195zm-45.963-17.938.001.002c0-.001-.001-.001-.001-.002zm20.519 35.554c-1 1.331-1.528 2.957-1.501 4.622l.244 15.461-14.63-5.01c-.788-.27-1.608-.404-2.43-.404-.821 0-1.643.135-2.43.404l-14.63 5.01.244-15.462c.026-1.665-.502-3.291-1.501-4.622l-9.286-12.366 14.78-4.546c1.591-.489 2.975-1.494 3.932-2.856l8.891-12.652 8.891 12.652c.957 1.362 2.34 2.367 3.932 2.856l14.78 4.546z"/><path d="m208.459 272.565h-.133c-4.125-.041-7.512 3.331-7.527 7.473s3.331 7.512 7.473 7.527h.133.028c4.129 0 7.484-3.34 7.5-7.473.014-4.142-3.331-7.512-7.474-7.527z"/><path d="m246.853 308.009h-.133c-4.142 0-7.5 3.358-7.5 7.5s3.358 7.5 7.5 7.5h.133c4.142 0 7.5-3.358 7.5-7.5s-3.358-7.5-7.5-7.5z"/><path d="m235.02 279.736-25.495 25.495c-2.929 2.929-2.929 7.678 0 10.606 1.464 1.464 3.384 2.197 5.303 2.197s3.839-.732 5.303-2.197l25.495-25.495c2.929-2.929 2.929-7.678 0-10.606-2.928-2.929-7.677-2.929-10.606 0z"/><path d="m394.644 284.84c0-6.769-5.507-12.276-12.276-12.276h-101.566c-6.769 0-12.276 5.507-12.276 12.276v25.893c0 6.769 5.507 12.276 12.276 12.276h101.565c6.769 0 12.276-5.507 12.276-12.276v-25.893zm-15 23.169h-96.117v-20.445h96.117z"/><path d="m200.932 356.871c0 4.142 3.358 7.5 7.5 7.5h67.594c4.142 0 7.5-3.358 7.5-7.5s-3.358-7.5-7.5-7.5h-67.594c-4.142 0-7.5 3.358-7.5 7.5z"/><path d="m387.144 382.004h-178.712c-4.142 0-7.5 3.358-7.5 7.5s3.358 7.5 7.5 7.5h178.711c4.142 0 7.5-3.358 7.5-7.5s-3.357-7.5-7.499-7.5z"/><path d="m387.144 405.086h-178.712c-4.142 0-7.5 3.358-7.5 7.5s3.358 7.5 7.5 7.5h178.711c4.142 0 7.5-3.358 7.5-7.5s-3.357-7.5-7.499-7.5z"/></g></g></g></svg>