<svg xmlns="http://www.w3.org/2000/svg" width="221.208" height="223.042" viewBox="0 0 221.208 223.042">
  <g id="Group_3" data-name="Group 3" transform="translate(-43.42 -36.844)">
    <path id="Path_1" data-name="Path 1" d="M43.42,137.475a12.389,12.389,0,0,0,12.39,12.389H238.9V125.085H55.81a12.389,12.389,0,0,0-12.39,12.39Z" transform="translate(0 -42.96)" fill="#660b68"/>
    <circle id="Ellipse_1" data-name="Ellipse 1" cx="53.826" cy="53.826" r="53.826" transform="translate(94.566 36.844)" fill="#ffbe55"/>
    <circle id="Ellipse_2" data-name="Ellipse 2" cx="40.936" cy="40.936" r="40.936" transform="translate(107.456 49.734)" fill="#ffa12e"/>
    <g id="Group_1" data-name="Group 1" transform="translate(121.244 58.205)">
      <path id="Path_2" data-name="Path 2" d="M274.2,99.182l-2.416,3.92,4.021-2.077,2.282,2.582-.062-3.661s2.962-1.674,3.051-1.67-3.082-.779-3.082-.779l-.128-3.513-2.075,3-3.881-.817Z" transform="translate(-232.421 -86.024)" fill="#ffda44"/>
      <path id="Path_3" data-name="Path 3" d="M250.891,92.245l4.868-4.041,3.555,2.5-1.085-4.619,3.686-3.161-4.147-.027-.919-4.426L254.5,83.2l-5.744.165,4.456,3.3Z" transform="translate(-221.21 -78.472)" fill="#ffda44"/>
      <path id="Path_4" data-name="Path 4" d="M216.659,93.589q1.675.083,4.66.316a2.734,2.734,0,0,0,1.941-.4,1.933,1.933,0,0,0,.614-1.593,1.569,1.569,0,0,0-.514-1.161,3,3,0,0,0-1.542-.7,32.2,32.2,0,0,0-3.8-.431q-2.174-.132-5.822-.133a48.154,48.154,0,0,0-9.67.8,11.712,11.712,0,0,0-5.607,2.5,5.886,5.886,0,0,0-1.841,4.528,6.16,6.16,0,0,0,.432,2.372,4.121,4.121,0,0,0,1.095,1.609,1.327,1.327,0,0,0,.929.331,2.577,2.577,0,0,0,1.543-.547,1.506,1.506,0,0,0,.747-1.178.984.984,0,0,0-.133-.5,3.912,3.912,0,0,1-.664-2.156,2.717,2.717,0,0,1,.779-2.007,5.488,5.488,0,0,1,2.638-1.211,27.393,27.393,0,0,1,5.108-.531q-.166.8-.3,1.443t-.232,1.144q-.465,2.223-.929,4.711t-.83,5.009q-.2,1.492-.564,3.517-.332,2.024-.58,3.865a22.574,22.574,0,0,0-.249,2.637,1.774,1.774,0,0,0,.6,1.394,2.46,2.46,0,0,0,1.691.531,2.972,2.972,0,0,0,1.759-.514,1.867,1.867,0,0,0,.8-1.476q.132-1.824.531-4.793t.763-5.225q1.027-6.17,2.256-12.274Q214.983,93.507,216.659,93.589Z" transform="translate(-195.079 -83.837)" fill="#ffda44"/>
      <path id="Path_5" data-name="Path 5" d="M251.53,127.461a18.313,18.313,0,0,0,1.991-8.741,12.785,12.785,0,0,0-1.593-6.569,10.241,10.241,0,0,0-4.544-4.13,16.1,16.1,0,0,0-7-1.41,23.313,23.313,0,0,0-5.938.813,17.291,17.291,0,0,0-5.374,2.372,2.654,2.654,0,0,0-.9.945,2.846,2.846,0,0,0-.266,1.31,2.019,2.019,0,0,0,.332,1.178,1.032,1.032,0,0,0,.9.481,1.6,1.6,0,0,0,.929-.3,19.291,19.291,0,0,1,4.694-2.19,17.238,17.238,0,0,1,5.258-.829,8.851,8.851,0,0,1,6.369,2.156,8.046,8.046,0,0,1,2.256,6.1q0,5.871-2.87,9.388t-8.675,3.516q-1.261,0-2.256-.1a85.255,85.255,0,0,1,1.227-8.509,62,62,0,0,1,1.725-7.116,3.416,3.416,0,0,0,.2-1.061q0-1.128-2.024-1.128a4.275,4.275,0,0,0-1.824.331,1.721,1.721,0,0,0-.929,1.161q-1.228,4.478-2.091,9.3a79.49,79.49,0,0,0-1.095,8.111,2.282,2.282,0,0,0,.432,1.725,3,3,0,0,0,1.824.7,32.343,32.343,0,0,0,4.346.331,18.9,18.9,0,0,0,9.09-2.056A13.892,13.892,0,0,0,251.53,127.461Z" transform="translate(-211.063 -92.171)" fill="#ffda44"/>
      <circle id="Ellipse_3" data-name="Ellipse 3" cx="2.164" cy="2.164" r="2.164" transform="translate(35.712 40.971)" fill="#ffda44"/>
      <circle id="Ellipse_4" data-name="Ellipse 4" cx="3.872" cy="3.872" r="3.872" transform="translate(42.343 24.678) rotate(-67.5)" fill="#ffda44"/>
      <circle id="Ellipse_5" data-name="Ellipse 5" cx="1.754" cy="1.754" r="1.754" transform="translate(27.898 44.331)" fill="#ffda44"/>
      <path id="Path_6" data-name="Path 6" d="M276.554,148.4a2.751,2.751,0,1,0,2.751,2.751A2.751,2.751,0,0,0,276.554,148.4Z" transform="translate(-233.405 -112.517)" fill="#ffda44"/>
      <circle id="Ellipse_6" data-name="Ellipse 6" cx="3.22" cy="3.22" r="3.22" transform="translate(42.871 32.914) rotate(-67.5)" fill="#ffda44"/>
    </g>
    <path id="Path_7" data-name="Path 7" d="M55.81,161.619a12.39,12.39,0,0,1-12.39-12.39h0V302.211A12.389,12.389,0,0,0,55.81,314.6H255.062V161.619Z" transform="translate(0 -54.715)" fill="#a3159d"/>
    <path id="Path_8" data-name="Path 8" d="M411.185,323.566h-33.6A22.067,22.067,0,0,1,355.517,301.5h0a22.067,22.067,0,0,1,22.067-22.067h33.6a5.387,5.387,0,0,1,5.387,5.387v33.36A5.387,5.387,0,0,1,411.185,323.566Z" transform="translate(-151.944 -118.104)" fill="#660b68"/>
    <g id="Group_2" data-name="Group 2" transform="translate(43.42 118.47)">
      <circle id="Ellipse_7" data-name="Ellipse 7" cx="11.127" cy="11.127" r="11.127" transform="translate(47.827 105.42)" fill="#fbbf11"/>
      <circle id="Ellipse_8" data-name="Ellipse 8" cx="11.127" cy="11.127" r="11.127" transform="translate(80.146 1.098)" fill="#fbbf11"/>
      <circle id="Ellipse_9" data-name="Ellipse 9" cx="11.127" cy="11.127" r="11.127" transform="translate(34.945 74.337) rotate(-85.935)" fill="#fbbf11"/>
      <circle id="Ellipse_10" data-name="Ellipse 10" cx="11.127" cy="11.127" r="11.127" transform="translate(90.496 105.42)" fill="#fbbf11"/>
      <circle id="Ellipse_11" data-name="Ellipse 11" cx="11.127" cy="11.127" r="11.127" transform="translate(126.048 11.782)" fill="#fbbf11"/>
      <path id="Path_9" data-name="Path 9" d="M359.871,399.105l-66.914-.35-2.376-.991-31.957-31.956,4.79-4.79,30.972,30.972,65.523.342Z" transform="translate(-148.192 -276.294)" fill="#fbbf11"/>
      <circle id="Ellipse_12" data-name="Ellipse 12" cx="10.863" cy="10.863" r="10.863" transform="translate(171.105 53.793)" fill="#fbbf11"/>
      <path id="Path_10" data-name="Path 10" d="M238.308,284.38h49.975v6.774H238.308Z" transform="translate(-138.301 -238.983)" fill="#fbbf11"/>
      <circle id="Ellipse_13" data-name="Ellipse 13" cx="11.127" cy="11.127" r="11.127" transform="translate(78.107 38.176)" fill="#fbbf11"/>
      <path id="Path_11" data-name="Path 11" d="M384.2,195.912l-56.088.045-2.391.992L308.68,213.993l4.789,4.789,16.053-16.052,54.681-.044Z" transform="translate(-172.562 -195.912)" fill="#fbbf11"/>
      <path id="Path_12" data-name="Path 12" d="M354.543,248.29H332.867l-8.037.192a37.591,37.591,0,0,0-37.219,42.53H247.757v6.774H291.7l3.285-4.209a30.825,30.825,0,0,1,29.888-38.321l8.037-.191h21.637Z" transform="translate(-142.901 -221.412)" fill="#fbbf11"/>
      <path id="Path_13" data-name="Path 13" d="M291.008,343.841H261.335a30.98,30.98,0,0,1-23.566-10.87l-2.56-1.185-85-.345-28.168-28.168-4.789,4.79,29.155,29.155,2.381.991,84.884.344a37.733,37.733,0,0,0,27.661,12.061h29.673Z" transform="translate(-79.366 -248.181)" fill="#fbbf11"/>
      <path id="Path_14" data-name="Path 14" d="M245.426,422.39l-4.79,4.789,20.41,20.41h9.578Z" transform="translate(-139.434 -306.173)" fill="#fbbf11"/>
      <path id="Path_15" data-name="Path 15" d="M71.245,355.6H43.42v6.774H69.842l28.164,28.163,4.789-4.791L73.639,356.589Z" transform="translate(-43.42 -273.654)" fill="#fbbf11"/>
      <path id="Path_16" data-name="Path 16" d="M102.163,247.256H43.42v6.774h60.145l2.4-.992,29.154-29.154-4.79-4.789Z" transform="translate(-43.42 -207.198)" fill="#fbbf11"/>
    </g>
  </g>
</svg>
