<?xml version="1.0"?>
<svg xmlns="http://www.w3.org/2000/svg" xmlns:xlink="http://www.w3.org/1999/xlink" xmlns:svgjs="http://svgjs.com/svgjs" version="1.1" width="512" height="512" x="0" y="0" viewBox="0 0 24 24" style="enable-background:new 0 0 512 512" xml:space="preserve" class=""><g><path xmlns="http://www.w3.org/2000/svg" d="m20 16.75h-5a.75.75 0 0 1 0-1.5h5a1.252 1.252 0 0 0 1.25-1.25v-10a1.252 1.252 0 0 0 -1.25-1.25h-16a1.252 1.252 0 0 0 -1.25 1.25v10a1.252 1.252 0 0 0 1.25 1.25h8a.75.75 0 0 1 0 1.5h-8a2.752 2.752 0 0 1 -2.75-2.75v-10a2.752 2.752 0 0 1 2.75-2.75h16a2.752 2.752 0 0 1 2.75 2.75v10a2.752 2.752 0 0 1 -2.75 2.75z" fill="#000000" data-original="#000000" class=""/><path xmlns="http://www.w3.org/2000/svg" d="m12 22.75a.744.744 0 0 1 -.53-.22l-3-3a.75.75 0 0 1 1.06-1.06l2.47 2.469 2.47-2.469a.75.75 0 0 1 1.06 1.06l-3 3a.744.744 0 0 1 -.53.22z" fill="#000000" data-original="#000000" class=""/><path xmlns="http://www.w3.org/2000/svg" d="m12 21.75a.75.75 0 0 1 -.75-.75v-9a.75.75 0 0 1 1.5 0v9a.75.75 0 0 1 -.75.75z" fill="#000000" data-original="#000000" class=""/><path xmlns="http://www.w3.org/2000/svg" d="m22 7.75h-20a.75.75 0 0 1 0-1.5h20a.75.75 0 0 1 0 1.5z" fill="#000000" data-original="#000000" class=""/><path xmlns="http://www.w3.org/2000/svg" d="m8 11.25h-3a.75.75 0 0 1 0-1.5h3a.75.75 0 0 1 0 1.5z" fill="#000000" data-original="#000000" class=""/><path xmlns="http://www.w3.org/2000/svg" d="m7 13.75h-2a.75.75 0 0 1 0-1.5h2a.75.75 0 0 1 0 1.5z" fill="#000000" data-original="#000000" class=""/></g></svg>
