<svg xmlns="http://www.w3.org/2000/svg" width="44.281" height="44.282" viewBox="0 0 44.281 44.282">
  <g id="youtube_1_" data-name="youtube (1)" transform="translate(0)">
    <g id="Group_111" data-name="Group 111" transform="translate(19.294 17.783)">
      <g id="Group_110" data-name="Group 110">
        <path id="Path_123" data-name="Path 123" d="M219.6,202.4v8.083l7.451-4.006Z" transform="translate(-219.6 -202.4)"/>
      </g>
    </g>
    <g id="Group_113" data-name="Group 113" transform="translate(0 0)">
      <g id="Group_112" data-name="Group 112">
        <path id="Path_124" data-name="Path 124" d="M33.176,0H11.07A11.122,11.122,0,0,0,0,11.106V33.211a11.114,11.114,0,0,0,11.07,11.07H33.176A11.129,11.129,0,0,0,44.282,33.176V11.106A11.129,11.129,0,0,0,33.176,0Zm2.671,23.23c0,2.32-.211,4.674-.211,4.674a6.376,6.376,0,0,1-1.054,2.847,3.822,3.822,0,0,1-2.741,1.23c-3.866.281-9.665.316-9.665.316s-7.2-.105-9.419-.316A4.49,4.49,0,0,1,9.7,30.751,5.947,5.947,0,0,1,8.645,27.9s-.211-2.355-.211-4.674V21.051c0-2.32.211-4.674.211-4.674A6.376,6.376,0,0,1,9.7,13.53a3.9,3.9,0,0,1,2.741-1.265c3.9-.281,9.7-.316,9.7-.316s5.8.035,9.665.316a4.045,4.045,0,0,1,2.776,1.23,6.034,6.034,0,0,1,1.054,2.882s.211,2.355.211,4.674Z"/>
      </g>
    </g>
  </g>
</svg>
