<?xml version="1.0"?>
<svg xmlns="http://www.w3.org/2000/svg" xmlns:xlink="http://www.w3.org/1999/xlink" xmlns:svgjs="http://svgjs.com/svgjs" version="1.1" width="512" height="512" x="0" y="0" viewBox="0 0 64 64" style="enable-background:new 0 0 512 512" xml:space="preserve" class=""><g><g id="Layer_32" data-name="Layer 32"><path d="M1.9,39.995l7.357.736A5.994,5.994,0,0,0,20.65,41h24.7a5.99,5.99,0,0,0,11.3,0H60a3,3,0,0,0,3-3V34a4.835,4.835,0,0,0-3.668-4.7L46.475,26.088A29.281,29.281,0,0,0,27.37,19h-5.3A100.867,100.867,0,0,0,7.858,20.01a1,1,0,0,0-.626.35L6.073,21.75A17.619,17.619,0,0,0,2,32.761l-.9,1.792A1,1,0,0,0,1,35v4A1,1,0,0,0,1.9,39.995ZM3,36.08l6.514.5a5.954,5.954,0,0,0-.5,2.116L3,38.1ZM15,43a4,4,0,1,1,4-4A4,4,0,0,1,15,43Zm5.65-6h6.341v2H21A5.976,5.976,0,0,0,20.65,37ZM42.7,28H28.966a41.839,41.839,0,0,0-.745-6.961,27.239,27.239,0,0,1,16.086,5.888ZM28.991,30H41.982c-.03,1.668-.13,3.34-.311,5H28.991Zm12.427,7-.285,2H28.991V37Zm1.735,2,.271-1.9c.005-.034.008-.068.013-.1H45.35A5.976,5.976,0,0,0,45,39ZM51,43a4,4,0,1,1,4-4A4,4,0,0,1,51,43Zm9-4H57a5.992,5.992,0,0,0-10.46-4H43.683c.191-1.813.29-3.639.307-5.458l2.2-1.464L54.68,30.2l.739,2.217A3.77,3.77,0,0,0,59,35h2v3A1,1,0,0,1,60,39Zm.814-6H59a1.773,1.773,0,0,1-1.684-1.214l-.336-1.01,1.867.467A2.835,2.835,0,0,1,60.814,33ZM26.179,21l.053.271a39.919,39.919,0,0,1,.733,6.693,33.876,33.876,0,0,1-10.384-2.033l3.262-4.892c.743-.017,1.487-.039,2.228-.039ZM13.13,24.447a3.826,3.826,0,0,1-2.074-2.818q3.15-.354,6.325-.5l-2.695,4.043C14.162,24.94,13.642,24.7,13.13,24.447ZM7.609,23.031l.912-1.094c.182-.026.364-.042.546-.067a5.814,5.814,0,0,0,3.169,4.366,35.833,35.833,0,0,0,14.755,3.729V35H19.46a5.974,5.974,0,0,0-8.611-.323l-7.289-.56.335-.67A1,1,0,0,0,4,33c0-.335.022-.667.044-1H7a1,1,0,0,0,.8-.4l3-4A1,1,0,0,0,10,26H5.679A15.547,15.547,0,0,1,7.609,23.031ZM4.3,30a15.637,15.637,0,0,1,.535-2H8L6.5,30Z" fill="#a3159d" data-original="#000000" class=""/><rect x="30.991" y="32" width="4" height="2" fill="#a3159d" data-original="#000000" class=""/><circle cx="51" cy="39" r="2" fill="#a3159d" data-original="#000000" class=""/><circle cx="15" cy="39" r="2" fill="#a3159d" data-original="#000000" class=""/></g></g></svg>
