<?xml version="1.0"?>
<svg xmlns="http://www.w3.org/2000/svg" xmlns:xlink="http://www.w3.org/1999/xlink" xmlns:svgjs="http://svgjs.com/svgjs" version="1.1" width="512" height="512" x="0" y="0" viewBox="0 0 512 512" style="enable-background:new 0 0 512 512" xml:space="preserve" class=""><g><path d="m419.211 273.126a45.557 45.557 0 1 0 45.557 45.557 45.609 45.609 0 0 0 -45.557-45.557zm0 85.114a39.557 39.557 0 1 1 39.557-39.557 39.6 39.6 0 0 1 -39.557 39.557zm0-66.118a26.561 26.561 0 1 0 26.561 26.561 26.591 26.591 0 0 0 -26.561-26.561zm0 47.122a20.561 20.561 0 1 1 20.561-20.561 20.584 20.584 0 0 1 -20.561 20.561zm-330.99-47.122a26.561 26.561 0 1 0 26.561 26.561 26.591 26.591 0 0 0 -26.561-26.561zm0 47.122a20.561 20.561 0 1 1 20.561-20.561 20.584 20.584 0 0 1 -20.561 20.561zm0-66.118a45.557 45.557 0 1 0 45.556 45.557 45.609 45.609 0 0 0 -45.556-45.557zm0 85.114a39.557 39.557 0 1 1 39.556-39.557 39.6 39.6 0 0 1 -39.556 39.557zm185.887-200.095c-34.317.763-58.435 5.074-78.2 13.976-18.581 8.367-34.774 21.487-50.961 41.289a11.109 11.109 0 0 0 8.6 18.136h112.142a11.5 11.5 0 0 0 11.486-11.486v-58.916a3 3 0 0 0 -.9-2.145 3.047 3.047 0 0 0 -2.167-.854zm-2.933 61.915a5.492 5.492 0 0 1 -5.486 5.486h-112.141a5.109 5.109 0 0 1 -3.956-8.338c15.578-19.057 31.078-31.645 48.78-39.617 18.41-8.292 40.957-12.443 72.8-13.369zm115.383-61.916h-102.214a3 3 0 0 0 -3 3v67.4a3 3 0 0 0 3 3h102.214a3 3 0 0 0 3-3v-67.4a3 3 0 0 0 -3-3zm-3 67.4h-96.214v-61.4h96.214zm99.121-11.544a26.63 26.63 0 0 0 5.6-19.866l-4.029-33.354a3 3 0 0 0 -2.979-2.64h-84.571a3 3 0 0 0 -3 3v67.4a3 3 0 0 0 3 3 2.841 2.841 0 0 0 .332-.018l67.593-7.522a26.63 26.63 0 0 0 18.054-10zm-82.98 11.19v-61.05h78.914l3.71 30.714a20.816 20.816 0 0 1 -18.363 23.185zm108.194 9.377c0-2.443-3.131-26.217-9.307-70.663a18.809 18.809 0 0 0 -18.557-16.148h-193.988c-41.017 0-68.235 4.057-91.013 13.565-24.494 10.225-44.665 27.206-65.4 55.059a23.742 23.742 0 0 1 -13.162 8.84c-3.886.607-59.324 9.5-93.013 27.349-8.543 4.531-15.263 11.431-17.976 18.46a20.266 20.266 0 0 0 -1.229 4.719 2.846 2.846 0 0 0 -.024.369l-.169 51.476a12.5 12.5 0 0 0 10.714 12.373l20.673 2.918a3 3 0 0 0 3.419-2.979s-.05-18.321-.05-21.221a49.81 49.81 0 1 1 99.62 0c0 2.85-.237 22.083-.24 22.277a3 3 0 0 0 3 3.037h225.3a3 3 0 0 0 3-3.013s-.086-19.4-.086-22.3a49.811 49.811 0 1 1 99.622 0v.076l-.136 22.218a3.028 3.028 0 0 0 1.1 2.305 3.058 3.058 0 0 0 1.965.7h.011a3 3 0 0 0 .516-.045l32.981-5.754a3 3 0 0 0 2.484-2.957zm-497.67 41.766a12.2 12.2 0 0 1 .25-1.261c10.009.047 15.827 3.073 16.153 4.392-.329 1.329-6.235 4.393-16.39 4.393h-.036zm9.013 58.2-3.63-.513a6.478 6.478 0 0 1 -5.551-6.412l.1-29.933h9.084zm399.975-71.665a55.875 55.875 0 0 0 -55.811 55.816c0 2.186.049 13.74.074 19.314h-219.245c.067-5.595.2-17.1.2-19.314a55.81 55.81 0 1 0 -111.62 0c0 2.1.026 12.314.041 17.774l-7.616-1.075v-40.7a3 3 0 0 0 -3-3h-12.062l.006-1.823h.058c10.786 0 22.393-3.252 22.393-10.393 0-6.487-9.582-9.765-19.424-10.31a36.047 36.047 0 0 1 13.056-11.279c33.283-17.633 90.682-26.654 91.258-26.743.087-.014.175-.031.262-.053a29.738 29.738 0 0 0 16.658-11.112c37.775-50.738 73.2-66.207 151.6-66.207h193.99a12.785 12.785 0 0 1 12.614 10.974c5.765 41.5 9.223 67.6 9.25 69.839l.039 76.351-27.032 4.265a55.874 55.874 0 0 0 -55.689-52.32zm55.76 74.543v-.154l.044-16.013 26.921-4.244.008 15.71z" fill="#a3159d" data-original="#000000"/></g></svg>
