<?xml version="1.0"?>
<svg xmlns="http://www.w3.org/2000/svg" xmlns:xlink="http://www.w3.org/1999/xlink" xmlns:svgjs="http://svgjs.com/svgjs" version="1.1" width="512" height="512" x="0" y="0" viewBox="0 0 1.70666 1.70666" style="enable-background:new 0 0 512 512" xml:space="preserve" class=""><g><g id="Layer_x0020_1"><g id="_297879368"><g><path id="_297883976" d="m1.67042 1.03653c-.00230315 0-.00501181-.00023622-.00813386-.00053937-.00252756-.00025197-.00546457-.00055906-.00883858-.00059843l-.198268-.00233465c-.00563386-.00005906-.0109646-.00249606-.0147165-.00670472-.00374409-.00420866-.00551969-.00978346-.0049252-.015378.00051575-.00491732.00077953-.00987008.00077953-.0148937 0-.0769449-.0625945-.139535-.139528-.139535-.0769449 0-.139535.0625945-.139535.139535 0 .00391339.00016929.00779921.00047244.0116457.00047244.0056063-.00144094.0111575-.0052874.0152795-.00377559.00406693-.0090748.00636614-.0146299.00636614-.00008268 0-.00016929 0-.00023622-.00001575l-.369091-.00434646c-.00008268 0-.118858-.00192913-.253425-.00440157-.00534646-.00009843-.0104252-.00233465-.0141181-.00620472-.00367717-.0038622-.00566535-.00904724-.00549606-.0143937l.00005906-.00392913c0-.0769449-.0625945-.139535-.139535-.139535-.0758898 0-.138469.0617165-.139512.137579-.00006693.00535433-.00229134.0104488-.00614567.0141575-.0038622.00372047-.00898031.00553937-.0143937.00555118-.0232362-.00065354-.0409606-.00127559-.0509921-.00179134-.0582205-.00311024-.104244-.020626-.123146-.0469094-.0078937-.0109803-.0105315-.0232598-.00739764-.0345591.00323228-.0116693.0023189-.0280866.00129134-.0369843-.0275472-.0430827-.0107677-.0881732-.00720079-.0966142l.0262598-.0799134c.00634252-.0535984.0379134-.0616772.0563465-.0616772.00585827 0 .0110315.00070866.0151969.00127559.0014685.00020866.00279921.00042913.00392913.00049606.00233465-.00036221.00488189-.00044488.00818898-.00044488l.00713386.00006693c.0041063.00005906.00926772.00012598.0156417.00012598.110803 0 .282654-.0221181.496953-.0639685.065311-.0127559.130488-.0192205.193724-.0192205.276827 0 .438276.120555.455098.133736.00852362.0049252.014126.00635827.0163268.00675984.00871654-.0014685.0186772-.00221654.0296457-.00221654.0958031 0 .285098.0598307.350299.142461.0201811.0255945.027315.0515748.0211693.0772362-.00076772.0031811-.00229528.00612205-.00444488.00857874-.00816142.00922441-.0122953.0199567-.014252.0267441.00931102.0145039.0119213.0273583.0123622.0361024.00037402.00781496-.00012598.0177638-.00748031.0254921-.00503543.00524016-.011811.00792126-.0201496.00792126zm0-.0399724v.0199724l.00002362-.0199724c-.00000787 0-.00000787 0-.00002362 0zm-.19415-.00322047.17765.00209843c.00062598 0 .00123228.00001575.00184646.00002756-.00144094-.00340157-.00370079-.00733071-.00717323-.0117283-.00330709-.00417717-.00480315-.00952362-.00416535-.0147953.00036221-.0029252.00384252-.0277598.021815-.0506693.00145669-.0121299-.00327165-.0249528-.0144213-.0390709-.0517087-.0655354-.2235-.127256-.318921-.127256-.00960236 0-.0179724.00066535-.0248425.002-.00087402.00016535-.00177953.00027559-.00266535.00033465-.00634252.00037402-.0200827-.00124803-.0400276-.0131575-.0008189-.00048425-.00158268-.00102756-.00233465-.00162598-.00152756-.00123228-.159535-.125807-.431185-.125807-.0606654 0-.123272.00621654-.186075.0184764-.216787.0423386-.391268.0647165-.504602.0647165-.00656299 0-.0119094-.00006693-.0161575-.00012598l-.00661811-.00006693c-.00097244-.00004331-.00170472 0-.00230315.00002756-.00405512.00072441-.00864567.00045669-.0152126-.00045669-.00290157-.00038976-.00627559-.00090158-.00981496-.00090158-.00520472 0-.0139488 0-.0168228.0280197-.00015354.00143307-.00044488.00283465-.00088583.00419291l-.0271929.0827362c-.00025197.00075197-.00053937.00148425-.00087795.00220866-.00055512.00122047-.0146142.0334449.00583071.0621496.00175984.0024685.00294094.00531102.00344094.00831496.00055512.00330315.0051063.0325827-.00135827.0571811.00277165.00682677.0293543.0285354.0938189.0319606.00685827.00034646.0174055.00074803.0309094.00117717.0112953-.0880866.0872835-.15672.178047-.15672.0939055 0 .171193.0724803.178882.164421.126476.0023189.234193.00406693.234193.00406693l.34837.00409843c.00366535-.0957795.0827165-.172587.179378-.172587.098063-.00001575.178004.0790433.179476.17676z" fill="#a3159d" data-original="#000000" class=""/></g><g><path id="_297884264" d="m1.58067.900587c-.0667953 0-.121134-.0543465-.121134-.121134 0-.00777559.00076378-.0155827.00223228-.0232165.00109843-.00562205.00453937-.0104921.00948031-.0134094.0049252-.00291339.0108661-.00356693.0163228-.0017874.0761811.0247087.141366.0593583.178815.0950866.00387008.00370472.0061063.00881102.00617323.0141693.00008268.00535433-.00199606.0105315-.00577559.0143504-.0229134.0231575-.0535039.0359409-.0861142.0359409zm-.080752-.113028c.00408268.0409567.0387402.0730433.080748.0730433.014378 0 .0281575-.00370472.0402874-.0106614-.0297756-.0226575-.0720551-.0444646-.121035-.0623819z" fill="#a3159d" data-original="#000000" class=""/></g><g><path id="_297883280" d="m.0365276.924764c-.00484252 0-.00954724-.00176378-.0132126-.00498425-.00412598-.00363386-.00657874-.00881102-.00676378-.0142913-.00016929-.00484252-.00056693-.00905118-.00090158-.0119331-.0275236-.0430827-.0107441-.0881457-.00717717-.0965827l.0262598-.0799134c.00059843-.00509449.00143307-.00990945.00248819-.0143386.00126378-.00537008.00470472-.00997638.00949213-.0127244.00479134-.00274803.0104921-.00339764.0157795-.0017874.0513386.015626.0858268.062189.0858268.115886 0 .0630118-.0472717.114846-.109945.120606-.00062598.00004724-.00124016.00006299-.00184646.00006299zm.0342087-.189264-.0245787.0748071c-.00025197.00075197-.00053937.00148425-.00087795.00220866-.00055512.00122047-.0146142.0334449.00583071.0621496.00131496.00184646.00230315.00388583.0029252.00606299.0319921-.011063.0542953-.0412205.0542953-.0766535.00000787-.0284921-.0144882-.0539882-.0375945-.0685748z" fill="#a3159d" data-original="#000000" class=""/></g><g><path id="_297883376" d="m1.03606.83676c-.00420472 0-.435461-.0187362-.523894-.136079-.0162087-.0214961-.0210276-.0459528-.0139252-.0707165.00211024-.00738583.00825984-.0128937.0158228-.0141811.0396102-.00683071.0813425-.0145197.124063-.0228622.065311-.0127559.130484-.0192205.19372-.0192205.276827 0 .43828.120555.455102.133736.0111457.00645276.0172913.00689764.0173622.00691339.00994882-.0006378.0184173.00649606.0202047.0164331.0017874.00994094-.00468898.0196575-.0143268.0226378-.0715315.0221339-.25863.0800394-.265154.0822008-.00320079.00105512-.0060748.0011378-.00897638.0011378zm-.501051-.184051c.00012598.00821654.00312205.0160157.0090748.0239173.065622.0870591.420957.119886.491142.120161.0207795-.00655118.144579-.0448701.214846-.0666181-.0429724-.0291299-.190736-.11648-.418224-.11648-.0606654 0-.123272.00621654-.186075.0184764-.0379409.00740551-.075122.0143031-.110764.0205433z" fill="#a3159d" data-original="#000000" class=""/></g><g><path id="_297883496" d="m.355972 1.17559c-.0989803 0-.179508-.0805394-.179508-.179524 0-.0989803.0805276-.179508.179508-.179508.0989843 0 .179508.0805276.179508.179508 0 .0989843-.0805354.179524-.179508.179524zm0-.319059c-.0769291 0-.139535.0625945-.139535.139535 0 .0769409.0625945.139535.139535.139535.0769488 0 .139535-.0625945.139535-.139535 0-.0769409-.0626024-.139535-.139535-.139535z" fill="#a3159d" data-original="#000000" class=""/></g><g><path id="_297882008" d="m.355957.964331c-.00434252 0-.00870079-.00141732-.012378-.00431496-.00866142-.00684252-.0101299-.0194055-.00329134-.0280669l.0717126-.0907913c.00684252-.00867717.0194055-.0101457.028063-.00329134.00866142.00684252.0101299.0194055.00329134.0280787l-.0717126.0907795c-.00394094.005-.00978346.0076063-.015685.0076063z" fill="#a3159d" data-original="#000000" class=""/></g><g><path id="_297881120" d="m.51526 1.0069c-.00096063 0-.00193307-.00006693-.00291732-.00022047l-.114457-.0166969c-.0109213-.00158268-.0184843-.0117362-.0168898-.0226654.00159449-.0109252.0117283-.0185433.0226654-.0168898l.114457.0166969c.0109213.00158268.0184843.0117402.0168898.0226654-.00145276.00996063-.00999213.0171102-.019748.0171102z" fill="#a3159d" data-original="#000000" class=""/></g><g><path id="_297881288" d="m.443535 1.14942c-.00795276 0-.0154567-.00477559-.0185669-.0126024l-.0427638-.107492c-.00407874-.010252.00092913-.0218701.011189-.0259528.0102441-.00408268.021874.00091732.0259567.011189l.0427598.107492c.00408268.010252-.00092913.021874-.011189.0259528-.00241732.00095669-.00492913.00141339-.00738583.00141339z" fill="#a3159d" data-original="#000000" class=""/></g><g><path id="_297880880" d="m.284236 1.15858c-.00434252 0-.00870472-.00141732-.0123819-.0043189-.00865748-.00683858-.010126-.0194016-.0032874-.028063l.0717126-.0907953c.00683858-.00865748.0194173-.010126.028063-.0032874.00866142.00683858.0101299.0194016.0032874.028063l-.0717087.0907953c-.00392913.005-.00979134.0076063-.015685.0076063z" fill="#a3159d" data-original="#000000" class=""/></g><g><path id="_297880784" d="m.311201 1.04193c-.00095669 0-.00193701-.00007087-.00291339-.00022047l-.114457-.0167126c-.0109213-.00159449-.0184882-.0117402-.0168937-.0226654.00159449-.0109213.0118583-.0185157.0226693-.0168898l.114457.0167087c.0109213.00159843.0184843.0117402.0168898.0226693-.00146063.00994882-.00999213.0171102-.019752.0171102z" fill="#a3159d" data-original="#000000" class=""/></g><g><path id="_297880688" d="m.311169.990201c-.00794882 0-.0154567-.00477165-.0185669-.0125984l-.0427598-.107492c-.00408268-.0102559.0009252-.021874.011185-.0259528.0102323-.00409843.021874.00091732.0259567.011189l.0427598.107488c.00408268.0102559-.0009252.021874-.011189.0259567-.00240945.00095276-.00491339.00140945-.00738583.00140945z" fill="#a3159d" data-original="#000000" class=""/></g><g><path id="_297880760" d="m.355972 1.06778c-.0395394 0-.0717126-.0321693-.0717126-.0717126 0-.0395551.0321732-.0717244.0717126-.0717244.0395433 0 .0717126.0321693.0717126.0717244 0 .0395433-.0321693.0717126-.0717126.0717126zm0-.103453c-.0175 0-.0317402.0142283-.0317402.0317402 0 .0175.0142402.0317244.0317402.0317244s.0317402-.0142244.0317402-.0317244c0-.0175118-.0142362-.0317402-.0317402-.0317402z" fill="#a3159d" data-original="#000000" class=""/></g><g><path id="_297881312" d="m1.29679 1.17559c-.0989843 0-.179524-.0805394-.179524-.179524 0-.0989803.0805394-.179508.179524-.179508.0989843 0 .179508.0805276.179508.179508 0 .0989843-.0805236.179524-.179508.179524zm0-.319059c-.0769449 0-.139535.0625945-.139535.139535 0 .0769409.0625945.139535.139535.139535.0769331 0 .139528-.0625945.139528-.139535 0-.0769409-.0625945-.139535-.139528-.139535z" fill="#a3159d" data-original="#000000" class=""/></g><g><path id="_297880808" d="m1.29677.964331c-.00434252 0-.00870079-.00141732-.012378-.00431496-.00866142-.00684252-.0101299-.0194055-.00329134-.0280669l.0717126-.0907913c.00683071-.00866142.0193858-.0101457.028063-.00329134.00866142.00684252.0101299.0194055.00329134.028063l-.0717126.0907953c-.00392913.005-.00977165.0076063-.015685.0076063z" fill="#a3159d" data-original="#000000" class=""/></g><g><path id="_297879992" d="m1.45607 1.0069c-.00096063 0-.00194094-.00006693-.00291732-.00022047l-.114457-.0166969c-.0109213-.00158268-.0184882-.0117362-.0168937-.0226654.00159843-.0109252.0118583-.0185433.0226693-.0168898l.114457.0166969c.0109213.00158268.0184843.0117402.0168898.0226654-.00145669.00996063-.00999213.0171102-.019748.0171102z" fill="#a3159d" data-original="#000000" class=""/></g><g><path id="_297880256" d="m1.38435 1.14942c-.00793701 0-.0154488-.00477559-.0185709-.0126024l-.0427598-.107492c-.00408268-.010252.00091732-.0218701.011189-.0259528.0102559-.00405512.021874.00091732.0259528.011189l.0427638.107492c.00407874.010252-.00091732.021874-.011189.0259528-.00242913.00095669-.0049252.00141339-.00738583.00141339z" fill="#a3159d" data-original="#000000" class=""/></g><g><path id="_297880280" d="m1.22505 1.15858c-.00434252 0-.00870472-.00141732-.0123819-.0043189-.00865748-.00683858-.010126-.0194016-.0032874-.028063l.0717283-.0907953c.00683858-.00864173.0193858-.010126.028063-.0032874.00866142.00683858.0101299.0194016.0032874.028063l-.0717244.0907953c-.00392913.005-.00977559.0076063-.015685.0076063z" fill="#a3159d" data-original="#000000" class=""/></g><g><path id="_297880160" d="m1.25201 1.04193c-.00096063 0-.00194094-.00007087-.00291732-.00022047l-.114445-.0167126c-.0109213-.00159449-.0184843-.0117402-.0168898-.0226654.00159449-.0109291.0118228-.0185157.0226654-.0168898l.114445.0167087c.0109213.00159843.0184843.0117402.0168898.0226693-.00145276.00994882-.00999213.0171102-.019748.0171102z" fill="#a3159d" data-original="#000000" class=""/></g><g><path id="_297880400" d="m1.25198.990201c-.00793307 0-.0154449-.00477165-.0185669-.0125984l-.0427638-.107492c-.00407874-.0102559.00092126-.021874.011189-.0259528.0102441-.00408268.021874.00091732.0259567.011189l.0427598.107488c.00408268.0102559-.00091732.021874-.011189.0259567-.0024252.00095276-.00492913.00140945-.00738583.00140945z" fill="#a3159d" data-original="#000000" class=""/></g><g><path id="_297880352" d="m1.29679 1.06778c-.0395551 0-.0717283-.0321693-.0717283-.0717126 0-.0395551.0321732-.0717244.0717283-.0717244.0395394 0 .0717126.0321693.0717126.0717244 0 .0395433-.0321732.0717126-.0717126.0717126zm0-.103453c-.0175157 0-.0317402.0142283-.0317402.0317402 0 .0175.0142244.0317244.0317402.0317244.0175 0 .0317244-.0142244.0317244-.0317244 0-.0175118-.0142244-.0317402-.0317244-.0317402z" fill="#a3159d" data-original="#000000" class=""/></g><g><path id="_297880184" d="m.887795.956866c-.0208622 0-.0439094-.00102756-.0693937-.0032874-.114067-.0101614-.163756-.0250118-.189886-.0567362-.0268425-.0326181-.0223228-.0758622-.0154764-.141331.00398031-.038.0089252-.0852953.0089252-.142976 0-.0110315.00895276-.0199843.0199843-.0199843.0110315 0 .0199843.00895276.0199843.0199843 0 .0597638-.00506693.108217-.00914961.147126-.00578346.0554449-.00962992.0920709.00657874.111752.0175748.0213425.0646772.0336102.162575.0423307.170602.0152126.220894-.0280472.223669-.056.00129134-.0129213-.00634252-.0209331-.00909055-.0212362-.0109803-.00120472-.0188898-.0110709-.0176811-.0220512.00120472-.0109646.0110709-.018874.0220512-.0176693.0273268.00300394.0477126.0327441.0445079.0649252-.00239764.024-.0243071.0951535-.197598.0951535z" fill="#a3159d" data-original="#000000" class=""/></g><g><path id="_297879608" d="m.749299.86824c-.00172047 0-.00345669-.00022047-.00519291-.00069291l-.0416772-.0111575c-.0106575-.00285827-.0169921-.0138228-.0141417-.0244803.00285827-.0106772.0138228-.0169764.0244803-.0141417l.0416772.0111732c.0106575.00285827.0169882.0138189.0141417.0244803-.00238189.00891732-.0104606.0148189-.0192874.0148189z" fill="#a3159d" data-original="#000000" class=""/></g><g><path id="_297879272" d="m.14552.696862c-.0110315 0-.0199882-.00895276-.0199882-.0199843v-.105244c0-.0110276.00895669-.0199843.0199882-.0199843.0110276 0 .0199843.00895669.0199843.0199843v.105244c0 .0110472-.00895669.0199843-.0199843.0199843z" fill="#a3159d" data-original="#000000" class=""/></g><g><path id="_297879056" d="m.0687244.612189c-.00883071 0-.0169055-.00588583-.0192953-.0148228-.00285827-.0106614.0034685-.021622.0141417-.0244803l.153543-.0411378c.0106024-.00283071.021622.0034685.0244803.0141417.00285827.0106614-.0034685.021622-.0141417.0244803l-.153543.0411378c-.00172835.00045669-.00346457.0006811-.00518504.0006811z" fill="#a3159d" data-original="#000000" class=""/></g></g></g></g></svg>
