<?xml version="1.0"?>
<svg xmlns="http://www.w3.org/2000/svg" xmlns:xlink="http://www.w3.org/1999/xlink" xmlns:svgjs="http://svgjs.com/svgjs" version="1.1" width="512" height="512" x="0" y="0" viewBox="0 0 512 512" style="enable-background:new 0 0 512 512" xml:space="preserve" class=""><g><g><path d="m98.025 325.281c1.919 0 3.839-.732 5.303-2.197l11.337-11.336c2.929-2.929 2.929-7.678 0-10.606-2.928-2.929-7.677-2.929-10.606 0l-11.337 11.336c-2.929 2.929-2.929 7.678 0 10.606 1.464 1.465 3.383 2.197 5.303 2.197z" fill="#a3159d" data-original="#000000"/><path d="m416.687 323.084c1.464 1.465 3.384 2.197 5.303 2.197s3.839-.732 5.303-2.197c2.929-2.929 2.929-7.677 0-10.606l-11.336-11.336c-2.929-2.93-7.678-2.93-10.606 0-2.929 2.929-2.929 7.677 0 10.606z" fill="#a3159d" data-original="#000000"/><path d="m489.386 230.172c-42.359-19.674-106.08-21.557-118.948-21.735l-60.762-38.666c-17.954-11.426-38.693-17.465-59.974-17.465h-185.62c-12.75 0-24.785 6.194-32.195 16.568l-23.024 32.234c-5.798 8.118-8.863 17.681-8.863 27.656v54.476c0 15.599 11.645 29.025 27.087 31.231l29.49 4.213c3.212 23.136 23.111 41.01 47.116 41.01 20.804 0 38.52-13.426 44.969-32.064h222.69c6.449 18.638 24.165 32.064 44.969 32.064 26.236 0 47.581-21.345 47.581-47.581s-21.345-47.581-47.581-47.581-47.581 21.345-47.581 47.581c0 .173.011.343.013.516h-217.492c.002-.173.013-.343.013-.516 0-26.236-21.345-47.581-47.581-47.581-23.321 0-42.763 16.87-46.799 39.045l-27.687-3.955c-8.1-1.157-14.208-8.2-14.208-16.382v-35.772h8.532c4.142 0 7.5-3.358 7.5-7.5s-3.358-7.5-7.5-7.5h-8.531v-3.704c0-6.83 2.099-13.379 6.069-18.937l23.024-32.234c4.601-6.441 12.073-10.287 19.989-10.287h10.656l-18.799 32.898c-2.776 4.858-2.757 10.647.052 15.486 2.808 4.839 7.825 7.728 13.42 7.728h298.814c.711 0 71.571.258 114.844 20.357 2.537 1.179 4.799 2.793 6.731 4.724h-9.348c-4.142 0-7.5 3.358-7.5 7.5s3.358 7.5 7.5 7.5h16.413c.08.812.136 1.628.136 2.455v38.141c0 4.705-3.828 8.533-8.533 8.533-4.142 0-7.5 3.358-7.5 7.5s3.358 7.5 7.5 7.5c12.975 0 23.532-10.557 23.533-23.532v-38.142c-.001-15.355-8.877-29.401-22.615-35.782zm-73.064 49.36c17.965 0 32.581 14.615 32.581 32.581s-14.616 32.581-32.581 32.581-32.581-14.615-32.581-32.581 14.616-32.581 32.581-32.581zm-312.629 0c17.965 0 32.581 14.615 32.581 32.581s-14.616 32.581-32.581 32.581-32.581-14.615-32.581-32.581 14.617-32.581 32.581-32.581zm197.93-97.106 40.847 25.994h-104.014l-5.873-41.113h17.119c18.423 0 36.378 5.228 51.921 15.119zm-84.193-15.119 5.873 41.113h-72.03v-41.113zm-148.467 40.855c-.149-.257-.061-.412-.002-.515l23.052-40.341h44.26v41.113h-66.863c-.118 0-.298 0-.447-.257z" fill="#a3159d" data-original="#000000"/><path d="m175.838 280.564c-4.142 0-7.5 3.358-7.5 7.5s3.358 7.5 7.5 7.5h168.338c4.142 0 7.5-3.358 7.5-7.5s-3.358-7.5-7.5-7.5z" fill="#a3159d" data-original="#000000"/></g></g></svg>
