<?xml version="1.0"?>
<svg xmlns="http://www.w3.org/2000/svg" xmlns:xlink="http://www.w3.org/1999/xlink" xmlns:svgjs="http://svgjs.com/svgjs" version="1.1" width="512" height="512" x="0" y="0" viewBox="0 0 48 60" style="enable-background:new 0 0 512 512" xml:space="preserve" class=""><g><g id="Page-1" fill="none" fill-rule="evenodd"><g id="026---Automatic" fill="rgb(0,0,0)" fill-rule="nonzero"><path id="Shape" d="m27 0h-10c-1.6568542 0-3 1.34314575-3 3v33h-10c-2.209139 0-4 1.790861-4 4v8c0 2.209139 1.790861 4 4 4h10v5c0 1.6568542 1.3431458 3 3 3h10c1.6568542 0 3-1.3431458 3-3v-5h10c2.209139 0 4-1.790861 4-4v-8c0-2.209139-1.790861-4-4-4h-10v-5h4c.5522847 0 1-.4477153 1-1s-.4477153-1-1-1h-4v-10h4c.5522847 0 1-.4477153 1-1s-.4477153-1-1-1h-4v-10h4c.5522847 0 1-.44771525 1-1s-.4477153-1-1-1h-4v-2c0-1.65685425-1.3431458-3-3-3zm1 57c0 .5522847-.4477153 1-1 1h-10c-.5522847 0-1-.4477153-1-1v-5h5v1c0 .5522847.4477153 1 1 1s1-.4477153 1-1v-1h5zm14-17v8c0 1.1045695-.8954305 2-2 2h-36c-1.1045695 0-2-.8954305-2-2v-8c0-1.1045695.8954305-2 2-2h36c1.1045695 0 2 .8954305 2 2zm-19-14c.5522847 0 1 .4477153 1 1v9h-4v-9c0-.5522847.4477153-1 1-1zm3 10v-9c0-1.6568542-1.3431458-3-3-3v-17c0-.55228475-.4477153-1-1-1s-1 .44771525-1 1v17c-1.6568542 0-3 1.3431458-3 3v9h-2v-33c0-.55228475.4477153-1 1-1h10c.5522847 0 1 .44771525 1 1v33z" fill="#a3159d" data-original="#000000"/><path id="Shape" d="m5 39c-.55228475 0-1 .4477153-1 1v1c0 .5522847.44771525 1 1 1s1-.4477153 1-1v-1c0-.5522847-.44771525-1-1-1z" fill="#a3159d" data-original="#000000"/><path id="Shape" d="m5 43c-.55228475 0-1 .4477153-1 1v4c0 .5522847.44771525 1 1 1s1-.4477153 1-1v-4c0-.5522847-.44771525-1-1-1z" fill="#a3159d" data-original="#000000"/><path id="Shape" d="m39 42c.5522847 0 1-.4477153 1-1v-1c0-.5522847-.4477153-1-1-1s-1 .4477153-1 1v1c0 .5522847.4477153 1 1 1z" fill="#a3159d" data-original="#000000"/><path id="Shape" d="m39 49c.5522847 0 1-.4477153 1-1v-4c0-.5522847-.4477153-1-1-1s-1 .4477153-1 1v4c0 .5522847.4477153 1 1 1z" fill="#a3159d" data-original="#000000"/><path id="Shape" d="m38 7h1c.5522847 0 1-.44771525 1-1s-.4477153-1-1-1h-1c-.5522847 0-1 .44771525-1 1s.4477153 1 1 1z" fill="#a3159d" data-original="#000000"/><path id="Shape" d="m42 10c.5522847 0 1-.44771525 1-1v-2h2c1.6568542-.00000002 3-1.34314577 3-3s-1.3431458-2.99999998-3-3h-3c-.5522847 0-1 .44771525-1 1v7c0 .55228475.4477153 1 1 1zm1-7h2c.5522847 0 1 .44771525 1 1s-.4477153 1-1 1h-2z" fill="#a3159d" data-original="#000000"/><path id="Shape" d="m38 19h1c.5522847 0 1-.4477153 1-1s-.4477153-1-1-1h-1c-.5522847 0-1 .4477153-1 1s.4477153 1 1 1z" fill="#a3159d" data-original="#000000"/><path id="Shape" d="m41 17v4c0 .5522847.4477153 1 1 1s1-.4477153 1-1v-2h1.465l1.7 2.555c.1982824.297245.5400812.4661283.8966441.4430332s.6737195-.2346599.832-.555.1336383-.7007882-.0646441-.9980332l-1.266-1.9c1.144112-.6991976 1.6833502-2.0741847 1.3195738-3.3647414-.3637764-1.2905566-1.5417278-2.1815099-2.8825738-2.1802586h-3c-.5522847 0-1 .4477153-1 1zm2-2h2c.5522847 0 1 .4477153 1 1s-.4477153 1-1 1h-2z" fill="#a3159d" data-original="#000000"/><path id="Shape" d="m38 31h1c.5522847 0 1-.4477153 1-1s-.4477153-1-1-1h-1c-.5522847 0-1 .4477153-1 1s.4477153 1 1 1z" fill="#a3159d" data-original="#000000"/><path id="Shape" d="m41 33c0 .5522847.4477153 1 1 1h3c1.6568542 0 3-1.3431458 3-3v-3c0-1.6568542-1.3431458-3-3-3h-3c-.5522847 0-1 .4477153-1 1zm2-6h2c.5522847 0 1 .4477153 1 1v3c0 .5522847-.4477153 1-1 1h-2z" fill="#a3159d" data-original="#000000"/></g></g></g></svg>
