<?xml version="1.0"?>
<svg xmlns="http://www.w3.org/2000/svg" xmlns:xlink="http://www.w3.org/1999/xlink" xmlns:svgjs="http://svgjs.com/svgjs" version="1.1" width="512" height="512" x="0" y="0" viewBox="0 0 64 64" style="enable-background:new 0 0 512 512" xml:space="preserve" class=""><g><g id="Layer_6" data-name="Layer 6"><path d="M59.706,30.519l-.284-.04a6.956,6.956,0,0,1-4.61-2.73L46,16a5.025,5.025,0,0,0-4-2H5a5.006,5.006,0,0,0-5,5V41a5.006,5.006,0,0,0,5,5H6.685a6.985,6.985,0,0,0,12.63,0h25.37a6.985,6.985,0,0,0,12.63,0H59a5.006,5.006,0,0,0,5-5V35.469A5.026,5.026,0,0,0,59.706,30.519ZM62,38H61a3.006,3.006,0,0,1-2.829-2H62ZM2,36a1,1,0,0,1,1,1v2a1,1,0,0,1-1,1ZM13,48a5,5,0,1,1,5-5A5.006,5.006,0,0,1,13,48Zm38,0a5,5,0,1,1,5-5A5.006,5.006,0,0,1,51,48Zm8-4H57.92a7,7,0,1,0-13.84,0H19.92A7,7,0,1,0,6.08,44H5a2.993,2.993,0,0,1-2.821-2.018A3,3,0,0,0,5,39V37a3,3,0,0,0-3-3V19a3,3,0,0,1,3-3H42a3.017,3.017,0,0,1,2.4,1.2l8.812,11.749a8.943,8.943,0,0,0,5.928,3.51l.284.04A3.006,3.006,0,0,1,61.605,34H57a1,1,0,0,0-1,1,5.006,5.006,0,0,0,5,5h1v1A3,3,0,0,1,59,44Z" fill="#a3159d" data-original="#000000" class=""/><path d="M46.55,22.4a1,1,0,0,0-1.6,1.2l2.85,3.8A1,1,0,0,1,47,29H37a1,1,0,0,1-1-1V20a1,1,0,0,1,1-1h4a1,1,0,0,1,.8.4l.9,1.2a1,1,0,1,0,1.6-1.2l-.9-1.2A3.014,3.014,0,0,0,41,17H37a3,3,0,0,0-3,3v8a3,3,0,0,0,3,3H47a3,3,0,0,0,2.4-4.8Z" fill="#a3159d" data-original="#000000" class=""/><path d="M29,17H6a3,3,0,0,0-3,3v8a3,3,0,0,0,3,3H29a3,3,0,0,0,3-3V20A3,3,0,0,0,29,17ZM5,28V20a1,1,0,0,1,1-1h6V29H6A1,1,0,0,1,5,28Zm9-9h7V29H14Zm16,9a1,1,0,0,1-1,1H23V19h6a1,1,0,0,1,1,1Z" fill="#a3159d" data-original="#000000" class=""/><path d="M51,40a3,3,0,1,0,3,3A3,3,0,0,0,51,40Zm0,4a1,1,0,1,1,1-1A1,1,0,0,1,51,44Z" fill="#a3159d" data-original="#000000" class=""/><path d="M13,40a3,3,0,1,0,3,3A3,3,0,0,0,13,40Zm0,4a1,1,0,1,1,1-1A1,1,0,0,1,13,44Z" fill="#a3159d" data-original="#000000" class=""/><path d="M39,32H37a1,1,0,0,0,0,2h2a1,1,0,0,0,0-2Z" fill="#a3159d" data-original="#000000" class=""/><path d="M29,32a1,1,0,0,0-1,1v1a1,1,0,0,0,2,0V33A1,1,0,0,0,29,32Z" fill="#a3159d" data-original="#000000" class=""/></g></g></svg>
