<svg xmlns="http://www.w3.org/2000/svg" width="482.243" height="126.359" viewBox="0 0 482.243 126.359">
  <g id="Group_530" data-name="Group 530" transform="translate(-21.577 -20.658)">
    <path id="Path_374" data-name="Path 374" d="M447.375,43.186l-5.887,9.552,9.8-5.062,5.561,6.291-.151-8.92s7.217-4.08,7.434-4.069-7.509-1.9-7.509-1.9l-.313-8.559-5.056,7.318-9.459-1.991Z" fill="#fff"/>
    <path id="Path_375" data-name="Path 375" d="M415.589,54.218l11.862-9.847,8.661,6.1-2.643-11.254,8.982-7.7-10.1-.067-2.238-10.785L424.376,32.18l-14,.4,10.858,8.038Z" fill="#fff"/>
    <path id="Path_376" data-name="Path 376" d="M85.516,52.511q3.234.241,4.729-.97a4.709,4.709,0,0,0,1.5-3.881,3.824,3.824,0,0,0-1.252-2.829,7.3,7.3,0,0,0-3.759-1.7,78.422,78.422,0,0,0-9.255-1.051q-5.3-.323-14.187-.324-14.391,0-23.564,1.94T26.063,49.8a14.344,14.344,0,0,0-4.486,11.034,15,15,0,0,0,1.051,5.78A10.037,10.037,0,0,0,25.3,70.537a3.233,3.233,0,0,0,2.263.808,6.284,6.284,0,0,0,3.759-1.334,3.667,3.667,0,0,0,1.819-2.87,2.41,2.41,0,0,0-.323-1.212A9.532,9.532,0,0,1,31.2,60.675a6.62,6.62,0,0,1,1.9-4.89q1.9-1.9,6.428-2.951a66.746,66.746,0,0,1,12.448-1.293q-.405,1.939-.727,3.516t-.566,2.789q-1.133,5.415-2.263,11.478T46.393,81.53q-.485,3.638-1.374,8.568-.81,4.932-1.415,9.418A55.146,55.146,0,0,0,43,105.942a4.323,4.323,0,0,0,1.455,3.395,6,6,0,0,0,4.122,1.293,7.244,7.244,0,0,0,4.285-1.252,4.549,4.549,0,0,0,1.94-3.6q.323-4.444,1.293-11.68t1.859-12.732q2.505-15.034,5.5-29.908,6.625.081,10.71.283T85.516,52.511Z" fill="#fff"/>
    <path id="Path_377" data-name="Path 377" d="M105.82,89.276a4.367,4.367,0,0,1-1.876.5q-2.022,0-2.022-2.83a29.756,29.756,0,0,1,.648-4.041,40.471,40.471,0,0,0,.726-5.093q0-5.253-5.253-5.254a11.83,11.83,0,0,0-5.861,1.86,23.437,23.437,0,0,0-6.507,6.224,45.942,45.942,0,0,0-5.981,11.317,57.415,57.415,0,0,1,.808-5.982q.483-2.425,1.293-5.658a30.782,30.782,0,0,0,1.213-5.82,1.676,1.676,0,0,0-.647-1.537,4.563,4.563,0,0,0-2.263-.4,8.411,8.411,0,0,0-4.648,1.091,6.081,6.081,0,0,0-2.385,3.436A65.8,65.8,0,0,0,70.074,97.05q0,7.114,1.254,10.347t4.323,3.233A4.656,4.656,0,0,0,79.33,109.3a12.627,12.627,0,0,0,2.061-5.133,58.076,58.076,0,0,1,3.152-9.377,38.019,38.019,0,0,1,3.921-7.154q1.979-2.708,3.192-2.708.89,0,.889,1.294,0,.565-.16,2.182a12.306,12.306,0,0,0-.244,2.425,7.892,7.892,0,0,0,2.223,5.9q2.223,2.181,6.509,2.182a13.078,13.078,0,0,0,5.046-1.007,22.591,22.591,0,0,1-.441-4.489A24.765,24.765,0,0,1,105.82,89.276Z" fill="#fff"/>
    <path id="Path_378" data-name="Path 378" d="M137.02,96.907a27.366,27.366,0,0,1-4.5,3.094,17.7,17.7,0,0,1-8.287,2.546q-5.66,0-7.678-3.718,9.536-2.345,13.539-6.346a13.071,13.071,0,0,0,4-9.579,10.135,10.135,0,0,0-2.829-7.558,10.247,10.247,0,0,0-7.518-2.789,16.367,16.367,0,0,0-9.417,2.83,19.187,19.187,0,0,0-6.507,7.638,22.918,22.918,0,0,0-2,6.251,15.6,15.6,0,0,0,3.944-3.057,3.089,3.089,0,0,1,2.182-1.052,1.885,1.885,0,0,1,1.657.93,4.451,4.451,0,0,1,.606,2.466,6.528,6.528,0,0,1-1.615,4.688,21.87,21.87,0,0,1-5.295,4,13.916,13.916,0,0,1-1.38.65,15.322,15.322,0,0,0,4.248,8.121q4.688,4.608,13.176,4.607a23.418,23.418,0,0,0,11.68-3.072,38.862,38.862,0,0,0,3.748-2.384A15.771,15.771,0,0,1,137,97.455C137,97.271,137.017,97.09,137.02,96.907Zm-21.761-4.545a16.2,16.2,0,0,1,2.062-8.407q2.061-3.474,5.052-3.476a2.967,2.967,0,0,1,2.3.93,3.514,3.514,0,0,1,.848,2.465,6.668,6.668,0,0,1-2.748,5.254,18.352,18.352,0,0,1-7.518,3.4Z" fill="#fff"/>
    <path id="Path_379" data-name="Path 379" d="M112.594,93.251a6.528,6.528,0,0,0,1.615-4.688A4.451,4.451,0,0,0,113.6,86.1a1.885,1.885,0,0,0-1.657-.93,3.089,3.089,0,0,0-2.182,1.052,15.6,15.6,0,0,1-3.944,3.057,24.765,24.765,0,0,0-.342,4.137,22.591,22.591,0,0,0,.441,4.489,13.916,13.916,0,0,0,1.38-.65A21.87,21.87,0,0,0,112.594,93.251Z" fill="#fff"/>
    <path id="Path_380" data-name="Path 380" d="M174.187,106.184a2.652,2.652,0,0,1-2.1-.929,3.388,3.388,0,0,1-.808-2.3,4.618,4.618,0,0,1,1.13-2.991l1.052-1.293.358-.448c-.574.6-1.1,1.115-1.569,1.539q-2.183,1.981-3.718,1.98a1.955,1.955,0,0,1-1.577-.727,2.935,2.935,0,0,1-.606-1.94q0-3.637,1.859-12.933a60.556,60.556,0,0,0,1.213-8.084q0-2.829-3.961-2.829a19.105,19.105,0,0,0-3.557.323,5.842,5.842,0,0,0-1.01-2.465,3.149,3.149,0,0,0-2.385-.687,17.953,17.953,0,0,0-10.548,3.516,25.512,25.512,0,0,0-7.962,9.3,26.256,26.256,0,0,0-2.976,11.7,27.692,27.692,0,0,0,3.54-3.575,2.841,2.841,0,0,1,2.184-1.132,1.869,1.869,0,0,1,1.656.97,5.016,5.016,0,0,1,.607,2.667,7.433,7.433,0,0,1-1.536,5.012,25.165,25.165,0,0,1-4.7,4.325A11.915,11.915,0,0,0,140,106.993a9.826,9.826,0,0,0,8,3.637q6.387,0,10.59-6.79a11.059,11.059,0,0,0,3.355,4.971,7.546,7.546,0,0,0,4.89,1.819,11.985,11.985,0,0,0,7.194-2.829,40.749,40.749,0,0,0,7.033-6.952,5.522,5.522,0,0,0,.709-1.068,59.538,59.538,0,0,1-4.51,4.948A4.329,4.329,0,0,1,174.187,106.184Zm-17.54-11.4a13.63,13.63,0,0,1-2.344,5.577,4.438,4.438,0,0,1-3.4,2.1,3.431,3.431,0,0,1-2.788-1.213,5.721,5.721,0,0,1-1.011-3.718,21.9,21.9,0,0,1,1.7-8.568,17.134,17.134,0,0,1,4.567-6.507,9.794,9.794,0,0,1,6.265-2.547Z" fill="#fff"/>
    <path id="Path_381" data-name="Path 381" d="M143.471,100.849a7.433,7.433,0,0,0,1.536-5.012,5.016,5.016,0,0,0-.607-2.667,1.869,1.869,0,0,0-1.656-.97,2.841,2.841,0,0,0-2.184,1.132,27.692,27.692,0,0,1-3.54,3.575c0,.183-.016.364-.016.548a15.771,15.771,0,0,0,1.767,7.719A25.165,25.165,0,0,0,143.471,100.849Z" fill="#fff"/>
    <path id="Path_382" data-name="Path 382" d="M210.624,95.721c-2.713,3.015-5.135,4.953-7.257,5.775a21.846,21.846,0,0,0,.162-2.263,10.5,10.5,0,0,0-1.333-5.214,51.3,51.3,0,0,0-3.921-5.78,30.243,30.243,0,0,1-2.627-3.638,5.374,5.374,0,0,1-.848-2.667A11.531,11.531,0,0,1,196.255,77a11.808,11.808,0,0,0,.889-2.1,6.01,6.01,0,0,0,.323-1.537,1.349,1.349,0,0,0-.889-1.293,8.5,8.5,0,0,0-3.152-.4q-4.853,0-6.387,3.557-1.777,4.2-3.637,8.124t-3.234,6.264a101.222,101.222,0,0,1-6.351,8.606c1.21-1.254,2.65-2.877,4.332-4.887a2.839,2.839,0,0,1,2.182-1.132,1.871,1.871,0,0,1,1.658.97,5.016,5.016,0,0,1,.606,2.667,8.525,8.525,0,0,1-.827,3.944c.284-.348.59-.68.866-1.033a52.813,52.813,0,0,0,4.971-7.922q1.13,1.293,2.425,3.031a19.9,19.9,0,0,1,2.142,3.6,10.4,10.4,0,0,1,.929,3.96q-.728-.08-2.141-.283a17.873,17.873,0,0,0-2.466-.2,6.137,6.137,0,0,0-4.526,1.536,4.969,4.969,0,0,0-1.536,3.638,5.71,5.71,0,0,0,2.222,4.365q2.223,1.939,6.428,1.94a11.479,11.479,0,0,0,7.678-2.749,21.9,21.9,0,0,0,9.094-1.98,17.535,17.535,0,0,0,3.811-2.656,15.976,15.976,0,0,1-1.1-6.115C210.562,97.821,210.585,96.761,210.624,95.721Z" fill="#fff"/>
    <path id="Path_383" data-name="Path 383" d="M181.989,93.17a1.871,1.871,0,0,0-1.658-.97,2.839,2.839,0,0,0-2.182,1.132c-1.682,2.01-3.122,3.633-4.332,4.887l-.358.448-1.052,1.293a4.618,4.618,0,0,0-1.13,2.991,3.388,3.388,0,0,0,.808,2.3,2.652,2.652,0,0,0,2.1.929,4.329,4.329,0,0,0,3.071-1.455,59.538,59.538,0,0,0,4.51-4.948,8.525,8.525,0,0,0,.827-3.944A5.016,5.016,0,0,0,181.989,93.17Z" fill="#fff"/>
    <path id="Path_384" data-name="Path 384" d="M248.094,95.568a49.72,49.72,0,0,1-4.027,4.19q-2.225,1.981-3.84,1.98a2.035,2.035,0,0,1-1.7-.848,3.855,3.855,0,0,1-.647-2.385q0-2.425,2.265-12.771,2.019-9.054,2.019-11.075A1.782,1.782,0,0,0,241.441,73a5.347,5.347,0,0,0-2.588-.445,5.248,5.248,0,0,0-5.981,4.527,98.158,98.158,0,0,1-4,12.125,35.646,35.646,0,0,1-3.88,7.356q-1.821,2.424-3.032,2.425a1.385,1.385,0,0,1-1.293-.687,5.033,5.033,0,0,1-.4-2.385A76.336,76.336,0,0,1,221.879,84.6q.484-2.424,1.293-5.415a33.4,33.4,0,0,0,.889-4.366,2.076,2.076,0,0,0-.688-1.7,4,4,0,0,0-2.464-.566,7.975,7.975,0,0,0-4.609,1.051,6.763,6.763,0,0,0-2.263,3.476,69.629,69.629,0,0,0-2.667,10.711,65.939,65.939,0,0,0-.746,7.926c.664-.737,1.34-1.521,2.039-2.389a2.843,2.843,0,0,1,2.183-1.132,1.871,1.871,0,0,1,1.657.97,5.016,5.016,0,0,1,.607,2.667,7.835,7.835,0,0,1-1.537,5.012,34.864,34.864,0,0,1-3.908,4.175,11.976,11.976,0,0,0,1.2,2.252,6.943,6.943,0,0,0,5.94,3.354,8.032,8.032,0,0,0,5.9-2.95,18.951,18.951,0,0,0,4.124-8.447q0,5.415,1.818,8.406a6.188,6.188,0,0,0,5.7,2.991,15.673,15.673,0,0,0,9.093-2.748,32.184,32.184,0,0,0,3.279-2.615,41.721,41.721,0,0,1-.652-8.217C248.068,96.553,248.084,96.062,248.094,95.568Z" fill="#fff"/>
    <path id="Path_385" data-name="Path 385" d="M215.573,100.849a7.835,7.835,0,0,0,1.537-5.012,5.016,5.016,0,0,0-.607-2.667,1.871,1.871,0,0,0-1.657-.97,2.843,2.843,0,0,0-2.183,1.132c-.7.868-1.375,1.652-2.039,2.389-.039,1.04-.062,2.1-.062,3.188a15.976,15.976,0,0,0,1.1,6.115A34.864,34.864,0,0,0,215.573,100.849Z" fill="#fff"/>
    <path id="Path_386" data-name="Path 386" d="M283.813,89.277a4.361,4.361,0,0,1-1.875.5q-2.022,0-2.022-2.83a29.755,29.755,0,0,1,.648-4.041,40.469,40.469,0,0,0,.726-5.093q0-5.253-5.253-5.254a11.83,11.83,0,0,0-5.861,1.86,23.436,23.436,0,0,0-6.507,6.224,45.943,45.943,0,0,0-5.981,11.317,57.418,57.418,0,0,1,.808-5.982q.484-2.425,1.293-5.658A30.783,30.783,0,0,0,261,74.5a1.676,1.676,0,0,0-.647-1.537,4.563,4.563,0,0,0-2.263-.4,8.411,8.411,0,0,0-4.648,1.091,6.081,6.081,0,0,0-2.385,3.436,65.412,65.412,0,0,0-2.965,18.484c.6-.686,1.238-1.428,1.914-2.236a2.843,2.843,0,0,1,2.183-1.132,1.871,1.871,0,0,1,1.657.97,5.016,5.016,0,0,1,.607,2.667,7.433,7.433,0,0,1-1.537,5.012,38.6,38.6,0,0,1-4.2,4.418,13.729,13.729,0,0,0,.6,2.13q1.251,3.234,4.323,3.233a4.655,4.655,0,0,0,3.679-1.333,12.627,12.627,0,0,0,2.061-5.133,58.075,58.075,0,0,1,3.152-9.377,38.018,38.018,0,0,1,3.921-7.154q1.979-2.708,3.193-2.708.888,0,.889,1.294,0,.565-.161,2.182a12.306,12.306,0,0,0-.243,2.425,7.892,7.892,0,0,0,2.222,5.9q2.223,2.181,6.509,2.182a13.087,13.087,0,0,0,5.016-.993,24.26,24.26,0,0,1-.412-4.5A24.745,24.745,0,0,1,283.813,89.277Z" fill="#fff"/>
    <path id="Path_387" data-name="Path 387" d="M252.918,100.849a7.433,7.433,0,0,0,1.537-5.012,5.016,5.016,0,0,0-.607-2.667,1.871,1.871,0,0,0-1.657-.97,2.843,2.843,0,0,0-2.183,1.132c-.676.808-1.312,1.55-1.914,2.236-.01.494-.026.985-.026,1.482a41.721,41.721,0,0,0,.652,8.217A38.6,38.6,0,0,0,252.918,100.849Z" fill="#fff"/>
    <path id="Path_388" data-name="Path 388" d="M314.512,103.275a8.962,8.962,0,0,0,1.374-5.012,5.011,5.011,0,0,0-.607-2.667,1.865,1.865,0,0,0-1.656-.971,2.778,2.778,0,0,0-2.182,1.212,26.378,26.378,0,0,1-4.973,5.174,9.134,9.134,0,0,1-5.455,1.536,6.792,6.792,0,0,1-6.548-3.718q9.618-2.345,13.621-6.346a13.07,13.07,0,0,0,4-9.579,10.131,10.131,0,0,0-2.829-7.558,10.245,10.245,0,0,0-7.517-2.789,16.368,16.368,0,0,0-9.418,2.83,19.2,19.2,0,0,0-6.507,7.638,22.877,22.877,0,0,0-2,6.252,15.607,15.607,0,0,0,3.945-3.058,3.09,3.09,0,0,1,2.182-1.052,1.885,1.885,0,0,1,1.657.93,4.451,4.451,0,0,1,.607,2.466,6.528,6.528,0,0,1-1.616,4.688,21.87,21.87,0,0,1-5.3,4,13.968,13.968,0,0,1-1.41.664,15.964,15.964,0,0,0,3.872,8.066q4.284,4.65,12.044,4.648a18.574,18.574,0,0,0,8.772-1.939A15.752,15.752,0,0,0,314.512,103.275Zm-21.26-10.913a16.2,16.2,0,0,1,2.062-8.407q2.061-3.474,5.051-3.476a2.966,2.966,0,0,1,2.3.93,3.515,3.515,0,0,1,.849,2.465,6.667,6.667,0,0,1-2.749,5.254,18.342,18.342,0,0,1-7.517,3.4Z" fill="#fff"/>
    <path id="Path_389" data-name="Path 389" d="M290.588,93.251a6.528,6.528,0,0,0,1.616-4.688A4.451,4.451,0,0,0,291.6,86.1a1.885,1.885,0,0,0-1.657-.93,3.09,3.09,0,0,0-2.182,1.052,15.607,15.607,0,0,1-3.945,3.058,24.745,24.745,0,0,0-.342,4.136,24.26,24.26,0,0,0,.412,4.5,13.968,13.968,0,0,0,1.41-.664A21.87,21.87,0,0,0,290.588,93.251Z" fill="#fff"/>
    <path id="Path_390" data-name="Path 390" d="M363.941,105.619a33.851,33.851,0,0,0,14.145-14.106q4.85-9.093,4.851-21.3a31.15,31.15,0,0,0-3.881-16,24.955,24.955,0,0,0-11.074-10.064,39.241,39.241,0,0,0-17.056-3.435,56.712,56.712,0,0,0-14.469,1.981,42.139,42.139,0,0,0-13.1,5.779,6.46,6.46,0,0,0-2.182,2.3,6.914,6.914,0,0,0-.648,3.192,4.922,4.922,0,0,0,.81,2.87,2.515,2.515,0,0,0,2.182,1.172,3.9,3.9,0,0,0,2.263-.727,46.939,46.939,0,0,1,11.439-5.335,41.988,41.988,0,0,1,12.811-2.021q10.021,0,15.52,5.254t5.5,14.874q0,14.307-6.992,22.876T342.923,101.5q-3.072,0-5.5-.243a207.306,207.306,0,0,1,2.991-20.733,150.873,150.873,0,0,1,4.2-17.339,8.339,8.339,0,0,0,.485-2.587q0-2.747-4.932-2.748a10.413,10.413,0,0,0-4.445.808,4.2,4.2,0,0,0-2.263,2.829q-2.993,10.913-5.094,22.674a193.3,193.3,0,0,0-2.667,19.764q-.162,2.91,1.051,4.2t4.445,1.7a78.982,78.982,0,0,0,10.59.808Q354.645,110.63,363.941,105.619Z" fill="#fff"/>
    <path id="Path_391" data-name="Path 391" d="M414.261,96.907a27.365,27.365,0,0,1-4.5,3.094,17.694,17.694,0,0,1-8.287,2.546q-5.659,0-7.678-3.718,9.535-2.345,13.54-6.346a13.07,13.07,0,0,0,4-9.579,10.132,10.132,0,0,0-2.829-7.558,10.246,10.246,0,0,0-7.518-2.789,16.367,16.367,0,0,0-9.417,2.83,19.2,19.2,0,0,0-6.507,7.638,23.391,23.391,0,0,0-2.344,10.388q0,8,4.688,12.61t13.176,4.607a23.422,23.422,0,0,0,11.681-3.072,38.845,38.845,0,0,0,3.747-2.384,15.771,15.771,0,0,1-1.766-7.719C414.246,97.271,414.258,97.09,414.261,96.907ZM392.5,92.362a16.2,16.2,0,0,1,2.062-8.407q2.061-3.474,5.052-3.476a2.967,2.967,0,0,1,2.3.93,3.514,3.514,0,0,1,.848,2.465,6.666,6.666,0,0,1-2.748,5.254,18.346,18.346,0,0,1-7.518,3.4Z" fill="#fff"/>
    <path id="Path_392" data-name="Path 392" d="M449.49,99.758q-2.182,1.981-3.719,1.98a1.953,1.953,0,0,1-1.576-.727,2.935,2.935,0,0,1-.607-1.94q0-3.637,1.859-12.933a60.553,60.553,0,0,0,1.213-8.084q0-2.829-3.961-2.829a19.094,19.094,0,0,0-3.556.323,5.853,5.853,0,0,0-1.011-2.465,3.148,3.148,0,0,0-2.385-.687A17.953,17.953,0,0,0,425.2,75.912a25.521,25.521,0,0,0-7.962,9.3,26.256,26.256,0,0,0-2.976,11.7,27.764,27.764,0,0,0,3.541-3.575,2.84,2.84,0,0,1,2.183-1.132,1.871,1.871,0,0,1,1.657.97,5.016,5.016,0,0,1,.606,2.667,7.433,7.433,0,0,1-1.536,5.012,25.134,25.134,0,0,1-4.7,4.325,11.918,11.918,0,0,0,1.225,1.819,9.828,9.828,0,0,0,8,3.637q6.387,0,10.59-6.79a11.067,11.067,0,0,0,3.355,4.971,7.546,7.546,0,0,0,4.89,1.819,11.99,11.99,0,0,0,7.2-2.829,39.012,39.012,0,0,0,5.416-5.049,29.859,29.859,0,0,1-2.34-8.185A60.194,60.194,0,0,1,449.49,99.758Zm-15.6-4.971a13.617,13.617,0,0,1-2.344,5.577,4.437,4.437,0,0,1-3.4,2.1,3.433,3.433,0,0,1-2.789-1.213,5.721,5.721,0,0,1-1.011-3.718,21.882,21.882,0,0,1,1.7-8.568,17.132,17.132,0,0,1,4.566-6.507,9.8,9.8,0,0,1,6.266-2.547Z" fill="#fff"/>
    <path id="Path_393" data-name="Path 393" d="M420.712,100.849a7.433,7.433,0,0,0,1.536-5.012,5.016,5.016,0,0,0-.606-2.667,1.871,1.871,0,0,0-1.657-.97,2.84,2.84,0,0,0-2.183,1.132,27.764,27.764,0,0,1-3.541,3.575c0,.183-.015.364-.015.548a15.771,15.771,0,0,0,1.766,7.719A25.134,25.134,0,0,0,420.712,100.849Z" fill="#fff"/>
    <path id="Path_394" data-name="Path 394" d="M484.89,92.333a4.275,4.275,0,1,0,4.275,4.275A4.274,4.274,0,0,0,484.89,92.333Zm.735,7.188H484V95.112l-1.306.241-.343-1.012,2.152-.482h1.124Z" fill="#fff"/>
    <path id="Path_395" data-name="Path 395" d="M497.115,68.425a6.7,6.7,0,1,0,6.705,6.7A6.705,6.705,0,0,0,497.115,68.425Zm-.023,10.066H495.61V73.139l-1.189.292-.313-1.228,1.96-.585h1.024Zm3.627,0h-1.483V73.139l-1.189.292-.312-1.228,1.96-.585h1.024Z" fill="#fff"/>
    <path id="Path_396" data-name="Path 396" d="M476.637,53.95a1.8,1.8,0,0,0,.534.591,1.25,1.25,0,0,0,1.39.006,1.737,1.737,0,0,0,.528-.584,3.12,3.12,0,0,0,.335-.886,5.031,5.031,0,0,0,.116-1.113,4.862,4.862,0,0,0-.122-1.118,3.2,3.2,0,0,0-.34-.893,1.771,1.771,0,0,0-.534-.59,1.25,1.25,0,0,0-1.39-.006,1.771,1.771,0,0,0-.528.577,3.059,3.059,0,0,0-.335.886,5.119,5.119,0,0,0-.116,1.119,4.877,4.877,0,0,0,.122,1.119A3.2,3.2,0,0,0,476.637,53.95Z" fill="#fff"/>
    <path id="Path_397" data-name="Path 397" d="M472.29,60.487a8.719,8.719,0,0,1-4.446-1.215c.218-.973.458-1.968.74-3.078a3.747,3.747,0,0,0,.452.271,3.943,3.943,0,0,0,1.785.387,3.659,3.659,0,0,0,1.334-.238,2.943,2.943,0,0,0,1.052-.693,3.131,3.131,0,0,0,.668-1.082,4,4,0,0,0,.231-1.392,3.9,3.9,0,0,0-.233-1.416,2.7,2.7,0,0,0-.664-1,2.668,2.668,0,0,0-.983-.578,3.729,3.729,0,0,0-1.173-.182,3.4,3.4,0,0,0-.615.05l-.02,0,.033-.576.061-.147h3.252V47.2H471.4c1.631-4.011,2.545-4.059,2.584-4.059l.094.032.572.111.2.059c.065.02.3.1.3.1.2.067.33.114.46.168.082.033.165.071.248.109.211.1.346.16.478.229l.282.156c.16.092.286.168.41.248.1.064.2.128.292.195.128.09.248.181.368.274s.2.153.266.212c.12.1.238.214.358.326l.228.216c.147.148.292.311.433.476l.1.113c.156.189.312.4.457.614l.146.23c.1.151.19.3.277.454,0,0,.235.459.283.562a3.528,3.528,0,0,0-.791-.593,3.237,3.237,0,0,0-1.569-.388,3.2,3.2,0,0,0-1.572.4,3.725,3.725,0,0,0-1.2,1.067,5.024,5.024,0,0,0-.751,1.56,6.648,6.648,0,0,0-.262,1.889,6.72,6.72,0,0,0,.256,1.89,5.085,5.085,0,0,0,.738,1.545,3.594,3.594,0,0,0,1.194,1.064,3.228,3.228,0,0,0,1.57.389,3.19,3.19,0,0,0,1.572-.4,3.657,3.657,0,0,0,.391-.251,8.755,8.755,0,0,1-7.52,4.283Z" fill="#fff"/>
    <path id="Path_398" data-name="Path 398" d="M73.656,128.123,66.245,146.81h2.349a.967.967,0,0,0,.649-.221,1.252,1.252,0,0,0,.364-.48l1.557-4.127H79.21l1.557,4.127a1.323,1.323,0,0,0,.376.5,1,1,0,0,0,.649.2h2.349l-7.41-18.687ZM72,139.8l2.569-6.813q.142-.389.311-.9t.312-1.122a18.771,18.771,0,0,0,.636,2.011l2.57,6.826Z" fill="#fff"/>
    <path id="Path_399" data-name="Path 399" d="M89.358,128.123H86.321V146.81h10.8v-2.544h-7.76Z" fill="#fff"/>
    <path id="Path_400" data-name="Path 400" d="M120.218,128.123a1.068,1.068,0,0,0-.655.207.911.911,0,0,0-.357.493L115.715,140.8c-.07.251-.132.522-.188.811s-.115.6-.175.915c-.061-.32-.128-.624-.2-.915s-.154-.56-.241-.811l-4-11.978a1.3,1.3,0,0,0-.376-.5,1,1,0,0,0-.649-.2H109a1,1,0,0,0-.648.22,1.085,1.085,0,0,0-.363.48l-4.01,11.978q-.13.377-.241.837t-.2.954c-.06-.329-.121-.644-.181-.947s-.126-.584-.195-.844l-3.5-11.978a.905.905,0,0,0-.357-.512,1.1,1.1,0,0,0-.655-.188H96.106l5.814,18.687h2.738l4.426-13.419c.051-.147.1-.306.149-.48s.093-.359.136-.558c.043.2.089.385.136.558s.1.333.15.48l4.386,13.419h2.738l5.814-18.687Z" fill="#fff"/>
    <path id="Path_401" data-name="Path 401" d="M129.082,128.123l-7.411,18.687h2.349a.967.967,0,0,0,.649-.221,1.252,1.252,0,0,0,.364-.48l1.557-4.127h8.046l1.557,4.127a1.323,1.323,0,0,0,.376.5,1,1,0,0,0,.649.2h2.349l-7.41-18.687ZM127.421,139.8l2.569-6.813q.143-.389.311-.9t.312-1.122a18.77,18.77,0,0,0,.636,2.011l2.57,6.826Z" fill="#fff"/>
    <path id="Path_402" data-name="Path 402" d="M150.935,128.336a1.539,1.539,0,0,0-.377.475l-3.8,6.695q-.26.507-.467.955a7.511,7.511,0,0,0-.351.9q-.168-.441-.382-.9t-.474-.961l-3.828-6.695a1.581,1.581,0,0,0-.389-.494.968.968,0,0,0-.636-.194h-2.66l6.825,11.368v7.319h3.024v-7.319l6.826-11.368h-2.673A.939.939,0,0,0,150.935,128.336Z" fill="#fff"/>
    <path id="Path_403" data-name="Path 403" d="M165.281,137.713a5.489,5.489,0,0,0-1.407-.922q-.793-.363-1.616-.648t-1.616-.539a7.949,7.949,0,0,1-1.408-.591,3.231,3.231,0,0,1-.993-.81,1.85,1.85,0,0,1-.376-1.188,2.616,2.616,0,0,1,.2-1.032,2.241,2.241,0,0,1,.6-.824,2.84,2.84,0,0,1,.993-.545,4.961,4.961,0,0,1,2.822.02,6.592,6.592,0,0,1,1.057.467q.448.252.753.461a1.011,1.011,0,0,0,.552.207.654.654,0,0,0,.389-.11,1.159,1.159,0,0,0,.3-.344l.739-1.453a6.706,6.706,0,0,0-2.316-1.441,8.325,8.325,0,0,0-2.953-.506,6.879,6.879,0,0,0-2.543.441,5.659,5.659,0,0,0-1.875,1.174,4.978,4.978,0,0,0-1.155,1.681,5.036,5.036,0,0,0-.4,1.96,5.24,5.24,0,0,0,.376,2.121,4.328,4.328,0,0,0,.993,1.428,5.1,5.1,0,0,0,1.408.934,15.525,15.525,0,0,0,1.609.623q.817.267,1.61.5a7.069,7.069,0,0,1,1.407.571,3.049,3.049,0,0,1,.993.837,2.087,2.087,0,0,1,.376,1.291,2.821,2.821,0,0,1-.9,2.219,3.7,3.7,0,0,1-2.55.8,4.862,4.862,0,0,1-1.74-.279,6.81,6.81,0,0,1-1.239-.61q-.512-.331-.876-.61a1.124,1.124,0,0,0-.661-.279.8.8,0,0,0-.4.1.855.855,0,0,0-.3.285l-.883,1.454a7.28,7.28,0,0,0,1.207,1.012,8.106,8.106,0,0,0,1.447.772,8.974,8.974,0,0,0,1.622.493,8.617,8.617,0,0,0,1.746.176,7.359,7.359,0,0,0,2.706-.468,5.766,5.766,0,0,0,2-1.278,5.5,5.5,0,0,0,1.239-1.9,6.324,6.324,0,0,0,.428-2.336,4.606,4.606,0,0,0-.376-1.96A4.219,4.219,0,0,0,165.281,137.713Z" fill="#fff"/>
    <path id="Path_404" data-name="Path 404" d="M180.666,128.123l-7.411,18.687H175.6a.967.967,0,0,0,.649-.221,1.252,1.252,0,0,0,.364-.48l1.557-4.127h8.046l1.557,4.127a1.323,1.323,0,0,0,.376.5,1,1,0,0,0,.649.2h2.349l-7.41-18.687ZM179.005,139.8l2.569-6.813q.143-.389.311-.9t.312-1.122a18.77,18.77,0,0,0,.636,2.011l2.57,6.826Z" fill="#fff"/>
    <path id="Path_405" data-name="Path 405" d="M208.242,139.335a.557.557,0,0,0,.169.422.645.645,0,0,0,.467.162h2.608v3.711a9.366,9.366,0,0,1-1.771.688,8.509,8.509,0,0,1-4.853-.233,5.807,5.807,0,0,1-2.135-1.4,6.248,6.248,0,0,1-1.363-2.232,8.707,8.707,0,0,1-.48-2.992,8.56,8.56,0,0,1,.454-2.868,6.168,6.168,0,0,1,1.3-2.186,5.7,5.7,0,0,1,2.031-1.389,6.967,6.967,0,0,1,2.667-.487,9,9,0,0,1,1.687.137,7.1,7.1,0,0,1,1.259.35,7.227,7.227,0,0,1,.967.46l.8.468a.912.912,0,0,0,.7.156.864.864,0,0,0,.532-.4l.87-1.388a8.63,8.63,0,0,0-1.285-.987,8.412,8.412,0,0,0-1.531-.752,10.377,10.377,0,0,0-1.8-.487,11.741,11.741,0,0,0-2.1-.175,10.933,10.933,0,0,0-4,.694,8.469,8.469,0,0,0-4.97,4.984,10.722,10.722,0,0,0-.674,3.873,10.285,10.285,0,0,0,.7,3.854,8.634,8.634,0,0,0,2,3.018,9.118,9.118,0,0,0,3.133,1.972,11.345,11.345,0,0,0,4.108.708,10.8,10.8,0,0,0,6.488-2.012v-7.4h-5.982Z" fill="#fff"/>
    <path id="Path_406" data-name="Path 406" d="M226.034,138.738a6.87,6.87,0,0,0,1.83-.792,5.424,5.424,0,0,0,1.356-1.193,5.115,5.115,0,0,0,.844-1.532,5.878,5.878,0,0,0-.117-3.984,4.233,4.233,0,0,0-1.266-1.667,6.046,6.046,0,0,0-2.186-1.071,11.761,11.761,0,0,0-3.174-.376h-5.5V146.81h3.037v-7.527h1.687a1.662,1.662,0,0,1,.778.143,1.44,1.44,0,0,1,.481.467l4.36,6.294a1.251,1.251,0,0,0,1.168.623h2.712l-5.048-7.125A3.038,3.038,0,0,0,226.034,138.738Zm-2.79-1.661h-2.388V130.5h2.465a4.865,4.865,0,0,1,3.063.805,2.806,2.806,0,0,1,1.013,2.336,3.626,3.626,0,0,1-.26,1.4,2.892,2.892,0,0,1-.779,1.084,3.668,3.668,0,0,1-1.3.707A5.911,5.911,0,0,1,223.244,137.077Z" fill="#fff"/>
    <path id="Path_407" data-name="Path 407" d="M237.35,138.582h6.878v-2.375H237.35v-5.632h8.6v-2.453H234.3V146.81h11.654l.012-2.453H237.35Z" fill="#fff"/>
    <path id="Path_408" data-name="Path 408" d="M254.4,128.123l-7.41,18.687h2.348a.972.972,0,0,0,.65-.221,1.259,1.259,0,0,0,.363-.48l1.557-4.127h8.046l1.557,4.127a1.334,1.334,0,0,0,.376.5,1,1,0,0,0,.65.2h2.349l-7.411-18.687ZM252.741,139.8l2.569-6.813q.143-.389.311-.9t.312-1.122a18.766,18.766,0,0,0,.636,2.011l2.57,6.826Z" fill="#fff"/>
    <path id="Path_409" data-name="Path 409" d="M263.407,130.653h5.839V146.81h3.024V130.653H278.1v-2.53h-14.69Z" fill="#fff"/>
    <path id="Path_410" data-name="Path 410" d="M283.769,130.653h5.84V146.81h3.024V130.653h5.826v-2.53h-14.69Z" fill="#fff"/>
    <rect id="Rectangle_252" data-name="Rectangle 252" width="3.049" height="18.687" transform="translate(301.054 128.123)" fill="#fff"/>
    <path id="Path_411" data-name="Path 411" d="M325.529,128.194a.78.78,0,0,0-.4.434l-5.905,10.837c-.129.251-.253.512-.369.785s-.228.547-.331.824c-.1-.277-.2-.547-.318-.811s-.24-.521-.371-.772l-5.994-10.863a.784.784,0,0,0-.4-.434,2.141,2.141,0,0,0-.623-.071h-2.27V146.81h2.672V134q0-.324-.019-.7t-.059-.753l6.1,11.121a1.124,1.124,0,0,0,1.077.688h.429a1.14,1.14,0,0,0,1.076-.688l6.009-11.1c-.026.251-.046.5-.059.746s-.019.474-.019.681V146.81h2.673V128.123h-2.271A2.146,2.146,0,0,0,325.529,128.194Z" fill="#fff"/>
    <path id="Path_412" data-name="Path 412" d="M335.911,138.582h6.878v-2.375h-6.878v-5.632h8.6v-2.453H332.862V146.81h11.653l.013-2.453h-8.617Z" fill="#fff"/>
    <path id="Path_413" data-name="Path 413" d="M351.665,130.653H357.5V146.81h3.024V130.653h5.826v-2.53h-14.69Z" fill="#fff"/>
    <path id="Path_414" data-name="Path 414" d="M383.206,130.614a8.651,8.651,0,0,0-2.946-1.986,10.563,10.563,0,0,0-7.63,0,8.719,8.719,0,0,0-2.953,1.986,8.867,8.867,0,0,0-1.907,3.024,11.177,11.177,0,0,0,0,7.656,8.616,8.616,0,0,0,4.86,5,10.563,10.563,0,0,0,7.63,0,8.679,8.679,0,0,0,2.946-1.98,8.838,8.838,0,0,0,1.9-3.017,11.207,11.207,0,0,0,0-7.656A8.917,8.917,0,0,0,383.206,130.614Zm-.96,9.759A6.071,6.071,0,0,1,381,142.547a5.414,5.414,0,0,1-1.966,1.363,7.322,7.322,0,0,1-5.178,0,5.466,5.466,0,0,1-1.973-1.363,6.094,6.094,0,0,1-1.259-2.174,9.78,9.78,0,0,1,0-5.8,6.165,6.165,0,0,1,1.259-2.18,5.5,5.5,0,0,1,1.973-1.376,7.222,7.222,0,0,1,5.178,0A5.445,5.445,0,0,1,381,132.392a6.142,6.142,0,0,1,1.246,2.18,9.909,9.909,0,0,1,0,5.8Z" fill="#fff"/>
    <path id="Path_415" data-name="Path 415" d="M416.855,128.33a.909.909,0,0,0-.356.493L413.007,140.8c-.069.251-.132.522-.188.811s-.115.6-.175.915c-.061-.32-.127-.624-.2-.915s-.154-.56-.24-.811l-4-11.978a1.322,1.322,0,0,0-.376-.5,1,1,0,0,0-.65-.2H406.3a1,1,0,0,0-.649.22,1.1,1.1,0,0,0-.363.48l-4.01,11.978q-.131.377-.24.837t-.2.954c-.062-.329-.122-.644-.183-.947s-.124-.584-.194-.844l-3.5-11.978a.908.908,0,0,0-.356-.512,1.1,1.1,0,0,0-.655-.188H393.4l5.815,18.687h2.738l4.425-13.419c.052-.147.1-.306.149-.48s.093-.359.137-.558c.042.2.089.385.136.558s.1.333.148.48l4.387,13.419h2.738l5.814-18.687h-2.374A1.069,1.069,0,0,0,416.855,128.33Z" fill="#fff"/>
    <rect id="Rectangle_253" data-name="Rectangle 253" width="3.049" height="18.687" transform="translate(422.403 128.123)" fill="#fff"/>
    <path id="Path_416" data-name="Path 416" d="M442.7,140.308q0,.339.02.727c.013.259.032.523.059.792l-10.279-13.2a2.409,2.409,0,0,0-.22-.259.744.744,0,0,0-.22-.155.955.955,0,0,0-.254-.072,2.378,2.378,0,0,0-.33-.019h-1.584V146.81h2.673V134.52c0-.208-.006-.434-.019-.681s-.033-.5-.059-.746l10.265,13.184a1.391,1.391,0,0,0,.468.409,1.311,1.311,0,0,0,.6.124h1.544V128.123H442.7Z" fill="#fff"/>
    <path id="Path_417" data-name="Path 417" d="M492.023,83.023a5.272,5.272,0,1,0,5.273,5.272A5.272,5.272,0,0,0,492.023,83.023Zm3.01,3.675-2.881,4.777h-1.6l2.871-4.639H490.41V85.749h4.623Z" fill="#fff"/>
    <path id="Path_418" data-name="Path 418" d="M494.006,62.185a1.222,1.222,0,0,0,.86-.28.94.94,0,0,0,.307-.725.917.917,0,0,0-.316-.716,1.264,1.264,0,0,0-.87-.281,1.243,1.243,0,0,0-.86.276.916.916,0,0,0-.305.711.937.937,0,0,0,.316.73A1.243,1.243,0,0,0,494.006,62.185Z" fill="#fff"/>
    <path id="Path_419" data-name="Path 419" d="M490.951,67.642a7.845,7.845,0,1,0-7.845-7.845A7.845,7.845,0,0,0,490.951,67.642Zm.531-8.939a3.433,3.433,0,0,1,.547-1.175,2.594,2.594,0,0,1,.929-.783,2.851,2.851,0,0,1,1.315-.286,3.937,3.937,0,0,1,.639.048,2.8,2.8,0,0,1,.541.144,3.132,3.132,0,0,1,.484.235,4.579,4.579,0,0,1,.454.312l-.783,1.147c-.11-.083-.216-.159-.319-.227a1.89,1.89,0,0,0-.32-.169,1.883,1.883,0,0,0-.744-.145,1.2,1.2,0,0,0-.556.121,1.253,1.253,0,0,0-.407.331,1.6,1.6,0,0,0-.266.5,3.058,3.058,0,0,0-.135.623,3.675,3.675,0,0,1,.575-.3,2.173,2.173,0,0,1,.827-.135,3.059,3.059,0,0,1,.939.14,2.208,2.208,0,0,1,.754.411,1.91,1.91,0,0,1,.5.678,2.431,2.431,0,0,1-.015,1.891,2.293,2.293,0,0,1-.541.745,2.373,2.373,0,0,1-.817.483,3.03,3.03,0,0,1-1.026.17,3.1,3.1,0,0,1-1.132-.184,2.4,2.4,0,0,1-.822-.542,2.6,2.6,0,0,1-.585-.963,4.791,4.791,0,0,1-.218-1.61A5.679,5.679,0,0,1,491.482,58.7ZM488.9,60.641a1.808,1.808,0,0,0-.982-.222H487.3l-.232-.946,1.615-1.621h-2.66V56.575h4.585V57.7l-1.721,1.635a3.6,3.6,0,0,1,.68.184,1.892,1.892,0,0,1,.584.353,1.728,1.728,0,0,1,.408.561,1.9,1.9,0,0,1,.156.808,2.273,2.273,0,0,1-.171.89,2.047,2.047,0,0,1-.486.706,2.174,2.174,0,0,1-.773.464,2.974,2.974,0,0,1-1.018.165,3.413,3.413,0,0,1-1.561-.327,3.331,3.331,0,0,1-1.079-.852l1.025-.979a2.686,2.686,0,0,0,.731.6,1.857,1.857,0,0,0,.9.208,1.045,1.045,0,0,0,.692-.222.751.751,0,0,0,.266-.608A.724.724,0,0,0,488.9,60.641Z" fill="#fff"/>
    <path id="Path_420" data-name="Path 420" d="M459.837,95.837a5.016,5.016,0,0,0-.607-2.667,1.871,1.871,0,0,0-1.658-.97,2.839,2.839,0,0,0-2.182,1.132c-.36.43-.707.839-1.046,1.235a29.859,29.859,0,0,0,2.34,8.185q.819-.915,1.616-1.9A7.433,7.433,0,0,0,459.837,95.837Z" fill="#fff"/>
    <path id="Path_421" data-name="Path 421" d="M478.427,98.02a2.67,2.67,0,0,0-1.779.809,13.1,13.1,0,0,1-3.192,2.1,7.527,7.527,0,0,1-3.113.808,5.349,5.349,0,0,1-3.96-1.455,8.722,8.722,0,0,1-2.022-4.769A120.19,120.19,0,0,0,478.79,70.456q5.295-12.69,5.295-22.311,0-6.708-2.223-10.306a6.859,6.859,0,0,0-6.1-3.6q-6.87,0-11.842,9.053A76.213,76.213,0,0,0,456.4,64.959a114.959,114.959,0,0,0-2.545,22.472,48.747,48.747,0,0,0,.49,7.136c.339-.4.686-.805,1.046-1.235a2.839,2.839,0,0,1,2.182-1.132,1.871,1.871,0,0,1,1.658.97,5.016,5.016,0,0,1,.607,2.667,7.433,7.433,0,0,1-1.537,5.012q-.795.99-1.616,1.9c.23.5.467.986.726,1.452q3.557,6.426,11.236,6.426a14.562,14.562,0,0,0,9.539-3.476,6.687,6.687,0,0,0,2.423-5.416A5.338,5.338,0,0,0,480,99.111,1.791,1.791,0,0,0,478.427,98.02ZM465.654,65.606c.35-1.958.721-3.8,1.1-5.572.024-.112.047-.231.071-.342.6-2.758,1.252-5.271,1.937-7.57.328-1.1.663-2.173,1.011-3.168.174-.5.345-.959.515-1.4,1.357-3.531,2.586-5.308,3.689-5.308a1.4,1.4,0,0,1,.279.051v-.027l.01,0c.284.059.562.131.836.215.114.035.225.078.337.117.169.058.337.116.5.183.121.05.239.106.357.16.15.068.3.138.444.214.089.046.175.1.262.145l0,0c.029.016.056.035.084.051q.212.121.416.253c.11.071.219.143.325.218.137.1.269.2.4.3.1.077.2.153.293.234.136.116.266.237.4.36.081.077.166.151.244.231.169.171.33.35.485.533.032.038.068.073.1.112.183.222.354.453.517.691.057.083.107.17.161.255.1.162.206.325.3.494.056.1.107.205.16.309.082.159.161.32.233.484.05.111.1.223.14.336.066.166.127.333.184.5.039.115.076.23.11.347.052.176.1.356.138.537.026.114.055.227.077.342.038.2.067.4.092.607.013.1.031.2.04.3.03.307.047.617.047.931a9.663,9.663,0,0,1-7.644,9.447q-.629,2.228-1.458,4.554a104.126,104.126,0,0,1-9.135,18.955A120.626,120.626,0,0,1,465.654,65.606Z" fill="#fff"/>
    <path id="Path_422" data-name="Path 422" d="M471.718,52.62a1.477,1.477,0,0,0-1-.317,2.447,2.447,0,0,0-.687.095,3.486,3.486,0,0,0-.6.233l-.348,1.283a3.993,3.993,0,0,0,.755.589,1.891,1.891,0,0,0,.957.252,1.348,1.348,0,0,0,.94-.316,1.19,1.19,0,0,0,.346-.923A1.116,1.116,0,0,0,471.718,52.62Z" fill="#fff"/>
  </g>
</svg>
