<svg xmlns="http://www.w3.org/2000/svg" width="50" height="50" viewBox="0 0 50 50">
  <g id="Group_450" data-name="Group 450" transform="translate(-112 -931)">
    <g id="Group_449" data-name="Group 449" transform="translate(0 75)">
      <g id="Group_429" data-name="Group 429" transform="translate(0 75)">
        <g id="Group_427" data-name="Group 427" transform="translate(0 75)">
          <g id="Group_425" data-name="Group 425" transform="translate(0 75)">
            <g id="Group_420" data-name="Group 420" transform="translate(0 75)">
              <g id="Ellipse_19" data-name="Ellipse 19" transform="translate(112 556)" fill="#fff" stroke="#a3159d" stroke-width="1">
                <circle cx="25" cy="25" r="25" stroke="none"/>
                <circle cx="25" cy="25" r="24.5" fill="none"/>
              </g>
            </g>
          </g>
        </g>
      </g>
    </g>
    <g id="security" transform="translate(103.498 943)">
      <path id="Path_232" data-name="Path 232" d="M22.009,307.708a.508.508,0,1,0-.507-.508v0A.506.506,0,0,0,22.009,307.708Z" transform="translate(0 -291.253)" fill="#a3159d"/>
      <path id="Path_233" data-name="Path 233" d="M44.331,17.772,41.415,16.2V10.88A1.707,1.707,0,0,0,39.84,9.069h-.463V7.922a7.919,7.919,0,0,0-15.838,0V9.069h-.463A1.707,1.707,0,0,0,21.5,10.88v2.808a.507.507,0,1,0,1.014,0V10.88c0-.425.262-.8.561-.8H39.84c.3,0,.561.372.561.8V16.2l-2.92,1.576a1.155,1.155,0,0,0-.779,1.209,7.755,7.755,0,0,0,.984,3.691q.062.116.126.228H23.077c-.3,0-.561-.372-.561-.8v-3.9a.507.507,0,1,0-1.014,0v3.9a1.707,1.707,0,0,0,1.575,1.811h15.4a6.171,6.171,0,0,0,1.738,1.616,1.109,1.109,0,0,0,1.391,0,7.157,7.157,0,0,0,2.525-2.857,7.756,7.756,0,0,0,.984-3.691,1.157,1.157,0,0,0-.782-1.211Zm-8.382-8.7H26.968V7.922a4.49,4.49,0,1,1,8.981,0V9.069Zm2.414,0h-1.4V7.922a5.5,5.5,0,0,0-11.009,0V9.069h-1.4V7.922a6.9,6.9,0,1,1,13.81,0Zm4.871,13.126a6.262,6.262,0,0,1-2.152,2.466,1.564,1.564,0,0,1-.174.095,1.564,1.564,0,0,1-.174-.095h0a5.327,5.327,0,0,1-1.578-1.532l-.008-.012a8.93,8.93,0,0,1-.567-.923,6.743,6.743,0,0,1-.864-3.2,1.055,1.055,0,0,1,.013-.191,2.621,2.621,0,0,1,.233-.135l2.945-1.589,2.928,1.581.014.007a2.648,2.648,0,0,1,.235.135,1.074,1.074,0,0,1,.013.192,6.744,6.744,0,0,1-.864,3.2Z" transform="translate(0 0)" fill="#a3159d"/>
      <path id="Path_234" data-name="Path 234" d="M234.141,267.95h4.491a.507.507,0,0,0,0-1.014h-4.491a.507.507,0,0,0,0,1.014Z" transform="translate(-201.452 -253.497)" fill="#a3159d"/>
      <path id="Path_235" data-name="Path 235" d="M234.141,321.933h3.1a.507.507,0,0,0,0-1.014h-3.1a.507.507,0,0,0,0,1.014Z" transform="translate(-201.452 -304.763)" fill="#a3159d"/>
      <path id="Path_236" data-name="Path 236" d="M74.386,244.762a1.3,1.3,0,0,0,1.294,1.294h4.806a1.3,1.3,0,0,0,1.3-1.294,3.655,3.655,0,0,0-1.143-2.588,3.979,3.979,0,0,0-.912-.663,2.585,2.585,0,1,0-3.287,0,3.976,3.976,0,0,0-.912.663A3.656,3.656,0,0,0,74.386,244.762Zm3.7-6.82a1.573,1.573,0,1,1-1.571,1.573A1.574,1.574,0,0,1,78.083,237.942Zm0,4.16a2.815,2.815,0,0,1,2.684,2.66.285.285,0,0,1-.282.28H75.68a.284.284,0,0,1-.28-.28A2.814,2.814,0,0,1,78.083,242.1Z" transform="translate(-50.222 -225)" fill="#a3159d"/>
      <path id="Path_237" data-name="Path 237" d="M375.8,386.616l-1.449,1.486-.5-.471a.507.507,0,0,0-.693.74l.866.81a.507.507,0,0,0,.71-.016l1.8-1.842a.507.507,0,0,0-.726-.708Z" transform="translate(-333.8 -367.007)" fill="#a3159d"/>
    </g>
  </g>
</svg>
