<svg xmlns="http://www.w3.org/2000/svg" width="50" height="50" viewBox="0 0 50 50">
  <g id="Group_483" data-name="Group 483" transform="translate(-112 -1153)">
    <g id="Group_482" data-name="Group 482" transform="translate(0 147)">
      <g id="Group_451" data-name="Group 451" transform="translate(0 75)">
        <g id="Group_449" data-name="Group 449" transform="translate(0 75)">
          <g id="Group_429" data-name="Group 429" transform="translate(0 75)">
            <g id="Group_427" data-name="Group 427" transform="translate(0 75)">
              <g id="Group_425" data-name="Group 425" transform="translate(0 75)">
                <g id="Group_420" data-name="Group 420" transform="translate(0 75)">
                  <g id="Ellipse_19" data-name="Ellipse 19" transform="translate(112 556)" fill="#fff" stroke="#a3159d" stroke-width="1">
                    <circle cx="25" cy="25" r="25" stroke="none"/>
                    <circle cx="25" cy="25" r="24.5" fill="none"/>
                  </g>
                </g>
              </g>
            </g>
          </g>
        </g>
      </g>
    </g>
    <g id="loyalty" transform="translate(123.734 1165.037)">
      <path id="Path_290" data-name="Path 290" d="M64.491,68.876l1.689,1.658a.392.392,0,0,1,.111.345l-.4,2.341a1.166,1.166,0,0,0,1.677,1.222l2.088-1.105a.379.379,0,0,1,.355,0L72.1,74.443a1.167,1.167,0,0,0,1.677-1.222l-.4-2.341a.392.392,0,0,1,.111-.345l1.689-1.658a1.171,1.171,0,0,0-.641-1.978L72.2,66.557a.384.384,0,0,1-.289-.212l-1.044-2.13a1.168,1.168,0,0,0-2.072,0l-1.044,2.13a.384.384,0,0,1-.289.212l-2.335.342A1.171,1.171,0,0,0,64.491,68.876Zm.443-.952a.378.378,0,0,1,.309-.263l2.335-.342a1.155,1.155,0,0,0,.87-.636l1.044-2.13a.384.384,0,0,1,.687,0l1.044,2.13a1.155,1.155,0,0,0,.87.636l2.335.342a.393.393,0,0,1,.212.664L72.95,69.984a1.164,1.164,0,0,0-.331,1.026l.4,2.341a.386.386,0,0,1-.555.411l-2.088-1.105a1.159,1.159,0,0,0-1.077,0l-2.088,1.105a.387.387,0,0,1-.555-.411l.4-2.341a1.164,1.164,0,0,0-.331-1.026l-1.689-1.658A.385.385,0,0,1,64.934,67.924Z" transform="translate(-60.562 -60.316)" fill="#a3159d"/>
      <path id="Path_291" data-name="Path 291" d="M197.934,356.077a.386.386,0,0,0,0,.772A.386.386,0,0,0,197.934,356.077Z" transform="translate(-187.11 -337.763)" fill="#a3159d"/>
      <path id="Path_292" data-name="Path 292" d="M26.254,15.562a1.724,1.724,0,0,0-1.346-.656H19.534v-4.3a1.522,1.522,0,0,0-.524-1.145c-.1-.09-.749-.358-.749-.407A9.025,9.025,0,0,0,4.978,1.109a.386.386,0,1,0,.371.676C10.734-1.273,17.6,3.009,17.488,9.136a1.509,1.509,0,0,0-.886.734l-3.038,6.278a1.41,1.41,0,0,0-1.044-.462H9.126a1.421,1.421,0,0,0-1.413,1.5A8.314,8.314,0,0,1,3.725,2.954.386.386,0,0,0,3.2,2.387a9.143,9.143,0,0,0-.68,12.642,8.968,8.968,0,0,0,5.192,2.939v6.041a1.415,1.415,0,0,0,1.413,1.413h3.394a1.414,1.414,0,0,0,1.235-.727l.474.442a4.563,4.563,0,0,0,3.1,1.208l5.543,0a1.7,1.7,0,0,0,1.658-1.29L24.8,23.98a.386.386,0,1,0-.748-.19l-.273,1.072a.935.935,0,0,1-.909.708l-5.544,0a3.792,3.792,0,0,1-2.573-1l-.82-.765V17.155l3.358-6.938a.8.8,0,0,1,1.471.393v4.682a.386.386,0,0,0,.386.386h5.761a.951.951,0,0,1,.908,1.177L24.56,21.8a.386.386,0,1,0,.748.19l1.258-4.945A1.709,1.709,0,0,0,26.254,15.562ZM13.162,24.008a.642.642,0,0,1-.642.642H9.126a.642.642,0,0,1-.642-.642V17.1a.642.642,0,0,1,.642-.642h3.394a.642.642,0,0,1,.642.642v6.91Z" transform="translate(0 0)" fill="#a3159d"/>
    </g>
  </g>
</svg>
