<svg xmlns="http://www.w3.org/2000/svg" width="22.752" height="22.78" viewBox="0 0 22.752 22.78">
  <g id="edit" transform="translate(-0.984)">
    <g id="Group_235" data-name="Group 235" transform="translate(0.984)">
      <g id="Group_234" data-name="Group 234">
        <path id="Path_146" data-name="Path 146" d="M26.751,22.78H26.9l7.426-1.616a.731.731,0,0,0,.385-.192L47.3,8.389a4.849,4.849,0,0,0,1.424-3.463,5,5,0,0,0-1.424-3.5A4.848,4.848,0,0,0,43.835,0a4.733,4.733,0,0,0-3.463,1.462L27.828,14.045a.693.693,0,0,0-.231.346l-1.616,7.426a.846.846,0,0,0,.231.731A.77.77,0,0,0,26.751,22.78ZM43.835,1.54a3.348,3.348,0,0,1,3.348,3.347q0,.019,0,.039a3.232,3.232,0,0,1-.962,2.347L41.488,2.5A3.309,3.309,0,0,1,43.835,1.54ZM40.41,3.618l4.733,4.733L34.177,19.278l-4.733-4.694ZM28.828,16.123l3.809,3.809L27.751,21.01Z" transform="translate(-25.97 0)"/>
      </g>
    </g>
  </g>
</svg>
