<svg xmlns="http://www.w3.org/2000/svg" width="50" height="50" viewBox="0 0 50 50">
  <g id="Group_533" data-name="Group 533" transform="translate(-112 -1081)">
    <g id="Group_453" data-name="Group 453" transform="translate(0 75)">
      <g id="Group_451" data-name="Group 451" transform="translate(0 75)">
        <g id="Group_449" data-name="Group 449" transform="translate(0 75)">
          <g id="Group_429" data-name="Group 429" transform="translate(0 75)">
            <g id="Group_427" data-name="Group 427" transform="translate(0 75)">
              <g id="Group_425" data-name="Group 425" transform="translate(0 75)">
                <g id="Group_420" data-name="Group 420" transform="translate(0 75)">
                  <g id="Ellipse_19" data-name="Ellipse 19" transform="translate(112 556)" fill="#fff" stroke="#a3159d" stroke-width="1">
                    <circle cx="25" cy="25" r="25" stroke="none"/>
                    <circle cx="25" cy="25" r="24.5" fill="none"/>
                  </g>
                </g>
              </g>
            </g>
          </g>
        </g>
      </g>
    </g>
    <g id="Love" transform="translate(121.986 1089.003)">
      <path id="Path_238" data-name="Path 238" d="M28.119,9.945A7.776,7.776,0,0,0,22.031,5.06a7.276,7.276,0,0,0-6.7,2.882A7.275,7.275,0,0,0,8.63,5.066,7.765,7.765,0,0,0,2.551,9.945,7.849,7.849,0,0,0,4.363,18.4L15.024,28.852a.444.444,0,0,0,.622,0L26.307,18.4a7.849,7.849,0,0,0,1.812-8.454Zm-2.434,7.82L15.335,27.912,4.985,17.764a6.962,6.962,0,0,1-1.606-7.5A6.866,6.866,0,0,1,8.749,5.947a6.126,6.126,0,0,1,.817-.055,6.74,6.74,0,0,1,5.413,3.035.461.461,0,0,0,.714,0A6.572,6.572,0,0,1,21.913,5.94a6.877,6.877,0,0,1,5.378,4.325,6.962,6.962,0,0,1-1.606,7.5Z" transform="translate(0 0)" fill="#a3159d"/>
    </g>
  </g>
</svg>
