<svg xmlns="http://www.w3.org/2000/svg" width="50" height="50" viewBox="0 0 50 50">
  <g id="Group_448" data-name="Group 448" transform="translate(-112 -856)">
    <g id="Group_429" data-name="Group 429" transform="translate(0 75)">
      <g id="Group_427" data-name="Group 427" transform="translate(0 75)">
        <g id="Group_425" data-name="Group 425" transform="translate(0 75)">
          <g id="Group_420" data-name="Group 420" transform="translate(0 75)">
            <g id="Ellipse_19" data-name="Ellipse 19" transform="translate(112 556)" fill="#fff" stroke="#a3159d" stroke-width="1">
              <circle cx="25" cy="25" r="25" stroke="none"/>
              <circle cx="25" cy="25" r="24.5" fill="none"/>
            </g>
          </g>
        </g>
      </g>
    </g>
    <g id="conversation" transform="translate(126 870)">
      <g id="Group_431" data-name="Group 431" transform="translate(0 9.907)">
        <g id="Group_430" data-name="Group 430">
          <path id="Path_223" data-name="Path 223" d="M8.106,228.553a.446.446,0,0,0-.1-.016,2.851,2.851,0,0,0,.79-1.971v-2.347a.45.45,0,0,0,0-.063c0-.042,0-.085,0-.128v-1.485a.446.446,0,0,0-.446-.446H5.359a2.288,2.288,0,0,0-2.285,2.285v2.184a2.851,2.851,0,0,0,.79,1.971.446.446,0,0,0-.1.016A4.147,4.147,0,0,0,0,232.677v1.906a.446.446,0,0,0,.446.446H11.425a.446.446,0,0,0,.446-.446v-1.906A4.147,4.147,0,0,0,8.106,228.553Zm-4.14-3.6v-.566a1.394,1.394,0,0,1,1.393-1.393H7.905v1.039a.949.949,0,0,1-.948.948H3.966Zm0,.921h2.99a1.829,1.829,0,0,0,.948-.264v.961a1.969,1.969,0,0,1-3.939,0Zm2.94,3.559-.971.971-.971-.971Zm4.073,4.709H.892v-.892H2.743a.446.446,0,1,0,0-.892H.908a3.255,3.255,0,0,1,2.822-2.9l1.89,1.89a.446.446,0,0,0,.631,0l1.89-1.89a3.254,3.254,0,0,1,2.838,3.223Z" transform="translate(0 -222.097)" fill="#a3159d"/>
        </g>
      </g>
      <g id="Group_433" data-name="Group 433" transform="translate(10.968)">
        <g id="Group_432" data-name="Group 432">
          <path id="Path_224" data-name="Path 224" d="M253.978,6.456a.447.447,0,0,0-.1-.016,2.851,2.851,0,0,0,.79-1.971V2.122a.448.448,0,0,0,0-.063c0-.042,0-.085,0-.128V.446A.446.446,0,0,0,254.223,0h-2.992a2.288,2.288,0,0,0-2.285,2.285V4.469a2.851,2.851,0,0,0,.79,1.971.447.447,0,0,0-.1.016,4.147,4.147,0,0,0-3.765,4.125v1.906a.446.446,0,0,0,.446.446h3.589a.446.446,0,0,0,0-.892h-3.143V10.58A3.254,3.254,0,0,1,249.6,7.357l1.89,1.89a.446.446,0,0,0,.631,0l1.89-1.89a3.254,3.254,0,0,1,2.838,3.223v1.46h-3.286a.446.446,0,0,0,0,.892H257.3a.446.446,0,0,0,.446-.446V10.58A4.147,4.147,0,0,0,253.978,6.456ZM251.808,8.3l-.971-.971h1.942Zm1.969-3.832a1.969,1.969,0,0,1-3.939,0v-.7h2.99a1.829,1.829,0,0,0,.948-.264Zm0-2.538a.949.949,0,0,1-.948.948h-2.99V2.285A1.394,1.394,0,0,1,251.231.892h2.546Z" transform="translate(-245.872)" fill="#a3159d"/>
        </g>
      </g>
      <g id="Group_435" data-name="Group 435" transform="translate(16.458 12.04)">
        <g id="Group_434" data-name="Group 434">
          <path id="Path_225" data-name="Path 225" d="M369.7,270.031a.446.446,0,1,0,.131.315A.449.449,0,0,0,369.7,270.031Z" transform="translate(-368.94 -269.9)" fill="#a3159d"/>
        </g>
      </g>
      <g id="Group_437" data-name="Group 437">
        <g id="Group_436" data-name="Group 436">
          <path id="Path_226" data-name="Path 226" d="M11.928,6.242,10.063,4.376V2.23A2.233,2.233,0,0,0,7.833,0H2.23A2.233,2.233,0,0,0,0,2.23V6.156a2.233,2.233,0,0,0,2.23,2.23h5.6A2.218,2.218,0,0,0,9.9,7h1.717a.446.446,0,0,0,.315-.762ZM9.571,6.111a.446.446,0,0,0-.435.346,1.331,1.331,0,0,1-1.3,1.037H2.23A1.34,1.34,0,0,1,.892,6.156V2.23A1.34,1.34,0,0,1,2.23.892h5.6A1.34,1.34,0,0,1,9.171,2.23V4.561a.446.446,0,0,0,.131.315l1.235,1.235Z" fill="#a3159d"/>
        </g>
      </g>
      <g id="Group_439" data-name="Group 439" transform="translate(10.78 14.453)">
        <g id="Group_438" data-name="Group 438">
          <path id="Path_227" data-name="Path 227" d="M251.5,324h-5.6a2.218,2.218,0,0,0-2.064,1.383h-1.717a.446.446,0,0,0-.315.761l1.866,1.866v2.146a2.233,2.233,0,0,0,2.23,2.23h5.6a2.233,2.233,0,0,0,2.23-2.23V326.23A2.233,2.233,0,0,0,251.5,324Zm1.338,6.156a1.34,1.34,0,0,1-1.338,1.338h-5.6a1.34,1.34,0,0,1-1.338-1.338v-2.331a.446.446,0,0,0-.131-.315l-1.235-1.235h.965a.446.446,0,0,0,.435-.346,1.331,1.331,0,0,1,1.3-1.037h5.6a1.34,1.34,0,0,1,1.338,1.338Z" transform="translate(-241.666 -324)" fill="#a3159d"/>
        </g>
      </g>
      <g id="Group_441" data-name="Group 441" transform="translate(16.683 17.329)">
        <g id="Group_440" data-name="Group 440">
          <path id="Path_228" data-name="Path 228" d="M377.129,388.594a.446.446,0,0,0-.631,0l-1.186,1.186-.551-.551a.446.446,0,1,0-.631.631l.867.867a.446.446,0,0,0,.631,0l1.5-1.5A.446.446,0,0,0,377.129,388.594Z" transform="translate(-373.999 -388.463)" fill="#a3159d"/>
        </g>
      </g>
      <g id="Group_443" data-name="Group 443" transform="translate(3.97 1.518)">
        <g id="Group_442" data-name="Group 442">
          <path id="Path_229" data-name="Path 229" d="M92.084,35.47a1.55,1.55,0,0,0-1.434-1.434,1.534,1.534,0,0,0-1.164.412,1.552,1.552,0,0,0-.491,1.131.446.446,0,1,0,.892,0,.655.655,0,1,1,.8.639.749.749,0,0,0-.59.734v.238a.446.446,0,1,0,.892,0v-.13A1.538,1.538,0,0,0,92.084,35.47Z" transform="translate(-88.994 -34.032)" fill="#a3159d"/>
        </g>
      </g>
      <g id="Group_445" data-name="Group 445" transform="translate(5.071 5.937)">
        <g id="Group_444" data-name="Group 444">
          <path id="Path_230" data-name="Path 230" d="M114.431,133.221a.446.446,0,1,0,.131.315A.449.449,0,0,0,114.431,133.221Z" transform="translate(-113.67 -133.09)" fill="#a3159d"/>
        </g>
      </g>
      <g id="Group_447" data-name="Group 447" transform="translate(4.082 20.163)">
        <g id="Group_446" data-name="Group 446">
          <path id="Path_231" data-name="Path 231" d="M92.261,452.131a.446.446,0,1,0,.131.315A.449.449,0,0,0,92.261,452.131Z" transform="translate(-91.5 -452)" fill="#a3159d"/>
        </g>
      </g>
    </g>
  </g>
</svg>
