<svg xmlns="http://www.w3.org/2000/svg" width="50" height="50" viewBox="0 0 50 50">
  <g id="Group_546" data-name="Group 546" transform="translate(-112 -1358)">
    <g id="Group_545" data-name="Group 545" transform="translate(0 79)">
      <g id="Path_426" data-name="Path 426" transform="translate(112 1279)" fill="#fff">
        <path d="M 25 49.5 C 21.69230079650879 49.5 18.48381042480469 48.85229110717773 15.46364974975586 47.57487106323242 C 12.54625988006592 46.3409309387207 9.926079750061035 44.57432174682617 7.675879955291748 42.32411956787109 C 5.425680160522461 40.07392120361328 3.659070014953613 37.45373916625977 2.425129890441895 34.53635025024414 C 1.147709965705872 31.51618957519531 0.5 28.30769920349121 0.5 25 C 0.5 21.69230079650879 1.147709965705872 18.48381042480469 2.425129890441895 15.46364974975586 C 3.659070014953613 12.54625988006592 5.425680160522461 9.926079750061035 7.675879955291748 7.675879955291748 C 9.926079750061035 5.425680160522461 12.54625988006592 3.659070014953613 15.46364974975586 2.425129890441895 C 18.48381042480469 1.147709965705872 21.69230079650879 0.5 25 0.5 C 28.30769920349121 0.5 31.51618957519531 1.147709965705872 34.53635025024414 2.425129890441895 C 37.45373916625977 3.659070014953613 40.07392120361328 5.425680160522461 42.32411956787109 7.675879955291748 C 44.57432174682617 9.926079750061035 46.3409309387207 12.54625988006592 47.57487106323242 15.46364974975586 C 48.85229110717773 18.48381042480469 49.5 21.69230079650879 49.5 25 C 49.5 28.30769920349121 48.85229110717773 31.51618957519531 47.57487106323242 34.53635025024414 C 46.3409309387207 37.45373916625977 44.57432174682617 40.07392120361328 42.32411956787109 42.32411956787109 C 40.07392120361328 44.57432174682617 37.45373916625977 46.3409309387207 34.53635025024414 47.57487106323242 C 31.51618957519531 48.85229110717773 28.30769920349121 49.5 25 49.5 Z" stroke="none"/>
        <path d="M 25 1 C 21.75958061218262 1 18.61661911010742 1.634418487548828 15.65842056274414 2.885631561279297 C 12.80064010620117 4.094371795654297 10.23387908935547 5.825000762939453 8.029441833496094 8.029441833496094 C 5.825000762939453 10.23387908935547 4.094371795654297 12.80064010620117 2.885631561279297 15.65842056274414 C 1.634418487548828 18.61661911010742 1 21.75958061218262 1 25 C 1 28.24041938781738 1.634418487548828 31.38338088989258 2.885631561279297 34.34157943725586 C 4.094371795654297 37.19935989379883 5.825000762939453 39.76612091064453 8.029441833496094 41.97055816650391 C 10.23387908935547 44.17499923706055 12.80064010620117 45.90563201904297 15.65842056274414 47.1143684387207 C 18.61661911010742 48.36558151245117 21.75958061218262 49 25 49 C 28.24041938781738 49 31.38338088989258 48.36558151245117 34.34157943725586 47.1143684387207 C 37.19935989379883 45.90563201904297 39.76612091064453 44.17499923706055 41.97055816650391 41.97055816650391 C 44.17499923706055 39.76612091064453 45.90563201904297 37.19935989379883 47.1143684387207 34.34157943725586 C 48.36558151245117 31.38338088989258 49 28.24041938781738 49 25 C 49 21.75958061218262 48.36558151245117 18.61661911010742 47.1143684387207 15.65842056274414 C 45.90563201904297 12.80064010620117 44.17499923706055 10.23387908935547 41.97055816650391 8.029441833496094 C 39.76612091064453 5.825000762939453 37.19935989379883 4.094371795654297 34.34157943725586 2.885631561279297 C 31.38338088989258 1.634418487548828 28.24041938781738 1 25 1 M 25 0 C 38.80712127685547 0 50 11.19287872314453 50 25 C 50 38.80712127685547 38.80712127685547 50 25 50 C 11.19287872314453 50 0 38.80712127685547 0 25 C 0 11.19287872314453 11.19287872314453 0 25 0 Z" stroke="none" fill="#a3159d"/>
      </g>
    </g>
    <g id="Layer_4" transform="translate(117 1363.131)">
      <g id="Group_536" data-name="Group 536" transform="translate(8 8.869)">
        <path id="Path_427" data-name="Path 427" d="M24.345,31.571a.981.981,0,0,0,.678.272,1,1,0,0,0,1.007-1V26.4h1.285a4.17,4.17,0,0,0,4.17-4.17V13.039a4.17,4.17,0,0,0-4.17-4.17H12.17A4.17,4.17,0,0,0,8,13.039v9.189a4.17,4.17,0,0,0,4.17,4.17h6.655ZM9.668,22.228V13.039a2.5,2.5,0,0,1,2.5-2.5H27.315a2.5,2.5,0,0,1,2.5,2.5v9.189a2.5,2.5,0,0,1-2.5,2.5H24.363V29.3l-4.879-4.572H12.17A2.5,2.5,0,0,1,9.668,22.228Z" transform="translate(-8 -8.869)" fill="#a3159d"/>
        <path id="Path_428" data-name="Path 428" d="M37.43,32.812a.834.834,0,0,0,.834-.834V29.615h2.982a.834.834,0,0,0,0-1.668H38.264V24.973a.834.834,0,1,0-1.668,0v2.974H34.241a.834.834,0,0,0,0,1.668H36.6v2.363A.834.834,0,0,0,37.43,32.812Z" transform="translate(-25.948 -19.656)" fill="#a3159d"/>
      </g>
    </g>
  </g>
</svg>
