<svg xmlns="http://www.w3.org/2000/svg" width="50" height="50" viewBox="0 0 50 50">
  <g id="Group_428" data-name="Group 428" transform="translate(-112 -781)">
    <g id="Group_427" data-name="Group 427" transform="translate(0 75)">
      <g id="Group_425" data-name="Group 425" transform="translate(0 75)">
        <g id="Group_420" data-name="Group 420" transform="translate(0 75)">
          <g id="Ellipse_19" data-name="Ellipse 19" transform="translate(112 556)" fill="#fff" stroke="#a3159d" stroke-width="1">
            <circle cx="25" cy="25" r="25" stroke="none"/>
            <circle cx="25" cy="25" r="24.5" fill="none"/>
          </g>
        </g>
      </g>
    </g>
    <g id="to-do-list" transform="translate(127 795)">
      <path id="Path_215" data-name="Path 215" d="M17.961,0H2.6A2.607,2.607,0,0,0,0,2.6V19.219a1.349,1.349,0,0,0,1.347,1.347h5.9a.449.449,0,0,0,0-.9h-5.9A.449.449,0,0,1,.9,19.219V2.6A1.708,1.708,0,0,1,2.6.9H16A2.593,2.593,0,0,0,15.357,2.6V17.076a.751.751,0,0,1-1.464.238l-.677-2.031a1.4,1.4,0,0,0-2.731.443v.35H8.158a.449.449,0,1,0,0,.9h2.327v2.234a4.969,4.969,0,0,0,.384,1.921l.661,1.586a.449.449,0,1,0,.829-.345L11.7,20.784a4.077,4.077,0,0,1-.315-1.576V15.726a.5.5,0,0,1,.981-.159l.677,2.031a1.649,1.649,0,0,0,3.214-.522v-7.7l.6.6a5.618,5.618,0,0,1,1.66,4v4.773a8.45,8.45,0,0,1-.81,3.6.449.449,0,1,0,.811.385,9.354,9.354,0,0,0,.9-3.982V13.978A6.51,6.51,0,0,0,17.49,9.34L16.255,8.108V7.679h2.964a1.349,1.349,0,0,0,1.347-1.347V2.6a2.607,2.607,0,0,0-2.6-2.6Zm1.706,6.331a.45.45,0,0,1-.449.449H16.255V2.6a1.706,1.706,0,1,1,3.413,0Zm0,0" fill="#a3159d"/>
      <path id="Path_216" data-name="Path 216" d="M195.449,438a.449.449,0,1,0,.317.132A.452.452,0,0,0,195.449,438Zm0,0" transform="translate(-186.244 -418.328)" fill="#a3159d"/>
      <path id="Path_217" data-name="Path 217" d="M57.44,54.9a.9.9,0,0,0-.9-.9H54.566a.9.9,0,0,0-.9.9v1.976a.9.9,0,0,0,.9.9h1.976a.9.9,0,0,0,.9-.9Zm-.9,1.976H54.566V54.9h1.976v1.976Zm0,0" transform="translate(-51.258 -51.575)" fill="#a3159d"/>
      <path id="Path_218" data-name="Path 218" d="M57.44,174.9a.9.9,0,0,0-.9-.9H54.566a.9.9,0,0,0-.9.9v1.976a.9.9,0,0,0,.9.9h1.976a.9.9,0,0,0,.9-.9Zm-.9,1.976H54.566V174.9h1.976v1.976Zm0,0" transform="translate(-51.258 -166.187)" fill="#a3159d"/>
      <path id="Path_219" data-name="Path 219" d="M56.542,294H54.566a.9.9,0,0,0-.9.9v1.976a.9.9,0,0,0,.9.9h1.976a.9.9,0,0,0,.9-.9V294.9A.9.9,0,0,0,56.542,294Zm0,2.874H54.566V294.9h1.976v1.976Zm0,0" transform="translate(-51.258 -280.798)" fill="#a3159d"/>
      <path id="Path_220" data-name="Path 220" d="M220.939,118.9a.449.449,0,0,0,0-.9h-3.1a.449.449,0,0,0,0,.9Zm0,0" transform="translate(-207.633 -112.701)" fill="#a3159d"/>
      <path id="Path_221" data-name="Path 221" d="M172.117,118.9a.449.449,0,1,0-.317-.132A.452.452,0,0,0,172.117,118.9Zm0,0" transform="translate(-163.959 -112.701)" fill="#a3159d"/>
      <path id="Path_222" data-name="Path 222" d="M172.113,238.9h5.149a.449.449,0,0,0,0-.9h-5.149a.449.449,0,0,0,0,.9Zm0,0" transform="translate(-163.956 -227.313)" fill="#a3159d"/>
    </g>
  </g>
</svg>
