<svg xmlns="http://www.w3.org/2000/svg" width="298.554" height="40" viewBox="0 0 298.554 40">
  <g id="Group_534" data-name="Group 534" transform="translate(-647 -706)">
    <g id="visa" transform="translate(647 611.372)">
      <path id="Path_244" data-name="Path 244" d="M63.435,132.275a2.352,2.352,0,0,1-2.353,2.353H2.353A2.352,2.352,0,0,1,0,132.275V96.981a2.353,2.353,0,0,1,2.353-2.353H61.082a2.353,2.353,0,0,1,2.353,2.353v35.294Z" fill="#21246e"/>
      <path id="Path_245" data-name="Path 245" d="M49.846,186l-7.058,16.842H38.181L34.71,189.4a1.862,1.862,0,0,0-1.037-1.482,18.311,18.311,0,0,0-4.3-1.431L29.48,186h7.412a2.03,2.03,0,0,1,2.009,1.717l1.835,9.748L45.268,186h4.577Zm18.045,11.341c.02-4.443-6.147-4.684-6.1-6.672.012-.607.587-1.249,1.846-1.411a8.223,8.223,0,0,1,4.3.751l.765-3.57a11.711,11.711,0,0,0-4.075-.746c-4.306,0-7.338,2.29-7.363,5.568-.028,2.424,2.163,3.776,3.815,4.583,1.7.826,2.264,1.353,2.258,2.094-.011,1.13-1.354,1.624-2.607,1.647a9.117,9.117,0,0,1-4.477-1.065l-.789,3.693a13.29,13.29,0,0,0,4.847.9c4.576,0,7.57-2.266,7.585-5.768m11.371,5.5h4.031L79.776,186H76.055a1.987,1.987,0,0,0-1.855,1.235l-6.534,15.608H72.24l.908-2.515h5.59ZM74.4,196.872l2.294-6.324,1.32,6.324ZM56.072,186l-3.6,16.842H48.11L51.716,186h4.357Z" transform="translate(-25.736 -79.787)" fill="#fff"/>
    </g>
    <g id="Group_455" data-name="Group 455" transform="translate(651 611.372)">
      <path id="Path_246" data-name="Path 246" d="M63.435,132.275a2.352,2.352,0,0,1-2.353,2.353H2.353A2.352,2.352,0,0,1,0,132.275V96.981a2.353,2.353,0,0,1,2.353-2.353H61.082a2.353,2.353,0,0,1,2.353,2.353v35.294Z" transform="translate(67)" fill="#21246e"/>
      <g id="Group_457" data-name="Group 457">
        <g id="Group_455-2" data-name="Group 455" transform="translate(77.975 103.972)">
          <path id="Path_246-2" data-name="Path 246" d="M80.583,151.758a12.24,12.24,0,1,0-8.2,3.165,12.185,12.185,0,0,0,8.2-3.165Z" transform="translate(-60.13 -130.442)" fill="#009ddd"/>
          <path id="Path_247" data-name="Path 247" d="M230.767,175a12.236,12.236,0,0,0,0-18.151V175Z" transform="translate(-210.314 -153.683)" fill="#009ddd"/>
        </g>
        <path id="Path_247-2" data-name="Path 247" d="M211.533,130.446a12.24,12.24,0,0,0-8.225,3.165,15.717,15.717,0,0,0-1.223,1.3h2.469a15.713,15.713,0,0,1,.936,1.294h-4.341q-.394.648-.719,1.295h5.755c.193.431.383.864.527,1.3h-6.784a11.719,11.719,0,0,0-.36,1.319h7.5a13.034,13.034,0,0,1,.265,2.589,12.32,12.32,0,0,1-.625,3.885h-6.784q.214.647.5,1.295h5.755a13.307,13.307,0,0,1-.7,1.295h-4.341a13,13,0,0,0,.936,1.295h2.469a12.6,12.6,0,0,1-1.246,1.295,12.241,12.241,0,1,0,8.225-21.317Z" transform="translate(-104.88 -26.474)" fill="#ed1c2e"/>
        <g id="Group_456" data-name="Group 456" transform="translate(82.051 113.06)">
          <path id="Path_249" data-name="Path 249" d="M366.194,251.854a.4.4,0,0,1,.408-.383.378.378,0,0,1,.383.383.4.4,0,0,1-.383.408.421.421,0,0,1-.408-.408Zm.408.312a.3.3,0,0,0,.287-.312.277.277,0,0,0-.287-.288.3.3,0,0,0-.311.288.317.317,0,0,0,.311.312Zm-.048-.144h-.1v-.336h.143c.047,0,.072,0,.1.024s.047.047.047.072c0,.048-.024.1-.072.1l.072.143h-.1l-.047-.12h-.048v.12Zm0-.192h.1v-.073h-.1v.073Z" transform="translate(-333.585 -246.053)" fill="#fff"/>
          <path id="Path_250" data-name="Path 250" d="M100.782,212.476H99.248l.911-4.772-2.085,4.772H96.681l-.239-4.748-.911,4.748H94.14l1.175-6.21h2.4l.12,3.836,1.681-3.836h2.467Z" transform="translate(-94.14 -206.266)" fill="#fff"/>
          <path id="Path_251" data-name="Path 251" d="M274.674,212.408a3.9,3.9,0,0,1-1.1.167c-.766,0-1.2-.383-1.2-1.1a3.392,3.392,0,0,1,.048-.457l.1-.5.074-.383.695-3.86h1.51l-.215,1.15h.79l-.215,1.224h-.791l-.383,2.109a1.16,1.16,0,0,0-.048.216c0,.264.168.383.528.383a1.742,1.742,0,0,0,.407-.048l-.192,1.1Z" transform="translate(-251.008 -206.27)" fill="#fff"/>
          <path id="Path_252" data-name="Path 252" d="M299.535,215.564a.408.408,0,0,0-.167-.049c-.073-.025-.12-.025-.12-.048h-.167a1.576,1.576,0,0,0-1.32.814l.143-.767h-1.391l-.935,5.06h1.535c.551-3.094.767-3.645,1.51-3.645.048,0,.121.024.192.024l.168.048.552-1.437Z" transform="translate(-271.433 -214.364)" fill="#fff"/>
          <path id="Path_253" data-name="Path 253" d="M236.941,216.775c0,.624.36,1.079,1.176,1.392.624.263.72.335.72.575,0,.311-.288.456-.888.456a4.943,4.943,0,0,1-1.391-.215l-.192,1.175h.073l.263.071c.1,0,.239.024.407.024a6.272,6.272,0,0,0,.864.047c1.607,0,2.374-.527,2.374-1.678,0-.7-.312-1.1-1.1-1.415-.648-.24-.719-.312-.719-.552,0-.263.264-.407.767-.407a10.042,10.042,0,0,1,1.1.071l.216-1.15a9.2,9.2,0,0,0-1.343-.1c-1.726,0-2.326.766-2.326,1.7Z" transform="translate(-219.319 -214.018)" fill="#fff"/>
          <path id="Path_254" data-name="Path 254" d="M159.776,220.222h-1.247l.025-.528a2.079,2.079,0,0,1-1.607.6,1.315,1.315,0,0,1-1.39-1.367c0-1.224.982-1.943,2.686-1.943a5.911,5.911,0,0,1,.623.025.96.96,0,0,0,.048-.312c0-.335-.265-.456-.984-.456a6.438,6.438,0,0,0-1.246.12l-.215.072-.144.023.215-1.127a6.9,6.9,0,0,1,1.824-.264c1.318,0,1.99.5,1.99,1.462a5.364,5.364,0,0,1-.119,1.008l-.312,1.8-.048.311-.049.265-.024.167-.024.144Zm-1.1-2.255a1.986,1.986,0,0,0-.335-.024c-.864,0-1.295.264-1.295.768a.49.49,0,0,0,.527.527,1.176,1.176,0,0,0,1.1-1.271Z" transform="translate(-148.195 -214.012)" fill="#fff"/>
          <path id="Path_255" data-name="Path 255" d="M202.107,219.917a5.8,5.8,0,0,1-1.559.215c-1.7,0-2.589-.792-2.589-2.278a2.761,2.761,0,0,1,2.662-3,1.816,1.816,0,0,1,2.039,1.822,5.154,5.154,0,0,1-.168,1.247h-3.047v.168c0,.575.432.887,1.319.887a4.051,4.051,0,0,0,1.582-.311l-.24,1.246Zm-.814-3v-.264c0-.407-.265-.648-.719-.648-.48,0-.815.335-.96.912Z" transform="translate(-185.515 -213.827)" fill="#fff"/>
          <path id="Path_256" data-name="Path 256" d="M328.765,217.554a2.7,2.7,0,0,1-2.974,2.421,2.148,2.148,0,0,1-2.4-2.325,2.832,2.832,0,0,1,3-3,2.205,2.205,0,0,1,2.422,2.278,2.579,2.579,0,0,1-.048.624Zm-1.582-.648c0-.527-.216-1.006-.838-1.006-.769,0-1.248.91-1.248,1.726,0,.672.336,1.127.864,1.127a1.486,1.486,0,0,0,1.175-1.223,2.649,2.649,0,0,0,.048-.625Z" transform="translate(-295.916 -213.646)" fill="#fff"/>
        </g>
      </g>
    </g>
    <g id="paypal" transform="translate(788.713 526.327)">
      <path id="Path_257" data-name="Path 257" d="M354.922,221.2h-4.954a.968.968,0,0,0-.728.583L347.2,234.6a.386.386,0,0,0,.437.437h2.622a.386.386,0,0,0,.437-.437l.583-3.642a.667.667,0,0,1,.728-.583h1.6q5.026,0,5.682-4.808a3.819,3.819,0,0,0-.583-3.205,5.876,5.876,0,0,0-3.788-1.166m.583,4.808c-.291,1.748-1.6,1.748-2.914,1.748h-.874l.583-3.351c0-.146.146-.291.437-.291h.291c.874,0,1.748,0,2.185.583.291.146.291.583.291,1.311" transform="translate(-283.969 -27.481)" fill="#139ad6"/>
      <g id="Group_458" data-name="Group 458" transform="translate(27.536 193.719)">
        <path id="Path_258" data-name="Path 258" d="M158.922,221.2h-4.954a.968.968,0,0,0-.728.583L151.2,234.6a.386.386,0,0,0,.437.437h2.331a.968.968,0,0,0,.728-.583l.583-3.5a.667.667,0,0,1,.728-.583h1.6q5.026,0,5.682-4.808a3.819,3.819,0,0,0-.583-3.205,5.6,5.6,0,0,0-3.788-1.166m.583,4.808c-.291,1.748-1.6,1.748-2.914,1.748h-.728l.583-3.351c0-.146.146-.291.437-.291h.291c.874,0,1.748,0,2.185.583a1.561,1.561,0,0,1,.146,1.311" transform="translate(-151.2 -221.2)" fill="#263b80"/>
        <path id="Path_259" data-name="Path 259" d="M225.209,245.491h-2.331c-.146,0-.437.146-.437.291l-.146.728-.146-.291a3.427,3.427,0,0,0-2.768-1.02,5.6,5.6,0,0,0-5.391,4.808,4.343,4.343,0,0,0,.874,3.642,3.671,3.671,0,0,0,3.06,1.166,4.657,4.657,0,0,0,3.351-1.311l-.146.728a.386.386,0,0,0,.437.437h2.185a.968.968,0,0,0,.728-.583l1.311-8.159c-.146-.146-.437-.437-.583-.437m-3.351,4.662a2.818,2.818,0,0,1-2.768,2.331,2.33,2.33,0,0,1-1.6-.583,3.107,3.107,0,0,1-.437-1.748,2.6,2.6,0,0,1,4.225-1.748,2.544,2.544,0,0,1,.583,1.748" transform="translate(-202.48 -240.829)" fill="#263b80"/>
      </g>
      <path id="Path_260" data-name="Path 260" d="M420.409,245.491h-2.331c-.146,0-.437.146-.437.291l-.146.728-.146-.291a3.427,3.427,0,0,0-2.768-1.02,5.6,5.6,0,0,0-5.391,4.808,4.343,4.343,0,0,0,.874,3.642,3.671,3.671,0,0,0,3.06,1.166,4.657,4.657,0,0,0,3.351-1.311l-.146.728a.386.386,0,0,0,.437.437h2.185a.968.968,0,0,0,.728-.583l1.311-8.159c-.146-.146-.291-.437-.583-.437m-3.351,4.662a2.818,2.818,0,0,1-2.768,2.331,2.33,2.33,0,0,1-1.6-.583,3.107,3.107,0,0,1-.437-1.748,2.6,2.6,0,0,1,4.225-1.748,1.672,1.672,0,0,1,.583,1.748" transform="translate(-334.595 -47.11)" fill="#139ad6"/>
      <path id="Path_261" data-name="Path 261" d="M295.218,246.8h-2.477a.757.757,0,0,0-.583.291l-3.205,4.954-1.457-4.662a.673.673,0,0,0-.728-.437h-2.331c-.291,0-.437.291-.437.583l2.622,7.722-2.477,3.5c-.146.291,0,.728.291.728h2.331a.757.757,0,0,0,.583-.291l8.013-11.51c.437-.437.146-.874-.146-.874" transform="translate(-232.279 -48.419)" fill="#263b80"/>
      <path id="Path_262" data-name="Path 262" d="M477.24,222.035l-2.04,13.112a.386.386,0,0,0,.437.437h2.04a.968.968,0,0,0,.728-.583l2.04-12.821a.386.386,0,0,0-.437-.437h-2.331c-.146-.146-.291,0-.437.291" transform="translate(-388.658 -27.878)" fill="#139ad6"/>
      <path id="Path_263" data-name="Path 263" d="M16.755,189.348c-1.02-1.166-2.914-1.748-5.536-1.748H3.934a1.25,1.25,0,0,0-1.02.874L0,207.56a.667.667,0,0,0,.583.728H5.1l1.166-7.139v.291a1.25,1.25,0,0,1,1.02-.874H9.47c4.225,0,7.43-1.748,8.45-6.556v-.437h0a5.088,5.088,0,0,0-1.166-4.225" transform="translate(0 0)" fill="#263b80"/>
      <path id="Path_264" data-name="Path 264" d="M38.712,220.4h0v.437c-1.02,4.954-4.225,6.556-8.45,6.556H28.077a1.25,1.25,0,0,0-1.02.874L25.6,237.155a.534.534,0,0,0,.583.583h3.788a.816.816,0,0,0,.874-.728v-.146l.728-4.517v-.291a.816.816,0,0,1,.874-.728h.583c3.642,0,6.556-1.457,7.285-5.828a5.356,5.356,0,0,0-.728-4.371,1.492,1.492,0,0,0-.874-.728" transform="translate(-20.938 -26.827)" fill="#139ad6"/>
      <path id="Path_265" data-name="Path 265" d="M44.89,216.037c-.146,0-.291-.146-.437-.146a.535.535,0,0,1-.437-.146,7.7,7.7,0,0,0-1.894-.146H36.44a.535.535,0,0,0-.437.146.8.8,0,0,0-.437.728L34.4,224.05v.291a1.25,1.25,0,0,1,1.02-.874h2.185c4.225,0,7.43-1.748,8.45-6.556a.535.535,0,0,1,.146-.437c-.291-.146-.437-.291-.728-.291-.437-.146-.437-.146-.583-.146" transform="translate(-28.135 -22.901)" fill="#232c65"/>
    </g>
    <g id="american-express" transform="translate(887.695 626.647)">
      <path id="Path_266" data-name="Path 266" d="M57.859,115.932a3.42,3.42,0,0,1-3.42,3.42H3.42A3.42,3.42,0,0,1,0,115.932V82.871a3.42,3.42,0,0,1,3.42-3.42H54.439a3.42,3.42,0,0,1,3.42,3.42v33.061Z" transform="translate(0)" fill="#306fc5"/>
      <path id="Path_267" data-name="Path 267" d="M2.432,115.932V82.871a3.42,3.42,0,0,1,3.42-3.42H3.42A3.42,3.42,0,0,0,0,82.871v33.061a3.42,3.42,0,0,0,3.42,3.42H5.852A3.421,3.421,0,0,1,2.432,115.932Z" fill="#202121" opacity="0.15"/>
      <g id="Group_459" data-name="Group 459" transform="translate(4.153 91.175)">
        <path id="Path_268" data-name="Path 268" d="M74.59,203.478h1.729l-.864-2.2Z" transform="translate(-70.314 -199.235)" fill="#fff"/>
        <path id="Path_269" data-name="Path 269" d="M155.946,286.107v1.022h2.908v1.1h-2.908v1.179h3.222l1.493-1.651-1.414-1.65Z" transform="translate(-142.476 -274.478)" fill="#fff"/>
        <path id="Path_270" data-name="Path 270" d="M349.5,201.278l-.943,2.2h1.808Z" transform="translate(-313.317 -199.235)" fill="#fff"/>
        <path id="Path_271" data-name="Path 271" d="M214.311,285.72v-4.479l-2.043,2.2Z" transform="translate(-192.433 -270.162)" fill="#fff"/>
        <path id="Path_272" data-name="Path 272" d="M244.682,286.815a.793.793,0,0,0-.865-.708h-1.65v1.414H243.9C244.367,287.522,244.682,287.286,244.682,286.815Z" transform="translate(-218.954 -274.478)" fill="#fff"/>
        <path id="Path_273" data-name="Path 273" d="M295.821,287.984a.612.612,0,0,0,.236-.55.437.437,0,0,0-.236-.55,1.528,1.528,0,0,0-.628-.079h-1.572v1.257h1.572A1.528,1.528,0,0,0,295.821,287.984Z" transform="translate(-264.593 -275.097)" fill="#fff"/>
        <path id="Path_274" data-name="Path 274" d="M79.291,183.2v.943l-.471-.943H75.127v.943l-.472-.943H69.626a4.784,4.784,0,0,0-2.2.472V183.2H63.89v.472A2.266,2.266,0,0,0,62.4,183.2H49.747l-.865,1.964-.864-1.964H44.01v.943l-.393-.943H40.16l-1.572,3.693L36.781,190.9l-.033.079h4.091l.028-.079.472-1.178h1.021l.471,1.257h4.557v-.943l.393.943h2.279l.393-.943v.943H61.376v-2.043h.158c.157,0,.157,0,.157.236V190.9h5.658v-.471a4.7,4.7,0,0,0,2.121.471h2.358l.471-1.257h1.1l.471,1.257h4.557V189.72l.708,1.178h3.693v-7.7H79.291Zm-26.637,6.6H51.4v-4.322l-.079.18v0L49.49,189.8H48.332l-1.886-4.322V189.8H43.775l-.55-1.179H40.553L40,189.8H38.621l2.325-5.5H42.91l2.2,5.265V184.3h2.082l.037.079h0l.991,2.158.712,1.617.025-.081,1.571-3.772h2.122v5.5Zm5.422-4.322H55.011V186.5H58v1.1H55.011v1.1h3.065v1.178h-4.4V184.3h4.4v1.179Zm5.6,2.026.007,0a.9.9,0,0,1,.077.093,1.511,1.511,0,0,1,.278.921v.022s0,.008,0,.012,0,0,0,.007c0,.043,0,.087,0,.135v1.1H62.869v-.629a1.87,1.87,0,0,0-.236-1.1.715.715,0,0,0-.231-.158,1.568,1.568,0,0,0-.711-.078H60.275V189.8H58.94v-5.5h2.986a3.013,3.013,0,0,1,1.571.236,1.328,1.328,0,0,1,.626,1.222,1.561,1.561,0,0,1-.941,1.45A1.052,1.052,0,0,1,63.68,187.5Zm2.646,2.3H64.99v-5.5h1.336Zm15.323,0H79.92l-2.514-4.165v3.457l-.008-.008v.719H76.07v0H74.734l-.471-1.179h-2.75l-.471,1.257H69.548a2.362,2.362,0,0,1-2.593-2.75,3.221,3.221,0,0,1,.707-2.2,2.475,2.475,0,0,1,1.964-.629h1.258v1.179H69.626a1.448,1.448,0,0,0-1.022.314,1.847,1.847,0,0,0-.393,1.257,1.711,1.711,0,0,0,.393,1.336,1.253,1.253,0,0,0,.943.315h.55l1.807-4.322h1.965l2.2,5.265v-5.264h1.964l2.278,3.85v-3.85h1.336V189.8h0Z" transform="translate(-36.748 -183.198)" fill="#fff"/>
        <path id="Path_275" data-name="Path 275" d="M247.23,204.476a.421.421,0,0,0,.061-.084.849.849,0,0,0,.109-.593.437.437,0,0,0-.012-.072c0-.006,0-.012,0-.018h0a.441.441,0,0,0-.238-.267,1.539,1.539,0,0,0-.629-.078h-1.572v1.257h1.572a1.531,1.531,0,0,0,.629-.079.3.3,0,0,0,.065-.047h0Z" transform="translate(-221.418 -201.085)" fill="#fff"/>
        <path id="Path_276" data-name="Path 276" d="M172.276,269.817a3.01,3.01,0,0,0-.393-1.493v-3.536h0v-.236H168.1a2.236,2.236,0,0,0-1.085.471v-.471H163.4a2.5,2.5,0,0,0-1.572.471v-.471h-6.443v.471a3.04,3.04,0,0,0-1.729-.471H149.41v.471a2.985,2.985,0,0,0-1.808-.471h-4.714l-1.1,1.179-1.022-1.179H133.7v7.937h6.915l1.136-1.136.985,1.136h4.4v-1.807h.393a4.774,4.774,0,0,0,1.807-.236v2.122h3.536v-2.043h.157c.236,0,.236,0,.236.236v1.807h10.686a3.08,3.08,0,0,0,1.807-.472v.472h3.379a3.529,3.529,0,0,0,1.886-.393,2.639,2.639,0,0,0,1.247-2.119c0-.027.007-.054.01-.081l0,0C172.274,269.919,172.276,269.868,172.276,269.817Zm-24.751-.471h-1.572v2.043H143.37l-1.5-1.729-.005.006-.073-.085-1.729,1.808h-5.029v-5.5h5.107l1.4,1.528.293.32.04-.041,1.65-1.807h4.164a2.039,2.039,0,0,1,2.056,1.022,2.223,2.223,0,0,1,.065.55C149.8,269.031,148.7,269.346,147.525,269.346Zm7.858-.079a1.784,1.784,0,0,1,.236,1.022v1.1h-1.336v-.707a1.753,1.753,0,0,0-.236-1.1c-.157-.235-.471-.235-.943-.235h-1.414v2.043h-1.336V265.81h2.986a3.169,3.169,0,0,1,1.572.236,1.391,1.391,0,0,1,.707,1.258,1.565,1.565,0,0,1-.943,1.493A1.339,1.339,0,0,1,155.382,269.267Zm5.422-2.279h-3.065v1.022h2.986v1.1h-2.986v1.1H160.8v1.179h-4.4V265.81h4.4Zm3.3,4.4H161.59V270.21H164.1a.664.664,0,0,0,.55-.157.571.571,0,0,0,0-.786.667.667,0,0,0-.472-.157c-1.257-.079-2.75,0-2.75-1.729,0-.786.471-1.65,1.886-1.65h2.593v1.336h-2.436a1.166,1.166,0,0,0-.55.079c-.157.079-.157.236-.157.393,0,.236.157.314.314.392a1,1,0,0,0,.471.079h.707a2,2,0,0,1,1.493.472,1.626,1.626,0,0,1,.393,1.179C166.147,270.838,165.44,271.389,164.1,271.389Zm6.758-.55a2.289,2.289,0,0,1-1.65.55H166.7V270.21h2.514a.663.663,0,0,0,.55-.157.569.569,0,0,0,0-.786.664.664,0,0,0-.471-.157c-1.257-.079-2.75,0-2.75-1.728a1.606,1.606,0,0,1,1.481-1.622,2.935,2.935,0,0,1,.4-.029h2.593v1.336h-2.436a1.162,1.162,0,0,0-.55.079.6.6,0,0,0-.158.393c0,.236.079.314.315.392a.993.993,0,0,0,.471.079h.707a2.454,2.454,0,0,1,.841.126,1.692,1.692,0,0,1,1.1,1.242,1.764,1.764,0,0,1,.024.282A1.6,1.6,0,0,1,170.862,270.838Z" transform="translate(-122.739 -255.359)" fill="#fff"/>
      </g>
    </g>
  </g>
</svg>
