<svg xmlns="http://www.w3.org/2000/svg" width="50" height="50" viewBox="0 0 50 50">
  <g id="Group_548" data-name="Group 548" transform="translate(-112 -1428)">
    <g id="Group_547" data-name="Group 547" transform="translate(0 70)">
      <g id="Group_545" data-name="Group 545" transform="translate(0 79)">
        <g id="Path_426" data-name="Path 426" transform="translate(112 1279)" fill="#fff">
          <path d="M 25 49.5 C 21.69230079650879 49.5 18.48381042480469 48.85229110717773 15.46364974975586 47.57487106323242 C 12.54625988006592 46.3409309387207 9.926079750061035 44.57432174682617 7.675879955291748 42.32411956787109 C 5.425680160522461 40.07392120361328 3.659070014953613 37.45373916625977 2.425129890441895 34.53635025024414 C 1.147709965705872 31.51618957519531 0.5 28.30769920349121 0.5 25 C 0.5 21.69230079650879 1.147709965705872 18.48381042480469 2.425129890441895 15.46364974975586 C 3.659070014953613 12.54625988006592 5.425680160522461 9.926079750061035 7.675879955291748 7.675879955291748 C 9.926079750061035 5.425680160522461 12.54625988006592 3.659070014953613 15.46364974975586 2.425129890441895 C 18.48381042480469 1.147709965705872 21.69230079650879 0.5 25 0.5 C 28.30769920349121 0.5 31.51618957519531 1.147709965705872 34.53635025024414 2.425129890441895 C 37.45373916625977 3.659070014953613 40.07392120361328 5.425680160522461 42.32411956787109 7.675879955291748 C 44.57432174682617 9.926079750061035 46.3409309387207 12.54625988006592 47.57487106323242 15.46364974975586 C 48.85229110717773 18.48381042480469 49.5 21.69230079650879 49.5 25 C 49.5 28.30769920349121 48.85229110717773 31.51618957519531 47.57487106323242 34.53635025024414 C 46.3409309387207 37.45373916625977 44.57432174682617 40.07392120361328 42.32411956787109 42.32411956787109 C 40.07392120361328 44.57432174682617 37.45373916625977 46.3409309387207 34.53635025024414 47.57487106323242 C 31.51618957519531 48.85229110717773 28.30769920349121 49.5 25 49.5 Z" stroke="none"/>
          <path d="M 25 1 C 21.75958061218262 1 18.61661911010742 1.634418487548828 15.65842056274414 2.885631561279297 C 12.80064010620117 4.094371795654297 10.23387908935547 5.825000762939453 8.029441833496094 8.029441833496094 C 5.825000762939453 10.23387908935547 4.094371795654297 12.80064010620117 2.885631561279297 15.65842056274414 C 1.634418487548828 18.61661911010742 1 21.75958061218262 1 25 C 1 28.24041938781738 1.634418487548828 31.38338088989258 2.885631561279297 34.34157943725586 C 4.094371795654297 37.19935989379883 5.825000762939453 39.76612091064453 8.029441833496094 41.97055816650391 C 10.23387908935547 44.17499923706055 12.80064010620117 45.90563201904297 15.65842056274414 47.1143684387207 C 18.61661911010742 48.36558151245117 21.75958061218262 49 25 49 C 28.24041938781738 49 31.38338088989258 48.36558151245117 34.34157943725586 47.1143684387207 C 37.19935989379883 45.90563201904297 39.76612091064453 44.17499923706055 41.97055816650391 41.97055816650391 C 44.17499923706055 39.76612091064453 45.90563201904297 37.19935989379883 47.1143684387207 34.34157943725586 C 48.36558151245117 31.38338088989258 49 28.24041938781738 49 25 C 49 21.75958061218262 48.36558151245117 18.61661911010742 47.1143684387207 15.65842056274414 C 45.90563201904297 12.80064010620117 44.17499923706055 10.23387908935547 41.97055816650391 8.029441833496094 C 39.76612091064453 5.825000762939453 37.19935989379883 4.094371795654297 34.34157943725586 2.885631561279297 C 31.38338088989258 1.634418487548828 28.24041938781738 1 25 1 M 25 0 C 38.80712127685547 0 50 11.19287872314453 50 25 C 50 38.80712127685547 38.80712127685547 50 25 50 C 11.19287872314453 50 0 38.80712127685547 0 25 C 0 11.19287872314453 11.19287872314453 0 25 0 Z" stroke="none" fill="#a3159d"/>
        </g>
      </g>
    </g>
    <g id="send" transform="translate(101.147 1441)">
      <g id="Group_538" data-name="Group 538" transform="translate(24.853 0)">
        <g id="Group_537" data-name="Group 537" transform="translate(0 0)">
          <path id="Path_429" data-name="Path 429" d="M46.129.327a.347.347,0,0,0,0-.041l0-.009a.341.341,0,0,0-.009-.036l0-.006A.344.344,0,0,0,46.1.195l0-.006a.349.349,0,0,0-.019-.033l0-.006a.344.344,0,0,0-.027-.034L46.036.11,46.023.1,46.01.084l0,0,0,0a.346.346,0,0,0-.035-.025l-.006,0L45.928.031l-.008,0L45.88.014l-.007,0L45.838,0l-.01,0-.041,0h-.009l-.035,0h-.01l-.041.009-.007,0-.037.013,0,0L30.74,6.654a.345.345,0,0,0,.28.631L43.9,1.562,32,12.139,26.048,9.495l3.594-1.6a.345.345,0,0,0-.28-.631l-4.3,1.913a.345.345,0,0,0,0,.631l6.686,2.971.737,5.527v0a.346.346,0,0,0,.011.049l0,0a.335.335,0,0,0,.018.045l0,0a.345.345,0,0,0,.025.042l.006.008a.311.311,0,0,0,.069.07l.008.006a.352.352,0,0,0,.042.026l0,0a.346.346,0,0,0,.045.019l.006,0a.35.35,0,0,0,.049.012h.01a.348.348,0,0,0,.045,0h0a.342.342,0,0,0,.044,0h.01a.344.344,0,0,0,.085-.025l.008,0a.343.343,0,0,0,.038-.02h0a.335.335,0,0,0,.035-.026l.009-.008.012-.011,2.966-2.92,4.959,4.084a.345.345,0,0,0,.555-.186L46.12.426v0A.34.34,0,0,0,46.128.38s0-.005,0-.008a.353.353,0,0,0,0-.037S46.129.33,46.129.327Zm-13.123,16.7-.579-4.345L42.913,3.359,34.46,13.853l0,.006-.018.025-.006.01-.014.026,0,.005Zm.9-.315.949-2.089.638.526ZM41,18.789,35.212,14.02,45.091,1.757Z" transform="translate(-24.853 0)" fill="#a3159d"/>
        </g>
      </g>
      <g id="Group_540" data-name="Group 540" transform="translate(31.715 18.299)">
        <g id="Group_539" data-name="Group 539" transform="translate(0)">
          <path id="Path_430" data-name="Path 430" d="M177.6,397.7a.345.345,0,0,0-.488,0l-3.05,3.05a.345.345,0,1,0,.488.488l3.05-3.05A.345.345,0,0,0,177.6,397.7Z" transform="translate(-173.958 -397.598)" fill="#a3159d"/>
        </g>
      </g>
      <g id="Group_542" data-name="Group 542" transform="translate(27.164 14.51)">
        <g id="Group_541" data-name="Group 541" transform="translate(0)">
          <path id="Path_431" data-name="Path 431" d="M78.685,315.383a.345.345,0,0,0-.488,0l-3.026,3.026a.345.345,0,0,0,.488.488l3.026-3.026A.345.345,0,0,0,78.685,315.383Z" transform="translate(-75.07 -315.282)" fill="#a3159d"/>
        </g>
      </g>
      <g id="Group_544" data-name="Group 544" transform="translate(25.615 18.299)">
        <g id="Group_543" data-name="Group 543" transform="translate(0)">
          <path id="Path_432" data-name="Path 432" d="M46.583,397.7a.345.345,0,0,0-.488,0l-4.575,4.575a.345.345,0,1,0,.488.488l4.575-4.575A.345.345,0,0,0,46.583,397.7Z" transform="translate(-41.419 -397.6)" fill="#a3159d"/>
        </g>
      </g>
    </g>
  </g>
</svg>
