<?xml version="1.0"?>
<svg xmlns="http://www.w3.org/2000/svg" xmlns:xlink="http://www.w3.org/1999/xlink" xmlns:svgjs="http://svgjs.com/svgjs" version="1.1" width="512" height="512" x="0" y="0" viewBox="0 0 512 512" style="enable-background:new 0 0 512 512" xml:space="preserve" class=""><g><g><path d="m69.958 291.043c0 36.85 29.182 66.829 65.051 66.829s65.051-29.979 65.051-66.829c0-4.143-3.358-7.5-7.5-7.5h-115.102c-4.142 0-7.5 3.357-7.5 7.5zm114.58 7.5c-3.52 25.037-24.39 44.329-49.528 44.329-25.139 0-46.009-19.292-49.529-44.329z" fill="#a3159d" data-original="#000000"/><path d="m487.538 421.694h-2.728c-1.176-88.281-67.262-161.169-152.61-173.015v-13.276c0-13.488-10.974-24.462-24.462-24.462s-24.462 10.974-24.462 24.462v13.268c-20.96 2.904-41.191 9.53-59.813 19.623v-35.472c0-6.694-5.446-12.141-12.141-12.141h-34c-4.142 0-7.5 3.357-7.5 7.5s3.358 7.5 7.5 7.5h31.141c0 59.809.309 58.288-.808 66.535-4.521 31.585-28.005 57.418-58.986 63.439-.07.014-.139.031-.21.045-3.499.672-6.088 3.74-6.088 7.366v59.151.012c0 4.85 6.946 10.884 10.802 13.521l14.432 9.868h-65.185l14.43-9.867c3.875-2.649 10.804-8.678 10.804-13.521v-59.163c0-3.599-2.556-6.69-6.09-7.366-12.283-2.351-23.367-7.801-32.579-15.467-.096-.09-.187-.184-.289-.269-14.019-11.797-23.302-28.509-26.172-46.728-.014-.089-.027-.179-.041-.269-1.231-7.997-.922-11.195-.922-67.287h17.645 63.117c4.142 0 7.5-3.357 7.5-7.5s-3.358-7.5-7.5-7.5h-55.62v-78.584c0-7.267-5.912-13.178-13.178-13.178h-11.967v-9.637c4.43-1.167 8.65-3.381 12.276-6.653 10.249-9.25 12.734-24.144 6.043-36.22l-16.3-29.421c-1.917-3.459-5.565-5.607-9.52-5.607s-7.602 2.149-9.518 5.608l-16.3 29.421c-6.691 12.076-4.206 26.97 6.044 36.22 3.626 3.272 7.845 5.485 12.275 6.653v9.637h-11.967c-7.266 0-13.178 5.911-13.178 13.178v146.014h-8.465c-4.142 0-7.5 3.357-7.5 7.5v31.796c0 19.336 11.351 36.067 27.737 43.891v57.601c-18.393.564-33.185 15.691-33.185 34.219 0 4.143 3.358 7.5 7.5 7.5h406.242c4.142 0 7.5-3.357 7.5-7.5s-3.358-7.5-7.5-7.5h-220.781c-.66-.972-1.639-1.952-2.604-2.612l-23.856-16.313h321.037c5.217 0 9.462 4.245 9.462 9.463s-4.245 9.462-9.462 9.462h-38.796c-4.142 0-7.5 3.357-7.5 7.5s3.358 7.5 7.5 7.5h38.796c13.488 0 24.462-10.974 24.462-24.462 0-13.489-10.974-24.463-24.462-24.463zm-446.179-338.014 12.699-22.92 12.699 22.92c3.808 6.873 1.527 15.502-5.36 19.559-.714-3.399-3.727-5.952-7.338-5.952s-6.625 2.553-7.338 5.952c-6.869-4.047-9.18-12.668-5.362-19.559zm71.292 345.944c-2.334 2.635-3.512 3.227-13.711 10.201-6.167-6.628-14.787-10.629-24.009-10.916v-57.579c3.288-1.568 6.403-3.515 9.296-5.82 8.457 6.104 18.03 10.754 28.424 13.53zm-76.237-285.704h35.29v76.762h-13.005c-6.694 0-12.141 5.446-12.141 12.141v55.289h-10.144zm-15.966 183.487v-24.296h26.895c2.616 20.19 11.702 38.478 25.23 52.354-22.128 14.71-52.125-1.303-52.125-28.058zm39.483 48.254v53.212h-11.746v-53.212c3.753.459 7.676.487 11.746 0zm-25.685 68.212h39.624c4.627 0 9.023 1.671 12.452 4.58-6.647 4.545-7.878 5.118-9.264 7.166h-60.537c2.93-6.897 9.771-11.746 17.725-11.746zm264.029-208.47c0-5.218 4.245-9.462 9.462-9.462s9.462 4.244 9.462 9.462v11.831c-6.141-.322-12.494-.341-18.925-.001v-11.83zm-140.906 186.291v-42.654c32.503-8.676 60.2-37.137 65.201-75.197.84-6.107.993-11.91.93-18.278 106.344-64.814 244.509 11.025 246.323 136.129z" fill="#a3159d" data-original="#000000"/></g></g></svg>
