<?xml version="1.0"?>
<svg xmlns="http://www.w3.org/2000/svg" xmlns:xlink="http://www.w3.org/1999/xlink" xmlns:svgjs="http://svgjs.com/svgjs" version="1.1" width="512" height="512" x="0" y="0" viewBox="0 0 511.999 511.999" style="enable-background:new 0 0 512 512" xml:space="preserve" class=""><g>
<g>
	<g>
		<path d="M464.949,56.745c-4.202,0-7.607,3.405-7.607,7.607v421.402c0,6.082-4.949,11.031-11.031,11.031H65.689    c-6.082,0-11.031-4.949-11.031-11.031c0-4.202-3.405-7.607-7.607-7.607c-4.202,0-7.607,3.405-7.607,7.607    c0,14.472,11.774,26.245,26.245,26.245h380.623c14.472,0,26.245-11.774,26.245-26.245V64.353    C472.556,60.151,469.15,56.745,464.949,56.745z" fill="#a3159d" data-original="#000000" class=""/>
	</g>
</g>
<g>
	<g>
		<path d="M446.311,0H65.689C51.216,0,39.442,11.774,39.442,26.245v425.343c0,4.203,3.406,7.608,7.607,7.608    c4.202,0,7.607-3.405,7.607-7.607V26.245c0-6.082,4.949-11.031,11.031-11.031H446.31c6.082,0,11.031,4.949,11.031,11.031    c0,4.202,3.406,7.607,7.607,7.607c4.202,0,7.607-3.405,7.607-7.607C472.556,11.774,460.783,0,446.311,0z" fill="#a3159d" data-original="#000000" class=""/>
	</g>
</g>
<g>
	<g>
		<path d="M267.356,367.524H91.997c-14.524,0-26.342,11.817-26.342,26.342v64.4c0,14.524,11.817,26.342,26.342,26.342h175.359    c14.524,0,26.342-11.817,26.342-26.342v-64.4C293.699,379.342,281.882,367.524,267.356,367.524z M130.116,392.539    c0.096,0,0.183,0.012,0.257,0.029c0.212,0.047,0.509,0.172,0.72,0.505l13.196,20.732c0.341,0.535,0.182,1.246-0.353,1.587    l-20.732,13.195c-0.332,0.212-0.656,0.201-0.867,0.153c-0.212-0.047-0.509-0.172-0.72-0.504v-0.001l-13.196-20.731    c-0.341-0.536-0.182-1.248,0.353-1.589l20.732-13.195C129.723,392.581,129.936,392.539,130.116,392.539z M278.483,458.266    c0,6.135-4.991,11.127-11.127,11.127H91.997c-6.135,0-11.127-4.991-11.127-11.127v-64.4c0-6.135,4.991-11.127,11.127-11.127    h24.854l-16.248,10.341c-7.611,4.846-9.863,14.98-5.018,22.593l13.196,20.731c2.347,3.688,5.989,6.24,10.256,7.188    c1.192,0.264,2.39,0.395,3.581,0.395c3.078-0.001,6.097-0.874,8.755-2.565l20.732-13.195c3.688-2.348,6.24-5.99,7.188-10.257    c0.948-4.267,0.177-8.647-2.17-12.335l-13.196-20.731c-0.495-0.778-1.059-1.493-1.663-2.165h125.092    c6.136,0,11.127,4.991,11.127,11.127V458.266z" fill="#a3159d" data-original="#000000" class=""/>
	</g>
</g>
<g>
	<g>
		<path d="M420.616,367.524h-89.958c-14.471,0-26.244,11.773-26.244,26.243v64.596c0,14.471,11.773,26.243,26.244,26.243h89.958    c14.471,0,26.243-11.773,26.243-26.243v-64.596C446.86,379.296,435.087,367.524,420.616,367.524z M431.645,458.364    c0,6.081-4.948,11.029-11.029,11.029h-89.958c-6.081,0-11.029-4.948-11.029-11.029v-64.596c0-6.081,4.948-11.029,11.029-11.029    h89.958c6.082,0,11.029,4.948,11.029,11.029V458.364z" fill="#a3159d" data-original="#000000" class=""/>
	</g>
</g>
<g>
	<g>
		<path d="M420.59,192.396h-67.076c-2.108-3.814-4.385-7.503-6.821-11.063h73.925v-0.001c14.471,0,26.243-11.773,26.243-26.244    V51.818c0-14.471-11.773-26.244-26.243-26.244H330.66c-14.471,0-26.244,11.773-26.244,26.244v89.834    c-3.471-2.063-7.045-3.98-10.717-5.74V52.731c0-14.974-12.182-27.156-27.156-27.156H92.811c-14.973,0-27.155,12.182-27.155,27.156    v276.763c0,14.974,12.182,27.156,27.155,27.156h173.732c14.974,0,27.156-12.182,27.156-27.156v-67.312l10.717-5.038v73.232    c0,14.487,11.786,26.273,26.272,26.273h89.901c14.487,0,26.272-11.786,26.272-26.273V218.669    C446.862,204.182,435.077,192.396,420.59,192.396z M350.565,236.029c0.236,0,0.475,0.027,0.715,0.082l8.718,2.014    c1.705,0.393,2.772,2.101,2.377,3.807l-2.014,8.718c-0.258,1.115-0.995,1.718-1.411,1.978c-0.417,0.26-1.284,0.655-2.395,0.4    l-8.721-2.015c-1.113-0.258-1.716-0.994-1.976-1.411c-0.258-0.414-0.656-1.279-0.399-2.394l2.014-8.719    C347.811,237.024,349.121,236.029,350.565,236.029z M319.631,51.818c0-6.081,4.948-11.029,11.029-11.029h89.958    c6.081,0,11.029,4.948,11.029,11.029v103.27c0,6.081-4.948,11.029-11.029,11.029H334.59c-4.627-5.024-9.625-9.683-14.959-13.942    V51.818z M124.793,324.767c-3.981,1.873-8.743,0.155-10.615-3.826l-2.309-4.912c-12.449-26.484-14.848-56.537-6.757-84.623    c8.019-27.83,25.719-51.825,49.838-67.564c3.518-2.296,4.51-7.01,2.214-10.529c-2.296-3.517-7.01-4.51-10.529-2.214    c-27.176,17.734-47.114,44.758-56.143,76.094c-9.115,31.635-6.414,65.482,7.607,95.308l2.309,4.912    c3.945,8.395,12.31,13.326,21.025,13.326c3.3,0,6.652-0.707,9.83-2.202l97.582-45.87c0.659,3.999,4.122,7.052,8.308,7.052    c4.656,0,8.43-3.774,8.43-8.43c0-2.113-0.783-4.039-2.067-5.519l34.965-16.436v60.16h0.003c0,6.584-5.357,11.941-11.941,11.941    H92.811c-6.584,0-11.94-5.357-11.94-11.941V52.731c0-6.584,5.356-11.941,11.94-11.941h173.732c6.584,0,11.941,5.357,11.941,11.941    v76.977c-33.459-11.394-69.396-9.415-101.473,5.664c-3.803,1.787-5.436,6.319-3.648,10.12c1.786,3.803,6.315,5.437,10.12,3.648    c60.169-28.28,132.123-2.342,160.406,57.824l2.309,4.912c1.871,3.982,0.155,8.744-3.826,10.616L124.793,324.767z M357.465,336.355    l-13.209-20.218l24.114-1.33L357.465,336.355z M431.645,273.2l-7.755-1.792c-9.883-2.285-19.774,3.9-22.056,13.778l-2.014,8.718    c-2.282,9.88,3.899,19.773,13.777,22.055l8.719,2.015c1.387,0.32,2.785,0.478,4.174,0.478c1.749,0,3.481-0.255,5.155-0.75v12.675    c0,6.098-4.961,11.058-11.057,11.058h-48.642l12.826-25.343c1.865-3.686,1.62-8.124-0.64-11.583    c-2.26-3.459-6.225-5.473-10.35-5.237l-36.615,2.02c-4.125,0.228-7.846,2.659-9.711,6.344c-1.865,3.686-1.621,8.123,0.639,11.583    l14.514,22.216h-11.922c-6.097,0-11.057-4.961-11.057-11.058v-80.384l10.8-5.077c-0.739,4.425,0.128,8.911,2.525,12.748    c2.603,4.166,6.672,7.07,11.457,8.174l8.719,2.015c1.387,0.32,2.785,0.478,4.174,0.478c3.404,0,6.749-0.951,9.707-2.799    c4.165-2.602,7.069-6.671,8.174-11.458l2.014-8.718c2.282-9.879-3.898-19.773-13.777-22.055l-2.501-0.577    c1.625-4.781,1.709-10.091-0.052-15.114h59.719c6.096,0,11.056,4.961,11.056,11.059V273.2z M431.561,292.053l-2.014,8.718    c-0.258,1.115-0.995,1.718-1.411,1.978c-0.417,0.259-1.285,0.655-2.395,0.4l-8.719-2.015c-1.706-0.394-2.773-2.101-2.378-3.806    v-0.001l2.014-8.718c0.339-1.466,1.648-2.461,3.092-2.461c0.236,0,0.474,0.027,0.714,0.082l8.719,2.015    C430.889,288.64,431.957,290.348,431.561,292.053z" fill="#a3159d" data-original="#000000" class=""/>
	</g>
</g>
<g>
	<g>
		<circle cx="121.59" cy="100.23" r="8.43" fill="#a3159d" data-original="#000000" class=""/>
	</g>
</g>
<g>
	<g>
		<circle cx="179.679" cy="100.23" r="8.43" fill="#a3159d" data-original="#000000" class=""/>
	</g>
</g>
<g>
	<g>
		<circle cx="160.509" cy="451.59" r="8.43" fill="#a3159d" data-original="#000000" class=""/>
	</g>
</g>
<g>
	<g>
		<circle cx="258.239" cy="402.22" r="8.43" fill="#a3159d" data-original="#000000" class=""/>
	</g>
</g>
<g>
	<g>
		<circle cx="237.16" cy="100.23" r="8.43" fill="#a3159d" data-original="#000000" class=""/>
	</g>
</g>
<g>
	<g>
		<path d="M230.026,409l-23.944-5.532c-4.263-0.987-8.648-0.251-12.354,2.066c-3.708,2.316-6.291,5.937-7.275,10.196l-5.531,23.943    v0.001c-2.031,8.791,3.47,17.596,12.261,19.628l23.944,5.531c1.234,0.285,2.479,0.426,3.716,0.426    c3.029,0,6.005-0.847,8.638-2.491c3.708-2.316,6.292-5.937,7.276-10.196l5.531-23.944    C244.317,419.837,238.817,411.032,230.026,409z M227.462,425.203l-5.531,23.944c-0.088,0.383-0.327,0.6-0.511,0.716    c-0.183,0.114-0.487,0.233-0.868,0.145l-23.944-5.531c-0.618-0.143-1.004-0.762-0.862-1.38v0.001l5.531-23.944    c0.089-0.383,0.327-0.601,0.511-0.716c0.185-0.115,0.483-0.235,0.868-0.146l23.944,5.532    C227.22,423.967,227.605,424.586,227.462,425.203z" fill="#a3159d" data-original="#000000" class=""/>
	</g>
</g>
<g>
	<g>
		<path d="M406.107,103.691c3.914-5.815,6.201-12.811,6.201-20.332c0-20.132-16.378-36.51-36.51-36.51s-36.51,16.378-36.51,36.51    c0,7.315,2.17,14.128,5.889,19.846c-4.467,6.662-6.672,14.67-6.128,22.786c1.293,19.259,17.376,34.067,36.404,34.066    c0.818,0,1.642-0.027,2.469-0.082c9.73-0.653,18.623-5.057,25.042-12.399s9.593-16.743,8.941-26.473    C411.487,114.873,409.465,108.877,406.107,103.691z M391.51,137.563c-3.744,4.282-8.931,6.851-14.606,7.231    c-11.719,0.791-21.887-8.106-22.674-19.821c-0.251-3.739,0.498-7.44,2.107-10.746c5.638,3.567,12.31,5.642,19.461,5.642    c6.939,0,13.431-1.947,18.961-5.321c1.104,2.368,1.787,4.932,1.964,7.573C397.105,127.797,395.254,133.281,391.51,137.563z     M375.799,104.655c-11.742,0-21.295-9.553-21.295-21.295s9.553-21.295,21.295-21.295c11.742,0,21.295,9.553,21.295,21.295    S387.541,104.655,375.799,104.655z" fill="#a3159d" data-original="#000000" class=""/>
	</g>
</g>
<g>
	<g>
		<path d="M408.934,219.346c-8.635-7.342-19.358-5.84-22.44-5.205c-4.115,0.848-6.762,4.872-5.915,8.987    c0.849,4.116,4.875,6.762,8.987,5.915c0.598-0.124,5.963-1.122,9.512,1.895c3.238,2.753,3.93,7.918,2.939,11.381    c-0.747,2.611-2.378,3.901-5.997,6.569c-3.875,2.856-8.697,6.411-12.388,13.188c-3.719,6.83-5.125,14.809-4.18,23.714    c0.414,3.905,3.715,6.805,7.556,6.805c0.267,0,0.539-0.015,0.812-0.044c4.177-0.444,7.205-4.19,6.761-8.368    c-0.613-5.775,0.199-10.765,2.413-14.83c2.075-3.812,4.846-5.853,8.053-8.218c4.184-3.085,9.391-6.923,11.597-14.626    C419.007,238.261,417.538,226.662,408.934,219.346z" fill="#a3159d" data-original="#000000" class=""/>
	</g>
</g>
<g>
	<g>
		<path d="M425.469,419.811c-1.639-9.235-6.777-17.28-14.467-22.653c-7.691-5.372-17.018-7.426-26.248-5.788    c-3.329,0.591-6.459,1.644-9.351,3.067c-6.547-3.114-13.88-4.127-21.156-2.834c-9.237,1.639-17.281,6.778-22.654,14.468    c-5.372,7.691-7.427,17.013-5.788,26.248c3.018,17.001,17.864,28.985,34.563,28.985c2.03,0,4.088-0.177,6.154-0.544    c3.304-0.586,6.452-1.628,9.383-3.067c4.595,2.176,9.688,3.378,14.968,3.378c2.031,0,4.089-0.177,6.155-0.544    c9.237-1.639,17.281-6.778,22.653-14.468C425.053,438.368,427.108,429.046,425.469,419.811z M340.786,429.661    c-0.929-5.235,0.236-10.519,3.281-14.877c3.044-4.358,7.604-7.271,12.838-8.2c1.176-0.209,2.353-0.312,3.521-0.312    c0.459,0,0.915,0.021,1.371,0.052c-4.924,7.297-7.142,16.432-5.485,25.763c0.918,5.17,2.934,9.871,5.759,13.917    C351.924,446.874,342.598,439.867,340.786,429.661z M376.703,437.58c-0.302,0.432-0.63,0.839-0.961,1.243    c-2.218-2.601-3.81-5.791-4.448-9.394c-1.058-5.961,0.678-11.777,4.252-16.122c2.264,2.658,3.81,5.867,4.437,9.396    C380.912,427.938,379.747,433.222,376.703,437.58z M407.21,437.348c-3.045,4.358-7.604,7.271-12.838,8.2    c-1.641,0.29-3.266,0.346-4.857,0.235c5.112-7.592,7.053-16.704,5.449-25.738c-0.903-5.089-2.874-9.812-5.742-13.93    c0.572-0.049,1.144-0.076,1.713-0.076c4.038,0,7.976,1.231,11.357,3.593c4.358,3.044,7.27,7.603,8.199,12.838    C411.418,427.706,410.254,432.989,407.21,437.348z" fill="#a3159d" data-original="#000000" class=""/>
	</g>
</g>
<g>
</g>
<g>
</g>
<g>
</g>
<g>
</g>
<g>
</g>
<g>
</g>
<g>
</g>
<g>
</g>
<g>
</g>
<g>
</g>
<g>
</g>
<g>
</g>
<g>
</g>
<g>
</g>
<g>
</g>
</g></svg>
