<?xml version="1.0"?>
<svg xmlns="http://www.w3.org/2000/svg" xmlns:xlink="http://www.w3.org/1999/xlink" xmlns:svgjs="http://svgjs.com/svgjs" version="1.1" width="512" height="512" x="0" y="0" viewBox="0 0 64 64" style="enable-background:new 0 0 512 512" xml:space="preserve" class=""><g><path d="m63.7266 30.3804c-.1328-.23-.3516-.3979-.6074-.4663l-.9697-.2598c-1.5203-.4079-3.0969-.1884-4.4298.5461-.149-1.0132-.3587-2.0063-.6215-2.9783 2.2466-1.2122 3.5117-3.7217 3.0571-6.3051l-.5195-2.96c-.0967-.5425-.6152-.9092-1.1543-.8125l-.998.1709c-1.5569.2802-2.8947 1.1494-3.789 2.3771-.5615-.8485-1.1712-1.6619-1.8256-2.437 1.5348-2.0403 1.6269-4.8539.1194-7.0202l-1.7197-2.4502c-.3154-.4497-.9346-.5596-1.3896-.2466l-.8203.5708c-1.3001.9048-2.1492 2.2572-2.441 3.7535-3.0566-1.8871-6.5316-3.1544-10.2505-3.6376l-.2654-1.7717 1.623-1.7095c.2549-.2681.3408-.6548.2236-1.0059-.1172-.3506-.4189-.6079-.7832-.6689l-2.2305-.373-1.0352-2.1328c-.334-.6895-1.4648-.6895-1.7988 0l-1.0352 2.1328-2.2305.373c-.3643.061-.666.3184-.7832.6689-.1172.3511-.0312.7378.2236 1.0059l1.623 1.7095-.2654 1.7717c-3.7189.4833-7.194 1.7505-10.2505 3.6376-.2918-1.4964-1.1409-2.8489-2.441-3.754l-.8203-.5703c-.4551-.314-1.0742-.2041-1.3896.2466l-1.7217 2.4536c-1.5057 2.1632-1.4134 4.9765.1214 7.0168-.6544.7752-1.2641 1.5886-1.8256 2.4372-.8948-1.2279-2.2343-2.0974-3.7968-2.3783l-.9902-.1699c-.541-.0957-1.0586.27-1.1543.8125l-.5186 2.9595c-.4554 2.5838.8096 5.0934 3.0562 6.3056-.2628.9718-.4724 1.9647-.6214 2.9777-1.3323-.735-2.9081-.955-4.4289-.5455l-.9707.2598c-.2559.0684-.4746.2363-.6074.4663s-.168.5029-.0996.7593l.7793 2.8965c.6791 2.5574 2.8865 4.2893 5.4366 4.4189.1755 1.0116.4077 2.0036.6968 2.9718-1.5102-.1008-3.0308.3645-4.2448 1.374l-.7705.6401c-.2051.1699-.333.4146-.3574.6792-.0234.2651.0586.5288.2305.7324l1.9287 2.2993c1.1797 1.4082 2.8672 2.1528 4.583 2.1528.7516 0 1.5072-.1496 2.2296-.4417.5826.8329 1.2114 1.6309 1.8851 2.3887-1.4292.5463-2.6157 1.6171-3.2728 3.0466l-.4307.8999c-.1152.2407-.1289.5176-.0391.7686.0898.2515.2764.4565.5186.5693l2.7217 1.2705c.8242.3828 1.6924.5664 2.5488.5664 1.6265 0 3.2039-.6701 4.351-1.8891.8726.5077 1.7755.9681 2.7084 1.3734-1.0551 1.1036-1.6766 2.5728-1.6766 4.1427v1c0 .5522.4473 1 1 1h3c2.6345 0 4.8859-1.6819 5.6813-4.1088.7645.0679 1.5368.1088 2.3187.1088s1.5542-.0409 2.3187-.1088c.7954 2.4269 3.0468 4.1088 5.6813 4.1088h3c.5527 0 1-.4478 1-1v-1c0-1.5699-.6214-3.039-1.6765-4.1427.9329-.4052 1.8357-.8657 2.7083-1.3734 1.147 1.2189 2.7238 1.8891 4.3511 1.8891.8564 0 1.7256-.1841 2.5498-.5669l2.7207-1.27c.2422-.1128.4287-.3179.5186-.5693.0898-.251.0762-.5278-.0391-.7686l-.4248-.8857c-.6613-1.4398-1.8492-2.5135-3.2789-3.0605.6738-.7579 1.3026-1.556 1.8853-2.389.7224.2921 1.478.4417 2.2296.4417 1.7158 0 3.4033-.7446 4.582-2.1523l1.9297-2.2998c.1719-.2036.2539-.4673.2305-.7324-.0244-.2646-.1523-.5093-.3574-.6792l-.7695-.6401c-1.2144-1.0093-2.7358-1.4747-4.2457-1.374.2891-.9682.5212-1.9601.6967-2.9717 2.5501-.1296 4.7574-1.8613 5.4357-4.4155l.7803-2.8999c.0684-.2563.0332-.5293-.0996-.7593zm-5.8975-11.0947.0088-.0015.3477 1.979c.2791 1.5861-.4216 3.1245-1.7032 3.9908-.4484-1.2513-.9869-2.46-1.6136-3.6147.5238-1.2236 1.6252-2.1133 2.9603-2.3536zm-8.6279-9.5342.0029-.0024 1.1455 1.6323c.9271 1.3319.9379 3.0296.1323 4.3531-.9252-.936-1.919-1.8036-2.9762-2.5916-.0469-1.3396.5765-2.6132 1.6955-3.3915zm-18.2969-5.1675c.3193-.0532.5928-.2583.7344-.5498l.3613-.7441.3613.7441c.1416.2915.415.4966.7344.5498l.8828.1475-.6631.6992c-.2129.2231-.3096.5317-.2646.8364l.1367.9116-.7158-.3833c-.1475-.0786-.3096-.1182-.4717-.1182s-.3242.0396-.4717.1182l-.7158.3833.1367-.9116c.0449-.3047-.0518-.6133-.2646-.8364l-.6631-.6992zm-17.2559 6.8008 1.1475-1.6357.0029.002c1.119.7787 1.7424 2.0524 1.6955 3.392-1.0572.788-2.051 1.6556-2.9762 2.5916-.8057-1.3234-.7952-3.0206.1303-4.3497zm-7.833 9.8779.3467-1.979.001.0005c1.3423.2416 2.4443 1.1315 2.9681 2.355-.6266 1.1547-1.1652 2.3633-1.6135 3.6147-1.2816-.8663-1.9822-2.4047-1.7023-3.9912zm-2.9297 12.2573-.5205-1.9331.0049-.001c1.3088-.3522 2.6802-.011 3.6788.8801-.0297.5079-.049 1.0187-.049 1.5339 0 .8151.0425 1.6202.1163 2.4164-1.5113-.2397-2.8206-1.3521-3.2305-2.8964zm2.5195 12.3472-1.2832-1.5303c1.0516-.8737 2.4437-1.1443 3.7142-.7582.4899 1.2314 1.0699 2.4168 1.7344 3.5479-1.487.4374-3.1208-.0148-4.1654-1.2594zm7.5078 10.1265-1.8057-.8428.001-.0034c.5687-1.2371 1.7202-2.0714 3.0555-2.2561.956.9031 1.9786 1.7354 3.0624 2.4867-1.1696 1.0189-2.8434 1.2988-4.3133.6156zm11.0869 6.0063h-2c0-1.3472.6824-2.587 1.7975-3.3334 1.2414.4139 2.5232.7367 3.8393.9601-.6248 1.4153-2.018 2.3733-3.6368 2.3733zm5.1047-4.1808c-.0065-.0012-.0113-.0056-.0178-.0067-.0091-.0015-.0174.0022-.0265.001-11.8509-1.4549-21.0604-11.5758-21.0604-23.8135 0-13.2334 10.7666-24 24-24s24 10.7666 24 24c0 12.2375-9.2094 22.3585-21.0601 23.8135-.0092.0013-.0176-.0025-.0268-.001-.0065.001-.0114.0055-.0178.0067-.95.1148-1.9148.1808-2.8953.1808s-1.9453-.066-2.8953-.1808zm12.8953 4.1808h-2c-1.6188 0-3.0121-.958-3.6368-2.3733 1.3161-.2234 2.5979-.5462 3.8393-.9601 1.1152.7463 1.7975 1.9862 1.7975 3.3334zm10.8926-6.8491-1.8047.8423c-1.4691.684-3.1447.4039-4.3144-.6151 1.0839-.7514 2.1066-1.5837 3.0626-2.4869 1.3315.1841 2.4799 1.0157 3.0565 2.2596zm6.9854-10.814-1.2842 1.5308c-1.0422 1.2439-2.6765 1.6964-4.1643 1.2588.6644-1.1309 1.2443-2.3161 1.7341-3.5474 1.2726-.3859 2.6635-.1146 3.7144.7579zm1.2354-10.8135c-.4091 1.5414-1.7183 2.6494-3.2294 2.8909.0736-.7955.1161-1.5999.1161-2.4144 0-.5152-.0192-1.0258-.049-1.5337.9988-.8906 2.371-1.2322 3.6798-.8804l.0039.001-.5215 1.9365z" fill="#a3159d" data-original="#000000" class=""/><circle cx="22" cy="7" r="1" fill="#a3159d" data-original="#000000" class=""/><circle cx="42" cy="7" r="1" fill="#a3159d" data-original="#000000" class=""/><path d="m53 34c0-11.5796-9.4209-21-21-21s-21 9.4204-21 21 9.4209 21 21 21 21-9.4204 21-21zm-40 0c0-10.4766 8.5234-19 19-19s19 8.5234 19 19-8.5234 19-19 19-19-8.5234-19-19z" fill="#a3159d" data-original="#000000" class=""/><path d="m43 44c0-1.1813-.6921-2.1953-1.6868-2.6843l2.6642-7.318.0226.0023c1.6543 0 3-1.3457 3-3s-1.3457-3-3-3c-1.4514 0-2.6641 1.0361-2.9401 2.4073l-3.5569.5101-3.1656-5.06c.4083-.5126.6627-1.1527.6627-1.8575 0-1.6543-1.3457-3-3-3s-3 1.3457-3 3c0 .7048.2544 1.3449.6627 1.8575l-3.1656 5.06-3.5569-.5101c-.276-1.3713-1.4888-2.4073-2.9401-2.4073-1.6543 0-3 1.3457-3 3s1.3457 3 3 3l.0226-.0023 2.6642 7.318c-.9947.489-1.6868 1.503-1.6868 2.6843 0 1.6543 1.3457 3 3 3h16c1.6543 0 3-1.3457 3-3zm1-14c.5518 0 1 .4487 1 1s-.4482 1-1 1-1-.4487-1-1 .4482-1 1-1zm-12-7c.5518 0 1 .4487 1 1s-.4482 1-1 1-1-.4487-1-1 .4482-1 1-1zm-13 8c0-.5513.4482-1 1-1s1 .4487 1 1-.4482 1-1 1-1-.4487-1-1zm3.6451 1.3852 4.2133.6046c.0469.0068.0947.0103.1416.0103.3418 0 .6631-.1748.8477-.4697l3.5056-5.6046c.2089.0462.4242.0743.6467.0743s.4379-.0281.6467-.0743l3.5056 5.6046c.1846.2949.5059.4697.8477.4697.0469 0 .0947-.0034.1416-.0103l4.2133-.6046c.1868.355.4399.6652.7469.9186l-2.8021 7.6962h-14.5996l-2.8021-7.6962c.3071-.2535.5602-.5636.747-.9186zm.3549 11.6148c0-.5513.4482-1 1-1h16c.5518 0 1 .4487 1 1s-.4482 1-1 1h-16c-.5518 0-1-.4487-1-1z" fill="#a3159d" data-original="#000000" class=""/></g></svg>
