<?xml version="1.0"?>
<svg xmlns="http://www.w3.org/2000/svg" xmlns:xlink="http://www.w3.org/1999/xlink" xmlns:svgjs="http://svgjs.com/svgjs" version="1.1" width="512" height="512" x="0" y="0" viewBox="0 0 64 64" style="enable-background:new 0 0 512 512" xml:space="preserve" class=""><g><g id="Medal"><path d="M57.0244,57.6646,49.7959,38.6592a6.1888,6.1888,0,0,0,1.8252-1.666,6.0858,6.0858,0,0,0,.9756-5.086,4.1352,4.1352,0,0,1,1.3926-4.1884,6.1012,6.1012,0,0,0-.0118-9.4468A4.1349,4.1349,0,0,1,52.6,14.0811a6.0808,6.0808,0,0,0-.9785-5.0748,6.237,6.237,0,0,0-4.6484-2.5571,4.2529,4.2529,0,0,1-3.6358-2.5971A6.189,6.189,0,0,0,39.5107.312a6.2889,6.2889,0,0,0-5.2578.626,4.3222,4.3222,0,0,1-4.5068,0A6.2886,6.2886,0,0,0,24.4883.312a6.19,6.19,0,0,0-3.8252,3.54A4.2561,4.2561,0,0,1,17.0176,6.45a6.23,6.23,0,0,0-4.6387,2.5571,6.0858,6.0858,0,0,0-.9756,5.086,4.1355,4.1355,0,0,1-1.3926,4.1885,6.1011,6.1011,0,0,0,.0118,9.4467A4.1349,4.1349,0,0,1,11.4,31.9189a6.0808,6.0808,0,0,0,.9785,5.0748,6.1887,6.1887,0,0,0,1.8254,1.6649L6.9756,57.6646A.9994.9994,0,0,0,8.248,58.9609l7.8731-2.83,4.001,7.3471A.9994.9994,0,0,0,21,64c.0225,0,.0449-.001.0674-.0024a1,1,0,0,0,.8672-.6421l6.7675-17.784a6.2959,6.2959,0,0,0,1.045-.51,4.3226,4.3226,0,0,1,4.5058,0l.001.0005a6.2859,6.2859,0,0,0,1.0415.5026l6.77,17.79a1,1,0,0,0,.8672.6421c.0225.0014.0449.0024.0674.0024a.9994.9994,0,0,0,.8779-.522l4.001-7.3471,7.8731,2.83a.9994.9994,0,0,0,1.2724-1.2963ZM20.8389,60.6123l-3.3711-6.19a1.0005,1.0005,0,0,0-1.2158-.4629L9.6172,56.3438l6.4441-16.9422a6.38,6.38,0,0,0,.966.1492,4.2529,4.2529,0,0,1,3.6358,2.5971,6.189,6.189,0,0,0,3.8262,3.54,6.3213,6.3213,0,0,0,1.9124.3058ZM28.6953,43.36a4.286,4.286,0,0,1-3.5869.4262,4.193,4.193,0,0,1-2.5938-2.3955,6.2686,6.2686,0,0,0-5.3613-3.8359,4.2372,4.2372,0,0,1-3.1553-1.7359,4.0894,4.0894,0,0,1-.6552-3.42,6.1465,6.1465,0,0,0-2.0586-6.2221,4.1017,4.1017,0,0,1,.0117-6.3628A6.1458,6.1458,0,0,0,13.34,13.59a4.084,4.084,0,0,1,.6582-3.4091,4.2439,4.2439,0,0,1,3.1661-1.7364,6.2651,6.2651,0,0,0,5.3505-3.8354,4.1886,4.1886,0,0,1,2.5938-2.395,4.291,4.291,0,0,1,3.5879.4262,6.34,6.34,0,0,0,6.6084,0,4.29,4.29,0,0,1,3.5869-.4262,4.193,4.193,0,0,1,2.5938,2.3955,6.2686,6.2686,0,0,0,5.3613,3.8359,4.2376,4.2376,0,0,1,3.1553,1.7359,4.0891,4.0891,0,0,1,.6552,3.42,6.1465,6.1465,0,0,0,2.0586,6.2221,4.1017,4.1017,0,0,1-.0117,6.3628A6.1458,6.1458,0,0,0,50.66,32.41a4.0837,4.0837,0,0,1-.6582,3.4091,4.2435,4.2435,0,0,1-3.1661,1.7364,6.2651,6.2651,0,0,0-5.3505,3.8354,4.1886,4.1886,0,0,1-2.5938,2.395,4.2823,4.2823,0,0,1-3.5879-.4262A6.34,6.34,0,0,0,28.6953,43.36ZM47.748,53.959a1,1,0,0,0-1.2158.4629l-3.3711,6.19L37.5991,45.996a6.325,6.325,0,0,0,1.9116-.3075,6.1926,6.1926,0,0,0,3.8272-3.5406A4.2526,4.2526,0,0,1,46.9824,39.55a6.3229,6.3229,0,0,0,.9567-.1478l6.4437,16.9413Z" fill="#a3159d" data-original="#000000" class=""/><path d="M47,23A15,15,0,1,0,32,38,15.0167,15.0167,0,0,0,47,23ZM32,36A13,13,0,1,1,45,23,13.0147,13.0147,0,0,1,32,36Z" fill="#a3159d" data-original="#000000" class=""/><path d="M39.9531,19.6841l-4.876-.7085-2.1806-4.418a1.0409,1.0409,0,0,0-1.793,0l-2.1806,4.418-4.876.7085a1,1,0,0,0-.5547,1.706l3.5293,3.439-.833,4.856a1,1,0,0,0,1.45,1.0542L32,28.4468l4.3613,2.2925a1,1,0,0,0,1.45-1.0542l-.833-4.856,3.5293-3.439a1,1,0,0,0-.5547-1.706Zm-4.747,4.08a1.0012,1.0012,0,0,0-.2872.8852l.5791,3.377-3.0332-1.5943a.9991.9991,0,0,0-.93,0L28.502,28.0259l.5791-3.377a1.0012,1.0012,0,0,0-.2872-.8852L26.34,21.3721l3.3907-.4927a.999.999,0,0,0,.7529-.5474L32,17.26l1.5166,3.0722a.999.999,0,0,0,.7529.5474l3.3907.4927Z" fill="#a3159d" data-original="#000000" class=""/></g></g></svg>
