<svg xmlns="http://www.w3.org/2000/svg" width="217.615" height="64.053" viewBox="0 0 217.615 64.053">
  <g id="Group_85" data-name="Group 85" transform="translate(-25.459 -17.799)">
    <g id="Group_80" data-name="Group 80">
      <rect id="Rectangle_46" data-name="Rectangle 46" width="216" height="62.438" rx="7.382" transform="translate(26.267 18.606)"/>
      <path id="Path_91" data-name="Path 91" d="M234.884,81.852H33.649a8.2,8.2,0,0,1-8.19-8.19V25.989a8.2,8.2,0,0,1,8.19-8.19H234.884a8.2,8.2,0,0,1,8.19,8.19V73.662A8.2,8.2,0,0,1,234.884,81.852ZM33.649,19.414a6.582,6.582,0,0,0-6.575,6.575V73.662a6.582,6.582,0,0,0,6.575,6.574H234.884a6.582,6.582,0,0,0,6.575-6.574V25.989a6.582,6.582,0,0,0-6.575-6.575Z" fill="#96999c"/>
    </g>
    <g id="Group_81" data-name="Group 81">
      <path id="Path_92" data-name="Path 92" d="M97.908,36.014,97,38.995H95.02l3.372-10.521h2.45l3.419,10.521H102.2l-.952-2.981Zm3.013-1.452-.828-2.591c-.2-.64-.375-1.358-.531-1.967h-.031c-.156.609-.312,1.342-.5,1.967l-.811,2.591Z" fill="#fff"/>
      <path id="Path_93" data-name="Path 93" d="M107.131,31.393l1.232,3.856c.219.671.375,1.28.516,1.9h.047c.14-.624.312-1.217.515-1.9l1.217-3.856h2.014l-2.9,7.6H107.88l-2.826-7.6Z" fill="#fff"/>
      <path id="Path_94" data-name="Path 94" d="M120.334,37.169a10.219,10.219,0,0,0,.125,1.826h-1.733l-.14-.843h-.047a2.778,2.778,0,0,1-2.248,1.015A2.256,2.256,0,0,1,113.9,36.9c0-1.9,1.7-2.887,4.511-2.872v-.125c0-.5-.2-1.326-1.545-1.326a4.015,4.015,0,0,0-2.045.562l-.375-1.249a5.471,5.471,0,0,1,2.748-.671c2.435,0,3.137,1.545,3.137,3.215Zm-1.873-1.889c-1.358-.016-2.654.265-2.654,1.421a1.007,1.007,0,0,0,1.093,1.092,1.577,1.577,0,0,0,1.514-1.046,1.289,1.289,0,0,0,.047-.421Z" fill="#fff"/>
      <path id="Path_95" data-name="Path 95" d="M124,30.3a1.086,1.086,0,1,1,.016,0Zm-.952,8.695v-7.6h1.92v7.6Z" fill="#fff"/>
      <path id="Path_96" data-name="Path 96" d="M127.73,27.9h1.92v11.1h-1.92Z" fill="#fff"/>
      <path id="Path_97" data-name="Path 97" d="M138.328,37.169a10.324,10.324,0,0,0,.124,1.826h-1.733l-.14-.843h-.047a2.777,2.777,0,0,1-2.248,1.015A2.257,2.257,0,0,1,131.9,36.9c0-1.9,1.7-2.887,4.511-2.872v-.125c0-.5-.2-1.326-1.545-1.326a4.015,4.015,0,0,0-2.045.562l-.374-1.249a5.466,5.466,0,0,1,2.747-.671c2.435,0,3.138,1.545,3.138,3.215Zm-1.874-1.889c-1.358-.016-2.653.265-2.653,1.421a1.007,1.007,0,0,0,1.092,1.092,1.577,1.577,0,0,0,1.514-1.046,1.289,1.289,0,0,0,.047-.421Z" fill="#fff"/>
      <path id="Path_98" data-name="Path 98" d="M141.042,27.9h1.92v4.543h.031a2.752,2.752,0,0,1,2.435-1.217c1.858,0,3.184,1.545,3.168,3.855,0,2.732-1.732,4.09-3.449,4.09a2.617,2.617,0,0,1-2.4-1.312h-.031l-.094,1.14h-1.639c.031-.515.063-1.358.063-2.123Zm1.92,7.961a2.128,2.128,0,0,0,.046.453,1.755,1.755,0,0,0,1.7,1.343c1.2,0,1.935-.952,1.935-2.5,0-1.342-.64-2.435-1.92-2.435a1.784,1.784,0,0,0-1.7,1.4,2.3,2.3,0,0,0-.062.5Z" fill="#fff"/>
      <path id="Path_99" data-name="Path 99" d="M150.857,27.9h1.92v11.1h-1.92Z" fill="#fff"/>
      <path id="Path_100" data-name="Path 100" d="M156.913,35.733a2.065,2.065,0,0,0,2.341,1.967,6.121,6.121,0,0,0,2.107-.344l.281,1.311a6.823,6.823,0,0,1-2.653.484,3.6,3.6,0,0,1-3.919-3.84c0-2.107,1.28-4.089,3.716-4.089,2.466,0,3.277,2.029,3.277,3.7a4.9,4.9,0,0,1-.061.812Zm3.34-1.343a1.634,1.634,0,0,0-1.577-1.857,1.878,1.878,0,0,0-1.763,1.857Z" fill="#fff"/>
      <path id="Path_101" data-name="Path 101" d="M171.536,39.167a3.676,3.676,0,0,1-3.81-3.918,3.754,3.754,0,0,1,3.935-4.027,3.647,3.647,0,0,1,3.777,3.9,3.763,3.763,0,0,1-3.887,4.043Zm.062-1.39c1.092,0,1.858-1.061,1.858-2.606,0-1.187-.532-2.56-1.842-2.56-1.359,0-1.9,1.327-1.9,2.591,0,1.467.734,2.575,1.874,2.575Z" fill="#fff"/>
      <path id="Path_102" data-name="Path 102" d="M177.7,33.657c0-.875-.031-1.608-.063-2.264h1.67l.094,1.14h.047a2.79,2.79,0,0,1,2.435-1.311c1.327,0,2.7.858,2.7,3.262v4.511h-1.92V34.7c0-1.093-.407-1.921-1.452-1.921a1.611,1.611,0,0,0-1.5,1.124,1.771,1.771,0,0,0-.094.609v4.48H177.7Z" fill="#fff"/>
      <path id="Path_103" data-name="Path 103" d="M193.429,29.442v1.951h1.826v1.436h-1.826V36.17c0,.936.25,1.405.984,1.405a2.521,2.521,0,0,0,.749-.078l.031,1.451a4.194,4.194,0,0,1-1.39.2,2.2,2.2,0,0,1-1.654-.624,2.994,2.994,0,0,1-.608-2.139V32.829h-1.078V31.393h1.078v-1.42Z" fill="#fff"/>
      <path id="Path_104" data-name="Path 104" d="M197.393,27.9h1.92v4.527h.031a2.534,2.534,0,0,1,.952-.858,2.705,2.705,0,0,1,1.328-.343c1.3,0,2.653.858,2.653,3.293v4.48h-1.92V34.718c0-1.093-.406-1.936-1.468-1.936a1.6,1.6,0,0,0-1.5,1.077,1.739,1.739,0,0,0-.078.578v4.558h-1.92Z" fill="#fff"/>
      <path id="Path_105" data-name="Path 105" d="M208.364,35.733a2.065,2.065,0,0,0,2.341,1.967,6.121,6.121,0,0,0,2.107-.344l.281,1.311a6.823,6.823,0,0,1-2.653.484,3.6,3.6,0,0,1-3.919-3.84c0-2.107,1.28-4.089,3.716-4.089,2.466,0,3.277,2.029,3.277,3.7a4.9,4.9,0,0,1-.061.812Zm3.34-1.343a1.634,1.634,0,0,0-1.576-1.857,1.878,1.878,0,0,0-1.764,1.857Z" fill="#fff"/>
    </g>
    <g id="Group_84" data-name="Group 84">
      <g id="Group_82" data-name="Group 82">
        <path id="Path_106" data-name="Path 106" d="M74.025,49.2a9.362,9.362,0,0,1,4.46-7.858,9.588,9.588,0,0,0-7.555-4.086c-3.178-.333-6.261,1.9-7.877,1.9-1.651,0-4.149-1.871-6.833-1.817a10.063,10.063,0,0,0-8.466,5.165c-3.66,6.338-.93,15.652,2.576,20.778,1.755,2.508,3.806,5.31,6.489,5.21,2.625-.109,3.6-1.672,6.774-1.672,3.141,0,4.062,1.672,6.8,1.609,2.817-.046,4.59-2.521,6.282-5.053a20.616,20.616,0,0,0,2.876-5.854A9.048,9.048,0,0,1,74.025,49.2" fill="#fff"/>
        <path id="Path_107" data-name="Path 107" d="M68.853,33.887a9.2,9.2,0,0,0,2.109-6.607,9.372,9.372,0,0,0-6.068,3.141,8.767,8.767,0,0,0-2.167,6.363,7.76,7.76,0,0,0,6.126-2.9" fill="#fff"/>
      </g>
      <g id="Group_83" data-name="Group 83">
        <path id="Path_108" data-name="Path 108" d="M111.969,68.083h-3.656l-2.005-6.3H99.345l-1.91,6.3H93.873l6.9-21.438h4.258Zm-6.263-8.941-1.811-5.6q-.291-.855-1.083-4.037h-.063q-.319,1.369-1.02,4.037l-1.781,5.6Z" fill="#fff"/>
        <path id="Path_109" data-name="Path 109" d="M129.718,60.162a8.789,8.789,0,0,1-2.131,6.235,6.231,6.231,0,0,1-4.737,2.034,4.746,4.746,0,0,1-4.392-2.195h-.06v8.142H114.96V57.712q0-2.48-.126-5.088h3.02l.192,2.45h.065a6.108,6.108,0,0,1,9.779-.6,8.523,8.523,0,0,1,1.828,5.692m-3.5.126a6.375,6.375,0,0,0-1.018-3.721,3.519,3.519,0,0,0-2.988-1.528,3.567,3.567,0,0,0-2.306.843,3.921,3.921,0,0,0-1.353,2.214,4.479,4.479,0,0,0-.157,1.046v2.579a4.126,4.126,0,0,0,1.029,2.845,3.429,3.429,0,0,0,2.69,1.16,3.5,3.5,0,0,0,3.02-1.493,6.564,6.564,0,0,0,1.083-3.945" fill="#fff"/>
        <path id="Path_110" data-name="Path 110" d="M147.5,60.162a8.785,8.785,0,0,1-2.132,6.235,6.227,6.227,0,0,1-4.738,2.034,4.74,4.74,0,0,1-4.387-2.195h-.064v8.142h-3.434V57.712q0-2.48-.127-5.088h3.02l.192,2.45h.066a6.107,6.107,0,0,1,9.778-.6,8.528,8.528,0,0,1,1.826,5.692m-3.5.126a6.361,6.361,0,0,0-1.02-3.721,3.517,3.517,0,0,0-2.988-1.528,3.575,3.575,0,0,0-2.307.843,3.915,3.915,0,0,0-1.349,2.214,4.31,4.31,0,0,0-.161,1.046v2.579a4.114,4.114,0,0,0,1.032,2.845,3.419,3.419,0,0,0,2.69,1.16,3.507,3.507,0,0,0,3.02-1.493A6.6,6.6,0,0,0,144,60.288" fill="#fff"/>
        <path id="Path_111" data-name="Path 111" d="M167.376,62.07a5.706,5.706,0,0,1-1.906,4.453,8.429,8.429,0,0,1-5.837,1.876,10.248,10.248,0,0,1-5.558-1.334l.8-2.863a9.419,9.419,0,0,0,4.967,1.366,4.7,4.7,0,0,0,3.024-.873,2.869,2.869,0,0,0,1.079-2.343,3,3,0,0,0-.889-2.2A8.289,8.289,0,0,0,160.09,58.5q-5.629-2.1-5.627-6.149a5.434,5.434,0,0,1,1.972-4.331,7.783,7.783,0,0,1,5.248-1.692,10.412,10.412,0,0,1,4.865,1.019l-.857,2.8a8.475,8.475,0,0,0-4.1-.985,4.148,4.148,0,0,0-2.829.89,2.556,2.556,0,0,0-.857,1.94,2.614,2.614,0,0,0,.984,2.1A11.077,11.077,0,0,0,162,55.742a10.582,10.582,0,0,1,4.071,2.607,5.464,5.464,0,0,1,1.3,3.721" fill="#fff"/>
        <path id="Path_112" data-name="Path 112" d="M178.73,55.2h-3.785v7.506q0,2.863,2.006,2.862a6.237,6.237,0,0,0,1.524-.157l.094,2.607a7.713,7.713,0,0,1-2.669.381,4.116,4.116,0,0,1-3.181-1.238,6.093,6.093,0,0,1-1.145-4.168V55.2h-2.259V52.622h2.259V49.793l3.371-1.019v3.848h3.785Z" fill="#fff"/>
        <path id="Path_113" data-name="Path 113" d="M195.811,60.226a8.477,8.477,0,0,1-2.035,5.853,7.27,7.27,0,0,1-5.661,2.352,6.909,6.909,0,0,1-5.423-2.259,8.208,8.208,0,0,1-2.02-5.689,8.391,8.391,0,0,1,2.083-5.885,7.2,7.2,0,0,1,5.612-2.292,7.067,7.067,0,0,1,5.472,2.258,8.148,8.148,0,0,1,1.972,5.662m-3.564.111a6.961,6.961,0,0,0-.923-3.668,3.391,3.391,0,0,0-3.082-1.85,3.442,3.442,0,0,0-3.15,1.85,7.1,7.1,0,0,0-.919,3.734,6.956,6.956,0,0,0,.919,3.666,3.464,3.464,0,0,0,3.12,1.849,3.427,3.427,0,0,0,3.081-1.881,6.962,6.962,0,0,0,.954-3.7" fill="#fff"/>
        <path id="Path_114" data-name="Path 114" d="M206.973,55.644a6.185,6.185,0,0,0-1.08-.094,3.261,3.261,0,0,0-2.8,1.369,5.161,5.161,0,0,0-.857,3.052v8.11H198.8l.029-10.589q0-2.673-.126-4.868H201.7l.126,2.96h.092a5.3,5.3,0,0,1,1.719-2.45,4.157,4.157,0,0,1,2.483-.828,5.656,5.656,0,0,1,.857.061Z" fill="#fff"/>
        <path id="Path_115" data-name="Path 115" d="M222.333,59.621a8.283,8.283,0,0,1-.124,1.559h-10.3a4.49,4.49,0,0,0,1.493,3.5,5.1,5.1,0,0,0,3.373,1.078,11.415,11.415,0,0,0,4.165-.73l.539,2.386a12.918,12.918,0,0,1-5.185.956,7.5,7.5,0,0,1-5.645-2.117,7.822,7.822,0,0,1-2.051-5.678,8.861,8.861,0,0,1,1.911-5.822,6.577,6.577,0,0,1,5.4-2.478,5.769,5.769,0,0,1,5.063,2.478,8.372,8.372,0,0,1,1.361,4.868m-3.275-.891a4.653,4.653,0,0,0-.665-2.639,3.007,3.007,0,0,0-2.739-1.432,3.267,3.267,0,0,0-2.733,1.4,5.088,5.088,0,0,0-1.015,2.671Z" fill="#fff"/>
      </g>
    </g>
  </g>
</svg>
