<svg xmlns="http://www.w3.org/2000/svg" xmlns:xlink="http://www.w3.org/1999/xlink" width="217.615" height="64.053" viewBox="0 0 217.615 64.053">
  <defs>
    <linearGradient id="linear-gradient" x1="0.808" y1="0.5" x2="-1.573" y2="0.5" gradientUnits="objectBoundingBox">
      <stop offset="0" stop-color="gold"/>
      <stop offset="0.075" stop-color="#fece00"/>
      <stop offset="0.48" stop-color="#fca704"/>
      <stop offset="0.803" stop-color="#fa8e07"/>
      <stop offset="1" stop-color="#fa8608"/>
    </linearGradient>
    <linearGradient id="linear-gradient-2" x1="0.862" y1="0.178" x2="-0.501" y2="1.948" gradientUnits="objectBoundingBox">
      <stop offset="0" stop-color="#e82b36"/>
      <stop offset="1" stop-color="#b4005a"/>
    </linearGradient>
    <linearGradient id="linear-gradient-3" x1="-0.508" y1="-0.956" x2="0.606" y2="0.489" gradientUnits="objectBoundingBox">
      <stop offset="0" stop-color="#2f8e5b"/>
      <stop offset="0.39" stop-color="#4ea157"/>
      <stop offset="0.768" stop-color="#67b054"/>
      <stop offset="1" stop-color="#70b653"/>
    </linearGradient>
  </defs>
  <g id="Group_79" data-name="Group 79" transform="translate(13.788 -129.022)">
    <g id="Group_75" data-name="Group 75">
      <rect id="Rectangle_45" data-name="Rectangle 45" width="216" height="62.438" rx="7.382" transform="translate(-12.98 129.831)"/>
      <path id="Path_78" data-name="Path 78" d="M195.638,193.075H-5.6a8.2,8.2,0,0,1-8.19-8.189V137.213a8.2,8.2,0,0,1,8.19-8.191H195.638a8.2,8.2,0,0,1,8.189,8.191v47.673A8.2,8.2,0,0,1,195.638,193.075ZM-5.6,130.638a6.582,6.582,0,0,0-6.574,6.575v47.673A6.581,6.581,0,0,0-5.6,191.46H195.638a6.581,6.581,0,0,0,6.574-6.574V137.213a6.582,6.582,0,0,0-6.574-6.575Z" fill="#96999c"/>
    </g>
    <g id="Group_77" data-name="Group 77">
      <path id="Path_79" data-name="Path 79" d="M95.988,164.052a6.841,6.841,0,1,0,6.867,6.84A6.742,6.742,0,0,0,95.988,164.052Zm0,10.986a4.156,4.156,0,1,1,3.861-4.146A3.957,3.957,0,0,1,95.988,175.038ZM81.009,164.052a6.841,6.841,0,1,0,6.866,6.84A6.743,6.743,0,0,0,81.009,164.052Zm0,10.986a4.156,4.156,0,1,1,3.86-4.146A3.957,3.957,0,0,1,81.009,175.038ZM63.19,166.151v2.9h6.944a6.054,6.054,0,0,1-1.58,3.653,7.11,7.11,0,0,1-5.364,2.125,7.722,7.722,0,0,1,0-15.443,7.4,7.4,0,0,1,5.234,2.073l2.047-2.047a10.12,10.12,0,0,0-7.281-2.929,10.625,10.625,0,1,0,0,21.248,9.712,9.712,0,0,0,7.411-2.98,9.59,9.59,0,0,0,2.513-6.789,9.43,9.43,0,0,0-.156-1.813Zm72.873,2.254a6.357,6.357,0,0,0-5.856-4.353,6.5,6.5,0,0,0-6.452,6.84,6.694,6.694,0,0,0,6.789,6.841,6.8,6.8,0,0,0,5.7-3.032l-2.332-1.554a3.906,3.906,0,0,1-3.368,1.891,3.478,3.478,0,0,1-3.317-2.073l9.147-3.783Zm-9.328,2.28a3.751,3.751,0,0,1,3.575-3.99,2.65,2.65,0,0,1,2.54,1.451Zm-7.437,6.633H122.3V157.211H119.3Zm-4.923-11.737h-.1a4.738,4.738,0,0,0-3.6-1.529,6.847,6.847,0,0,0,0,13.681,4.661,4.661,0,0,0,3.6-1.555h.1v.985c0,2.617-1.4,4.016-3.654,4.016a3.784,3.784,0,0,1-3.446-2.435l-2.617,1.088a6.517,6.517,0,0,0,6.063,4.042c3.524,0,6.5-2.073,6.5-7.126V164.466h-2.85Zm-3.447,9.457a4.16,4.16,0,0,1,0-8.291c2.047,0,3.654,1.762,3.654,4.171A3.823,3.823,0,0,1,110.928,175.038Zm39.214-17.827h-7.191v20.107h3V169.7h4.19a6.254,6.254,0,1,0,0-12.49Zm.078,9.691h-4.268V160.01h4.268a3.447,3.447,0,1,1,0,6.892Zm18.547-2.887a5.636,5.636,0,0,0-5.355,3.078l2.665,1.112a2.843,2.843,0,0,1,2.742-1.474c1.552,0,3.13.931,3.156,2.587v.207a6.637,6.637,0,0,0-3.13-.776c-2.872,0-5.795,1.578-5.795,4.526,0,2.691,2.354,4.424,4.993,4.424a4.234,4.234,0,0,0,3.828-1.966h.1v1.552h2.9v-7.709C174.872,166.007,172.207,164.015,168.767,164.015Zm-.362,11.019c-.983,0-2.354-.491-2.354-1.707,0-1.552,1.707-2.147,3.182-2.147a5.347,5.347,0,0,1,2.742.673A3.638,3.638,0,0,1,168.4,175.034Zm17.021-10.58-3.44,8.718h-.1l-3.57-8.718h-3.233l5.355,12.184-3.053,6.778h3.13l8.252-18.962Zm-27.032,12.864h3V157.211h-3Z" fill="#fff"/>
      <g id="Group_76" data-name="Group 76">
        <path id="Path_80" data-name="Path 80" d="M3.184,141.206a3.213,3.213,0,0,0-.744,2.258v35.541a3.215,3.215,0,0,0,.744,2.258l.118.116,19.91-19.91V161L3.3,141.09Z" fill="#40bff2"/>
        <path id="Path_81" data-name="Path 81" d="M29.848,168.109l-6.636-6.64V161l6.638-6.639.15.086,7.863,4.467c2.245,1.276,2.245,3.365,0,4.641L30,168.022Z" fill="url(#linear-gradient)"/>
        <path id="Path_82" data-name="Path 82" d="M30,168.022l-6.787-6.788L3.184,181.263c.74.784,1.962.881,3.339.1L30,168.022" fill="url(#linear-gradient-2)"/>
        <path id="Path_83" data-name="Path 83" d="M30,154.447,6.523,141.107c-1.377-.782-2.6-.685-3.339.1l20.028,20.028Z" fill="url(#linear-gradient-3)"/>
      </g>
    </g>
    <g id="Group_78" data-name="Group 78">
      <path id="Path_84" data-name="Path 84" d="M60.138,142.343a3.439,3.439,0,0,0-2.28-.879,3.635,3.635,0,0,0,0,7.265,2.744,2.744,0,0,0,3.021-2.555H58.188v-1.112h4.147c0,3.324-1.772,4.889-4.477,4.889a4.856,4.856,0,0,1,0-9.71,4.681,4.681,0,0,1,3.2,1.25Z" fill="#fff"/>
      <path id="Path_85" data-name="Path 85" d="M69.684,140.352v1.194H65.358v3.021h3.777v1.2H65.358v2.856h4.463v1.194h-5.74v-9.461Z" fill="#fff"/>
      <path id="Path_86" data-name="Path 86" d="M77.966,140.352v1.208H75.1v8.253H73.805V141.56H70.934v-1.208Z" fill="#fff"/>
      <path id="Path_87" data-name="Path 87" d="M84.093,140.352v9.461H82.816v-9.461Z" fill="#fff"/>
      <path id="Path_88" data-name="Path 88" d="M92.8,140.352v1.208H89.93v8.253H88.639V141.56H85.768v-1.208Z" fill="#fff"/>
      <path id="Path_89" data-name="Path 89" d="M101.81,140.241a4.856,4.856,0,1,1-4.779,4.863A4.8,4.8,0,0,1,101.81,140.241Zm0,8.474a3.62,3.62,0,1,0-3.5-3.611A3.527,3.527,0,0,0,101.81,148.715Z" fill="#fff"/>
      <path id="Path_90" data-name="Path 90" d="M114.172,149.813l-4.312-7.126v7.126h-1.277v-9.461h1.264l4.27,7.072v-7.072h1.277v9.461Z" fill="#fff"/>
    </g>
  </g>
</svg>
