<svg id="Layer_1" data-name="Layer 1" xmlns="http://www.w3.org/2000/svg" viewBox="0 0 531.8908 531.8722"><defs><style>.cls-1{fill:#525149;}.cls-2{fill:#bcbc7f;}</style></defs><title>logoLCI-rounde-CMYK color</title><path class="cls-1" d="M263.0962,444.3629l-.0732-45.3876,5.8926-.0069.0654,39.4678A171.0622,171.0622,0,0,0,369.5435,131.2614c-75.0547-57.1084-182.5859-42.5156-239.71,32.5557-57.11,75.0673-42.5087,182.6,32.5586,239.7128a170.976,170.976,0,0,0,81.293,33.4981l-.7646,5.8428A176.9023,176.9023,0,0,1,158.82,408.2194C81.1734,349.1374,66.0679,237.9,125.149,160.2467,184.231,82.5983,295.47,67.4958,373.1167,126.568a176.965,176.965,0,0,1-107.0732,317.79Z"/><path class="cls-1" d="M265.9693,14.1442c139.0508,0,251.7793,112.7314,251.7793,251.7861S405.02,517.71,265.9693,517.71C126.9107,517.71,14.188,404.986,14.188,265.93S126.9107,14.1442,265.9693,14.1442m0-14.1436C119.3365.0006.0425,119.2936.0425,265.93c0,146.6328,119.294,265.9239,265.9268,265.9239S531.8921,412.5631,531.8921,265.93c0-146.6367-119.29-265.93-265.9228-265.93Z"/><path class="cls-1" d="M87.6646,186.4635a1.756,1.756,0,0,0-1.4824.0889,2.09,2.09,0,0,0-.9971,1.127L81.0835,198.18,60.53,190.1657a1.7411,1.7411,0,0,0-1.4853.082,2.1831,2.1831,0,0,0-1.0313,2.6348,1.7126,1.7126,0,0,0,1.0381,1.0674l22.3028,8.6992a1.7323,1.7323,0,0,0,.6513.1289,1.8187,1.8187,0,0,0,.834-.209,2.0385,2.0385,0,0,0,1.001-1.1328l4.831-12.3887a2.0623,2.0623,0,0,0,.0342-1.5068A1.8076,1.8076,0,0,0,87.6646,186.4635Z"/><path class="cls-1" d="M96.5669,155.9254a12.3349,12.3349,0,0,0-4.1318-3.6865,12.4918,12.4918,0,0,0-5.3291-1.5449,14.1028,14.1028,0,0,0-5.457.793,15.9491,15.9491,0,0,0-4.961,2.8759,17.21,17.21,0,0,0-5.8076,10.501,15.7362,15.7362,0,0,0,.2149,5.7149A14.3929,14.3929,0,0,0,73.3306,175.6a12.3413,12.3413,0,0,0,4.1406,3.6875,12.1615,12.1615,0,0,0,5.32,1.54c.26.0156.5214.0215.7841.0215a14.0337,14.0337,0,0,0,4.6475-.8037,16.1313,16.1313,0,0,0,4.9365-2.8575,16.91,16.91,0,0,0,3.8428-4.7275,16.6034,16.6034,0,0,0,1.958-5.77,15.997,15.997,0,0,0-.1846-5.7217A13.88,13.88,0,0,0,96.5669,155.9254ZM83.272,176.8405a9.1176,9.1176,0,0,1-6.8164-3.7627,10.3038,10.3038,0,0,1-1.6523-3.6719,11.4834,11.4834,0,0,1-.1465-4.2109A12.7508,12.7508,0,0,1,76.1275,160.9a12.5584,12.5584,0,0,1,2.85-3.5108,11.7084,11.7084,0,0,1,3.666-2.1426,10.0433,10.0433,0,0,1,3.3555-.58c.2051,0,.42.0058.6289.0214a8.805,8.805,0,0,1,3.8369,1.1143,8.9558,8.9558,0,0,1,2.9834,2.6553,9.8083,9.8083,0,0,1,1.6143,3.6679,11.8485,11.8485,0,0,1,.124,4.23,13.007,13.007,0,0,1-4.3223,7.8028,11.5111,11.5111,0,0,1-3.6347,2.1308A9.7174,9.7174,0,0,1,83.272,176.8405Z"/><path class="cls-1" d="M113.6265,131.4059l-12.499-9.8808a2.0964,2.0964,0,0,0-1.3164-.39,1.85,1.85,0,0,0-1.4453.7363,2.0294,2.0294,0,0,0-.4492,1.5694,1.8725,1.8725,0,0,0,.6572,1.2607l12.542,9.9024a5.1033,5.1033,0,0,1,1.4668,1.8574,6.2811,6.2811,0,0,1,.58,2.3545,7.8479,7.8479,0,0,1-.3222,2.5595,7.3738,7.3738,0,0,1-1.27,2.41,7.5694,7.5694,0,0,1-4.4746,2.7256,5.8873,5.8873,0,0,1-2.3955-.0527,5.1663,5.1663,0,0,1-2.1475-1.0254l-12.5-9.8623a2.0071,2.0071,0,0,0-1.3623-.43h-.0244a1.89,1.89,0,0,0-1.3789.7617,1.9347,1.9347,0,0,0-.4444,1.55,1.7919,1.7919,0,0,0,.65,1.2764l12.5391,9.9023a8.6532,8.6532,0,0,0,3.5586,1.6953,9.9479,9.9479,0,0,0,2.1474.2363,10.3968,10.3968,0,0,0,1.753-.1533,11.1992,11.1992,0,0,0,3.7783-1.4365,11.6879,11.6879,0,0,0,3.2422-2.8613,11.9479,11.9479,0,0,0,2.03-3.8155,11.41,11.41,0,0,0,.5175-4.0087,10.2256,10.2256,0,0,0-.959-3.7842A8.64,8.64,0,0,0,113.6265,131.4059Z"/><path class="cls-1" d="M124.8052,98.1452A1.7657,1.7657,0,0,0,123.45,97.58h-.01a2.1275,2.1275,0,0,0-1.4092.586,2.0416,2.0416,0,0,0-.6689,1.3486,1.7448,1.7448,0,0,0,.4726,1.417l12.25,13.0947-23.8769-3.539a3.5263,3.5263,0,0,0-.8926-.0157,1.88,1.88,0,0,0-1.0108.5469,2.1065,2.1065,0,0,0-.6816,1.3447,1.7731,1.7731,0,0,0,.4736,1.418L124.45,131.2585a1.771,1.771,0,0,0,1.3388.57h.0479a2.182,2.182,0,0,0,2.0635-1.9366,1.7351,1.7351,0,0,0-.4786-1.415l-12.2783-13.125,23.6787,3.502a3.7388,3.7388,0,0,0,.7481.0742l.2334-.0059a1.9378,1.9378,0,0,0,1.16-.5381,2.0844,2.0844,0,0,0,.67-1.3466,1.7173,1.7173,0,0,0-.4726-1.4122Zm.9834,33.083h0v0Z"/><path class="cls-1" d="M166.0416,87.2975l-.0743-.0869a1.383,1.383,0,0,0-.1406-.2881,1.897,1.897,0,0,0-2.7129-.4853l-7.043,4.66a2.1088,2.1088,0,0,0-.8984,1.2276,1.789,1.789,0,0,0,.2393,1.4619,1.7475,1.7475,0,0,0,1.2627.7851,1.979,1.979,0,0,0,1.4668-.3437l4.6338-3.0664a10.4039,10.4039,0,0,1-.0362,2.2314,10.5293,10.5293,0,0,1-.8721,3.0762,12.6574,12.6574,0,0,1-1.8134,2.8477,12.99,12.99,0,0,1-6.8233,4.1718,11.6868,11.6868,0,0,1-4.2177.208,9.95,9.95,0,0,1-3.7666-1.332,9.1744,9.1744,0,0,1-4.3057-6.4883,10.3842,10.3842,0,0,1,.2266-4.0185,11.1247,11.1247,0,0,1,1.8222-3.8086,12.6365,12.6365,0,0,1,3.2695-3.1221,12.3808,12.3808,0,0,1,4.4854-1.78,13.69,13.69,0,0,1,5.5186.1846,2.1511,2.1511,0,0,0,1.0839.0332,2.7049,2.7049,0,0,0,.8184-.3525,1.9553,1.9553,0,0,0,.8848-1.2774,1.7394,1.7394,0,0,0-.2207-1.3047,2.1213,2.1213,0,0,0-1.0743-.791,15.092,15.092,0,0,0-6.7539-.4853,16.4236,16.4236,0,0,0-6.8076,2.6425,16.9416,16.9416,0,0,0-4.415,4.2149,15.9036,15.9036,0,0,0-2.4414,5.1719,14.1272,14.1272,0,0,0-.3262,5.4882,12.5211,12.5211,0,0,0,5.9668,9.0059,13.93,13.93,0,0,0,5.1777,1.81,14.97,14.97,0,0,0,2.1094.1475,16.3059,16.3059,0,0,0,3.5918-.4082,16.69,16.69,0,0,0,5.5889-2.415,17.0089,17.0089,0,0,0,3.9414-3.5948,16.48,16.48,0,0,0,2.52-4.3808,13.8782,13.8782,0,0,0,.9326-4.7725,12.8007,12.8007,0,0,0-.8008-4.7119Z"/><path class="cls-1" d="M191.2056,84.1842a2.0282,2.0282,0,0,0-1.5107.1143L178.6626,89.39l-3.5078-7.5938,7.1827-3.3125a2.0684,2.0684,0,0,0,1.0654-1.0586,1.7563,1.7563,0,0,0-.0059-1.498,1.79,1.79,0,0,0-1.1328-.9756,2.1187,2.1187,0,0,0-1.501.126l-7.1767,3.3115-3.3848-7.3262L181.23,65.9665a2.1148,2.1148,0,0,0,1.08-1.07,1.7607,1.7607,0,0,0-.0185-1.4864,1.7158,1.7158,0,0,0-1.1241-.9629,2.0429,2.0429,0,0,0-1.5088.1162L166.772,68.5114a2.1573,2.1573,0,0,0-1.0654,1.0723,1.7705,1.7705,0,0,0,.01,1.4824l10.0312,21.7314a1.7759,1.7759,0,0,0,1.1289.9737,2.0241,2.0241,0,0,0,.5967.0888,2.16,2.16,0,0,0,.9141-.2148L191.27,87.7028a2.0765,2.0765,0,0,0,1.0644-1.0625,1.75,1.75,0,0,0,0-1.4922A1.7091,1.7091,0,0,0,191.2056,84.1842Z"/><path class="cls-1" d="M230.9791,68.3981a1.6865,1.6865,0,0,0-1.4668-.249,2.7618,2.7618,0,0,0-.8467.3691,1.9782,1.9782,0,0,0-.669.6875,11.1058,11.1058,0,0,1-3.0234,3.1641,13.0163,13.0163,0,0,1-8.8438,2.2529,11.3729,11.3729,0,0,1-4.0322-1.2207,9.8948,9.8948,0,0,1-3.1015-2.5234,8.85,8.85,0,0,1-1.7862-3.5635,8.9975,8.9975,0,0,1-.0859-3.9941,10.3866,10.3866,0,0,1,1.5693-3.7051,11.2151,11.2151,0,0,1,2.9863-2.9678,12.3679,12.3679,0,0,1,4.1377-1.8418,10.764,10.764,0,0,1,4.6631-.1445,20.5765,20.5765,0,0,1,4.1768,1.2373,2.0837,2.0837,0,0,0,1.626.2,2.2484,2.2484,0,0,0,1.1855-.7031,1.5074,1.5074,0,0,0,.3379-1.4122,1.82,1.82,0,0,0-.48-.872,2.6568,2.6568,0,0,0-.6934-.5469,16.306,16.306,0,0,0-11.72-1.4023,16.5961,16.5961,0,0,0-5.5615,2.4863,15.8132,15.8132,0,0,0-4.0488,4.0459,14.2758,14.2758,0,0,0-2.1524,5.0615,12.5223,12.5223,0,0,0,2.5938,10.4824,13.9352,13.9352,0,0,0,4.2636,3.45,16.3706,16.3706,0,0,0,7.41,1.7891A17.2307,17.2307,0,0,0,221.55,77.96a17.0171,17.0171,0,0,0,5.78-2.6035,15.0425,15.0425,0,0,0,4.1094-4.3154,1.8733,1.8733,0,0,0,.2461-1.5869A1.804,1.804,0,0,0,230.9791,68.3981Z"/><path class="cls-1" d="M250.2251,46.8747a2.5671,2.5671,0,0,0-.7919-.8037,1.9,1.9,0,0,0-1.0674-.3194l-.16.0059a1.8471,1.8471,0,0,0-1.1728.5429,2.224,2.224,0,0,0-.6006.8936L236.8,71.821a1.5972,1.5972,0,0,0-.1416.7734,1.7187,1.7187,0,0,0,.6817,1.2617,2,2,0,0,0,1.2793.4229c.07,0,.1377-.003.2217-.0088a2.2326,2.2326,0,0,0,1.0341-.3623,1.9618,1.9618,0,0,0,.7491-.9053l2.9589-7.5293L255.9283,64.46l4.1484,6.9434a1.8972,1.8972,0,0,0,1.9727.9639,1.9424,1.9424,0,0,0,1.3877-.6631,1.8582,1.8582,0,0,0,.4482-1.3506,1.7039,1.7039,0,0,0-.2187-.7178Zm3.5557,13.997-8.6631.712,3.6348-9.1133Z"/><path class="cls-1" d="M286.4576,45.859l-14.209-.8564-.1494-.0068a2.0354,2.0354,0,0,0-1.2832.4365,1.7421,1.7421,0,0,0-.7119,1.3262L268.6578,70.654a1.7774,1.7774,0,0,0,.5439,1.3847,2.0874,2.0874,0,0,0,1.3867.6045l.1416.003a2.0635,2.0635,0,0,0,1.2959-.4327,1.7505,1.7505,0,0,0,.7022-1.3193l.6172-10.2188,7.6162.4512a2.0639,2.0639,0,0,0,1.3037-.4355,1.8133,1.8133,0,0,0,.7031-1.32,1.7879,1.7879,0,0,0-.5439-1.3877,2.0764,2.0764,0,0,0-1.3809-.6016l-7.4707-.457.4814-8.0576,12.3213.7431a2.0418,2.0418,0,0,0,1.2989-.4394,1.738,1.738,0,0,0,.708-1.3194,1.7862,1.7862,0,0,0-.5362-1.3847A2.0758,2.0758,0,0,0,286.4576,45.859ZM270.7232,72.0231h.0068v.0342Z"/><path class="cls-1" d="M304.2027,46.737a1.8013,1.8013,0,0,0,1.5381,1.2334,2.3447,2.3447,0,0,0,.414.0371,1.9643,1.9643,0,0,0,1.9248-1.5713,2.2278,2.2278,0,0,0-.0634-.9209l-2.7422-6.4922a1.665,1.665,0,0,0-.6446-.8564,2.4343,2.4343,0,0,0-.8964-.3623,2.0343,2.0343,0,0,0-2.3379,1.5166,1.8034,1.8034,0,0,0,.0732.8925Z"/><path class="cls-1" d="M312.42,49.8434,298.4605,47.31a2.0207,2.0207,0,0,0-1.4854.249,1.7649,1.7649,0,0,0-.8574,1.2276L291.8365,72.34a1.7865,1.7865,0,0,0,.3613,1.4395,2.0938,2.0938,0,0,0,1.3076.7675l13.96,2.5352a2.3139,2.3139,0,0,0,.4248.04,2.029,2.029,0,0,0,1.0635-.2949,1.76,1.76,0,0,0,.8486-1.2217,1.8069,1.8069,0,0,0-.3652-1.4453,2.0579,2.0579,0,0,0-1.2959-.7676l-11.9649-2.17,1.5049-8.23,7.7734,1.4151a2.1122,2.1122,0,0,0,1.4834-.2608,1.79,1.79,0,0,0,.4922-2.6621,2.0841,2.0841,0,0,0-1.3086-.7666l-7.7724-1.415,1.4365-7.9444L311.7505,53.53a2.1419,2.1419,0,0,0,1.4922-.2617,1.78,1.78,0,0,0,.8408-1.2187,1.74,1.74,0,0,0-.3623-1.4366A2.0384,2.0384,0,0,0,312.42,49.8434Z"/><path class="cls-1" d="M335.08,56.1081a2.0395,2.0395,0,0,0-1.5009.0547,1.7676,1.7676,0,0,0-1.0225,1.09L325.07,79.9977a1.7873,1.7873,0,0,0,.166,1.4854,2.1639,2.1639,0,0,0,1.1807.9336,2.3249,2.3249,0,0,0,.6943.11,2.0757,2.0757,0,0,0,.8135-.165,1.7454,1.7454,0,0,0,1.0127-1.0967l7.4961-22.7422a1.7613,1.7613,0,0,0-.17-1.47A2.0589,2.0589,0,0,0,335.08,56.1081Z"/><path class="cls-1" d="M359.6382,69.8317a2.111,2.111,0,0,0,1.5127.08,1.7644,1.7644,0,0,0,1.1035-1.0069,1.7917,1.7917,0,0,0-.0341-1.4892,2.146,2.146,0,0,0-1.0928-1.0342l-14.876-6.4189a2.07,2.07,0,0,0-1.5127-.0821,1.7765,1.7765,0,0,0-1.09.9912,1.7211,1.7211,0,0,0,.03,1.4883,2.0683,2.0683,0,0,0,1.0928,1.05l5.584,2.41-8.7451,20.25a1.7424,1.7424,0,0,0,.0312,1.4971,2.063,2.063,0,0,0,1.0928,1.038,2.2386,2.2386,0,0,0,.8711.1875,1.9805,1.9805,0,0,0,.6357-.1054,1.7361,1.7361,0,0,0,1.1016-.9971l8.7549-20.2559Z"/><path class="cls-1" d="M378.4966,75.7838a1.9332,1.9332,0,0,0-1.2675-.2275,2.3918,2.3918,0,0,0-1,.3867l-22.043,14.55a1.601,1.601,0,0,0-.6045.5762,1.791,1.791,0,0,0-.1533,1.4121,2.0308,2.0308,0,0,0,.98,1.1943,2.2569,2.2569,0,0,0,1.1513.3077,1.91,1.91,0,0,0,1.04-.3135l6.7685-4.4385L374.0308,95.52l-.6133,8.06a1.9286,1.9286,0,0,0,1.0489,1.9307,2.167,2.167,0,0,0,1.0839.3193,1.7908,1.7908,0,0,0,.44-.0547,1.7716,1.7716,0,0,0,1.1289-.8359,1.8016,1.8016,0,0,0,.2559-.7305L379.52,77.8708a2.5861,2.5861,0,0,0-.1846-1.1055A1.9243,1.9243,0,0,0,378.4966,75.7838Zm-3.41,5.8047-.7334,9.7666-7.4922-4.4209Z"/><path class="cls-1" d="M385.2466,109.0348l13.6563-17.3271a1.762,1.762,0,0,0,.3594-1.44,2.0353,2.0353,0,0,0-.7911-1.289,2.1085,2.1085,0,0,0-1.4121-.4727h-.0185a1.7435,1.7435,0,0,0-1.3233.6816l-14.8349,18.8008a1.8089,1.8089,0,0,0-.35,1.4522,2.1218,2.1218,0,0,0,.7968,1.2822L391.772,118.96a2.1155,2.1155,0,0,0,1.3155.47l.122-.004a1.7952,1.7952,0,0,0,1.6787-2.124,2.0727,2.0727,0,0,0-.7939-1.292Zm7.8409,9.7735h.0048l-.0048.0312Z"/><path class="cls-1" d="M417.8267,106.0514a1.9986,1.9986,0,0,0-.6816-1.3525,2.0369,2.0369,0,0,0-1.4541-.5928,1.7324,1.7324,0,0,0-1.3086.5645l-16.3418,17.4873a1.7365,1.7365,0,0,0-.4785,1.4179,2.0888,2.0888,0,0,0,.6787,1.3448,2.0262,2.0262,0,0,0,1.3847.5859h.0791a1.7206,1.7206,0,0,0,1.3077-.5654l16.3418-17.4893A1.7593,1.7593,0,0,0,417.8267,106.0514Zm-18.1221,18.8408h0v0Z"/><path class="cls-1" d="M434.1529,123.0788a1.9549,1.9549,0,0,0-.4746-1.1758,1.8087,1.8087,0,0,0-1.1309-.627,2.3572,2.3572,0,0,0-1.0635.043l-25.56,6.6953a1.5858,1.5858,0,0,0-.7559.3526,1.8071,1.8071,0,0,0-.6015,1.28,2.06,2.06,0,0,0,.5468,1.4522,2.1668,2.1668,0,0,0,.918.6386,1.92,1.92,0,0,0,1.16.0606l7.83-2.0283,8.08,9.38-3.1748,7.4443a2.1521,2.1521,0,0,0,1.75,2.8965l.1367.0039a1.8113,1.8113,0,0,0,1.19-.43,1.6488,1.6488,0,0,0,.4668-.6045l10.5029-24.2715A2.7131,2.7131,0,0,0,434.1529,123.0788Zm-5.5772,3.2158-3.831,9.0156-5.6739-6.59Zm-6.7646,22.5771h.0019v.0332Z"/><path class="cls-1" d="M459.0347,158.7428a2.1046,2.1046,0,0,0-.2978-1.48,2.073,2.073,0,0,0-1.1934-.9238,1.7193,1.7193,0,0,0-1.4824.1846l-15.2315,9.46,8.1348-22.7363a4.1984,4.1984,0,0,0,.1807-.85,1.8193,1.8193,0,0,0-.3321-1.1055,2.0739,2.0739,0,0,0-1.206-.9384,1.8153,1.8153,0,0,0-1.4737.1894l-20.332,12.6377a1.7713,1.7713,0,0,0-.8193,1.2363,2.074,2.074,0,0,0,.2969,1.4766,2.095,2.095,0,0,0,1.2041.9336,1.79,1.79,0,0,0,1.4726-.19l15.2676-9.4854-8.06,22.543a3.8437,3.8437,0,0,0-.2519.9365,1.903,1.903,0,0,0,.2939,1.2393,2.0972,2.0972,0,0,0,1.1983.9365,1.9609,1.9609,0,0,0,.54.0771,1.77,1.77,0,0,0,.9394-.2734l20.3379-12.6279A1.79,1.79,0,0,0,459.0347,158.7428Z"/><path class="cls-1" d="M470.4322,182.0651a16.6513,16.6513,0,0,0-3.2725-5.1416,15.7212,15.7212,0,0,0-4.5889-3.416,14.2948,14.2948,0,0,0-5.3222-1.3965,12.55,12.55,0,0,0-9.9971,4.1035,13.9535,13.9535,0,0,0-2.7871,4.7207,15.7784,15.7784,0,0,0-.8545,5.6455,16.4291,16.4291,0,0,0,1.2774,5.9512,16.8188,16.8188,0,0,0,3.2656,5.1514,16.18,16.18,0,0,0,4.58,3.4316,13.7523,13.7523,0,0,0,5.3164,1.4268c.2578.0185.5214.0273.7793.0273a12.56,12.56,0,0,0,9.2216-4.1221,14.2089,14.2089,0,0,0,2.793-4.7548,16.1182,16.1182,0,0,0,.8721-5.6719A17.0115,17.0115,0,0,0,470.4322,182.0651Zm-2.51,5.8437a11.634,11.634,0,0,1-.6348,4.2032,10.01,10.01,0,0,1-2.0488,3.4619,8.9645,8.9645,0,0,1-3.2656,2.2871,8.5554,8.5554,0,0,1-3.9492.6631,9.9274,9.9274,0,0,1-3.8662-1.0225,12.0315,12.0315,0,0,1-3.377-2.5635,12.9181,12.9181,0,0,1-3.3857-8.2441,11.64,11.64,0,0,1,.624-4.1748,10.0339,10.0339,0,0,1,2.0439-3.4375,9.0761,9.0761,0,0,1,6.669-2.9688c.1758,0,.3506.0069.5322.0157a10.1506,10.1506,0,0,1,3.8916,1.0068,11.1694,11.1694,0,0,1,3.3828,2.5293,12.55,12.55,0,0,1,2.4248,3.8242A12.737,12.737,0,0,1,467.9224,187.9088Z"/><path class="cls-2" d="M265.9693,22.027c134.6992,0,243.8926,109.2012,243.8926,243.9033S400.6685,509.8268,265.9693,509.8268C131.2671,509.8268,22.07,400.6325,22.07,265.93S131.2671,22.027,265.9693,22.027m0-2.3574C130.18,19.67,19.7125,130.1413,19.7125,265.93c0,135.7852,110.4677,246.2539,246.2568,246.2539,135.7851,0,246.251-110.4687,246.251-246.2539,0-135.789-110.4659-246.2607-246.251-246.2607Z"/><path class="cls-1" d="M73.4107,345.3141a1.0954,1.0954,0,0,0,1.0312.7842,1.1741,1.1741,0,0,0,.4541-.0908,1.08,1.08,0,0,0,.6416-.5772,1.23,1.23,0,0,0-.0214-.958l-2.585-6.4375L80.23,335.12l4.1084,10.2676a1.1,1.1,0,0,0,1.0332.7861,1.2648,1.2648,0,0,0,.458-.0928,1.0952,1.0952,0,0,0,.61-1.5381l-4.5586-11.3779a1.0909,1.0909,0,0,0-1.0361-.792,1.3,1.3,0,0,0-.4639.0947L61.19,340.151a1.0873,1.0873,0,0,0-.6074,1.5313,1.1058,1.1058,0,0,0,1.0341.791,1.2984,1.2984,0,0,0,.4727-.0947l8.749-3.501Z"/><path class="cls-1" d="M70.8628,360.0729l7.2715-3.7051,3.1485,6.1719a1.115,1.115,0,0,0,1.0048.7,1.2079,1.2079,0,0,0,.543-.1406,1.1308,1.1308,0,0,0,.5869-.6338,1.2154,1.2154,0,0,0-.1172-.9512l-3.1562-6.1758,6.9951-3.5722,5.0293,9.8457a1.11,1.11,0,0,0,1.0088.7031,1.1708,1.1708,0,0,0,.5459-.1406,1.0923,1.0923,0,0,0,.4668-1.583l-5.5772-10.919a1.1193,1.1193,0,0,0-1.0087-.7,1.1754,1.1754,0,0,0-.5411.1416l-18.3007,9.334a1.0942,1.0942,0,0,0-.5762.6475,1.21,1.21,0,0,0,.1162.9375l5.5684,10.9111a1.1076,1.1076,0,0,0,1.0068.7022,1.2219,1.2219,0,0,0,.5488-.1368,1.0947,1.0947,0,0,0,.4707-1.5849Z"/><path class="cls-1" d="M90.79,378.8815a1.13,1.13,0,0,0,.9727.6113,1.1476,1.1476,0,0,0,.6289-.1933,1.1183,1.1183,0,0,0,.5234-.6944,1.2164,1.2164,0,0,0-.21-.9257l-3.6953-5.8633,6.64-4.1944,5.9023,9.3536a1.1216,1.1216,0,0,0,.9668.6093,1.152,1.152,0,0,0,.627-.1972,1.1108,1.1108,0,0,0,.5185-.6914,1.1946,1.1946,0,0,0-.2041-.9268L96.9224,365.4a1.1236,1.1236,0,0,0-.97-.6045,1.18,1.18,0,0,0-.626.1943l-17.373,10.9629a1.1,1.1,0,0,0-.3135,1.6191l6.5439,10.3653a1.1279,1.1279,0,0,0,.97.6074,1.1485,1.1485,0,0,0,.62-.1934,1.097,1.097,0,0,0,.3252-1.623L80.2,377.3776l6.8935-4.3555Z"/><path class="cls-1" d="M110.8794,385.8747l-4.3369-5.4639a1.3168,1.3168,0,0,0-.706-.43l-.2461-.0283a1.0318,1.0318,0,0,0-.668.2432L88.8316,392.97a1.0341,1.0341,0,0,0-.4024.8506,1.2728,1.2728,0,0,0,.2735.788l4.3154,5.4434a13.8858,13.8858,0,0,0,3.7881,3.3369,12.9357,12.9357,0,0,0,4.4131,1.6709,11.7089,11.7089,0,0,0,2.0176.1768,11.3725,11.3725,0,0,0,2.5136-.28,10.0176,10.0176,0,0,0,4.125-1.9854,10.1269,10.1269,0,0,0,2.8819-3.5791,11.3882,11.3882,0,0,0,1.1426-4.3984,12.8748,12.8748,0,0,0-.6358-4.6846A13.815,13.815,0,0,0,110.8794,385.8747Zm-.1689,12.3574a8.1758,8.1758,0,0,1-2.3272,2.86,7.9578,7.9578,0,0,1-3.24,1.56,9.23,9.23,0,0,1-3.6562.0733A10.5989,10.5989,0,0,1,97.88,401.361a11.4465,11.4465,0,0,1-3.0888-2.7148l-3.5665-4.503L105.524,382.776l3.5781,4.5039a11.478,11.478,0,0,1,1.9609,3.6094,10.7747,10.7747,0,0,1,.5381,3.8076A9.1184,9.1184,0,0,1,110.7105,398.2321Z"/><path class="cls-1" d="M137.3111,415.1979a1.2475,1.2475,0,0,0,.0986-.8408,1.2187,1.2187,0,0,0-.5439-.7344,1.299,1.299,0,0,0-.6963-.207l-11.1983,1.956L126.24,404.19a1.34,1.34,0,0,0-.2559-.8008,1.2475,1.2475,0,0,0-.7939-.498l-.1875-.0108a1.23,1.23,0,0,0-.6572.1914.9632.9632,0,0,0-.4483.7774L122.54,416.2008l-6.8008,7.25a1.0746,1.0746,0,0,0-.3379.7979,1.193,1.193,0,0,0,.4239.8506,1.2315,1.2315,0,0,0,.8476.3769,1.0763,1.0763,0,0,0,.8027-.38l6.8213-7.249,12.1924-2.1006A1.0136,1.0136,0,0,0,137.3111,415.1979Z"/><path class="cls-1" d="M153.9849,431.0114a13.2665,13.2665,0,0,0-1.7988-4.38,14.245,14.245,0,0,0-7.9375-5.8975,12.9991,12.9991,0,0,0-4.6973-.457,11.6564,11.6564,0,0,0-4.3584,1.2774,10.3086,10.3086,0,0,0-5.3281,7.1669,11.488,11.488,0,0,0,.0361,4.53,12.9894,12.9894,0,0,0,1.7989,4.35,14.1571,14.1571,0,0,0,7.9375,5.9063,13.6408,13.6408,0,0,0,3.6835.5215c.3379,0,.6729-.0127,1.0137-.043a11.5329,11.5329,0,0,0,4.3643-1.252,10.2036,10.2036,0,0,0,3.4873-2.9814,10.3274,10.3274,0,0,0,1.8447-4.1865A11.685,11.685,0,0,0,153.9849,431.0114Zm-2.2744,4.0029a8.1664,8.1664,0,0,1-4.2158,5.6709,9.088,9.088,0,0,1-3.4922,1.002,10.7308,10.7308,0,0,1-3.8311-.4034,11.7324,11.7324,0,0,1-6.5127-4.84,10.691,10.691,0,0,1-1.456-3.5332,9.1139,9.1139,0,0,1-.0322-3.625,7.9061,7.9061,0,0,1,1.4726-3.3184,8.0643,8.0643,0,0,1,2.7432-2.3574,9.5186,9.5186,0,0,1,3.51-1.0381c.3028-.0273.6075-.042.9112-.042a10.8446,10.8446,0,0,1,2.8926.4092,11.4871,11.4871,0,0,1,3.6982,1.85,11.3549,11.3549,0,0,1,2.81,2.9951,10.739,10.739,0,0,1,1.4805,3.5655A9.2246,9.2246,0,0,1,151.7105,435.0143Z"/><path class="cls-1" d="M176.62,440.4157a1.3651,1.3651,0,0,0-.6641-.1934,1.0464,1.0464,0,0,0-.9394.5928l-6.7647,12.0059a4.6927,4.6927,0,0,1-1.51,1.6386,6.1982,6.1982,0,0,1-2.1181.8985,6.94,6.94,0,0,1-2.4346.0625,7.16,7.16,0,0,1-2.4336-.8535,6.9443,6.9443,0,0,1-2.0137-1.67,6.3964,6.3964,0,0,1-1.17-2.1025,6.0936,6.0936,0,0,1-.2842-2.2627,4.9036,4.9036,0,0,1,.6319-2.1328l6.7158-11.9219a1.0823,1.0823,0,0,0,.1045-.91,1.2352,1.2352,0,0,0-.6084-.6661,1.3266,1.3266,0,0,0-.65-.1865,1.0794,1.0794,0,0,0-.9453.5859l-6.7217,11.95a7.0807,7.0807,0,0,0-.9219,3.0694,8.151,8.151,0,0,0,.4307,3.1435,9.12,9.12,0,0,0,1.624,2.8516,9.8537,9.8537,0,0,0,5.9873,3.373,10.02,10.02,0,0,0,1.461.1094,8.8558,8.8558,0,0,0,1.8359-.1865,8.3253,8.3253,0,0,0,2.9434-1.24,7.0365,7.0365,0,0,0,2.1738-2.3692l6.7617-12.0137A1.0989,1.0989,0,0,0,176.62,440.4157Z"/><path class="cls-1" d="M191.2486,447.6237a7.3441,7.3441,0,0,0-2.2168-1.4707l-5.9981-2.5723a1.0884,1.0884,0,0,0-1.5527.5655l-8.0918,18.8759a1.0886,1.0886,0,0,0-.0351.8633,1.1964,1.1964,0,0,0,.6953.6533,1.1041,1.1041,0,0,0,1.5468-.5713l3.7383-8.7216,3.3252,1.4228,2.68,12.1914a1.4115,1.4115,0,0,0,.4453.6465,1.1158,1.1158,0,0,0,.7305.2568l.1494-.0087a1.0778,1.0778,0,0,0,.8076-.4239,1.1119,1.1119,0,0,0,.1426-.9121l-2.3154-10.7051a6.8311,6.8311,0,0,0,1.5527.2266l.27.0059a7.265,7.265,0,0,0,2.2158-.34,6.4718,6.4718,0,0,0,2.1553-1.1758,5.246,5.246,0,0,0,1.4736-1.9677,5.3228,5.3228,0,0,0,.4121-2.4317,6.4585,6.4585,0,0,0-.6386-2.36A7.2525,7.2525,0,0,0,191.2486,447.6237Zm-.4942,5.8955a3.2364,3.2364,0,0,1-.8623,1.21,3.9314,3.9314,0,0,1-1.3291.7675,4.0853,4.0853,0,0,1-1.36.2246l-.2451-.0068a5.029,5.029,0,0,1-1.7618-.4238l-4.9677-2.1309,3.0117-7.0254,4.9736,2.1309a5.0928,5.0928,0,0,1,1.5127.9785,4.3791,4.3791,0,0,1,.9639,1.3018,4.0067,4.0067,0,0,1,.3623,1.4707A3.4082,3.4082,0,0,1,190.7544,453.5192Z"/><path class="cls-1" d="M216.6705,461.9889a5.142,5.142,0,0,0,.1074-2.456,6.4009,6.4009,0,0,0-.919-2.2686,7.1909,7.1909,0,0,0-1.7334-1.8476,7.3192,7.3192,0,0,0-2.3789-1.1914l-6.2734-1.8135a1.0906,1.0906,0,0,0-1.4688.7519l-5.708,19.7373a1.0819,1.0819,0,0,0,.8369,1.4121,1.5533,1.5533,0,0,0,.4268.0635,1.0551,1.0551,0,0,0,1.044-.8154l2.6337-9.1191,5.1231,1.4814a7.2768,7.2768,0,0,0,2.6484.2676,7.4009,7.4009,0,0,0,2.45-.6387,6.3356,6.3356,0,0,0,1.9893-1.4277A5.2452,5.2452,0,0,0,216.6705,461.9889Zm-2.3057-.6611a3.1457,3.1457,0,0,1-.7275,1.2949,4.0659,4.0659,0,0,1-1.2579.916,4.2238,4.2238,0,0,1-1.5976.4112,5.109,5.109,0,0,1-1.792-.2012l-5.1221-1.4834,2.12-7.3467,5.126,1.4795a5.3235,5.3235,0,0,1,1.6309.79,4.6154,4.6154,0,0,1,1.1386,1.1915,3.8279,3.8279,0,0,1,.5635,1.4267A3.182,3.182,0,0,1,214.3648,461.3278Z"/><path class="cls-1" d="M229.43,458.42a1.22,1.22,0,0,0-1.25.4834L214.607,477.1559a1.0052,1.0052,0,0,0-.2022.91,1.1967,1.1967,0,0,0,.5157.709,1.254,1.254,0,0,0,.6943.2158l.1894-.0166a1.0159,1.0159,0,0,0,.7432-.4561l4.37-5.8906,11.2471,2.1211,1.9463,7.0166a1.0607,1.0607,0,0,0,.5312.7549,1.2272,1.2272,0,0,0,.6348.1719,1.6292,1.6292,0,0,0,.29-.03,1.2186,1.2186,0,0,0,.7149-.4658.973.973,0,0,0,.1465-.9082l-6.05-21.9307A1.2016,1.2016,0,0,0,229.43,458.42Zm-7.0078,12.1924,6.2979-8.418,2.7724,10.124Z"/><path class="cls-1" d="M247.5123,464.06a5.8579,5.8579,0,0,1,1.78-.5312,8.29,8.29,0,0,1,1.7989-.0762,10.2121,10.2121,0,0,1,1.1787.168,6.45,6.45,0,0,1,2.584,1.1582,4.7774,4.7774,0,0,1,1.0556,1.1045,1.1522,1.1522,0,0,0,.7813.6269,1.3638,1.3638,0,0,0,1.2148-.29,1.04,1.04,0,0,0,.1533-1.543,8.2878,8.2878,0,0,0-1.5195-1.4834,9.0008,9.0008,0,0,0-1.7227-1.0371,10.1,10.1,0,0,0-1.7988-.6377,10.5681,10.5681,0,0,0-1.7676-.292,9.5715,9.5715,0,0,0-2.6855.1992,9.3155,9.3155,0,0,0-2.541.94,6.6438,6.6438,0,0,0-1.9864,1.667,4.2877,4.2877,0,0,0-.96,2.4277,3.216,3.216,0,0,0,.7168,2.2725,7.5741,7.5741,0,0,0,1.87,1.667,15.0357,15.0357,0,0,0,2.4316,1.2793c.8741.3623,1.6934.6787,2.4424.9257.8047.3291,1.56.67,2.253,1.0205a8.7116,8.7116,0,0,1,1.7314,1.1143,3.9433,3.9433,0,0,1,1.0254,1.2861,3.0722,3.0722,0,0,1,.2646,1.584,3.697,3.697,0,0,1-.58,1.7393,4.8365,4.8365,0,0,1-1.4,1.372,6.0925,6.0925,0,0,1-1.9307.8526,6.7,6.7,0,0,1-2.1982.2,7.6831,7.6831,0,0,1-1.54-.3037,11.0313,11.0313,0,0,1-1.7256-.6719,8.0421,8.0421,0,0,1-1.5195-.9727,3.2787,3.2787,0,0,1-.9394-1.1435,1.3014,1.3014,0,0,0-1.1514-.6094,1.2076,1.2076,0,0,0-.9395.42,1.1376,1.1376,0,0,0-.1367,1.253,4.79,4.79,0,0,0,1.31,1.6914,10.4121,10.4121,0,0,0,1.8974,1.2578,11.6476,11.6476,0,0,0,2.24.8818,11.2771,11.2771,0,0,0,2.3056.42c.2305.0186.4581.0254.6807.0254a8.8,8.8,0,0,0,2.3975-.33,9.3833,9.3833,0,0,0,2.6777-1.2208,6.9138,6.9138,0,0,0,2.001-2.0009,5.6247,5.6247,0,0,0,.914-2.6924,5.4377,5.4377,0,0,0-.3828-2.5361,5.8474,5.8474,0,0,0-1.4736-1.9629,11.7217,11.7217,0,0,0-2.3662-1.5782c-.8975-.4629-1.91-.9365-3.1123-1.458-.5654-.2207-1.1973-.4726-1.87-.7461a12.573,12.573,0,0,1-1.8018-.8955,5.6988,5.6988,0,0,1-1.27-1.0283,1.2381,1.2381,0,0,1-.3506-.9365,2.548,2.548,0,0,1,.59-1.5235A4.43,4.43,0,0,1,247.5123,464.06Z"/><path class="cls-1" d="M276.6324,473.1862a11.533,11.533,0,0,0-2.5069-1.3418c-.9882-.3867-2.07-.7734-3.2363-1.1416l-1.9394-.5615a12.7983,12.7983,0,0,1-1.875-.7188,5.1975,5.1975,0,0,1-1.3663-.8994,1.1921,1.1921,0,0,1-.4384-.8906,2.5065,2.5065,0,0,1,.4384-1.5762,4.2589,4.2589,0,0,1,1.2637-1.1787,5.7562,5.7562,0,0,1,1.7227-.7061,8.451,8.451,0,0,1,1.7783-.2519l.1934-.0039a9.8489,9.8489,0,0,1,.9941.0556,6.7124,6.7124,0,0,1,1.3164.2793,6.444,6.444,0,0,1,1.3691.62,4.8972,4.8972,0,0,1,1.1543.9882,1.15,1.15,0,0,0,.84.5528l.21.0185a1.4314,1.4314,0,0,0,.9756-.4238,1.0485,1.0485,0,0,0,0-1.5518,8.3313,8.3313,0,0,0-1.6582-1.33,9.4244,9.4244,0,0,0-1.8135-.8633,10.1519,10.1519,0,0,0-1.8515-.4541,9.9528,9.9528,0,0,0-1.54-.1221l-.24.002a9.6262,9.6262,0,0,0-2.6641.4619,9.382,9.382,0,0,0-2.4365,1.1875,6.74,6.74,0,0,0-1.8174,1.8476,4.3075,4.3075,0,0,0-.7128,2.5137,3.2238,3.2238,0,0,0,.9335,2.1826,7.7087,7.7087,0,0,0,2.0235,1.4883,15.5925,15.5925,0,0,0,2.5508,1.0322c.8964.2725,1.749.5039,2.5166.6836.8066.2364,1.5781.4971,2.3447.793a8.9487,8.9487,0,0,1,1.833.9385,3.8648,3.8648,0,0,1,1.1455,1.1787,3.1115,3.1115,0,0,1,.42,1.5478,3.6349,3.6349,0,0,1-.42,1.7989,4.8008,4.8008,0,0,1-1.24,1.497,6.47,6.47,0,0,1-1.85,1.043,6.9263,6.9263,0,0,1-2.2578.4092,8.2432,8.2432,0,0,1-1.4678-.1533,10.4866,10.4866,0,0,1-1.7862-.503,8.2179,8.2179,0,0,1-1.6084-.8173,3.41,3.41,0,0,1-1.0439-1.0469,1.266,1.266,0,0,0-1.0986-.4971h-.0049a1.1935,1.1935,0,0,0-.99.51,1.1062,1.1062,0,0,0-.0235,1.2617,4.7583,4.7583,0,0,0,1.4736,1.5557,10.527,10.527,0,0,0,2.0137,1.0722,12.3182,12.3182,0,0,0,2.3018.6563,11.6623,11.6623,0,0,0,2.0752.1933l.2695-.0039a8.897,8.897,0,0,0,3.0322-.6015,9.4237,9.4237,0,0,0,2.5489-1.4766,7.0063,7.0063,0,0,0,1.7988-2.19,5.6255,5.6255,0,0,0,.6377-2.7666,5.2422,5.2422,0,0,0-.6289-2.4825A5.6855,5.6855,0,0,0,276.6324,473.1862Z"/><path class="cls-1" d="M284.3033,460.8932l-.16.0059a1.2116,1.2116,0,0,0-.8594.4121,1.0615,1.0615,0,0,0-.2226.83l1.9414,20.4414a1.0618,1.0618,0,0,0,1.125,1.0273l.1738-.01a1.0983,1.0983,0,0,0,1.0869-1.24L285.44,461.9186A1.0786,1.0786,0,0,0,284.3033,460.8932Zm1.8242,22.0967h.0058l-.0058.0313Z"/><path class="cls-1" d="M314.8511,463.02a11.6757,11.6757,0,0,0-3.3818-3.0547,13.188,13.188,0,0,0-4.4336-1.6387,14.2531,14.2531,0,0,0-9.7246,1.836,12.8508,12.8508,0,0,0-3.5176,3.1425,11.7268,11.7268,0,0,0-2.0137,4.07,10.3615,10.3615,0,0,0,1.6582,8.7784,11.4413,11.4413,0,0,0,3.3584,3.0429,12.9855,12.9855,0,0,0,4.42,1.6289,13.1819,13.1819,0,0,0,2.3447.21,14.6748,14.6748,0,0,0,2.6777-.2549,13.8193,13.8193,0,0,0,4.7012-1.79,13.2945,13.2945,0,0,0,3.53-3.127,11.3715,11.3715,0,0,0,2.0322-4.0625,10.131,10.131,0,0,0,.1777-4.5791A10.2931,10.2931,0,0,0,314.8511,463.02Zm-.6562,8.2773a9.2961,9.2961,0,0,1-1.64,3.249,10.8381,10.8381,0,0,1-2.8974,2.544,11.6945,11.6945,0,0,1-7.9756,1.5049,10.7828,10.7828,0,0,1-3.5742-1.3145,9.3435,9.3435,0,0,1-2.6924-2.4346,8.0472,8.0472,0,0,1-1.4434-3.3359,7.9263,7.9263,0,0,1,.1348-3.6191,9.42,9.42,0,0,1,1.6094-3.2813,10.32,10.32,0,0,1,2.8515-2.5449,11.2176,11.2176,0,0,1,3.8643-1.4678,11.8235,11.8235,0,0,1,2.18-.207,11.031,11.031,0,0,1,1.93.1709,10.7672,10.7672,0,0,1,3.62,1.3232,9.3143,9.3143,0,0,1,2.7129,2.4649,8.2618,8.2618,0,0,1,1.32,6.9482Z"/><path class="cls-1" d="M334.7115,449.3952a1.1694,1.1694,0,0,0-.7461.5888,1.0811,1.0811,0,0,0-.04.8594l5.3594,16.2783-18.7119-12.4326a1.3669,1.3669,0,0,0-.6934-.2851l-.1513-.0088a1.2022,1.2022,0,0,0-.7276.248,1.1134,1.1134,0,0,0-.4179,1.249l6.416,19.5137a1.0649,1.0649,0,0,0,1.0283.7793,1.44,1.44,0,0,0,.4639-.082,1.181,1.181,0,0,0,.7519-.5938,1.0766,1.0766,0,0,0,.0362-.8564l-5.3438-16.2461,18.8623,12.5478a1.3291,1.3291,0,0,0,1.041.0987,1.0962,1.0962,0,0,0,.792-1.4492l-6.4219-19.5108A1.107,1.107,0,0,0,334.7115,449.3952Z"/><path class="cls-1" d="M357.524,450.318a1.4191,1.4191,0,0,0-.5957.1494l-6.2559,3.0069-3.3955-7.0733,9.9482-4.7939a1.133,1.133,0,1,0-.9668-2.044l-11.06,5.3184a1.0943,1.0943,0,0,0-.58,1.5381l8.9629,18.6318a1.0649,1.0649,0,0,0,.9707.6475,1.3834,1.3834,0,0,0,.5947-.1465,1.223,1.223,0,0,0,.6758-.6914,1.0848,1.0848,0,0,0-.0859-.85l-4.0723-8.4961,6.2393-3.0049a1.1061,1.1061,0,0,0,.5927-1.5508A1.0555,1.0555,0,0,0,357.524,450.318Z"/><path class="cls-1" d="M386.2056,435.1032a10.1246,10.1246,0,0,0-3.2246-3.2569,11.7378,11.7378,0,0,0-4.2529-1.625,13.119,13.119,0,0,0-4.7276.08,14.221,14.221,0,0,0-8.4043,5.2285,12.8614,12.8614,0,0,0-2.1425,4.2051,11.68,11.68,0,0,0-.3926,4.52,9.9668,9.9668,0,0,0,1.4922,4.3311,10.1351,10.1351,0,0,0,3.2256,3.2539,11.3665,11.3665,0,0,0,4.2265,1.6191,12.7475,12.7475,0,0,0,2.1055.1768,14.1132,14.1132,0,0,0,10.9971-5.4893,13.3688,13.3688,0,0,0,2.1709-4.1943,11.4853,11.4853,0,0,0,.4267-4.5225A10.1556,10.1556,0,0,0,386.2056,435.1032Zm-1.1914,8.3174a10.7607,10.7607,0,0,1-1.78,3.42,11.7061,11.7061,0,0,1-6.8828,4.291,10.98,10.98,0,0,1-3.82.0674,9.3439,9.3439,0,0,1-3.39-1.2979,8.0521,8.0521,0,0,1-2.55-2.5879,7.968,7.968,0,0,1-1.1846-3.4189,9.248,9.248,0,0,1,.3183-3.6406,10.341,10.341,0,0,1,1.7305-3.4082,11.6744,11.6744,0,0,1,6.8887-4.2832,11.3215,11.3215,0,0,1,2.1728-.22,9.9169,9.9169,0,0,1,1.6856.1446,9.357,9.357,0,0,1,3.4228,1.3115,8.2522,8.2522,0,0,1,3.7383,6.0059A9.1516,9.1516,0,0,1,385.0142,443.4206Z"/><path class="cls-1" d="M408.13,429.7l-10.55-2.94a7.1094,7.1094,0,0,0,.9336-1.2715,7.4446,7.4446,0,0,0,.8594-2.3574,6.2965,6.2965,0,0,0-.0381-2.4453,5.1527,5.1527,0,0,0-1.0488-2.2256,5.2271,5.2271,0,0,0-1.9522-1.4922,6.5547,6.5547,0,0,0-2.3945-.5459l-.2217-.0039a7.2592,7.2592,0,0,0-2.2822.3779,7.0719,7.0719,0,0,0-2.333,1.2706l-5.0772,4.1064a1.1,1.1,0,0,0-.2207,1.6387l12.9219,15.95a1.0581,1.0581,0,0,0,.8506.4492,1.27,1.27,0,0,0,.7949-.3145,1.0948,1.0948,0,0,0,.2207-1.64l-5.9726-7.3721,2.8037-2.2783,12.0527,3.3183.2139.0157a1.4332,1.4332,0,0,0,.54-.1074,1.1186,1.1186,0,0,0,.6367-.6563,1.0679,1.0679,0,0,0,.0147-.9121A1.1032,1.1032,0,0,0,408.13,429.7Zm-11.5381-5.334a5.176,5.176,0,0,1-1.1972,1.3564l-4.1993,3.4014-4.8164-5.9453,4.209-3.3975a4.9526,4.9526,0,0,1,1.5742-.8887,4.41,4.41,0,0,1,1.4151-.248l.1846.0059a3.7952,3.7952,0,0,1,1.4609.3623,3.45,3.45,0,0,1,1.1973.958,3.3,3.3,0,0,1,.6621,1.3379,3.9453,3.9453,0,0,1,.0683,1.5312A4.3181,4.3181,0,0,1,396.5923,424.3659Z"/><path class="cls-1" d="M411.8287,414.2057l4.81-4.9883a1.207,1.207,0,0,0,.3887-.875,1.2237,1.2237,0,0,0-1.1406-1.1162,1.2161,1.2161,0,0,0-.8692.417l-4.8223,4.9873-5.6425-5.4482,7.6836-7.9619a1.1624,1.1624,0,0,0-.7637-1.9883,1.2031,1.2031,0,0,0-.8721.416l-8.52,8.8223a1.0964,1.0964,0,0,0-.0127,1.6494l14.876,14.3555a1.1,1.1,0,0,0,.7783.3437,1.1858,1.1858,0,0,0,.86-.4141,1.204,1.204,0,0,0,.3955-.8691,1.111,1.111,0,0,0-.3682-.7861Z"/><path class="cls-1" d="M437.1041,383.1081a10.2687,10.2687,0,0,0-4.15-1.9385,11.7652,11.7652,0,0,0-4.5489-.0479,13.3,13.3,0,0,0-4.4179,1.7139,14.261,14.261,0,0,0-6.0616,7.8145,13.0244,13.0244,0,0,0-.5527,4.6875,11.7188,11.7188,0,0,0,1.1914,4.38,10.0077,10.0077,0,0,0,2.9033,3.542,10.1262,10.1262,0,0,0,4.1494,1.9375,11.53,11.53,0,0,0,2.3936.2559,11.7005,11.7005,0,0,0,2.1309-.2,13.0092,13.0092,0,0,0,4.3906-1.7109,13.5242,13.5242,0,0,0,3.7324-3.3614,13.7093,13.7093,0,0,0,2.3359-4.4531,13.1656,13.1656,0,0,0,.5791-4.6777,11.3048,11.3048,0,0,0-1.165-4.3965A10.16,10.16,0,0,0,437.1041,383.1081Zm1.2822,12.0429a11.682,11.682,0,0,1-4.9688,6.4082,10.73,10.73,0,0,1-3.5576,1.3887,9.2274,9.2274,0,0,1-3.6289-.0439,8.1983,8.1983,0,0,1-5.5859-4.335,9.3293,9.3293,0,0,1-.9649-3.5293,10.2936,10.2936,0,0,1,.4492-3.791,11.5588,11.5588,0,0,1,4.9727-6.4141,10.4987,10.4987,0,0,1,3.5908-1.4033,9.0761,9.0761,0,0,1,3.6592.0459,8.2125,8.2125,0,0,1,5.5918,4.334,9.0547,9.0547,0,0,1,.9248,3.5176A10.7427,10.7427,0,0,1,438.3863,395.151Z"/><path class="cls-1" d="M455.5083,360.4713a10.383,10.383,0,0,0-7.76-4.4228,11.3958,11.3958,0,0,0-4.5186.5947,12.9905,12.9905,0,0,0-4.122,2.3164,14.2037,14.2037,0,0,0-4.8995,8.5928,12.652,12.652,0,0,0,.1143,4.7178,11.7413,11.7413,0,0,0,1.791,4.1689,10.0653,10.0653,0,0,0,3.3838,3.0967,10.22,10.22,0,0,0,4.3838,1.332c.2568.0186.5146.0244.7705.0244a11.59,11.59,0,0,0,3.7158-.6113,13.0489,13.0489,0,0,0,4.1016-2.31,14.3019,14.3019,0,0,0,4.9053-8.5957,13.4514,13.4514,0,0,0-.0928-4.7177A11.47,11.47,0,0,0,455.5083,360.4713Zm-.4052,8.6426a11.7244,11.7244,0,0,1-4.0215,7.0547,10.7328,10.7328,0,0,1-3.3272,1.87,9.4112,9.4112,0,0,1-2.99.4932c-.2021,0-.4043-.0068-.6016-.0186a7.9984,7.9984,0,0,1-3.4736-1.0615,8.0822,8.0822,0,0,1-2.6709-2.4433,9.3987,9.3987,0,0,1-1.4551-3.3545,10.5,10.5,0,0,1-.0918-3.8252,11.7279,11.7279,0,0,1,4.0137-7.0479,10.6092,10.6092,0,0,1,3.3584-1.8974,9.2957,9.2957,0,0,1,2.99-.4942c.212,0,.4307.0069.6456.0215a8.1675,8.1675,0,0,1,3.4677,1.0527,8.0675,8.0675,0,0,1,2.6748,2.45,9.0713,9.0713,0,0,1,1.4141,3.3516A11.0836,11.0836,0,0,1,455.1031,369.1139Z"/><path class="cls-1" d="M468.1666,339.6344a11.4873,11.4873,0,0,0-2.336-3.8818,10.1418,10.1418,0,0,0-3.7754-2.5977,9.98,9.98,0,0,0-4.5312-.7236,11.4522,11.4522,0,0,0-4.3858,1.19,13.1114,13.1114,0,0,0-3.7636,2.8741,14.04,14.04,0,0,0-2.6573,4.2783l-2.584,6.457a1.2751,1.2751,0,0,0-.0351.8389,1.1234,1.1234,0,0,0,.6357.6933l19.08,7.6319a1.0918,1.0918,0,0,0,.3926.0722,1.0634,1.0634,0,0,0,.54-.1474,1.3,1.3,0,0,0,.56-.626l2.585-6.4521a14.0234,14.0234,0,0,0,1.0146-4.94A13.0469,13.0469,0,0,0,468.1666,339.6344Zm-2.3877,8.7647-2.1241,5.34-16.9765-6.792,2.1377-5.334a11.49,11.49,0,0,1,2.1679-3.5009,10.4687,10.4687,0,0,1,3.0323-2.35,8.9024,8.9024,0,0,1,3.5175-.9727,8.2609,8.2609,0,0,1,3.6348.5967,7.7953,7.7953,0,0,1,2.9648,2.0449,9.37,9.37,0,0,1,1.8721,3.125,10.7036,10.7036,0,0,1,.6084,3.8125A11.45,11.45,0,0,1,465.7789,348.3991Z"/><path class="cls-1" d="M470.6011,265.93a204.5389,204.5389,0,0,1-8.251,57.51h2.4161a206.082,206.082,0,0,0-.2061-115.7539h-2.417A204.5431,204.5431,0,0,1,470.6011,265.93Z"/><path class="cls-1" d="M61.3287,265.93a204.5435,204.5435,0,0,1,8.4589-58.2441H67.3687a206.1048,206.1048,0,0,0-.208,115.7539H69.58A204.5788,204.5788,0,0,1,61.3287,265.93Z"/><path class="cls-2" d="M194.6675,175.196c8.4287,6.9,6.8428,13.6123,4.0244,17.06-2.8086,3.4356-5.7793,2.3028-14.2089-4.5947-8.4434-6.8906-16.336-20.3633-16.336-20.3633S186.232,168.3073,194.6675,175.196Z"/><path class="cls-2" d="M120.5142,283.2487c-.0215-.0186-.0117-.0645.0371-.1387q.1392-.1977,5.1572,1.4336,4.9967,1.6392,8.8916,3.1621,19.8912,7.7535,21.29,14.7822a4.7489,4.7489,0,0,1,.0381,2.0567,6.5837,6.5837,0,0,1-1.0108,2.0322,6.2727,6.2727,0,0,1-1.62,1.749,5.6432,5.6432,0,0,1-2.167.6758,7.0235,7.0235,0,0,1-2.2754-.0517,15.4392,15.4392,0,0,1-2.7783-.9336,26.5541,26.5541,0,0,1-3.8916-2.3448,41.9157,41.9157,0,0,1-4.3408-3.3183,105.3937,105.3937,0,0,1-7.7373-7.6592q-4.1293-4.4795-7.6621-9.0146C121.1841,284.0739,120.5494,283.2672,120.5142,283.2487Z"/><path class="cls-2" d="M128.9742,275.7067c-.0088.0371-.0547.0371-.1387,0q-.2329-.0879.2559-5.3438.4863-5.2485,1.1084-9.372,3.1611-21.1143,9.705-24.0332a4.7681,4.7681,0,0,1,2.0039-.4942,6.5033,6.5033,0,0,1,2.1944.5371,6.1518,6.1518,0,0,1,2.0791,1.1934,5.6079,5.6079,0,0,1,1.126,1.9648,6.824,6.824,0,0,1,.4511,2.2344,15.6849,15.6849,0,0,1-.2851,2.9043,27.1726,27.1726,0,0,1-1.4336,4.3213,42.5452,42.5452,0,0,1-2.2715,4.9668,107.2011,107.2011,0,0,1-5.752,9.2393q-3.4526,5.0185-7.0966,9.4658C129.6382,274.8747,128.9927,275.6784,128.9742,275.7067Z"/><path class="cls-2" d="M134.1861,220.7536c-.03-.0069-.043-.0557-.0254-.1455q.0526-.2345,5.3047-.7022c3.5058-.31,6.6367-.501,9.43-.584q21.328-.6812,25.3789,5.24a4.6971,4.6971,0,0,1,.8437,1.8759,6.4333,6.4333,0,0,1-.1377,2.2647,6.1237,6.1237,0,0,1-.8008,2.2471,5.52,5.52,0,0,1-1.7285,1.4736,7.1343,7.1343,0,0,1-2.1123.8447,16.8973,16.8973,0,0,1-2.915.23,26.6772,26.6772,0,0,1-4.5127-.6289,43.324,43.324,0,0,1-5.2891-1.3476,106.7564,106.7564,0,0,1-10.12-4.0059q-5.5518-2.4961-10.59-5.2861C135.1343,221.2536,134.2232,220.7565,134.1861,220.7536Z"/><path class="cls-2" d="M142.5718,192.5133c-.0322-.0175-.0322-.0732.0244-.163q.1582-.2476,6.1514,1.2841,6.0043,1.5411,10.6816,3.0264,23.9194,7.5645,26.0948,15.7129a5.5552,5.5552,0,0,1,.2021,2.4062,7.5233,7.5233,0,0,1-1.03,2.4551,7.2529,7.2529,0,0,1-1.7695,2.1768,6.409,6.409,0,0,1-2.4863.96,8.3249,8.3249,0,0,1-2.68.1114,18.6422,18.6422,0,0,1-3.3145-.878,31.5775,31.5775,0,0,1-4.7509-2.4531,51.3752,51.3752,0,0,1-5.3418-3.5625,123.6912,123.6912,0,0,1-9.6592-8.3867q-5.19-4.935-9.6846-9.9854C143.4224,193.4342,142.6021,192.5348,142.5718,192.5133Z"/><path class="cls-2" d="M201.7681,133.38c-.0293-.0245,0-.0674.0733-.1192.1289-.0928,1.5869.9443,4.3466,3.1055q4.1573,3.2548,7.29,6.0166,16.0414,14.0844,14.9482,21.167a4.6646,4.6646,0,0,1-.6728,1.9492,8.1388,8.1388,0,0,1-3.7569,2.6523,5.5294,5.5294,0,0,1-2.2744-.1074,6.9729,6.9729,0,0,1-2.124-.8291,16.1006,16.1006,0,0,1-2.2774-1.82,26.3153,26.3153,0,0,1-2.8671-3.5391,44.63,44.63,0,0,1-2.9434-4.6,106.2393,106.2393,0,0,1-4.65-9.8389q-2.3481-5.625-4.1191-11.0928C202.1148,134.3893,201.7828,133.4069,201.7681,133.38Z"/><path class="cls-2" d="M243.0318,124.9294c-.0195-.0245.0117-.0645.0918-.11.1474-.08,1.4726,1.1016,4.0019,3.5479q3.7764,3.6738,6.6055,6.75,14.4609,15.7,12.6338,22.6308a4.7243,4.7243,0,0,1-.874,1.8662,6.6,6.6,0,0,1-1.7891,1.376,6.2331,6.2331,0,0,1-2.2353.8623,5.6234,5.6234,0,0,1-2.2383-.3437,7.1992,7.1992,0,0,1-2.0264-1.043,16.5628,16.5628,0,0,1-2.08-2.0576,26.2273,26.2273,0,0,1-2.4677-3.8242,42.2048,42.2048,0,0,1-2.4395-4.8838,103.69,103.69,0,0,1-3.5918-10.2764q-1.749-5.8389-2.9287-11.4648C243.271,125.9665,243.0552,124.9567,243.0318,124.9294Z"/><path class="cls-2" d="M288.8775,166.8092c-.0254.0186-.0684.0069-.126-.0615q-.17-.17,2.4209-4.76,2.61-4.5864,4.8809-8.0888,11.562-17.9429,18.73-17.91a4.8752,4.8752,0,0,1,2.0313.374,6.6094,6.6094,0,0,1,1.7812,1.3907,6.4567,6.4567,0,0,1,1.3985,1.9433,5.6424,5.6424,0,0,1,.2217,2.2588,6.8536,6.8536,0,0,1-.5069,2.22,15.2491,15.2491,0,0,1-1.4629,2.5264,26.4216,26.4216,0,0,1-3.0761,3.36,44.4408,44.4408,0,0,1-4.1133,3.5791,104.1361,104.1361,0,0,1-9.0547,6.0556q-5.209,3.1539-10.36,5.71C289.8189,166.3249,288.899,166.7878,288.8775,166.8092Z"/><path class="cls-2" d="M294.0093,125.4938c.0176-.03.0635-.0244.1475.0127q.2211.0968-.4668,5.3252-.6811,5.2266-1.458,9.3291-3.9507,20.981-10.6084,23.6465a4.78,4.78,0,0,1-2.0176.418,6.3159,6.3159,0,0,1-2.1728-.62,6.1483,6.1483,0,0,1-2.0254-1.2675,5.5215,5.5215,0,0,1-1.0616-2.0049,6.9333,6.9333,0,0,1-.3681-2.25,16.4048,16.4048,0,0,1,.4043-2.8946,27.08,27.08,0,0,1,1.5879-4.2666,43.8334,43.8334,0,0,1,2.4589-4.874,104.9785,104.9785,0,0,1,6.1045-9.0185q3.6329-4.8838,7.44-9.1924C293.3189,126.3073,294,125.5309,294.0093,125.4938Z"/><path class="cls-2" d="M180.1646,379.1c-.0146.0312-.0547.0312-.1475-.0069q-.2211-.0937.2569-5.3379.498-5.2514,1.1093-9.3828,3.1715-21.1113,9.7178-24.0283a4.78,4.78,0,0,1,1.9922-.4941,6.503,6.503,0,0,1,2.2.5341,6.2032,6.2032,0,0,1,2.0723,1.1963,5.6942,5.6942,0,0,1,1.1328,1.958,7.1719,7.1719,0,0,1,.4541,2.2383,15.3734,15.3734,0,0,1-.2979,2.9063,25.81,25.81,0,0,1-1.4218,4.3261,44.2624,44.2624,0,0,1-2.2715,4.9619,104.623,104.623,0,0,1-5.7637,9.24c-2.293,3.3457-4.666,6.501-7.0908,9.47C180.8248,378.2653,180.1822,379.0661,180.1646,379.1Z"/><path class="cls-2" d="M337.2613,387.1872c.01.0312-.0215.0674-.11.1025q-.22.0967-3.5273-4.0225-3.2856-4.1162-5.708-7.5214-12.3912-17.3833-9.7158-24.0284a4.7134,4.7134,0,0,1,1.1054-1.7382,6.2107,6.2107,0,0,1,1.9492-1.1446,6.0574,6.0574,0,0,1,2.32-.5781,5.5358,5.5358,0,0,1,2.1757.6172,7.0126,7.0126,0,0,1,1.8789,1.2969,15.4226,15.4226,0,0,1,1.8057,2.2978,26.9607,26.9607,0,0,1,1.98,4.0987,42.9964,42.9964,0,0,1,1.81,5.1494,101.8755,101.8755,0,0,1,2.2783,10.6455q1.0079,6.0145,1.4726,11.7343C337.1509,386.1315,337.24,387.1549,337.2613,387.1872Z"/><path class="cls-2" d="M298.9722,374.1022c.01.0342-.0273.0615-.1289.0762-.1553.0254-1.0088-1.5342-2.5683-4.6924q-2.32-4.7284-3.9424-8.58-8.3277-19.6494-4.2657-25.5625a4.8039,4.8039,0,0,1,1.4483-1.46,6.4409,6.4409,0,0,1,2.1553-.6973,6.0844,6.0844,0,0,1,2.3847-.0527,5.3449,5.3449,0,0,1,1.9981,1.0771,6.879,6.879,0,0,1,1.5478,1.668,14.724,14.724,0,0,1,1.27,2.6328,26.879,26.879,0,0,1,1.0439,4.4287,41.6978,41.6978,0,0,1,.6416,5.4219A104.0279,104.0279,0,0,1,300.48,359.25c-.2177,4.0537-.5967,7.9834-1.1113,11.78C299.1021,373.05,298.9634,374.0749,298.9722,374.1022Z"/><path class="cls-2" d="M284.147,408.0485c0,.0332-.0459.0518-.1289.0518-.1758,0-.7275-1.7-1.667-5.086s-1.7129-6.4336-2.3017-9.1592q-4.5734-20.8534.5029-25.914a4.7194,4.7194,0,0,1,1.6953-1.1748,6.4725,6.4725,0,0,1,2.24-.2793,6.1642,6.1642,0,0,1,2.3575.3818,5.4893,5.4893,0,0,1,1.7675,1.4229,7.03,7.03,0,0,1,1.2159,1.9248,15.8,15.8,0,0,1,.7607,2.8271,26.594,26.594,0,0,1,.2158,4.5479,45.9516,45.9516,0,0,1-.3594,5.4463,107.4246,107.4246,0,0,1-2.081,10.6826q-1.4429,5.93-3.2607,11.3779C284.4693,407.029,284.15,408.0172,284.147,408.0485Z"/><path class="cls-2" d="M395.4322,319.8551c.0088.03-.0186.0645-.1114.0987-.1406.06-1.3251-1.2842-3.5175-4.0235-2.2-2.7422-4.0977-5.247-5.7178-7.5185q-12.4-17.3819-9.7158-24.0313a4.7217,4.7217,0,0,1,1.1-1.7334,6.4466,6.4466,0,0,1,1.9521-1.1543,6.244,6.244,0,0,1,2.32-.5742,5.5559,5.5559,0,0,1,2.19.6231,7.1549,7.1549,0,0,1,1.8682,1.289,15.1964,15.1964,0,0,1,1.8056,2.2989,25.985,25.985,0,0,1,1.9766,4.1015,41.4022,41.4022,0,0,1,1.8105,5.1485,104.4863,104.4863,0,0,1,2.2813,10.6425q.999,6.0175,1.4717,11.7451C395.3208,318.7965,395.4205,319.8249,395.4322,319.8551Z"/><path class="cls-2" d="M365.77,364.5661c0,.0293-.0352.0449-.1309.0449-.1631-.0029-.7246-1.6963-1.6728-5.085q-1.4078-5.0742-2.3028-9.16-4.57-20.8463.5069-25.9053a4.7687,4.7687,0,0,1,1.6933-1.1728,8.1178,8.1178,0,0,1,4.6055.0908,5.63,5.63,0,0,1,1.7617,1.4306,6.8928,6.8928,0,0,1,1.2217,1.9239,16.4351,16.4351,0,0,1,.7549,2.8222,25.6556,25.6556,0,0,1,.2119,4.5518,43.7486,43.7486,0,0,1-.3594,5.4394,105.2816,105.2816,0,0,1-2.081,10.6875q-1.4371,5.9253-3.25,11.3731C366.0845,363.5426,365.77,364.528,365.77,364.5661Z"/><path class="cls-2" d="M397.8326,208.7917c.04-.01.0732.04.0947.1464.0371.1973-1.8389,1.3262-5.6533,3.38q-5.6923,3.085-10.3516,5.2578-23.7627,11.1695-31.2266,6.4522a5.8164,5.8164,0,0,1-1.8593-1.709,8.0806,8.0806,0,0,1-.9668-2.6182,7.7654,7.7654,0,0,1-.1748-2.9287,6.9981,6.9981,0,0,1,1.2275-2.5078,8.3336,8.3336,0,0,1,1.9863-1.9834,18.6638,18.6638,0,0,1,3.168-1.6787,32.2987,32.2987,0,0,1,5.4053-1.4941,53.0665,53.0665,0,0,1,6.63-1.0508,127.9706,127.9706,0,0,1,13.3808-.4141q7.5.1054,14.5489.8067C396.5181,208.6833,397.7886,208.8,397.8326,208.7917Z"/><path class="cls-2" d="M407.3042,255.487c.0342-.0117.0616.0312.08.12.0371.1562-1.501,1.0781-4.5947,2.7412q-4.6275,2.5048-8.418,4.2793-19.3227,9.0747-25.3779,5.2461a4.8548,4.8548,0,0,1-1.5186-1.3916,6.4039,6.4039,0,0,1-.7734-2.13,5.9686,5.9686,0,0,1-.1475-2.3818,5.4888,5.4888,0,0,1,1.004-2.0323,6.9035,6.9035,0,0,1,1.6015-1.6171,16.0392,16.0392,0,0,1,2.5791-1.3663,26.2747,26.2747,0,0,1,4.3916-1.2089,43.0757,43.0757,0,0,1,5.3965-.8623,105.2345,105.2345,0,0,1,10.876-.3321q6.1.0922,11.8144.6543C406.2486,255.3991,407.2837,255.4909,407.3042,255.487Z"/><path class="cls-2" d="M395.2935,196.9733c.0371.0039.0518.0586.0273.1631-.0273.19-2.1054.5185-6.2.98q-6.1554.6943-11.0625.96-25.0373,1.4-29.9678-5.4394a5.5973,5.5973,0,0,1-1.04-2.1787,7.5705,7.5705,0,0,1,.083-2.6612,7.2306,7.2306,0,0,1,.8868-2.6611,6.6027,6.6027,0,0,1,1.9863-1.78,8.1724,8.1724,0,0,1,2.459-1.0556,18.6277,18.6277,0,0,1,3.4189-.3506,31.08,31.08,0,0,1,5.3194.6045,51.7014,51.7014,0,0,1,6.2519,1.4365,122.3813,122.3813,0,0,1,12,4.417q6.6064,2.7817,12.5879,5.9062C394.1705,196.4118,395.26,196.9674,395.2935,196.9733Z"/><path class="cls-2" d="M224.4292,396.3258c.0186.0274-.0087.0655-.082.12-.12.1093-1.6211-.8594-4.4912-2.8916q-4.2993-3.0426-7.5635-5.6534-16.7007-13.3052-15.958-20.4287a4.7858,4.7858,0,0,1,.58-1.9756,6.4179,6.4179,0,0,1,1.5586-1.6367,6.2418,6.2418,0,0,1,2.07-1.1953,5.4966,5.4966,0,0,1,2.2734,0,6.9768,6.9768,0,0,1,2.1543.7227,15.2455,15.2455,0,0,1,2.3731,1.7148,26.1271,26.1271,0,0,1,3.0332,3.39,44.1963,44.1963,0,0,1,3.1592,4.4589,106.7366,106.7366,0,0,1,5.1191,9.6026q2.6235,5.5063,4.65,10.8789Q224.3916,396.29,224.4292,396.3258Z"/><path class="cls-2" d="M246.9634,403.9128c-.0156.0439-.0742.0439-.17,0q-.2841-.12.3164-6.5713.5948-6.4629,1.3633-11.5342,3.895-25.9791,11.9434-29.5723a5.8044,5.8044,0,0,1,2.4589-.5957,7.7444,7.7444,0,0,1,2.7071.6533,7.569,7.569,0,0,1,2.541,1.4649,6.7625,6.7625,0,0,1,1.4,2.4121,8.6136,8.6136,0,0,1,.5556,2.7549,19.0775,19.0775,0,0,1-.3623,3.5771,32.8289,32.8289,0,0,1-1.75,5.3194,54.2948,54.2948,0,0,1-2.7988,6.1025,129.3041,129.3041,0,0,1-7.082,11.3691q-4.254,6.1758-8.7256,11.6465C247.7769,402.8854,246.981,403.8727,246.9634,403.9128Z"/><path class="cls-1" d="M176.0669,341.52c1.6875-1.836,3.1612-3.792,4.7452-5.75a62.2994,62.2994,0,0,1,6.3232-6.1231.5262.5262,0,0,0-.5439-.8847c-5.1651,2.1269-8.7471,7.4316-11.3164,12.3466-4.3741-1.8662-10.2491,1.8536-13.1788,8.3829-2.9638,6.5771-1.8037,13.5048,2.58,15.4785,4.3828,1.9677,10.34-1.7666,13.2969-8.3457C180.772,350.402,179.8912,343.8766,176.0669,341.52Z"/><path class="cls-1" d="M307.0474,374.68c-.0234-2.49-.2754-4.9209-.4414-7.4375a61.0317,61.0317,0,0,1,.4375-8.7949.527.527,0,0,0-1.0019-.2725c-2.3331,5.0831-1.32,11.4092.1406,16.7471-4.4619,1.624-6.2149,8.3555-3.9131,15.12,2.33,6.8272,7.9033,11.1026,12.45,9.5616,4.5586-1.5567,6.3623-8.3487,4.0332-15.1856C316.5513,377.9713,311.4419,373.7956,307.0474,374.68Z"/><path class="cls-1" d="M160.0806,321.7438c2.4678-.3476,4.8526-.9082,7.32-1.41a62.21,62.21,0,0,1,8.7754-.7061.5253.5253,0,0,0,.1485-1.0254c-5.3418-1.6562-11.4922.1748-16.585,2.32-2.2012-4.2187-9.0947-5.0879-15.5068-1.917-6.4639,3.1856-9.9825,9.2754-7.8555,13.5879,2.1269,4.3067,9.09,5.2188,15.5723,2.0264C158.063,331.5954,161.5357,325.987,160.0806,321.7438Z"/><path class="cls-1" d="M177.53,191.71c1.3633,2.0811,2.8916,3.9932,4.4024,6.0166a62.642,62.642,0,0,1,4.3926,7.63.5185.5185,0,0,0,.9765-.31c-.7832-5.541-5.0556-10.3076-9.1787-14,2.87-3.788.7119-10.3935-4.8857-14.8349-5.6514-4.4844-12.66-5.0674-15.6426-1.3018-2.9834,3.77-.8291,10.458,4.8125,14.94C167.7544,194.0944,174.3082,194.8346,177.53,191.71Z"/><path class="cls-1" d="M266.6841,229.7467c-1.1855-2.2011-2.1328-4.4541-3.1816-6.7441a62.7092,62.7092,0,0,0-4.6084-7.499.5229.5229,0,0,1,.7432-.7178c4.48,3.34,6.6308,9.3711,7.9062,14.7588,4.7051-.7246,9.4756,4.3369,10.7012,11.3848,1.2334,7.1113-1.6016,13.5361-6.3418,14.3613-4.7334.82-9.58-4.2656-10.8135-11.375C259.9107,237.194,262.397,231.0856,266.6841,229.7467Z"/><path class="cls-1" d="M386.8863,275.1237c-2.4776-.2246-4.89-.6729-7.3721-1.044a61.0954,61.0954,0,0,0-8.8076-.288.5248.5248,0,0,1-.1865-1.02c5.2509-1.9121,11.4736-.3838,16.68,1.5137,1.9794-4.3164,8.8212-5.5225,15.3906-2.6709,6.6172,2.8828,10.4111,8.7881,8.5019,13.1924-1.9218,4.414-8.834,5.6514-15.4492,2.7812C389.3912,284.87,385.6529,279.4391,386.8863,275.1237Z"/><path class="cls-1" d="M317.86,161.8493c-2.0176,1.458-4.125,2.7129-6.2558,4.0576a60.9235,60.9235,0,0,0-6.8086,5.5713.528.528,0,0,1-.8164-.6475c2.7011-4.8867,8.3984-7.8242,13.5576-9.8164-1.335-4.5576,3.0381-9.957,9.8447-12.1211,6.8867-2.1855,13.6348-.23,15.0918,4.35,1.456,4.585-2.9463,10.0645-9.8184,12.2471C326.14,167.5524,319.7623,165.92,317.86,161.8493Z"/><path class="cls-1" d="M262.2671,336.4645c-2.1884-1.1914-4.2138-2.5635-6.3447-3.9082a62.8965,62.8965,0,0,0-7.9648-3.7685.5251.5251,0,0,1,.2353-1.0088c5.5752.3466,10.6758,4.23,14.6914,8.0429,3.53-3.1728,10.3037-1.5429,15.1856,3.6875,4.917,5.2793,6.0439,12.2168,2.5263,15.4883-3.5117,3.2764-10.3505,1.6641-15.2714-3.6123C260.6744,346.3981,259.4126,339.93,262.2671,336.4645Z"/><path class="cls-1" d="M196.7125,238.5592c-1.1124,2.2325-2.4,4.3125-3.6465,6.501a61.4823,61.4823,0,0,0-3.4444,8.11.5269.5269,0,0,1-1.0195-.2c.1172-5.5918,3.791-10.8379,7.4375-14.9971-3.3145-3.4141-1.9609-10.2373,3.0664-15.3232,5.0772-5.126,11.959-6.5411,15.3789-3.168,3.416,3.3828,2.08,10.2832-2.9971,15.416C206.6861,239.7506,200.2789,241.2692,196.7125,238.5592Z"/><path class="cls-1" d="M348.6978,350.01c-.5488-2.4287-.8555-4.8525-1.251-7.3418a62.0529,62.0529,0,0,0-2.4316-8.4736.5289.5289,0,0,1,.9209-.4873c3.417,4.417,3.8711,10.8164,3.6562,16.3457,4.7207.56,7.9551,6.7207,7.2442,13.831-.7168,7.1836-5.1719,12.6143-9.9522,12.1426-4.7881-.4814-8.0849-6.6855-7.372-13.8691C340.1929,355.3717,344.2085,350.15,348.6978,350.01Z"/><path class="cls-1" d="M375.8365,230.3483c-2.4922-.0791-4.9112-.3867-7.4287-.6143a61.5782,61.5782,0,0,0-8.7969.2334.5228.5228,0,0,1-.249-1.0029c5.1289-2.2139,11.4375-1.06,16.7324.53,1.7246-4.4287,8.49-6.0313,15.2031-3.5733,6.7774,2.48,10.93,8.1592,9.2822,12.6748-1.667,4.5088-8.5,6.1543-15.2714,3.6709C378.9029,239.9254,374.85,234.7253,375.8365,230.3483Z"/><path class="cls-1" d="M349.233,270.36c-2.1455-1.2558-4.1348-2.6767-6.2413-4.0742a60.4853,60.4853,0,0,0-7.8574-3.9805.5257.5257,0,0,1,.2666-1.0009c5.5625.4941,10.5625,4.5087,14.4668,8.42,3.628-3.0664,10.3418-1.2676,15.084,4.0918,4.7793,5.4052,5.7344,12.3672,2.13,15.5586-3.5977,3.1709-10.3926,1.3818-15.1787-4.0274C347.3912,280.24,346.2955,273.7448,349.233,270.36Z"/><path class="cls-1" d="M376.6412,314.6852c-1.6455-1.8623-3.0889-3.8418-4.6358-5.8379a62.3916,62.3916,0,0,0-6.1885-6.249.5224.5224,0,0,1,.5625-.8652c5.1192,2.2314,8.5909,7.6054,11.0684,12.5625,4.4111-1.7735,10.2031,2.0615,13.0107,8.6377,2.837,6.6464,1.5362,13.542-2.8916,15.4248-4.42,1.8877-10.3-1.9649-13.1211-8.5938C371.7662,323.4831,372.7789,316.9753,376.6412,314.6852Z"/><path class="cls-1" d="M207.8628,200.55c-.6709,2.3974-1.5312,4.69-2.3535,7.0693a61.5591,61.5591,0,0,0-1.8349,8.6162.5288.5288,0,0,1-1.0411,0c-.9423-5.51,1.667-11.36,4.46-16.14-3.8984-2.7227-3.8623-9.6748.1162-15.6153,4.01-6.0039,10.4981-8.7011,14.4942-6.0214,3.997,2.6728,3.99,9.6894-.0186,15.6943C217.8912,199.8219,211.8814,202.5387,207.8628,200.55Z"/><path class="cls-1" d="M204.4839,164.4645c1.6768,1.8418,3.4815,3.4932,5.2852,5.249A61.9514,61.9514,0,0,1,215.3,176.57a.5247.5247,0,0,0,.9248-.4658c-1.6425-5.3418-6.6093-9.3838-11.2539-12.3887,2.2481-4.1865-.92-10.375-7.1543-13.8984-6.289-3.5362-13.2871-3.0118-15.6543,1.1728-2.3574,4.1895.8106,10.4541,7.0957,14.002C195.2017,168.3444,201.7955,168.05,204.4839,164.4645Z"/><path class="cls-1" d="M224.1353,341.5133c1.6816-1.8388,3.1494-3.7851,4.7451-5.7363a61.87,61.87,0,0,1,6.3233-6.14.5224.5224,0,0,0-.543-.875c-5.1846,2.1181-8.752,7.4414-11.33,12.34-4.37-1.8594-10.2461,1.8633-13.18,8.3867-2.959,6.58-1.7988,13.5078,2.584,15.4815,4.3887,1.9677,10.3447-1.7666,13.3067-8.3457C228.8316,350.402,227.9468,343.8708,224.1353,341.5133Z"/><path class="cls-1" d="M240.7837,363.5534c1.1788-2.1963,2.128-4.4492,3.1807-6.7393a62.4362,62.4362,0,0,1,4.6006-7.51.5191.5191,0,0,0-.74-.71c-4.49,3.3369-6.6358,9.3721-7.9122,14.7568-4.69-.7187-9.4668,4.336-10.6855,11.3887-1.2422,7.1035,1.5928,13.5313,6.3359,14.3574,4.7325.8164,9.5762-4.2666,10.8145-11.373C247.5435,371.0026,245.0748,364.8981,240.7837,363.5534Z"/><path class="cls-1" d="M269.0054,170.0788c2.4619-.3409,4.8467-.9024,7.3135-1.4092a63.1011,63.1011,0,0,1,8.7764-.7061.5243.5243,0,0,0,.1416-1.0244c-5.3448-1.6553-11.4864.1778-16.5821,2.3233-2.1972-4.2207-9.0947-5.087-15.5039-1.919-6.4648,3.1826-9.9824,9.2735-7.86,13.586,2.1328,4.3066,9.0947,5.2187,15.5683,2.0293C266.982,179.9313,270.4537,174.3239,269.0054,170.0788Z"/><path class="cls-1" d="M243.6011,152.404c1.3721,2.0781,2.8916,3.9941,4.4112,6.0166a60.1981,60.1981,0,0,1,4.3837,7.6308.53.53,0,0,0,.9942-.3164c-.7949-5.5371-5.0674-10.3037-9.19-13.9961,2.873-3.7851.71-10.3945-4.89-14.8359-5.6533-4.4844-12.6514-5.0674-15.6416-1.2979-2.9893,3.7666-.832,10.458,4.8125,14.9356C233.8414,154.7858,240.3882,155.529,243.6011,152.404Z"/><path class="cls-1" d="M224.4966,247.8385c-1.2363-2.167-2.2578-4.3838-3.3818-6.6425a60.5587,60.5587,0,0,0-4.8066-7.3731.5236.5236,0,0,1,.7275-.7363c4.5771,3.208,6.8867,9.1777,8.3262,14.5215,4.6718-.8506,9.5839,4.0673,11.02,11.0752,1.4365,7.0693-1.2149,13.5791-5.9239,14.5341-4.7138.9571-9.7031-3.9843-11.14-11.06C217.9527,255.4753,220.2554,249.3,224.4966,247.8385Z"/><path class="cls-1" d="M313.356,245.6657c-1.2432-2.1582-2.2617-4.377-3.3789-6.6367a61.3,61.3,0,0,0-4.8252-7.3789.5285.5285,0,0,1,.7354-.7364c4.5771,3.2071,6.8886,9.1807,8.3261,14.5244,4.668-.8535,9.5938,4.0733,11.0225,11.0811,1.4336,7.0664-1.2188,13.5732-5.9277,14.5312-4.7178.9542-9.6924-3.9882-11.1358-11.0537C306.7994,253.3053,309.105,247.1325,313.356,245.6657Z"/><path class="cls-1" d="M317.8306,220.7868c-.1426,2.4834-.5176,4.9023-.8125,7.4072a60.3164,60.3164,0,0,0-.0156,8.8027.5245.5245,0,0,1-1.0127.2207c-2.0654-5.1923-.7393-11.455.9941-16.71-4.3818-1.8447-5.7978-8.6563-3.1455-15.3047,2.6582-6.7031,8.4473-10.6875,12.9063-8.9141,4.4668,1.7774,5.9306,8.6534,3.2695,15.3477C327.4908,217.9811,322.1871,221.8893,317.8306,220.7868Z"/><path class="cls-1" d="M311.063,321.6637c-1.2431-2.165-2.2558-4.3838-3.3789-6.64a61.5774,61.5774,0,0,0-4.8164-7.3692.5309.5309,0,0,1,.7373-.7441c4.5752,3.209,6.8877,9.1816,8.3174,14.5254,4.6748-.8506,9.5918,4.0693,11.0205,11.0752,1.4444,7.0713-1.2158,13.58-5.9189,14.5361-4.7178.9571-9.709-3.99-11.1426-11.0586C304.5162,329.3034,306.8189,323.1276,311.063,321.6637Z"/><path class="cls-1" d="M286.231,274.9118c-.4443-2.4531-.6631-4.8867-.9609-7.3916a59.3965,59.3965,0,0,0-2.0723-8.5576.5291.5291,0,0,1,.94-.4541c3.2324,4.5576,3.4257,10.958,2.9843,16.4765,4.6866.7588,7.67,7.0362,6.6758,14.1231-1.01,7.1425-5.6816,12.3818-10.4424,11.7158-4.7549-.6738-7.8056-7.0068-6.7959-14.1436C277.5074,279.9186,281.7437,274.8717,286.231,274.9118Z"/><path class="cls-1" d="M155.9283,255.6686c1.1806-2.1943,2.1347-4.4414,3.1855-6.7373a61.6454,61.6454,0,0,1,4.6045-7.5078.5221.5221,0,0,0-.7461-.7119c-4.4844,3.3388-6.63,9.374-7.91,14.7578-4.6963-.7188-9.47,4.3379-10.6914,11.3877-1.2432,7.1055,1.6025,13.53,6.3349,14.3525,4.7393.82,9.5772-4.2627,10.8125-11.3691C162.6861,263.1217,160.2193,257.0133,155.9283,255.6686Z"/><path class="cls-1" d="M196.2388,281.1794c1.1729-2.1915,2.1309-4.4415,3.18-6.7344a61.9664,61.9664,0,0,1,4.5986-7.5049.5212.5212,0,0,0-.7421-.7148c-4.4883,3.3388-6.63,9.374-7.9141,14.7607-4.6953-.7207-9.459,4.334-10.6846,11.3828-1.2431,7.1113,1.5938,13.5361,6.332,14.3574,4.7374.8233,9.5811-4.2636,10.8145-11.374C203.0015,288.6325,200.524,282.5241,196.2388,281.1794Z"/><path class="cls-1" d="M255.4537,208.7419c2.4668-.3467,4.8457-.9053,7.3144-1.4092a61.8512,61.8512,0,0,1,8.7813-.7061.5278.5278,0,0,0,.1464-1.03c-5.3417-1.6484-11.4882.1807-16.5927,2.3233-2.1885-4.2178-9.0889-5.0869-15.4971-1.916-6.4648,3.1836-9.9883,9.2734-7.8555,13.5859,2.127,4.3067,9.0889,5.2188,15.5625,2.0264C253.4273,218.5924,256.9078,212.987,255.4537,208.7419Z"/><path class="cls-1" d="M251.4966,308.6305c2.4649-.3467,4.84-.9033,7.3174-1.4062a61.5183,61.5183,0,0,1,8.7764-.71.5253.5253,0,0,0,.1465-1.0254c-5.35-1.6562-11.4825.1758-16.585,2.3184-2.2-4.2168-9.0908-5.08-15.5059-1.9151-6.4736,3.1817-9.9814,9.2725-7.8544,13.5909,2.1269,4.2988,9.0888,5.2168,15.5615,2.0234C249.4771,318.486,252.9488,312.8756,251.4966,308.6305Z"/><path class="cls-1" d="M338.5875,307.5651c-2.1758-1.1982-4.1954-2.5752-6.336-3.9219a61.0059,61.0059,0,0,0-7.9463-3.7978.5235.5235,0,0,1,.2393-1.0039c5.58.3632,10.67,4.2548,14.66,8.08,3.5479-3.1591,10.3077-1.5048,15.1748,3.7344,4.9,5.292,6.0176,12.2285,2.4971,15.4981-3.5371,3.2666-10.36,1.6318-15.2685-3.6621C336.9673,317.4919,335.733,311.0241,338.5875,307.5651Z"/><path class="cls-1" d="M281.3208,204.2419c-.664,2.3974-1.5292,4.6875-2.3574,7.0693a62.2807,62.2807,0,0,0-1.8369,8.61.5294.5294,0,0,1-1.043.003c-.9423-5.51,1.6631-11.3574,4.4688-16.1338-3.9014-2.7285-3.8613-9.6748.1133-15.62,4.0058-6.0069,10.499-8.6963,14.4941-6.0225,3.9971,2.67,3.9883,9.6963-.0146,15.6943C291.3472,203.5114,285.3433,206.2282,281.3208,204.2419Z"/><path class="cls-1" d="M345.1988,234.2282c-2.1514-1.252-4.1338-2.6729-6.2432-4.07a61.3694,61.3694,0,0,0-7.8545-3.9785.5253.5253,0,0,1,.2569-1.003c5.5712.4942,10.5664,4.51,14.4765,8.4258,3.6192-3.0723,10.3379-1.2676,15.0772,4.082,4.7763,5.4092,5.7343,12.3711,2.1347,15.56-3.61,3.1777-10.3916,1.3848-15.1855-4.0244C343.3492,244.1149,342.2525,237.6169,345.1988,234.2282Z"/><path class="cls-2" d="M218.0943,229.734c-.0313-.0058-.0459-.0517-.0186-.1406.0244-.1592,1.7959-.3926,5.2979-.706q5.2587-.46,9.4258-.583,21.3311-.6811,25.38,5.24a4.7635,4.7635,0,0,1,.8467,1.8779,6.7476,6.7476,0,0,1-.1318,2.2588,6.2418,6.2418,0,0,1-.8076,2.2471,5.5076,5.5076,0,0,1-1.7276,1.4707,6.9473,6.9473,0,0,1-2.1181.8467,15.1958,15.1958,0,0,1-2.91.23,26.5762,26.5762,0,0,1-4.5146-.6269,44.6033,44.6033,0,0,1-5.2862-1.3467,106.7333,106.7333,0,0,1-10.1259-4.0059q-5.5444-2.496-10.5831-5.2832C219.0337,230.2321,218.1216,229.7409,218.0943,229.734Z"/><path class="cls-2" d="M181.272,317.1852c-.0371,0-.039-.042-.0312-.1348.0381-.1591,1.8056-.3994,5.3047-.706q5.2631-.46,9.4355-.5859Q217.3121,315.08,221.3541,321a4.7977,4.7977,0,0,1,.8476,1.8789,6.6584,6.6584,0,0,1-.1289,2.2627,6.258,6.258,0,0,1-.8047,2.2431,5.6455,5.6455,0,0,1-1.7275,1.4707,7.1857,7.1857,0,0,1-2.1182.85,15.49,15.49,0,0,1-2.9189.2247,26.2914,26.2914,0,0,1-4.503-.6241,43.3525,43.3525,0,0,1-5.2861-1.3476,104.4458,104.4458,0,0,1-10.1289-4.0039q-5.5533-2.502-10.59-5.2842C182.2076,317.6881,181.3033,317.1979,181.272,317.1852Z"/><path class="cls-2" d="M212.4488,242.7887c0-.0332.0371-.0478.1387-.0459.1572.0127.6386,1.7315,1.4277,5.1573.791,3.4218,1.4277,6.5039,1.8877,9.248q3.6474,21.0366-1.6582,25.87a4.8787,4.8787,0,0,1-1.74,1.0928,6.6467,6.6467,0,0,1-2.2627.1836,6.2377,6.2377,0,0,1-2.3388-.4844,5.5265,5.5265,0,0,1-1.6875-1.5107,6.5492,6.5492,0,0,1-1.1328-1.9737,15.9993,15.9993,0,0,1-.6407-2.8545,26.1666,26.1666,0,0,1-.0039-4.5517,43.6452,43.6452,0,0,1,.5987-5.4238,106.2061,106.2061,0,0,1,2.56-10.584q1.7052-5.8478,3.7676-11.2188C212.0806,243.7868,212.4488,242.8171,212.4488,242.7887Z"/><path class="cls-2" d="M304.4585,325.987c.04.0039.0479.0625.03.167-.03.1875-2.1064.5117-6.207.9756q-6.1611.6914-11.0625.958-25.0371,1.4076-29.9707-5.4336a5.4306,5.4306,0,0,1-1.0313-2.1817,7.5662,7.5662,0,0,1,.083-2.665,7.2458,7.2458,0,0,1,.8848-2.6553,6.616,6.616,0,0,1,1.98-1.7832,8.3156,8.3156,0,0,1,2.4678-1.0566,19.0174,19.0174,0,0,1,3.417-.3487,30.8864,30.8864,0,0,1,5.3125.6045,51.9326,51.9326,0,0,1,6.2519,1.4366,121.0686,121.0686,0,0,1,12.0078,4.4179q6.608,2.78,12.5879,5.9053C303.3384,325.4294,304.4146,325.9821,304.4585,325.987Z"/><path class="cls-2" d="M305.99,199.6842c.0176-.0371.0732-.0312.1689.0118q.2579.1347-.8232,6.2343-1.0767,6.1011-2.21,10.875-5.7582,24.422-13.7109,27.2022a5.6776,5.6776,0,0,1-2.3857.3808,7.6555,7.6555,0,0,1-2.5284-.8379,7.1173,7.1173,0,0,1-2.2968-1.6054,6.37,6.37,0,0,1-1.1416-2.4033,7.9979,7.9979,0,0,1-.3233-2.6641,18.306,18.306,0,0,1,.6367-3.377,30.3158,30.3158,0,0,1,2.087-4.9267,52.607,52.607,0,0,1,3.1435-5.5918,122.7038,122.7038,0,0,1,7.6426-10.2588q4.5307-5.543,9.2265-10.4023C305.1392,200.5983,305.9712,199.72,305.99,199.6842Z"/><path class="cls-2" d="M236.02,298.1354c-.0157.0361-.0791.0361-.1778-.0088-.1875-.0674-.08-2.2607.3194-6.5664q.5933-6.4556,1.3623-11.541,3.8818-25.9687,11.9443-29.5625a5.9785,5.9785,0,0,1,2.4649-.6045,8.1134,8.1134,0,0,1,2.7.6563,7.4651,7.4651,0,0,1,2.5411,1.4736,6.6661,6.6661,0,0,1,1.4,2.416,8.7132,8.7132,0,0,1,.5585,2.7471,19.1625,19.1625,0,0,1-.3652,3.5761,32.9609,32.9609,0,0,1-1.749,5.3194,53.3617,53.3617,0,0,1-2.8,6.0986,128.1805,128.1805,0,0,1-7.0811,11.3731q-4.2465,6.1743-8.73,11.6455C236.8306,297.1012,236.0328,298.0993,236.02,298.1354Z"/><path class="cls-2" d="M265.5552,302.8473c0,.0293-.0566.0518-.1386.0518q-.2492-.0088-1.6661-5.0869-1.4091-5.0815-2.31-9.1553-4.566-20.858.5107-25.9131a4.7057,4.7057,0,0,1,1.6934-1.1728,6.3923,6.3923,0,0,1,2.2422-.2881,6.3209,6.3209,0,0,1,2.3623.3838,5.64,5.64,0,0,1,1.7617,1.4267,6.7834,6.7834,0,0,1,1.21,1.9248,15.3545,15.3545,0,0,1,.77,2.8213,26.9508,26.9508,0,0,1,.211,4.5488,45.305,45.305,0,0,1-.3584,5.4483,105.2032,105.2032,0,0,1-2.09,10.6885q-1.437,5.9164-3.2509,11.373C265.8687,301.8317,265.5552,302.8171,265.5552,302.8473Z"/><path class="cls-2" d="M207.0005,312.2848c-.0117.0274-.0586.02-.1318-.0322-.1377-.0918.3232-1.8086,1.3916-5.1641q1.5879-5.0259,3.084-8.9257,7.5821-19.9542,14.6045-21.4122a4.6869,4.6869,0,0,1,2.0537-.0527,6.3515,6.3515,0,0,1,2.0381.9922,6.22,6.22,0,0,1,1.7646,1.6055,5.3966,5.3966,0,0,1,.6914,2.16,6.7945,6.7945,0,0,1-.0371,2.2774,15.3644,15.3644,0,0,1-.9023,2.7783,26.3858,26.3858,0,0,1-2.3115,3.9258,44.9257,44.9257,0,0,1-3.2784,4.3584,106.4189,106.4189,0,0,1-7.5966,7.8027c-2.9561,2.7813-5.9493,5.3594-8.95,7.7383C207.83,311.61,207.0259,312.2575,207.0005,312.2848Z"/><path class="cls-2" d="M309.5533,295.6706c.0185.04-.03.08-.1377.1132-.1944.0674-1.5381-1.66-4.0489-5.1816q-3.7485-5.2749-6.4853-9.6191-13.98-22.1925-10.2324-30.1582a5.8256,5.8256,0,0,1,1.4687-2.0567,7.961,7.961,0,0,1,2.4824-1.2734,7.6214,7.6214,0,0,1,2.8731-.543,6.8023,6.8023,0,0,1,2.6348.9141,8.4665,8.4665,0,0,1,2.2128,1.7158,19.6515,19.6515,0,0,1,2.0586,2.9434,33.7077,33.7077,0,0,1,2.1465,5.17,55.18,55.18,0,0,1,1.8535,6.4433,130.4368,130.4368,0,0,1,2.0567,13.22q.8057,7.4444.9883,14.5058C309.4888,294.3629,309.5357,295.6344,309.5533,295.6706Z"/><path class="cls-2" d="M343.3785,348.6784c.0166.0215-.0127.0547-.0948.0976-.1386.083-1.4648-1.1181-3.9414-3.6035q-3.7279-3.731-6.51-6.8476-14.2281-15.9126-12.3037-22.8164a4.7744,4.7744,0,0,1,.9033-1.8477,6.4009,6.4009,0,0,1,1.8144-1.3555,6.0294,6.0294,0,0,1,2.2373-.8213,5.4766,5.4766,0,0,1,2.2344.3721,6.9386,6.9386,0,0,1,2.0108,1.0781,15.4564,15.4564,0,0,1,2.0468,2.087,25.6249,25.6249,0,0,1,2.419,3.8515,43.1648,43.1648,0,0,1,2.3662,4.9238,102.946,102.946,0,0,1,3.4355,10.3262q1.6714,5.8653,2.7559,11.51C343.1558,347.6276,343.358,348.6413,343.3785,348.6784Z"/><path class="cls-2" d="M367.272,311.8463c.0244.0284,0,.08-.083.1573-.1289.1465-1.9424-.6162-5.4238-2.2832q-5.2339-2.505-9.2178-4.7373-20.4287-11.3658-20.2305-19.6416a5.811,5.811,0,0,1,.47-2.3819,8.9326,8.9326,0,0,1,1.6474-2.21,8.2987,8.2987,0,0,1,2.2657-1.8174,6.7045,6.7045,0,0,1,2.6054-.5156,7.5989,7.5989,0,0,1,2.5606.3408,15.6632,15.6632,0,0,1,2.873,1.4121,26.0176,26.0176,0,0,1,3.8028,3.1826,42.0865,42.0865,0,0,1,4.0429,4.3535,101.128,101.128,0,0,1,6.7774,9.7793q3.5214,5.6631,6.3515,11.3262C366.7291,310.8092,367.2408,311.819,367.272,311.8463Z"/><path class="cls-2" d="M325.4927,295.0417c.0332-.0127.0713.0214.1026.1074.0547.15-1.29,1.3164-4.0537,3.4892q-4.1427,3.2593-7.5586,5.6543-17.4933,12.2535-24.1172,9.5157a4.8877,4.8877,0,0,1-1.7315-1.1094,6.7254,6.7254,0,0,1-1.1328-1.9629,6.2313,6.2313,0,0,1-.5439-2.3242,5.3948,5.3948,0,0,1,.6367-2.1729,6.7363,6.7363,0,0,1,1.3066-1.873,16.0117,16.0117,0,0,1,2.3057-1.7862,26.92,26.92,0,0,1,4.1221-1.9462,41.5017,41.5017,0,0,1,5.16-1.7647,104.4958,104.4958,0,0,1,10.669-2.1943q6.0087-.9537,11.75-1.375C324.4341,295.1364,325.4654,295.0534,325.4927,295.0417Z"/><path class="cls-2" d="M312.1255,292.0114c-.0127.0254-.0488.0029-.1035-.0518-.1113-.1015.6074-1.4853,2.127-4.1621q2.269-3.996,4.251-7.06Q328.5,265.06,334.7662,265.09a4.193,4.193,0,0,1,1.7744.3281,5.6424,5.6424,0,0,1,1.55,1.2129,5.58,5.58,0,0,1,1.2246,1.6973,4.784,4.784,0,0,1,.1933,1.9678,5.8577,5.8577,0,0,1-.4384,1.9453,14.3015,14.3015,0,0,1-1.2774,2.2041,23.189,23.189,0,0,1-2.6943,2.9375,38.4921,38.4921,0,0,1-3.5918,3.1279,91.6834,91.6834,0,0,1-7.9072,5.292q-4.5615,2.7525-9.0557,4.9844C312.9615,291.5846,312.15,291.9967,312.1255,292.0114Z"/><path class="cls-2" d="M227.772,362.0944c-.0185.0244-.0547.0166-.1191-.0332-.12-.0742.3047-1.5742,1.2519-4.4932q1.4444-4.3842,2.7813-7.7724,6.7866-17.3673,12.94-18.5762a4.0006,4.0006,0,0,1,1.8027-.0273,5.6646,5.6646,0,0,1,1.7637.874,5.4928,5.4928,0,0,1,1.5322,1.4267,4.7826,4.7826,0,0,1,.58,1.8877,5.9087,5.9087,0,0,1-.0459,1.9883,13.3755,13.3755,0,0,1-.8135,2.4229,23.0142,23.0142,0,0,1-2.0595,3.4082,39.1052,39.1052,0,0,1-2.9,3.78,92.5475,92.5475,0,0,1-6.7041,6.753q-3.9141,3.6049-7.8828,6.6757C228.5,361.5046,227.7916,362.0739,227.772,362.0944Z"/><path class="cls-2" d="M155.9087,293.5856c-.0185.0273-.0546.0186-.1377-.0322-.1386-.0918.3311-1.8115,1.3907-5.1641q1.6011-5.0229,3.0849-8.9258,7.582-19.954,14.6035-21.4121a4.69,4.69,0,0,1,2.0577-.0527,6.5356,6.5356,0,0,1,2.041.9883,6.1876,6.1876,0,0,1,1.7588,1.6113,5.6342,5.6342,0,0,1,.6992,2.1582,7.06,7.06,0,0,1-.0361,2.2773,15.8937,15.8937,0,0,1-.9112,2.7745,25.8816,25.8816,0,0,1-2.3125,3.9238,44.12,44.12,0,0,1-3.2773,4.3642,106.925,106.925,0,0,1-7.5889,7.8057q-4.4545,4.1719-8.959,7.7354C156.7291,292.9049,155.9283,293.5612,155.9087,293.5856Z"/><path class="cls-2" d="M185.1158,279.2272c.0185-.0273.0586-.0215.1406.0283q.208.1245-1.1875,5.2119-1.3857,5.0874-2.7227,9.042-6.7778,20.2441-13.7334,21.9815a4.8613,4.8613,0,0,1-2.0556.14,6.6389,6.6389,0,0,1-2.0762-.91,6.3,6.3,0,0,1-1.8223-1.5381,5.4979,5.4979,0,0,1-.7793-2.13,6.6643,6.6643,0,0,1-.0527-2.2812,14.8493,14.8493,0,0,1,.7822-2.8116,26.4074,26.4074,0,0,1,2.1641-4.0088,42.8958,42.8958,0,0,1,3.1035-4.49,106.9975,106.9975,0,0,1,7.2656-8.1045q4.2818-4.34,8.6377-8.084C184.3169,279.9362,185.1,279.2555,185.1158,279.2272Z"/><path class="cls-2" d="M150.8169,348.7506c-.0185.0254-.0644.01-.1113-.0507-.1035-.1055.6035-1.4864,2.1192-4.16q2.2792-4.0092,4.2636-7.0684,10.0958-15.6693,16.3623-15.6455a4.2444,4.2444,0,0,1,1.7784.3252,5.7516,5.7516,0,0,1,1.5468,1.2188,5.3494,5.3494,0,0,1,1.2188,1.6943,4.8207,4.8207,0,0,1,.2011,1.9737,6.0247,6.0247,0,0,1-.4414,1.9375,13.5841,13.5841,0,0,1-1.2822,2.2089,22.1716,22.1716,0,0,1-2.68,2.9356,39.5988,39.5988,0,0,1-3.6015,3.1269,93.0372,93.0372,0,0,1-7.9063,5.2989c-3.0322,1.8291-6.0537,3.4961-9.0547,4.9775C151.6519,348.3219,150.8345,348.7331,150.8169,348.7506Z"/><path class="cls-2" d="M183.35,275.3659c-.0175.0244-.0546.0156-.1191-.0313q-.18-.1245,1.335-4.4746c1.0127-2.9013,1.98-5.4707,2.9189-7.7138q7.1016-17.2428,13.2793-18.3428a4.0662,4.0662,0,0,1,1.7949,0,5.55,5.55,0,0,1,1.75.917,5.4672,5.4672,0,0,1,1.5108,1.4521,4.791,4.791,0,0,1,.542,1.9,5.971,5.971,0,0,1-.0821,1.9883,13.315,13.315,0,0,1-.8632,2.4033,22.9024,22.9024,0,0,1-2.1114,3.3682,37.5781,37.5781,0,0,1-2.9746,3.7256,88.4747,88.4747,0,0,1-6.8232,6.63q-3.9786,3.5333-8.003,6.5381C184.0865,274.7975,183.37,275.35,183.35,275.3659Z"/><path class="cls-2" d="M164.3716,257.0163c-.0185.0273-.0644.0127-.1347-.043q-.1846-.1611,1.8838-5.01,2.0727-4.8515,3.9326-8.5918,9.4614-19.1294,16.6035-19.9111a4.6971,4.6971,0,0,1,2.0527.1445,6.4661,6.4661,0,0,1,1.9248,1.1807,6.328,6.328,0,0,1,1.6084,1.7715,5.6667,5.6667,0,0,1,.4824,2.22,7.1245,7.1245,0,0,1-.249,2.2656,17.2214,17.2214,0,0,1-1.1728,2.6758,26.887,26.887,0,0,1-2.6856,3.6846,43.9927,43.9927,0,0,1-3.6826,4.0234,104.486,104.486,0,0,1-8.3154,7.0449q-4.8208,3.7192-9.66,6.8448C165.2554,256.4215,164.397,256.9948,164.3716,257.0163Z"/><path class="cls-2" d="M349.2291,263.1061c.0224.0244,0,.0615-.0694.1172-.1387.1064-1.6435-.8408-4.5312-2.8369-2.9014-1.9951-5.4366-3.85-7.6338-5.5615q-16.8663-13.0958-16.2071-20.2276a4.95,4.95,0,0,1,.5528-1.9892,8.1849,8.1849,0,0,1,3.5976-2.8741,5.6052,5.6052,0,0,1,2.2676-.03,6.8447,6.8447,0,0,1,2.17.7031,15.636,15.636,0,0,1,2.3887,1.6787,26.1331,26.1331,0,0,1,3.0762,3.3584,43.1012,43.1012,0,0,1,3.2129,4.4131,105.0192,105.0192,0,0,1,5.2334,9.5469q2.6982,5.4653,4.7851,10.8232C348.8179,262.1178,349.2115,263.0758,349.2291,263.1061Z"/><path class="cls-2" d="M244.0337,186.7243c.0235-.0244.0655-.0059.12.0615.12.1162-.7,1.7012-2.4678,4.7393q-2.6382,4.5717-4.93,8.0576-11.7071,17.8506-18.874,17.7627a4.7748,4.7748,0,0,1-2.0254-.39,6.4238,6.4238,0,0,1-1.7686-1.4053,6.1578,6.1578,0,0,1-1.3779-1.9521,5.5558,5.5558,0,0,1-.2139-2.2568,7.0885,7.0885,0,0,1,.5235-2.2159,16.3036,16.3036,0,0,1,1.4834-2.5195,26.5282,26.5282,0,0,1,3.1064-3.331,42.2937,42.2937,0,0,1,4.14-3.5547,106.02,106.02,0,0,1,9.0986-5.9854q5.234-3.1172,10.4053-5.63C243.0777,187.2057,244.0005,186.7428,244.0337,186.7243Z"/><path class="cls-2" d="M359.4634,156.4616c.0254-.02.0645-.0029.1289.06.1192.1132-.6269,1.7246-2.2412,4.8486q-2.43,4.6831-4.5537,8.2764-10.872,18.375-18.0312,18.622a4.8441,4.8441,0,0,1-2.0381-.2978,6.4161,6.4161,0,0,1-1.8389-1.3164,6.2469,6.2469,0,0,1-1.4648-1.8877,5.7278,5.7278,0,0,1-.3213-2.2471,7.2394,7.2394,0,0,1,.4238-2.2373,15.3746,15.3746,0,0,1,1.3643-2.5879,26.8793,26.8793,0,0,1,2.9443-3.4717,43.35,43.35,0,0,1,3.9785-3.7383,106.0053,106.0053,0,0,1,8.8037-6.4062q5.0874-3.3472,10.1328-6.1084C358.5328,156.99,359.4449,156.487,359.4634,156.4616Z"/><path class="cls-2" d="M330.6685,188.8c.0332.0117.0273.0674-.0088.1474q-.1128.2256-5.4892-.55-5.3775-.7734-9.6016-1.6357-21.58-4.3565-24.2383-11.2559a4.8318,4.8318,0,0,1-.3974-2.084,6.6,6.6,0,0,1,.6533-2.2343,6.4951,6.4951,0,0,1,1.3457-2.0664A5.6981,5.6981,0,0,1,295.01,168.05a7.133,7.133,0,0,1,2.3262-.3467,16.5342,16.5342,0,0,1,2.98.4512,27.9755,27.9755,0,0,1,4.3829,1.6943,46.3664,46.3664,0,0,1,4.9882,2.6064,109.147,109.147,0,0,1,9.2207,6.4112q4.9864,3.8173,9.375,7.8027C329.8365,188.0749,330.6412,188.7809,330.6685,188.8Z"/><path class="cls-2" d="M341.147,224.4088c.01.0274-.0273.04-.0947.0459-.1348.0069-.669-1.3349-1.6143-4.0273-.9336-2.6914-1.7168-5.12-2.333-7.29q-4.7782-16.6348-.9306-20.9922a3.9353,3.9353,0,0,1,1.3076-1.0381,5.2631,5.2631,0,0,1,1.8056-.3428,5.0169,5.0169,0,0,1,1.9239.1836,4.4933,4.4933,0,0,1,1.498,1.0684,5.459,5.459,0,0,1,1.0811,1.4922,12.808,12.808,0,0,1,.7646,2.24,21.586,21.586,0,0,1,.4053,3.6709,36.6577,36.6577,0,0,1-.0039,4.4267,88.1023,88.1023,0,0,1-1.1387,8.751q-.8613,4.8722-2.0342,9.3711Q341.1465,224.3678,341.147,224.4088Z"/><path class="cls-2" d="M283.272,172.528c.0186-.0215.0664,0,.1358.0586.122.1221-.5323,1.7-1.9717,4.748-1.4434,3.042-2.7969,5.7344-4.085,8.0635q-9.8217,17.8887-16.9717,17.8711a4.9433,4.9433,0,0,1-2.0527-.3682,7.4858,7.4858,0,0,1-1.915-1.375,7.2546,7.2546,0,0,1-1.5752-1.9277,5.8132,5.8132,0,0,1-.4356-2.2441,6.7165,6.7165,0,0,1,.2881-2.2129,13.8616,13.8616,0,0,1,1.2207-2.52,22.5172,22.5172,0,0,1,2.7481-3.35,38.275,38.275,0,0,1,3.7666-3.582,91.9087,91.9087,0,0,1,8.4355-6.0469q4.8984-3.1538,9.7881-5.7129C282.3785,173.0192,283.2476,172.55,283.272,172.528Z"/><path class="cls-2" d="M228.6236,190.0973c-.0127.0225-.0508.02-.1153-.0117a20.1151,20.1151,0,0,1,.5625-4.2939q.7442-4.2174,1.5284-7.5088,3.9507-16.856,9.4394-18.7725a3.6966,3.6966,0,0,1,1.6377-.2637,5.1132,5.1132,0,0,1,1.7422.5762,5.0025,5.0025,0,0,1,1.5928,1.1025,4.4627,4.4627,0,0,1,.792,1.66,5.646,5.646,0,0,1,.2109,1.833,12.6809,12.6809,0,0,1-.4228,2.3291,21.6081,21.6081,0,0,1-1.4463,3.4043,35.6105,35.6105,0,0,1-2.1641,3.8584,86.9606,86.9606,0,0,1-5.2578,7.0811q-3.1348,3.832-6.3633,7.1767C229.2115,189.4626,228.6412,190.0729,228.6236,190.0973Z"/></svg>