<svg xmlns="http://www.w3.org/2000/svg" viewBox="0 0 467.72 122.74"><defs><style>.cls-1{fill:#9e1f63;}.cls-2{fill:#f6c973;}</style></defs><title>Logo</title><g id="Layer_2" data-name="Layer 2"><g id="Layer_2-2" data-name="Layer 2"><path class="cls-1" d="M168.34,101.44V40.52a1.4,1.4,0,0,0-1,1.41v60.93A1.4,1.4,0,0,0,168.34,101.44Z"/><path class="cls-1" d="M37.08,26.24h0c2,2.17,3.51,5.81,3.51,11.12v13l-14.15,0,5.44,4.61L46,55V42c0-4.73-1.19-8.14-3.33-10.36C41.82,30.71,37.08,26.24,37.08,26.24Z"/><path class="cls-1" d="M22.08,103a1.86,1.86,0,0,0,.66-.14V100L17.3,95.36V103Z"/><path class="cls-1" d="M40.58,104.59c0,9.34-4.53,13.55-13.1,13.55H15.29c-3.48,0-6.33-.67-8.4-2.31v0s5.47,4.25,6.57,5a12.9,12.9,0,0,0,7.28,1.91H34c7.42,0,12-4.21,12-13.54V77.69c0-7.06-2.82-11.87-7.75-13.89a17.35,17.35,0,0,1,2.31,9.28Z"/><path class="cls-1" d="M16.29,70.28a13.15,13.15,0,0,1-8.66-3.15h0s4.51,3.9,6,5.07a13.39,13.39,0,0,0,8.1,2.67l1.85.05V70.46Z"/><path class="cls-1" d="M18.6,35.86c-.9,0-1.6.5-1.6,1.3V54.8l5.44.14V41.77a1.21,1.21,0,0,1,.84-1.15V35.86Z"/><path class="cls-1" d="M86.09,106.06v12H61.76a9.47,9.47,0,0,1-5.88-1.84h0s6.15,4.89,7.51,5.56a8.73,8.73,0,0,0,3.87.89H91.61v-12Z"/><path class="cls-1" d="M67.73,76.36a1.26,1.26,0,0,0-1.3,1.3V103h5.5V82.27A1.27,1.27,0,0,1,73.24,81H83.77v-12l-5.5-4.6v12Z"/><path class="cls-1" d="M67.73,35.82a1.26,1.26,0,0,0-1.3,1.3V61.21h5.5V41.73a1.27,1.27,0,0,1,1.31-1.31H91.6v-12l-5.51-4.6v12Z"/><path class="cls-1" d="M150.62,115.1l.1.08-.1-.1Z"/><path class="cls-1" d="M161.86,37.33V103h5a1.73,1.73,0,0,0,.53-.09V41.93a1.4,1.4,0,0,1,1-1.41v-4.7h-4.88A1.45,1.45,0,0,0,161.86,37.33Z"/><path class="cls-1" d="M182.47,26.27c2.2,2.18,3.17,5.81,3.17,11.06v66.75c0,9.33-5.1,14-12.63,14H159.75a14,14,0,0,1-7.61-1.79c1.51,1.21,3.88,3,5.73,4.36a12.54,12.54,0,0,0,7.38,2h13.27c7.53,0,12.62-4.7,12.62-14V41.93c0-4.74-1.18-8.15-3.34-10.37S182.47,26.27,182.47,26.27Z"/><path class="cls-1" d="M238.07,98.32c2.7-1.7,4.31-5.21,4.31-10.53V41.93c0-4.58-1.13-7.92-3.16-10.14a73,73,0,0,0-5.61-5.25h0c2.18,2.2,3.29,5.74,3.29,10.79V83.18c0,5.32-1.61,8.83-4.32,10.54-.5.3-.6,1.1-.3,1.91l5.47,22.47H223.55l5.51,4.61h14.18l-5.48-22.48C237.46,99.43,237.56,98.62,238.07,98.32Z"/><path class="cls-1" d="M214.2,37.12V81.58h4.07a1.33,1.33,0,0,0,1.31-1.51V35.82H215.5A1.26,1.26,0,0,0,214.2,37.12Z"/><path class="cls-1" d="M215.8,96.73c-.9,0-1.6.5-1.6,1.3V118.1H200.05l5.5,4.61H219.7V111.88l-3.42-15.15Z"/><path class="cls-1" d="M130.73,27c2.47,2.65,3.44,6.81,3.44,12.05v79.11L120,118.07l5.5,4.6,14.15.07V43.63c0-5.13-1.41-9.23-4.2-11.88C133.24,29.62,130.83,27.08,130.73,27Z"/><path class="cls-1" d="M116.88,37.24a8.19,8.19,0,0,0-.13-1.38,3.42,3.42,0,0,0-.46,0H112.8a1.26,1.26,0,0,0-1.3,1.3v81l-14.15-.07,5.5,4.6,14.15.07V115h-.12Z"/><path class="cls-1" d="M305.65,37.12V81.58h4a1.36,1.36,0,0,0,1.4-1.31V35.82h-3.77C306.36,35.82,305.65,36.32,305.65,37.12Z"/><path class="cls-1" d="M324.77,26h0c2.44,2.13,3.58,5.84,3.58,11.33V83.18c0,9.34-5.19,13.55-12.61,13.55H305.65V118.1H291.51l5.5,4.61h14.15V101.33H321.7c7.42,0,12.14-4.21,12.14-13.54V41.93c0-4.51-1.1-7.82-3.08-10C328.65,29.51,324.77,26,324.77,26Z"/><path class="cls-1" d="M399.18,118.1H386.43c-3.58,0-6.51-.63-8.58-2.33v0a58,58,0,0,0,7.55,5.41,13.15,13.15,0,0,0,6.54,1.51h12.74c7.43,0,12.14-4.22,12.14-13.55V96.32l-5.5-4.61v12.85C411.32,113.89,406.6,118.1,399.18,118.1Z"/><path class="cls-1" d="M394,35.82h-4.18a1.26,1.26,0,0,0-1.3,1.3V103h4.08a1.46,1.46,0,0,0,1.4-1.63V88.6h0V47.11h0Z"/><path class="cls-1" d="M412.81,31c-2.05-1.75-4.18-3.94-4.18-3.94h0c1.81,2.22,2.69,5.61,2.69,10.3V50.22H397.17l5.51,4.61h14.14V41.93C416.82,36.75,415.37,33.15,412.81,31Z"/><polygon class="cls-1" points="357.33 118.1 343.18 118.1 348.69 122.71 362.84 122.71 362.84 28.38 357.33 23.78 357.33 118.1"/><path class="cls-1" d="M128.1,11.53a10.47,10.47,0,0,1-6.82,2.7c-4.72,0-7.43-3-11.24-3a9.85,9.85,0,0,0-5.82,1.85,7.81,7.81,0,0,0-1.4,1.11l5.47,5.17a7.81,7.81,0,0,1,1.4-1.11c1.81-1.1,3.21-2.2,5.82-2.2,3.81,0,6.52,3,11.24,3a10.48,10.48,0,0,0,6.82-2.71c.5-.5.6-.63.6-.63V6.83L128.71,2V10.9S128.61,11,128.1,11.53Z"/><path class="cls-1" d="M444.92,101.44V40.52a1.4,1.4,0,0,0-1,1.41v60.93A1.4,1.4,0,0,0,444.92,101.44Z"/><path class="cls-1" d="M438.43,37.33V103h5a1.73,1.73,0,0,0,.53-.09V41.93a1.4,1.4,0,0,1,1-1.41v-4.7H440A1.46,1.46,0,0,0,438.43,37.33Z"/><path class="cls-1" d="M459.05,26.27c2.19,2.18,3.17,5.81,3.17,11.06v66.75c0,9.33-5.1,14-12.63,14H436.33a14.06,14.06,0,0,1-7.62-1.79c1.52,1.21,3.88,3,5.74,4.36a12.54,12.54,0,0,0,7.38,2H455.1c7.52,0,12.62-4.7,12.62-14V41.93c0-4.74-1.19-8.15-3.34-10.37S459.05,26.27,459.05,26.27Z"/><path class="cls-2" d="M35.86,26.4a17.48,17.48,0,0,1,1.57,7.81v13l-9,0H23.28V34A1.33,1.33,0,0,0,22,32.71H15.45c-.9,0-1.6.5-1.6,1.3V52.17a2.41,2.41,0,0,0,2.61,2.61l.54,0,5.44.14,1.84,0c4.75.12,8.38,2,10.62,5.32a13,13,0,0,1,1.44,2.89,19.58,19.58,0,0,1,1.09,6.75v32c0,9.33-4.1,13.07-11.52,13.07H12.14a15.2,15.2,0,0,1-4.57-.65,10.48,10.48,0,0,1-3.1-1.55C1.61,110.66,0,107,0,101.44V92.21H14.15v9.44a1.26,1.26,0,0,0,1.3,1.3h6.63a1.86,1.86,0,0,0,.66-.14,1.19,1.19,0,0,0,.84-1.07V69.84c0-1.41-.6-2.41-2.61-2.51l-7.83-.2a15,15,0,0,1-5.29-1.06,11.83,11.83,0,0,1-2.11-1.13C2.09,62.5,0,58.08,0,52.07V34.21c0-9.33,4.62-13.54,12-13.54H25.29c4,0,7.17,1.2,9.27,3.73A10.43,10.43,0,0,1,35.86,26.4Zm-5.08,78.25V67.26a7,7,0,0,0-6.91-7h0l-10.28-.48A5.62,5.62,0,0,1,8,54.21V32.48a4.74,4.74,0,0,1,4.73-4.73H25.77a3.51,3.51,0,0,1,3.51,3.51V42.88H31V31.26a5.18,5.18,0,0,0-5.18-5.18H12.7a6.41,6.41,0,0,0-6.4,6.4V54.21a7.29,7.29,0,0,0,7.25,7.29h0L23.83,62a5.29,5.29,0,0,1,5.28,5.28v37.39a3.17,3.17,0,0,1-3.17,3.17H11.76A3.79,3.79,0,0,1,8,104V97.31H6.3V104a5.47,5.47,0,0,0,5.46,5.46H25.94A4.84,4.84,0,0,0,30.78,104.65Z"/><path class="cls-2" d="M179.74,24.54c-2.1-2.62-5.31-3.87-9.39-3.87H156.6c-7.43,0-12,4.21-12,13.54v68.65c0,5.52,1.63,7.83,4.49,10a8.84,8.84,0,0,0,1.62,1,13.59,13.59,0,0,0,5.93,1.2h13.75c7.52,0,12.14-2.8,12.14-12.13V34.21A17.4,17.4,0,0,0,181,26.46,10.26,10.26,0,0,0,179.74,24.54Zm-21,76.9V34.21a1.45,1.45,0,0,1,1.6-1.5h6.52a1.42,1.42,0,0,1,1.51,1.5v67.23a1.4,1.4,0,0,1-1,1.42,1.73,1.73,0,0,1-.53.09H160C159.21,103,158.71,102.35,158.71,101.44Zm11.23,8.07H157.1a6.11,6.11,0,0,1-6.1-6.1V32a6.11,6.11,0,0,1,6.1-6.1h12.84A6.11,6.11,0,0,1,176,32v71.39A6.11,6.11,0,0,1,169.94,109.51ZM157.1,27.59A4.43,4.43,0,0,0,152.68,32v71.39a4.43,4.43,0,0,0,4.42,4.43h12.84a4.44,4.44,0,0,0,4.43-4.43V32a4.44,4.44,0,0,0-4.43-4.43Z"/><path class="cls-2" d="M456.32,24.54c-2.1-2.62-5.31-3.87-9.4-3.87H433.18c-7.43,0-12,4.21-12,13.54v68.65c0,5.52,1.62,7.83,4.48,10a9.28,9.28,0,0,0,1.63,1,13.56,13.56,0,0,0,5.93,1.2h13.74c7.53,0,12.15-2.8,12.15-12.13V34.21a17.53,17.53,0,0,0-1.54-7.75A10.26,10.26,0,0,0,456.32,24.54Zm-21,76.9V34.21a1.45,1.45,0,0,1,1.61-1.5h6.52a1.42,1.42,0,0,1,1.51,1.5v67.23a1.4,1.4,0,0,1-1,1.42,1.73,1.73,0,0,1-.53.09h-6.82A1.33,1.33,0,0,1,435.28,101.44Zm11.24,8.07H433.68a6.11,6.11,0,0,1-6.1-6.1V32a6.11,6.11,0,0,1,6.1-6.1h12.84a6.11,6.11,0,0,1,6.1,6.1v71.39A6.11,6.11,0,0,1,446.52,109.51ZM433.68,27.59A4.44,4.44,0,0,0,429.25,32v71.39a4.44,4.44,0,0,0,4.43,4.43h12.84a4.44,4.44,0,0,0,4.43-4.43V32a4.44,4.44,0,0,0-4.43-4.43Z"/><path class="cls-2" d="M406.94,27.17a18.12,18.12,0,0,1,1.23,7v12.9H394V34c0-.8-.7-1.3-1.61-1.3H386.7a1.26,1.26,0,0,0-1.31,1.3v67.43A1.45,1.45,0,0,0,387,103h5.62a1.46,1.46,0,0,0,1.4-1.63V88.6h14.15v12.84c0,9.34-4.72,13.55-12.14,13.55H383.28a14.18,14.18,0,0,1-5.38-1,9.91,9.91,0,0,1-2.35-1.35c-2.75-2.15-4.31-5.83-4.31-11.24V34.21c0-9.33,4.62-13.54,12-13.54H396c4.12,0,7.4,1.3,9.51,4A11.18,11.18,0,0,1,406.94,27.17Zm-5.08,76.24V93.93h-1.67v9.48a4.44,4.44,0,0,1-4.43,4.43h-12a4.44,4.44,0,0,1-4.43-4.43V32a4.44,4.44,0,0,1,4.43-4.43H396A4.44,4.44,0,0,1,400.43,32v10.6h1.67V32a6.11,6.11,0,0,0-6.1-6.1H383.77a6.11,6.11,0,0,0-6.1,6.1v71.39a6.11,6.11,0,0,0,6.1,6.1h12A6.11,6.11,0,0,0,401.86,103.41Z"/><path class="cls-2" d="M129.09,27.05A18.67,18.67,0,0,1,131,35.92V115L120.26,115H120l-3,0h-.12V37.24a8.19,8.19,0,0,0-.13-1.38,3.38,3.38,0,0,0-3.61-3.15h-3.49a1.26,1.26,0,0,0-1.3,1.3v81L97.54,115h-.19l-3.15,0V20.67h23c4.54,0,8,1.47,10.28,4.11A11.7,11.7,0,0,1,129.09,27.05Zm-4.24,9c0-7.09-3.37-10.25-10.94-10.25h-13.5v82.87h1.67V27.47h11.83c6.67,0,9.27,2.41,9.27,8.58V109h1.67Z"/><path class="cls-2" d="M322.44,24.58c-2.11-2.65-5.35-3.91-9.4-3.91H288.36V115H302.5V93.62H313c7.43,0,12.14-4.22,12.14-13.55V34.21a16.81,16.81,0,0,0-1.74-8.1A10.9,10.9,0,0,0,322.44,24.58ZM302.5,80.07V34c0-.8.71-1.3,1.61-1.3h5.32c.9,0,1.6.5,1.6,1.3V80.27a1.36,1.36,0,0,1-1.4,1.31h-5.52A1.46,1.46,0,0,1,302.5,80.07Zm-7.95,28.6V25.8h14.51c4.62,0,9.93,1.22,9.93,10.75V77.66c0,9.52-5.31,10.74-9.93,10.74H296.22v20.27Zm1.67-21.94h12.84c4.29,0,8.26-1.1,8.26-9.07V36.55c0-8-4-9.08-8.26-9.08H296.22Z"/><path class="cls-2" d="M83,115H58.61a9.13,9.13,0,0,1-1.82-.18,8.65,8.65,0,0,1-3.24-1.43c-2.65-1.9-4.42-5.43-4.42-10.35V20.67H82.94v12H64.58a1.26,1.26,0,0,0-1.3,1.3V59.7a1.45,1.45,0,0,0,1.6,1.51H75.12v12H64.58a1.26,1.26,0,0,0-1.3,1.3v26.89c0,.91.5,1.51,1.3,1.51H83ZM77.21,28V26.28h-21l-.9.07v77.06a6.11,6.11,0,0,0,6.11,6.1H77.21v-1.67H61.37a4.43,4.43,0,0,1-4.43-4.43v-35H70.77V66.75H56.94V28Z"/><path class="cls-2" d="M217.89,27.47H205.05V86.73h12.84c4.29,0,8.26-1.1,8.26-9.07V36.55C226.15,28.57,222.18,27.47,217.89,27.47Zm1.69,8.35V80.07a1.33,1.33,0,0,1-1.31,1.51h-5.62a1.45,1.45,0,0,1-1.6-1.51V34a1.26,1.26,0,0,1,1.3-1.3H218a1.45,1.45,0,0,1,1.61,1.5Z"/><path class="cls-2" d="M229.11,92.51c-.3-.8-.2-1.6.3-1.9,2.71-1.71,4.32-5.22,4.32-10.54V34.21a17.57,17.57,0,0,0-1.48-7.58,10.84,10.84,0,0,0-1-1.76c-2.11-2.85-5.44-4.2-9.64-4.2H196.9V115h14.15V94.92c0-.8.7-1.3,1.6-1.3h1.91a1.21,1.21,0,0,1,1.2.8l.52,2.31,3.42,15.15.7,3.11h14.18Zm-1.29-14.85c0,6.71-2.64,9.29-5.81,10.23l5.19,21.29h-1.79l-5-20.93a19,19,0,0,1-2.48.15H205.05v20.78h-1.67V25.8h14.51c4.62,0,9.93,1.22,9.93,10.75Z"/><path class="cls-2" d="M340,20.67h14.15V115H340Zm8,88V26.76h-1.67v81.91Z"/><path class="cls-2" d="M102.82,11.45c-1,.74-1.75,1.37-1.75,1.37V3.71s.44-.5.9-.93A9.79,9.79,0,0,1,108.6.07C113.41.07,116.12,3,119.94,3c2.7,0,3.71-1,5.82-2.2L127,0V9.34s-.16.17-.44.42a10.72,10.72,0,0,1-7,2.46c-4.18,0-6.79-2.36-10-2.9a7.24,7.24,0,0,0-1.24-.11C106.39,9.21,104.27,10.43,102.82,11.45Zm21.63-4.61-.94-1.39c-2.55,1.74-5.52,1.81-8.83.21-4-1.93-7.18-2.63-10.53-.19l1,1.35c2.4-1.75,4.63-1.66,8.81.35a12.11,12.11,0,0,0,5.24,1.3A9.18,9.18,0,0,0,124.45,6.84Z"/></g></g></svg>