<svg xmlns="http://www.w3.org/2000/svg" width="52" height="64" viewBox="0 0 52 64">
  <g id="coffee-machine" transform="translate(-6)">
    <path id="Path_2" data-name="Path 2" d="M53,64H18a5.006,5.006,0,0,1-5-5V53a1,1,0,0,1,1-1H41V15H14a1,1,0,0,1-1-1V5a5.006,5.006,0,0,1,5-5H53a5.006,5.006,0,0,1,5,5V54a1,1,0,0,1-2,0V5a3,3,0,0,0-3-3H18a3,3,0,0,0-3,3v8H42a1,1,0,0,1,1,1V53a1,1,0,0,1-1,1H15v5a3,3,0,0,0,3,3H53a3,3,0,0,0,3-3V57a1,1,0,0,1,2,0v2a5.006,5.006,0,0,1-5,5Z" fill="#a3159d"/>
    <path id="Path_3" data-name="Path 3" d="M35,25H23a3,3,0,0,1-3-3V14a1,1,0,0,1,1-1H37a1,1,0,0,1,0,2H22v7a1,1,0,0,0,1,1H35a1,1,0,0,0,1-1V17a1,1,0,0,1,2,0v5a3,3,0,0,1-3,3Z" fill="#a3159d"/>
    <path id="Path_4" data-name="Path 4" d="M7,22a1,1,0,0,1-1-1V17a1,1,0,0,1,1.071-1l14,1A1,1,0,0,1,22,18v2a1,1,0,0,1-.929,1l-14,1Zm1-3.926v1.852l12-.857v-.138Z" fill="#a3159d"/>
    <path id="Path_5" data-name="Path 5" d="M34,54H24a5.006,5.006,0,0,1-5-5V31a1,1,0,0,1,1-1H38a1,1,0,0,1,1,1V49a5.006,5.006,0,0,1-5,5ZM21,32V49a3,3,0,0,0,3,3H34a3,3,0,0,0,3-3V32Z" fill="#a3159d"/>
    <path id="Path_6" data-name="Path 6" d="M20,48H15a1,1,0,0,1-1-1V35a1,1,0,0,1,1-1h5a1,1,0,0,1,1,1V47A1,1,0,0,1,20,48Zm-4-2h3V36H16Z" fill="#a3159d"/>
    <path id="Path_7" data-name="Path 7" d="M49,14A5,5,0,0,1,49,4a1,1,0,0,1,0,2,3,3,0,1,0,3,3,1,1,0,0,1,2,0A5.006,5.006,0,0,1,49,14Z" fill="#a3159d"/>
    <path id="Path_8" data-name="Path 8" d="M50,10H48a1,1,0,0,1,0-2h2a1,1,0,0,1,0,2Z" fill="#a3159d"/>
    <path id="Path_9" data-name="Path 9" d="M49,20a1,1,0,0,1-1-1V18a1,1,0,0,1,2,0v1A1,1,0,0,1,49,20Z" fill="#a3159d"/>
    <path id="Path_10" data-name="Path 10" d="M49,25a1,1,0,0,1-1-1V23a1,1,0,0,1,2,0v1A1,1,0,0,1,49,25Z" fill="#a3159d"/>
    <path id="Path_11" data-name="Path 11" d="M49,30a1,1,0,0,1-1-1V28a1,1,0,0,1,2,0v1A1,1,0,0,1,49,30Z" fill="#a3159d"/>
  </g>
</svg>
