<svg id="english-breakfast" xmlns="http://www.w3.org/2000/svg" width="512" height="512" viewBox="0 0 512 512">
  <path id="Path_22" data-name="Path 22" d="M256,0h0A255.113,255.113,0,0,0,81.465,68.719,7.5,7.5,0,1,0,91.693,79.69,240.159,240.159,0,0,1,256,15c132.888,0,241,108.112,241,241S388.888,497,256,497,15,388.888,15,256A241.542,241.542,0,0,1,68.565,104.5a7.5,7.5,0,0,0-11.66-9.438A256.6,256.6,0,0,0,0,256C0,397.491,114.5,512,256,512S512,397.5,512,256,397.5,0,256,0Z" fill="#a3159d"/>
  <path id="Path_23" data-name="Path 23" d="M263.348,303.167a55.928,55.928,0,1,0,72.421,53.451,55.772,55.772,0,0,0-72.421-53.451Zm16.472,94.368a40.716,40.716,0,0,1-39.086-28.867h0a40.926,40.926,0,1,1,39.086,28.868Z" fill="#a3159d"/>
  <path id="Path_24" data-name="Path 24" d="M264.175,158.61l27.15-27.149a7.5,7.5,0,0,0-10.606-10.607L253.569,148a7.5,7.5,0,0,0,10.606,10.607Z" fill="#a3159d"/>
  <path id="Path_25" data-name="Path 25" d="M278.546,183.588a7.5,7.5,0,0,0,10.606,0l27.15-27.15A7.5,7.5,0,0,0,305.7,145.831l-27.15,27.15A7.5,7.5,0,0,0,278.546,183.588Z" fill="#a3159d"/>
  <path id="Path_26" data-name="Path 26" d="M303.523,208.565a7.5,7.5,0,0,0,10.606,0l27.15-27.15a7.5,7.5,0,0,0-10.606-10.607l-27.15,27.15A7.5,7.5,0,0,0,303.523,208.565Z" fill="#a3159d"/>
  <path id="Path_27" data-name="Path 27" d="M331.786,447.118c28.725-15.7,30.65-28.125,54.507-52.374a58.751,58.751,0,0,0,13.1-20.431A186.037,186.037,0,0,0,442,256c0-88.731-63.206-165.556-150.357-182.556l-41.9-40.828c-10.645-10.375-28.6-2.821-28.6,12.062V73.293A184.96,184.96,0,0,0,190.4,81.968c-22.708-10.121-47.042,6.469-64.031,24.776C85.263,151.038,56.3,234.771,61.274,295.015c2.13,25.816,11.64,54.634,37.03,59.467a187.127,187.127,0,0,0,26.547,33.256,48.571,48.571,0,0,0,.5,26.937,58.62,58.62,0,0,0,56.276,41.556c16.173,0,20.126-5.862,38.843-5.862,26.409,0,37.551,14.873,75.932,8.871a7.5,7.5,0,0,0-2.317-14.82c-34.968,5.471-43.32-9.051-73.614-9.051-20.992,0-25.428,5.862-38.843,5.862a43.692,43.692,0,0,1-41.943-30.979,33.371,33.371,0,0,1,.617-21.577c.046-.105.1-.2.143-.311a33.34,33.34,0,0,1,21.344-19.941,25.454,25.454,0,0,0,17.381-29.793c-.6-2.733-3.666-10.332-2.029-21.508a44.006,44.006,0,0,1,22.505-32.137h0c5.794-3.126,7.95-3.335,53.619-17.426a90.734,90.734,0,0,1,26.771-4.056,92,92,0,0,1,71.1,34.138c12.223,15.231,21.054,21.548,24.463,25.01a43.939,43.939,0,0,1,0,61.577c-25.026,25.439-25.307,35.684-51.008,49.731a7.5,7.5,0,1,0,7.191,13.16ZM415.448,194.1,313.773,95.011A170.946,170.946,0,0,1,415.448,194.1Zm-179.3-114.5V44.677a1.833,1.833,0,0,1,3.128-1.319L421.055,220.507a1.835,1.835,0,0,1-1.286,3.161H237.994a1.844,1.844,0,0,1-1.842-1.842V79.594ZM76.223,293.779c-4.624-56.053,22.89-135.617,61.141-176.834,13.867-14.943,27.561-22.99,38.693-22.99a20.278,20.278,0,0,1,6.665,1.08c12.36,4.268,16.8,19.343,9.413,30a266.671,266.671,0,0,0-15.619,25.939c-9.66-3.34-15.966-6.746-24.6-2.547a19.234,19.234,0,0,0,2.124,35.477l5.911,2.044q-3.168,7.491-6.184,15.307l-14.682-5.077a19.235,19.235,0,0,0-12.57,36.358l14.69,5.08q-2.451,7.993-4.6,15.855l-5.913-2.045a19.235,19.235,0,0,0-12.57,36.358l9.918,3.429a264.684,264.684,0,0,0-3.745,30.043v.005c-1.386,23.159-42.853,35.754-48.069-27.478ZM169.64,164.464q-1.835,3.786-3.637,7.7l-7.066-2.443c-5.178-1.788-2.636-9.864,2.768-8ZM148.553,215.32c-.925,2.6-1.892,5.406-2.768,8l-14.375-4.971a4.235,4.235,0,0,1,2.768-8Zm-15.7,52.72q-1,4.189-1.9,8.3l-7.936-2.744a4.235,4.235,0,0,1,2.768-8Zm229.979,20.209A106.342,106.342,0,0,0,282.07,248.53a105.272,105.272,0,0,0-33.224,4.691c-49.021,15.126-49.514,14.9-56.3,18.548-.02.01-.04.02-.059.031a58.471,58.471,0,0,0-29.749,40.569c-.014.073-.026.146-.04.219-3.112,16.631,1.757,27.609,2.028,30.521a10.516,10.516,0,0,1-7.352,10.977,48.468,48.468,0,0,0-25.843,19.028,172.061,172.061,0,0,1-16.033-19.769,35.185,35.185,0,0,0,23.773-31.2c3.27-54.86,33.866-143.376,65.2-188.565a35.091,35.091,0,0,0-.367-40.521,170.2,170.2,0,0,1,17.056-4.484c0,144.375-.154,134.22.343,136.644a16.871,16.871,0,0,0,16.5,13.452c195.9,0,183.754.509,188.012-1.186a170.927,170.927,0,0,1-23.543,106.635c-4.709-29.423-19.972-31.372-39.631-55.869Z" fill="#a3159d"/>
</svg>
