<svg xmlns="http://www.w3.org/2000/svg" width="512" height="432.44" viewBox="0 0 512 432.44">
  <path id="massage" d="M510.488,371.93a7.6,7.6,0,0,0-6.09-3.055H467.074a67.913,67.913,0,0,0,25.211-52.809V224.309a68.1,68.1,0,0,0-68.02-68.02H402.215A109.041,109.041,0,0,0,455.168,52.563a7.6,7.6,0,0,0-6.883-6.883,108.173,108.173,0,0,0-69.168,17A108.734,108.734,0,0,0,342.246,1.762a7.6,7.6,0,0,0-9.73,0,108.768,108.768,0,0,0-36.871,60.922,108.185,108.185,0,0,0-69.168-17,7.6,7.6,0,0,0-6.883,6.883,109.076,109.076,0,0,0,52.949,103.727H253.628a67.926,67.926,0,0,0-53.078,25.441V147.379a7.6,7.6,0,0,0-7.605-7.6H167.359V104.926a22.278,22.278,0,0,0-22.254-22.254H132.761V46.309a22.2,22.2,0,0,0-22.18-22.18H81.191a22.207,22.207,0,0,0-22.184,22.18V82.672H46.672A22.287,22.287,0,0,0,24.406,104.93v36.863a7.6,7.6,0,0,0,15.207,0V104.93a7.061,7.061,0,0,1,7.059-7.047h98.438a7.053,7.053,0,0,1,7.043,7.047v34.848H125.839a7.6,7.6,0,0,0-7.605,7.6v56.383a94.836,94.836,0,0,0-10.3,165.113h-61.3a7.059,7.059,0,0,1-7.016-7.043V172.211a7.6,7.6,0,1,0-15.207,0V361.832a22.125,22.125,0,0,0,1.148,7.043H7.605a7.606,7.606,0,0,0-7.293,9.766,75.172,75.172,0,0,0,72.066,53.8H363.473a7.605,7.605,0,0,0,0-15.211H72.383a60.391,60.391,0,0,1-53.617-33.148H493.234a60.381,60.381,0,0,1-53.613,33.148H393.89a7.605,7.605,0,0,0,0,15.211h45.73a75.172,75.172,0,0,0,72.066-53.8,7.606,7.606,0,0,0-1.2-6.711ZM381.379,79.707a92.878,92.878,0,0,1,59.012-19.254,93.74,93.74,0,0,1-84.574,95.387,108.644,108.644,0,0,0,25.719-70.3q0-2.924-.156-5.828Zm-44-61.918a93.752,93.752,0,0,1,0,135.492,93.752,93.752,0,0,1,0-135.492ZM234.371,60.453a92.727,92.727,0,0,1,59.016,19.258q-.152,2.9-.156,5.828a108.634,108.634,0,0,0,25.723,70.3,93.746,93.746,0,0,1-84.582-95.391ZM117.555,82.672H74.215V46.309a6.983,6.983,0,0,1,6.977-6.973h29.391a6.979,6.979,0,0,1,6.973,6.973Zm15.887,72.312h51.9v20.773h-51.9ZM79.754,289.234A79.472,79.472,0,0,1,128.766,215.7a7.6,7.6,0,0,0,4.676-7.016V190.965h51.9v17.719a7.6,7.6,0,0,0,4.676,7.016A79.648,79.648,0,1,1,79.754,289.234Zm344.59,79.641H210.852a95.342,95.342,0,0,0,37.969-48.035H390.282a38.812,38.812,0,0,0,38.77-38.77v-9.418a38.812,38.812,0,0,0-38.77-38.77H259.149a7.6,7.6,0,1,0,0,15.207H390.282a23.589,23.589,0,0,1,23.563,23.563v9.418a23.589,23.589,0,0,1-23.562,23.563H252.821a94.917,94.917,0,0,0-48.594-99.992A52.7,52.7,0,0,1,253.633,171.5H424.262a52.871,52.871,0,0,1,52.813,52.809v91.758a52.866,52.866,0,0,1-52.73,52.809Zm0,0" transform="translate(0 -0.001)" fill="#a3159d"/>
</svg>
