<?xml version="1.0" encoding="utf-8"?>
<!-- Generator: Adobe Illustrator 25.4.1, SVG Export Plug-In . SVG Version: 6.00 Build 0)  -->
<svg version="1.1" id="Layer_1" xmlns="http://www.w3.org/2000/svg" xmlns:xlink="http://www.w3.org/1999/xlink" x="0px" y="0px"
	 viewBox="0 0 931 472" style="enable-background:new 0 0 931 472;" xml:space="preserve">
<style type="text/css">
	.st0{fill:#FFB600;}
</style>
<g>
	<g>
		<polygon class="st0" points="426.6,463.4 506.2,13.7 497.6,13.7 417.9,463.4 		"/>
		<g>
			<g>
				<path class="st0" d="M300.3,128.5h54.6c10.4,0,14.4-4.6,15.8-12l0.4-3c1.2-7.4-1-10.6-7.8-13l-26.9-9.6
					C317.3,84.1,310.7,71,314.1,51l0.8-4.2c3.4-20.5,17.9-33.3,45.3-33.3h57.9l-4.4,24.7H358c-9.6,0-13.2,4.4-14.4,10.4l-0.6,3
					c-1.4,7.4,0.8,11.6,8.2,14.2l26.5,9.6c18.3,6.8,25.3,18.1,22.5,36.9l-0.8,5.4c-3.4,22.1-18.9,35.5-45.7,35.5h-58L300.3,128.5z"
					/>
				<path class="st0" d="M188.7,128.5h54.6c10.4,0,14.4-4.6,15.8-12l0.4-3c1.2-7.4-1-10.6-7.8-13l-26.9-9.6
					C205.7,84.1,199.1,71,202.5,51l0.8-4.2c3.4-20.5,17.9-33.3,45.3-33.3h57.9l-4.4,24.7h-55.5c-9.6,0-13.2,4.4-14.4,10.4l-0.6,3
					c-1.4,7.4,0.8,11.6,8.2,14.2l26.5,9.6c18.3,6.8,25.3,18.1,22.5,36.9l-0.8,5.4c-3.4,22.1-18.9,35.5-45.7,35.5h-58L188.7,128.5z"
					/>
				<path class="st0" d="M108,57.9c2.6-14.6,9-19.5,23.1-19.5h52.4l4.4-24.7h-47.5h-9.6h-9c-20.3,0-37.7,14.6-41.3,34.6l-1.1,6.2
					c-0.2,1.1-0.5,2.3-0.7,3.5l-3.8,21.8v0.1l0,0L70,108.1c-5.2,29.5,12.4,45.3,43.3,45.3h53.4l12.4-71H152l-8,46.3h-28.1
					c-13,0-19.5-5-16.9-19.5L108,57.9z"/>
			</g>
			<g>
				<path class="st0" d="M71.4,210.9c-7.7,0-11.4,2.5-12.9,11.2l-3.8,21.5c-1.5,8.6,2.4,11.2,9.5,11.2h13.7l3.8-21.5h8.1l-5.1,28.9
					H63.6c-12.7,0-19.6-6-17.4-18.9l3.7-21.2c2.3-13.3,8.8-18.6,21.5-18.6h22.5l-1.3,7.5L71.4,210.9L71.4,210.9z"/>
				<path class="st0" d="M113.5,262.1l10.4-58.7H146c12,0,17.5,5.5,15.9,16.7l-0.7,4.6c-1.4,9.8-6.6,14.3-15,15.6l9.9,21.8H147
					l-9-20.8h-12.2l-3.7,20.8L113.5,262.1L113.5,262.1z M127,233.9h13.6c7.2,0,10.9-2.3,12-9.2l0.8-4.6c1.1-6.5-1.7-9.2-8.7-9.2
					h-13.5L127,233.9z"/>
				<path class="st0" d="M218.7,247.2h-23.5l-7.2,14.9h-9.2l29.1-58.7h13l8.5,58.7h-8.7L218.7,247.2z M198.6,240.1h19.2l-3.8-28.5
					h-1.7L198.6,240.1z"/>
				<path class="st0" d="M292.6,249h1.4l8.1-45.6h8.2l-10.4,58.7h-10.2L273,216.6h-1.3l-8.1,45.5h-8.2l10.4-58.7H276L292.6,249z"/>
				<path class="st0" d="M331.1,262.1l10.4-58.7h22.9c12.5,0,18.6,7,16.5,19.1l-3.6,20.5c-2.4,13.7-8.3,19-21.6,19h-24.6V262.1z
					 M368.6,243.3l3.7-21.1c1.3-7.8-1.8-11.4-9.4-11.4h-14.2l-7.7,43.9h14.7C363.7,254.7,367.1,252.1,368.6,243.3z"/>
				<path class="st0" d="M26.3,355.4h22.2c6.2,0,8.6-2.8,9.3-7.3l0.3-1.6c0.7-4.3-0.6-6.1-4.5-7.5l-11.9-4.1
					c-7.7-2.7-10.3-7.8-8.9-15.9l0.3-1.9c1.3-7.8,6.9-13.1,17.8-13.1h21.6l-1.3,7.5H50.5c-5.9,0-8.1,2.5-8.7,6l-0.3,1.7
					c-0.8,4.4,0.3,6.8,4.6,8.3l11.8,4.1c7.2,2.5,10.1,6.9,9,14.4l-0.3,2.3c-1.3,9-7.2,14.4-18.1,14.4H24.9L26.3,355.4z"/>
				<path class="st0" d="M78.2,362.8l10.4-58.7h36.7l-1.3,7.5H95.7l-3.2,18.3H119l-1.3,7.3H91.2l-3.3,18.3h28.3l-1.3,7.4L78.2,362.8
					L78.2,362.8z"/>
				<path class="st0" d="M129.3,362.8l10.4-58.7h22.1c12,0,17.5,5.5,15.9,16.7l-0.7,4.6c-1.4,9.8-6.6,14.3-15,15.6l9.9,21.8h-9.1
					l-9-20.8h-12.2l-3.7,20.8L129.3,362.8L129.3,362.8z M142.9,334.6h13.6c7.2,0,10.9-2.3,12-9.2l0.8-4.6c1.1-6.5-1.7-9.2-8.7-9.2
					H147L142.9,334.6z"/>
				<path class="st0" d="M190.8,304.1h8.8l6.5,50.7h1.6l24.1-50.7h9.5l-28.9,58.7h-13.3L190.8,304.1z"/>
				<path class="st0" d="M243.7,362.8l10.4-58.7h8.6l-10.3,58.7H243.7z"/>
				<path class="st0" d="M314.6,311.5h-17.1c-8,0-11.5,2.6-13,11.4l-3.6,20.8c-1.3,7.9,1.8,11.7,9.3,11.7h16.6l-1.3,7.4h-16
					c-12.5,0-19.4-7-17.3-19l3.6-20.5c2.4-14,8.3-19.1,21.6-19.1h18.5L314.6,311.5z"/>
				<path class="st0" d="M319.3,362.8l10.4-58.7h36.8l-1.3,7.5h-28.3l-3.2,18.3h26.5l-1.3,7.3h-26.5l-3.3,18.3h28.3l-1.3,7.4
					L319.3,362.8L319.3,362.8z"/>
				<path class="st0" d="M108.9,412.1H90.7l-9.1,51.2H73l9.1-51.2H63.9l1.3-7.5h45L108.9,412.1z"/>
				<path class="st0" d="M140,448.5h-23.5l-7.2,14.9h-9.2l29.1-58.7h13l8.5,58.7H142L140,448.5z M119.9,441.3h19.2l-3.8-28.5h-1.7
					L119.9,441.3z"/>
				<path class="st0" d="M205,412.1h-18.2l-9.1,51.2h-8.6l9.1-51.2H160l1.3-7.5h45L205,412.1z"/>
				<path class="st0" d="M208.3,463.4l10.4-58.7h8.6L217,463.4H208.3z"/>
				<path class="st0" d="M254.5,464c-13.5,0-20.1-7.2-17.9-19.5l3.7-20.9c2.5-14.1,8-19.5,23-19.5h3.7c13.7,0,19.6,7.8,17.5,19.5
					l-3.7,20.9c-2.5,14.2-7.8,19.5-22.6,19.5H254.5z M254.4,456.7h4.5c8,0,11.6-2.7,13.2-11.9l3.8-21.5c1.5-8.7-2-11.8-9.3-11.8
					h-4.4c-8.1,0-11.7,2.7-13.3,11.8l-3.8,21.5C243.5,454,247.6,456.7,254.4,456.7z"/>
				<path class="st0" d="M331,450.3h1.4l8.1-45.6h8.2l-10.4,58.7H328l-16.7-45.5H310l-8.1,45.5h-8.2l10.4-58.7h10.2L331,450.3z"/>
				<path class="st0" d="M23.8,418.2c0.7-3.5,2.9-6,8.7-6h20.7l1.3-7.5H33c-10.9,0-16.4,5.3-17.8,13.1l-0.3,1.9
					c-1.4,8.1,1.2,13.2,8.9,15.9l11.9,4.1c3.9,1.3,5.2,3.2,4.5,7.5l-0.3,1.6c-0.8,4.5-3.1,7.3-9.3,7.3H8.4l-1.3,7.4h23.3
					c10.9,0,16.8-5.5,18.1-14.4l0.3-2.3c1.1-7.5-1.8-11.9-9-14.4L28,428.3c-4.3-1.5-5.5-3.9-4.6-8.3L23.8,418.2z"/>
			</g>
		</g>
		<g>
			<path class="st0" d="M741.3,461.8C741.4,461.8,741.4,461.8,741.3,461.8L741.3,461.8c0.1,0.1,0.1,0.1,0.2,0.1
				c0.5,0.3,1,0.5,1.5,0.7c0.4,0.2,0.9,0.3,1.3,0.4c0.1,0,0.2,0.1,0.4,0.1c1.2,0.3,2.3,0.5,3.5,0.5l0,0l0,0c1.2,0,2.3-0.2,3.5-0.5
				c0.1,0,0.2-0.1,0.3-0.1c0.5-0.1,0.9-0.3,1.4-0.5c0.4-0.2,0.9-0.4,1.3-0.6c0.1-0.1,0.2-0.1,0.3-0.1l0,0c0,0,0,0,0.1,0
				c130.5-74,160.5-132.3,166.6-202.3c0.4-4.6-1.6-9.1-5.2-12c-3.7-2.9-8.5-3.7-12.9-2.2c-37.7,12.9-86.3-1.9-132-39.7
				c5.1-4.2,10.3-8.2,15.6-11.9c42.2-29.7,84-39.4,117.5-27.3c4.2,1.5,8.9,0.9,12.5-1.7c3.7-2.6,5.8-6.8,5.8-11.2c0-1.4,0-3.1,0.1-5
				c0.3-10.9,0.7-29.2-4.7-45.8c-7.3-22.6-23.1-35.9-45.8-38.5c-9.7-1.1-12.8-3.3-19.1-7.6c-2.3-1.6-5-3.4-8.2-5.4
				c-1.1-0.7-2.6-1.6-4.3-2.7c-17.7-11.2-59.1-37.3-99.2-34.7c-40.3,2.6-131.6,45.1-143.9,55.4c-0.8,0.7-1.6,1.3-2.4,1.9
				c-13.1,10.4-22.4,21.3-22.4,67.7v81.8c0,48,4.5,85.2,27.1,122.6C624.7,383.4,669.5,421.1,741.3,461.8z M775.8,243.1
				c37.3,25.1,76,36.9,110.6,33.8c2.8-0.3,5,2.2,4.4,5c-10.3,49.5-42.1,93.1-136.3,148.6c-3.9,2.3-8.7,2.3-12.6,0
				c-24.1-14.2-44.1-27.6-60.7-40.5c-4.4-3.4-6.3-9.1-5.1-14.6c2.2-9.8,5.3-19.8,9.3-29.7c1.1-2.6,4.3-3.4,6.5-1.6
				c15.7,13,32,23.8,48.6,32.1c2,1,4.1,1.5,6.1,1.5c5.4,0,10.5-3.2,12.7-8.6c2.7-6.7-0.6-14.3-7-17.6c-16.8-8.4-33.3-19.8-49.2-33.8
				c-1.5-1.3-1.8-3.6-0.8-5.3c5.8-9.4,12.4-18.5,19.6-27c1.5-1.7,4-1.9,5.8-0.5c29.7,24.5,61.1,40.7,91.6,47.1
				c1,0.2,1.9,0.3,2.9,0.3c6.5,0,12.3-4.6,13.5-11.3c1.4-7.4-3.9-14.4-11.3-16c-24.8-5.4-51.4-19.1-76.5-39.1c-2-1.6-2-4.7,0-6.4
				c7.5-6.3,15.4-11.9,23.5-16.7C772.7,242.1,774.4,242.2,775.8,243.1z M600.7,203.7c0-3.1,1.1-6.1,3.2-8.3
				c26.7-29.3,50.3-52.4,83.9-72.3c5.7-3.4,8.6-10.3,6.3-16.5c-2.8-7.9-11.7-11.3-19-7.7c-23.7,11.7-48.4,31.6-67.4,50.3
				c-2.6,2.6-7,0.7-7-2.9V139c0-36.7,5.6-41.1,12-46.2c1-0.8,2-1.6,3-2.4c9.8-7.8,95.3-47,128-49.1c1.3-0.1,2.5-0.1,3.8-0.1
				c23.5,0,49.8,13.2,66.8,23.2c2.3,1.3,1.9,4.7-0.6,5.6c-0.2,0.1-0.4,0.1-0.4,0.2c-7.1,2.6-10.8,10.5-8.2,17.6c2,5.6,7.3,9,12.9,9
				c1.6,0,3.1-0.3,4.7-0.8c0.2-0.1,20.4-7.1,46.9-4.3c19.7,2.3,25.5,19,26.2,44.4c-38.2-6.8-81.6,5.5-124.3,35.6
				c-62.6,44-109.2,114.5-121.8,180.7c-0.7,3.4-4.9,4.6-7.2,2c-8.8-10.1-15.8-20-21.3-29.9c-1.7-3-2-6.7-0.9-10
				c11.8-35.3,48.6-101.8,97.5-146.1c5.1-4.6,6.4-12.4,2.6-18.1c-4.8-7.1-14.5-8.1-20.6-2.6C661,182.3,629.9,229,610.7,267
				c-1.8,3.6-7.3,2.7-7.8-1.4c-1.7-14.3-2.1-29.1-2.1-45v-16.9H600.7z"/>
		</g>
	</g>
</g>
</svg>
