<svg xmlns="http://www.w3.org/2000/svg" width="512" height="472.688" viewBox="0 0 512 472.688">
  <g id="bar" transform="translate(0 -19.657)">
    <path id="Path_1" data-name="Path 1" d="M504.5,366.567a7.5,7.5,0,0,0,7.5-7.5V273.345a13.709,13.709,0,0,0-13.708-13.68H470.586V241.486a28.637,28.637,0,0,0,21.09-27.585V195.645a11.978,11.978,0,0,0-11.95-11.979H446.475a11.978,11.978,0,0,0-11.95,11.979V213.9a28.631,28.631,0,0,0,21.062,27.583v18.182H397V241.487a28.637,28.637,0,0,0,21.09-27.585V195.646a11.992,11.992,0,0,0-11.979-11.979H372.887a11.993,11.993,0,0,0-11.979,11.979V213.9A28.637,28.637,0,0,0,382,241.487v18.179H338.6V182.152c0-16.294-5.9-22.248-10.2-26.6-2.177-2.2-3.337-3.369-3.856-5.881v-36.35a13.411,13.411,0,0,0-13.4-13.4H290.823a13.411,13.411,0,0,0-13.4,13.4v36.35c-.52,2.513-1.68,3.684-3.856,5.881-4.306,4.348-10.2,10.3-10.2,26.6v77.514H236.387V210.415c0-25.449-12.427-31.69-32.706-39.767l-31.7-12.61c14.209-13.193,23.868-30.925,23.868-46.811V98.8c15.4-7.545,26.177-23.456,32.8-48.351a7.6,7.6,0,0,0,.205-1.089,8.357,8.357,0,0,0-3.58-8.056c-4.864-3.259-9.622-.645-17.5,3.685-2.6,1.428-5.918,3.25-9.349,4.864,2.852-7.608,4.255-15.374,3.551-21.266-.282-2.3-.755-6.148-4.643-8.121-3.264-1.655-6.174-.5-9.146,1.031-19.22,10.072-24.978,8.183-34.513,5.055a77.155,77.155,0,0,0-18.191-4.124c-24.069-2.187-43.909,3.446-57.367,16.288C65.063,51.171,58.682,70.073,59.642,93.385v17.842c0,15.84,9.6,33.517,23.735,46.7L51.412,170.649c-20.293,8.083-32.73,14.328-32.73,39.766v49.251h-5A13.7,13.7,0,0,0,0,273.346V478.665a13.7,13.7,0,0,0,13.68,13.68H498.292A13.709,13.709,0,0,0,512,478.665V393.708a7.5,7.5,0,0,0-15,0v83.637H407.8l-5.111-28.74h41.886a8.351,8.351,0,0,0,8.62-8.3,12.488,12.488,0,0,1,11.515-11.649c5.04-.369,8.427-4.081,8.427-9.237v-86.8c0-5.174-3.387-8.9-8.418-9.265A12.49,12.49,0,0,1,453.2,311.7a8.35,8.35,0,0,0-8.621-8.293l-171.213.028a7.5,7.5,0,1,0,0,15l165.845-.027a27.633,27.633,0,0,0,18.929,18.933v77.33a27.634,27.634,0,0,0-18.924,18.936H400.023l-7.8-43.84a24.1,24.1,0,0,0-3.408-47.949H322.4a24.095,24.095,0,0,0-3.41,47.949l-7.809,43.839H200.789l-7.809-43.839a24.095,24.095,0,0,0-3.41-47.949H123.182a24.095,24.095,0,0,0-3.411,47.949l-7.808,43.839H72.781a27.7,27.7,0,0,0-18.946-18.934v-77.33a27.708,27.708,0,0,0,18.934-18.934l165.981.027h0a7.5,7.5,0,0,0,0-15L67.4,303.407a8.331,8.331,0,0,0-8.591,8.278,12.539,12.539,0,0,1-11.544,11.67c-5.04.369-8.427,4.092-8.427,9.266v86.8c0,5.157,3.387,8.869,8.42,9.237A12.539,12.539,0,0,1,58.8,440.312a8.335,8.335,0,0,0,8.592,8.294h41.9l-5.119,28.74H15V274.665H497v84.4a7.5,7.5,0,0,0,7.5,7.5ZM449.524,213.9V198.666h27.151V213.9a13.576,13.576,0,1,1-27.151,0Zm-73.616,0V198.666h27.18V213.9a13.59,13.59,0,1,1-27.18,0Zm16.657,263.443H318.627l5.119-28.74h63.708ZM313.291,365.9a9.107,9.107,0,0,1,9.11-9.083h66.416a9.1,9.1,0,0,1,0,18.2H322.4A9.122,9.122,0,0,1,313.291,365.9Zm20.893,24.112h42.851l7.752,43.594H326.418ZM308.511,448.6l-5.119,28.74H208.58l-5.119-28.74Zm-194.44-82.7a9.107,9.107,0,0,1,9.111-9.083H189.57a9.1,9.1,0,1,1,0,18.2H123.182a9.122,9.122,0,0,1-9.111-9.112Zm20.893,24.112h42.824l7.765,43.594H127.2ZM124.528,448.6h63.7l5.119,28.74H119.409Zm153.84-246.791H323.6V224H278.368Zm13.964-50.274c.017-.108.013-.218.026-.327h17.255c.013.109.009.219.026.327,1.229,7.633,5.2,11.644,8.1,14.573,3.274,3.306,5.861,5.917,5.861,16.04v4.661H278.368v-4.661c0-10.123,2.586-12.734,5.86-16.04C287.13,163.184,291.1,159.172,292.332,151.539Zm.1-36.611h17.116v21.285H292.428ZM278.368,239H323.6v20.661H278.368ZM105.341,172.672c1.54.685,3.1,1.317,4.666,1.879a47.98,47.98,0,0,0,35.427.009c1.445-.516,2.875-1.1,4.293-1.717v4.491c0,13.387-9.86,24.277-21.98,24.277-12.354,0-22.4-10.891-22.4-24.277v-4.662Zm-16.87-123.1c10.234-9.765,26.026-13.984,45.656-12.2A62.532,62.532,0,0,1,149,40.8c11.077,3.634,20.148,5.52,37.147-1.716a52.424,52.424,0,0,1-8.218,17.643,7.5,7.5,0,0,0,5.3,11.926c8.547.831,18.026-3.259,26.024-7.426-14.986,35.555-41.031,29.532-73.092,22.112-13.291-3.075-26.814-6.205-39.825-6.205A60.6,60.6,0,0,0,74.9,80.718C76.16,67.427,80.7,56.98,88.471,49.569ZM74.642,111.226V97.4c15.928-9.209,36.471-4.455,58.14.559,12.862,2.976,26.026,6.022,38.6,6.022a66.529,66.529,0,0,0,9.471-.653v7.9c0,18.19-19.285,41.644-40.5,49.219a36.422,36.422,0,0,1-12.607,2.5,36.794,36.794,0,0,1-12.668-2.51c-21.165-7.567-40.438-31.021-40.438-49.208ZM33.681,210.414c0-15.231,3.815-18.077,23.279-25.83L90.341,171.3v6.036c0,21.658,16.78,39.277,37.4,39.277,20.391,0,36.98-17.62,36.98-39.277v-6.038l33.406,13.289c19.443,7.744,23.254,10.588,23.254,25.83v49.251H192.279V232.552a7.5,7.5,0,0,0-15,0v27.112H78.439V232.552a7.5,7.5,0,1,0-15,0v27.112H33.681Z" fill="#a3159d"/>
  </g>
</svg>
