<svg id="non-smoking-area" xmlns="http://www.w3.org/2000/svg" width="511.949" height="511.95" viewBox="0 0 511.949 511.95">
  <path id="Path_28" data-name="Path 28" d="M175.084,224.07l-75.85,0A17.048,17.048,0,0,0,82.205,241.1v29.756A17.048,17.048,0,0,0,99.234,287.88H210.256a7.5,7.5,0,1,0,0-15H182.62V239.067H377.391V272.88h-132.8a7.5,7.5,0,0,0,0,15H408.316a17.048,17.048,0,0,0,17.029-17.028V241.1a17.048,17.048,0,0,0-17.029-17.028H175.12l-.036,0Zm-7.535,48.811H99.234a2.031,2.031,0,0,1-2.029-2.028V241.1a2.031,2.031,0,0,1,2.029-2.028h68.314v33.812Zm224.842-33.813h15.926a2.031,2.031,0,0,1,2.029,2.028v29.756a2.031,2.031,0,0,1-2.029,2.028H392.391Z" fill="#a3159d"/>
  <path id="Path_29" data-name="Path 29" d="M261.834,198.4H370.867a7.326,7.326,0,0,1,7.318,7.318,7.5,7.5,0,1,0,15,0A22.343,22.343,0,0,0,370.867,183.4H261.834a12.566,12.566,0,1,1,0-25.132h67.918a25.1,25.1,0,0,0,0-50.195h-49.7a7.5,7.5,0,0,0,0,15h49.7a10.1,10.1,0,0,1,0,20.195H261.834a27.566,27.566,0,1,0,0,55.132Z" fill="#a3159d"/>
  <path id="Path_30" data-name="Path 30" d="M511.949,255.975a255.975,255.975,0,0,0-436.977-181A256.079,256.079,0,0,0,355.721,491.831a97.106,97.106,0,0,0,94.914,13.306,7.5,7.5,0,1,0-5.531-13.943,82.214,82.214,0,1,1,27.025-17.534l-.64.613a7.5,7.5,0,0,0,10.38,10.828l.679-.651a97.021,97.021,0,0,0,9.293-128.714,255.464,255.464,0,0,0,20.108-99.761Zm-70.086,65.573A97.134,97.134,0,0,0,321.547,441.861a196.153,196.153,0,0,1-65.573,11.229c-108.69,0-197.116-88.426-197.116-197.116S147.284,58.858,255.975,58.858s197.116,88.426,197.116,197.116a196.189,196.189,0,0,1-11.228,65.574ZM455.9,326.84a211.1,211.1,0,0,0,12.19-70.865c0-116.961-95.155-212.116-212.116-212.116S43.858,139.014,43.858,255.975s95.155,212.116,212.116,212.116A211.076,211.076,0,0,0,326.838,455.9a97.445,97.445,0,0,0,16.622,24.721A240.661,240.661,0,1,1,480.613,343.456,97.462,97.462,0,0,0,455.9,326.84Z" fill="#a3159d"/>
  <path id="Path_31" data-name="Path 31" d="M364.8,464.863a21.524,21.524,0,0,0,30.4,0l19.626-19.626,19.626,19.627a21.5,21.5,0,0,0,30.4-30.4l-19.627-19.626,19.627-19.626a21.5,21.5,0,1,0-30.4-30.4l-19.627,19.626L395.207,364.8a21.5,21.5,0,0,0-30.4,30.4l19.626,19.626L364.8,434.459A21.524,21.524,0,0,0,364.8,464.863Zm10.607-19.8L396.6,423.877a12.81,12.81,0,0,0,0-18.091L375.41,384.6a6.5,6.5,0,0,1,9.189-9.189L405.787,396.6a12.809,12.809,0,0,0,18.09,0l21.189-21.188a6.5,6.5,0,0,1,9.19,9.189l-21.19,21.189a12.808,12.808,0,0,0,0,18.089l21.188,21.188a6.5,6.5,0,1,1-9.189,9.189l-21.188-21.188a12.807,12.807,0,0,0-18.091,0L384.6,454.256a6.5,6.5,0,0,1-9.19-9.191Z" fill="#a3159d"/>
</svg>
