<svg xmlns="http://www.w3.org/2000/svg" width="450.25" height="512" viewBox="0 0 450.25 512">
  <g id="room-service" transform="translate(-30.875)">
    <path id="Path_32" data-name="Path 32" d="M458.318,285.286H189.2V271.005a23.209,23.209,0,0,0-23.183-23.183H91.618a23.064,23.064,0,0,0-8.183,1.5V199.562a14.486,14.486,0,0,0-14.47-14.47H45.345a14.486,14.486,0,0,0-14.47,14.47V444.99a7.5,7.5,0,0,0,15,0v-244.9h22.56V497H45.875V479.99a7.5,7.5,0,0,0-15,0v17.54A14.486,14.486,0,0,0,45.345,512h23.62a14.486,14.486,0,0,0,14.47-14.47V449.574H174.2v10.492a20.591,20.591,0,0,0,20.569,20.568H426.328v16.9A14.486,14.486,0,0,0,440.8,512h23.62a14.486,14.486,0,0,0,14.47-14.47V305.855A20.594,20.594,0,0,0,458.318,285.286ZM174.2,397.242H83.435v-72.41H174.2ZM91.618,262.822h74.4a8.192,8.192,0,0,1,8.183,8.183v38.827H83.435V271.005a8.192,8.192,0,0,1,8.183-8.183ZM83.435,434.574V412.982H174.2v21.592ZM189.2,460.066V300.286H458.318a5.575,5.575,0,0,1,5.568,5.569V460.066a5.575,5.575,0,0,1-5.568,5.568H194.765A5.573,5.573,0,0,1,189.2,460.066ZM463.887,497H441.328V480.635h16.991c.632,0,1.254-.039,1.872-.1.159-.015.317-.031.475-.049.562-.064,1.119-.146,1.667-.255.052-.01.106-.017.158-.028.471-.1.938-.209,1.4-.339V497Z" fill="#a3159d"/>
    <path id="Path_33" data-name="Path 33" d="M467.4,182.849c-62.2,0-58.056-.1-59.692.219-1.2-.292-.817-.219-11.674-.219l-16.9-9.414h81.03a20.963,20.963,0,1,0,0-41.926h-8.23a143.689,143.689,0,0,0-21.782-45.55,7.5,7.5,0,0,0-12.2,8.735,128.82,128.82,0,0,1,18.354,36.815h-248.1A129.963,129.963,0,0,1,395.5,70.5a7.5,7.5,0,1,0,9.618-11.51,145.032,145.032,0,0,0-73.459-32.344V19.4a19.4,19.4,0,0,0-38.8,0v7.257A144.945,144.945,0,0,0,172.584,131.508h-6.733a20.963,20.963,0,1,0,0,41.926h44.1a21.9,21.9,0,0,0-2.493,4.833,9.811,9.811,0,0,0,3.7,11.546l68.032,43.929a7.5,7.5,0,0,0,3.492,1.177c99.794,7.7,74.724,5.553,115.748,9.747v9.32a11.5,11.5,0,0,0,11.489,11.489h17.494a11.5,11.5,0,0,0,11.314,9.563H467.4a11.5,11.5,0,0,0,11.489-11.489v-69.21a11.5,11.5,0,0,0-11.49-11.49ZM307.863,25.4V19.4a4.4,4.4,0,0,1,8.8,0V25.4c-.117,0-.231,0-.347,0-2.9-.082-5.44-.09-8.448,0Zm152.3,121.106a5.963,5.963,0,1,1,0,11.926H352.2c-18.372-10.234-10.122-7.05-31.146-11.926Zm-300.274,5.963a5.97,5.97,0,0,1,5.963-5.963H281.968a.264.264,0,0,1-.015.029,20.388,20.388,0,0,0-1.78,11.9H165.851a5.968,5.968,0,0,1-5.963-5.962ZM289.55,173.435a21.519,21.519,0,0,0,3.837,2.074l17.375,7.645c-4.2.286-11.162.676-27.651,1.671l-27.754-11.39Zm-3.816,46.674-61.786-39.9a6.89,6.89,0,0,1,1.23-.7,6.7,6.7,0,0,1,5.3-.072L279,199.352a7.55,7.55,0,0,0,3.3.548c32.876-1.99,31.293-1.764,38.831-2.689a12.8,12.8,0,0,0,11.209-11.724c.673-9.277-7.061-12.485-11.681-14.4-.7-.29-1.438-.6-2.2-.932l-19.117-8.411c-.063-.027-.125-.054-.188-.079a6.806,6.806,0,0,1-4.073-4.991,6.694,6.694,0,0,1-.109-.773c0-.014,0-.028-.005-.043l37.321,8.655L390.433,196.9c2.1,1.173,3.483.948,8,.948v31.739c-43-4.4-11.076-1.637-112.7-9.478Zm127.7-22.26h13.809v52.626H413.434Zm50.453,62.188H442.243V197.848h21.644Z" fill="#a3159d"/>
  </g>
</svg>
