<svg xmlns="http://www.w3.org/2000/svg" width="20" height="18.301" viewBox="0 0 20 18.301">
  <g id="water" transform="translate(-2 -3)">
    <path id="Path_34" data-name="Path 34" d="M3.18,20.92a2,2,0,0,0,1.22.38,2,2,0,0,0,1.21-.38,1.14,1.14,0,0,1,.69-.22,1.08,1.08,0,0,1,.68.22,2,2,0,0,0,1.22.38,2,2,0,0,0,1.21-.38,1.16,1.16,0,0,1,1.36,0,2.15,2.15,0,0,0,2.44,0,1.16,1.16,0,0,1,1.36,0,2.132,2.132,0,0,0,2.43,0,1.19,1.19,0,0,1,1.38,0,2.13,2.13,0,0,0,2.43,0,1.14,1.14,0,0,1,.69-.22H22v-1h-.5a2,2,0,0,0-1.22.38,1.18,1.18,0,0,1-1.37,0,2.15,2.15,0,0,0-2.44,0,1.16,1.16,0,0,1-1.36,0,2.15,2.15,0,0,0-2.44,0,1.16,1.16,0,0,1-1.36,0,2.132,2.132,0,0,0-2.43,0,1.18,1.18,0,0,1-1.37,0A2,2,0,0,0,6.3,19.7a2,2,0,0,0-1.22.38,1.08,1.08,0,0,1-.68.22,1.08,1.08,0,0,1-.68-.22A2,2,0,0,0,2.5,19.7H2v1h.5A1.08,1.08,0,0,1,3.18,20.92Z" fill="#a3159d"/>
    <path id="Path_35" data-name="Path 35" d="M3.18,17.92a2,2,0,0,0,1.22.38,2,2,0,0,0,1.21-.38,1.14,1.14,0,0,1,.69-.22,1.08,1.08,0,0,1,.68.22,2,2,0,0,0,1.22.38,2,2,0,0,0,1.21-.38,1.16,1.16,0,0,1,1.36,0,2.15,2.15,0,0,0,2.44,0,1.16,1.16,0,0,1,1.36,0,2.132,2.132,0,0,0,2.43,0,1.19,1.19,0,0,1,1.38,0,2.13,2.13,0,0,0,2.43,0,1.14,1.14,0,0,1,.69-.22H22v-1h-.5a2,2,0,0,0-1.22.38,1.18,1.18,0,0,1-1.37,0,2.15,2.15,0,0,0-2.44,0,1.16,1.16,0,0,1-1.36,0,2.15,2.15,0,0,0-2.44,0,1.16,1.16,0,0,1-1.36,0,2.132,2.132,0,0,0-2.43,0,1.18,1.18,0,0,1-1.37,0A2,2,0,0,0,6.3,16.7a2,2,0,0,0-1.22.38,1.08,1.08,0,0,1-.68.22,1.08,1.08,0,0,1-.68-.22A2,2,0,0,0,2.5,16.7H2v1h.5A1.08,1.08,0,0,1,3.18,17.92Z" fill="#a3159d"/>
    <path id="Path_36" data-name="Path 36" d="M3.18,14.92a2,2,0,0,0,1.22.38,2,2,0,0,0,1.21-.38,1.14,1.14,0,0,1,.69-.22,1.08,1.08,0,0,1,.68.22,2,2,0,0,0,1.22.38,2,2,0,0,0,1.21-.38,1.16,1.16,0,0,1,1.36,0,2.15,2.15,0,0,0,2.44,0,1.16,1.16,0,0,1,1.36,0,2.132,2.132,0,0,0,2.43,0,1.19,1.19,0,0,1,1.38,0,2.13,2.13,0,0,0,2.43,0,1.14,1.14,0,0,1,.69-.22H22v-1h-.5a2,2,0,0,0-1.22.38,1.18,1.18,0,0,1-1.37,0,2.15,2.15,0,0,0-2.44,0,1.16,1.16,0,0,1-.47.2V10h6V9H16V5.5a1.5,1.5,0,0,1,3,0V6h1V5.5a2.5,2.5,0,0,0-5,0V7.08H9V5.5a1.5,1.5,0,0,1,3,0V6h1V5.5a2.5,2.5,0,1,0-5,0V9H2v1H8v4.29a1.26,1.26,0,0,1-.49-.21A2,2,0,0,0,6.3,13.7a2,2,0,0,0-1.22.38,1.08,1.08,0,0,1-.68.22,1.08,1.08,0,0,1-.68-.22A2,2,0,0,0,2.5,13.7H2v1h.5a1.08,1.08,0,0,1,.68.22ZM9,10V8.08h6v3H9Zm6,2.08V14a2.145,2.145,0,0,0-2.33.07,1.16,1.16,0,0,1-1.36,0,2,2,0,0,0-1.22-.38A1.94,1.94,0,0,0,9,14V12.08Z" fill="#a3159d"/>
  </g>
</svg>
