<svg xmlns="http://www.w3.org/2000/svg" width="47.989" height="42.417" viewBox="0 0 47.989 42.417">
  <g id="weights" transform="translate(-0.011 -2.791)">
    <path id="Path_37" data-name="Path 37" d="M30.5,26.556,25.987,24.47c-2.746-1.269-6.218.074-8.726,3.051l-3.943-2.155c-.875-.407-2.107.338-2.692,1.6a3.26,3.26,0,0,0-.3,1.884,1.53,1.53,0,0,0,.774,1.184l3.651,2c-1.511,4.558-.377,9.117,2.842,10.6l4.517,2.085a5.35,5.35,0,0,0,2.258.489,7.222,7.222,0,0,0,3.667-1.1,12.364,12.364,0,0,0,4.736-5.49C35.089,33.617,34.07,28.2,30.5,26.556ZM11.849,28.737a.561.561,0,0,1-.039-.137,1.808,1.808,0,0,1,.177-1,1.585,1.585,0,0,1,.757-.84l3.606,1.973a13.963,13.963,0,0,0-1.024,1.834c-.008.019-.015.038-.024.057ZM16.688,31.2c1.966-4.257,5.854-6.663,8.671-5.365l1.107.512a8.165,8.165,0,0,0-1.886.821,12.361,12.361,0,0,0-4.736,5.489,12.377,12.377,0,0,0-1.108,7.166,8.2,8.2,0,0,0,.6,1.967l-1.1-.51C15.413,39.976,14.722,35.454,16.688,31.2ZM31.415,38a10.872,10.872,0,0,1-4.14,4.828,4.834,4.834,0,0,1-4.531.536,4.838,4.838,0,0,1-2.529-3.8,10.867,10.867,0,0,1,.99-6.283,10.862,10.862,0,0,1,4.14-4.828,5.752,5.752,0,0,1,2.9-.885,3.869,3.869,0,0,1,1.627.348C32.69,29.217,33.381,33.739,31.415,38Z" fill="#a3159d"/>
    <path id="Path_38" data-name="Path 38" d="M12.46,35.505a4.5,4.5,0,0,1-3.791.153c-1.628-.752-2.619-2.675-2.65-5.145a.75.75,0,0,0-.75-.74h-.01a.75.75,0,0,0-.74.76,8.869,8.869,0,0,0,.752,3.555l-1.12-.516a4.841,4.841,0,0,1-2.53-3.8,10.875,10.875,0,0,1,.991-6.283,10.868,10.868,0,0,1,4.14-4.828,4.844,4.844,0,0,1,4.53-.537.457.457,0,0,0,.046.02l1.087.5a11.322,11.322,0,0,0-6.647,6.3,13.784,13.784,0,0,0-.982,2.942.75.75,0,0,0,.578.889.768.768,0,0,0,.157.016.749.749,0,0,0,.732-.6,12.346,12.346,0,0,1,.876-2.623c1.966-4.256,5.855-6.668,8.671-5.364a4.915,4.915,0,0,1,2.564,4.013.75.75,0,1,0,1.485-.214,6.434,6.434,0,0,0-3.42-5.161L11.913,16.76l-.05-.021a6.3,6.3,0,0,0-5.876.63,12.367,12.367,0,0,0-4.736,5.489c-2.313,5.015-1.295,10.43,2.271,12.077L8.04,37.02a5.334,5.334,0,0,0,2.249.482,6.848,6.848,0,0,0,2.784-.627.75.75,0,1,0-.613-1.37Z" fill="#a3159d"/>
    <path id="Path_39" data-name="Path 39" d="M35.259,30.562a.75.75,0,0,0,.018,1.5H35.3a5.454,5.454,0,1,0-5.138-7.627.75.75,0,1,0,1.375.6,3.954,3.954,0,1,1,3.726,5.529Z" fill="#a3159d"/>
    <path id="Path_40" data-name="Path 40" d="M46.729,6.509A8.022,8.022,0,0,0,39.94,2.791H30.465a8.056,8.056,0,0,0-7.309,11.441l2.529,5.459A11.826,11.826,0,0,0,24.27,22.24a.75.75,0,1,0,1.392.558A10.331,10.331,0,0,1,27.1,20.3a.34.34,0,0,0,.023-.03,10.156,10.156,0,0,1,2.352-2.179h0c.006,0,.009-.008.015-.01A10.236,10.236,0,1,1,40.332,35.439H35.2a.75.75,0,0,0,0,1.5h5.329a.747.747,0,0,0,.367-.1,11.7,11.7,0,0,0,3.784-17.06l2.57-5.548A8.023,8.023,0,0,0,46.729,6.509Zm-.84,7.092-2.27,4.9a11.8,11.8,0,0,0-1.464-1.287l2.037-4.4A4.684,4.684,0,0,0,39.94,6.161H39a.75.75,0,0,0,0,1.5h.937a3.184,3.184,0,0,1,2.891,4.524l-1.94,4.195A11.721,11.721,0,0,0,29.5,16.329l-1.92-4.144a3.184,3.184,0,0,1,2.89-4.524h6.291a.75.75,0,0,0,0-1.5h-6.3a4.686,4.686,0,0,0-4.251,6.655l2.006,4.329a11.643,11.643,0,0,0-1.469,1.277L24.518,13.6a6.554,6.554,0,0,1,5.947-9.311H39.94a6.555,6.555,0,0,1,5.949,9.31Z" fill="#a3159d"/>
  </g>
</svg>
